<svg height="400pt" viewBox="-48 0 400 400" width="400pt" xmlns="http://www.w3.org/2000/svg" xmlns:xlink="http://www.w3.org/1999/xlink"><linearGradient id="a" gradientTransform="matrix(1 0 0 -1 -104.24587 458)" gradientUnits="userSpaceOnUse" x1="255.12" x2="258.947" y1="-49.759" y2="463.061"><stop offset=".322" stop-color="#a163f5"/><stop offset=".466" stop-color="#b074ee"/><stop offset=".752" stop-color="#d8a1dd"/><stop offset=".898" stop-color="#efbad3"/></linearGradient><path d="m302.019531 384.753906-140.265625-227.601562v-50.851563h116.355469c5.148437 0 9.839844-2.949219 12.074219-7.585937 2.230468-4.640625 1.605468-10.148438-1.609375-14.167969l-25.082031-31.398437 25.082031-31.402344c3.210937-4.019532 3.832031-9.523438 1.601562-14.160156-2.230469-4.636719-6.917969-7.585938-12.066406-7.585938h-122.960937c-7.394532.0078125-13.386719 6-13.394532 13.394531v143.757813l-75.863281 123.101562-.019531.03125-64.382813 104.46875c-1.902343 3.085938-1.984375 6.957032-.21875 10.121094s5.105469 5.125 8.730469 5.125h283.507812c3.625 0 6.964844-1.960938 8.730469-5.125 1.769531-3.164062 1.683594-7.035156-.21875-10.121094zm-140.265625-364.753906h102.621094l-21.5 26.90625c-2.914062 3.652344-2.914062 8.832031 0 12.484375l21.5 26.90625h-102.621094zm-10.136718 159.269531c.046874 0 .089843.007813.136718.007813s.09375-.007813.136719-.007813l62.542969 101.484375-9.695313 12.816406-25.191406-24.523437c-3.882813-3.78125-10.066406-3.78125-13.949219 0l-47.003906 45.761719-31.566406-30.734375zm-123.707032 200.730469 48.363282-78.476562 35.34375 34.40625c3.882812 3.78125 10.066406 3.78125 13.949218 0l47.003906-45.761719 26.335938 25.636719c2.054688 2 4.871094 3.023437 7.730469 2.808593 2.859375-.21875 5.492187-1.652343 7.222656-3.941406l11.832031-15.648437 49.90625 80.976562zm0 0" fill="url(#a)"/></svg>