<svg height="400pt" viewBox="-42 0 400 400.05562" width="400pt" xmlns="http://www.w3.org/2000/svg" xmlns:xlink="http://www.w3.org/1999/xlink"><linearGradient id="a" gradientTransform="matrix(1 0 0 -1 -97.57919 458.055621)" gradientUnits="userSpaceOnUse" x1="253.431" x2="257.258" y1="4.776" y2="517.596"><stop offset=".322" stop-color="#a163f5"/><stop offset=".466" stop-color="#b074ee"/><stop offset=".752" stop-color="#d8a1dd"/><stop offset=".898" stop-color="#efbad3"/></linearGradient><path d="m312.148438 21.679688c-2.90625-1.832032-6.546876-2.042969-9.644532-.5625l-21.507812 10.273437c-30.363282 14.570313-66.316406 11.003906-93.222656-9.253906-32.859376-24.734375-76.765626-29.09375-113.847657-11.296875l-10.890625 5.199218c-4.984375-8.738281-14.269531-14.136718-24.332031-14.144531h-10.648437c-15.472657.019531-28.0117192 12.558594-28.0273442 28.035157v342.097656c.0195312 15.472656 12.5546872 28.011718 28.0273442 28.027344h10.648437c15.472656-.015626 28.011719-12.554688 28.027344-28.027344v-177.105469l15.816406-7.554687c30.367187-14.574219 66.320313-11.003907 93.226563 9.25 32.859374 24.738281 76.765624 29.09375 113.847656 11.296874l21.5-10.273437c3.476562-1.660156 5.6875-5.171875 5.6875-9.023437v-158.476563c.003906-3.433594-1.757813-6.628906-4.660156-8.460937zm-265.417969 350.347656c-.003907 4.433594-3.59375 8.023437-8.027344 8.027344h-10.648437c-4.429688-.003907-8.023438-3.59375-8.027344-8.027344v-342.097656c.003906-4.433594 3.597656-8.023438 8.027344-8.027344h10.648437c4.433594.003906 8.023437 3.59375 8.027344 8.027344zm250.082031-189.714844-15.816406 7.558594c-30.363282 14.570312-66.316406 11.003906-93.222656-9.253906-32.859376-24.738282-76.765626-29.09375-113.84375-11.300782l-7.203126 3.4375v-136.308594l15.816407-7.558593c30.363281-14.570313 66.320312-11.003907 93.226562 9.253906 32.859375 24.734375 76.765625 29.09375 113.84375 11.300781l7.199219-3.441406zm0 0" fill="url(#a)"/></svg>