<svg height="450pt" viewBox="-34 0 449 450" width="450pt" xmlns="http://www.w3.org/2000/svg" xmlns:xlink="http://www.w3.org/1999/xlink"><linearGradient id="a"><stop offset=".322" stop-color="#a163f5"/><stop offset=".466" stop-color="#b074ee"/><stop offset=".752" stop-color="#d8a1dd"/><stop offset=".898" stop-color="#efbad3"/></linearGradient><linearGradient id="b" gradientTransform="matrix(1 0 0 -1 -65.5 483)" gradientUnits="userSpaceOnUse" x1="236" x2="236" xlink:href="#a" y1="-54" y2="536.979"/><linearGradient id="c" gradientTransform="matrix(1 0 0 -1 -65.5 483)" gradientUnits="userSpaceOnUse" x1="256" x2="256" xlink:href="#a" y1="-54" y2="536.979"/><path d="m170.5 221c28.554688 0 51.699219-23.148438 51.699219-51.699219 0-28.554687-23.144531-51.699219-51.699219-51.699219s-51.699219 23.144532-51.699219 51.699219c.035157 28.535157 23.160157 51.660157 51.699219 51.699219zm0-83.300781c17.507812 0 31.699219 14.191406 31.699219 31.699219 0 17.507812-14.191407 31.703124-31.699219 31.703124s-31.699219-14.195312-31.699219-31.703124c.003907-17.503907 14.195313-31.691407 31.699219-31.699219zm0 0" fill="url(#b)"/><path d="m170.5 240.101562c-21.152344-.15625-41.453125 8.332032-56.199219 23.5-15 15.296876-23.199219 36.097657-23.199219 58.699219.015626 5.515625 4.480469 9.984375 10 10h138.796876c5.519531-.015625 9.984374-4.484375 10-10 0-22.601562-8.199219-43.402343-23.199219-58.699219-14.746094-15.167968-35.046875-23.65625-56.199219-23.5zm-58.699219 72.199219c1.710938-13.074219 7.605469-25.246093 16.800781-34.699219 11.066407-11.199218 26.15625-17.5 41.898438-17.5s30.832031 6.300782 41.898438 17.5c9.175781 9.464844 15.066406 21.628907 16.800781 34.699219zm0 0" fill="url(#b)"/><path d="m370.5 103.699219h-30v-53.699219c-.011719-27.609375-22.390625-49.9882812-50-50h-240c-27.609375.0117188-49.988281 22.390625-50 50v350c.011719 27.609375 22.390625 49.988281 50 50h240c27.609375-.011719 49.988281-22.390625 50-50v-53.699219h30c5.515625-.015625 9.984375-4.484375 10-10v-36c-.015625-5.515625-4.484375-9.984375-10-10h-30v-37.300781h30c5.515625-.015625 9.984375-4.484375 10-10v-36c-.015625-5.515625-4.484375-9.984375-10-10h-30v-37.300781h30c5.515625-.015625 9.984375-4.484375 10-10v-36c-.015625-5.515625-4.484375-9.984375-10-10zm-50 296.300781c-.046875 16.546875-13.453125 29.953125-30 30h-240c-16.546875-.046875-29.953125-13.453125-30-30v-350c.046875-16.546875 13.453125-29.953125 30-30h240c16.546875.046875 29.953125 13.453125 30 30zm40-89.699219v16h-20v-16zm0-93.300781v16h-20v-16zm0-77.300781h-20v-16h20zm0 0" fill="url(#c)"/></svg>