<svg height="400pt" viewBox="0 0 400 400" width="400pt" xmlns="http://www.w3.org/2000/svg" xmlns:xlink="http://www.w3.org/1999/xlink"><linearGradient id="a" gradientTransform="matrix(1 0 0 -1 -56 458)" gradientUnits="userSpaceOnUse" x1="256" x2="256" y1="14" y2="444.019"><stop offset=".322" stop-color="#a163f5"/><stop offset=".466" stop-color="#b074ee"/><stop offset=".752" stop-color="#d8a1dd"/><stop offset=".898" stop-color="#efbad3"/></linearGradient><g fill="url(#a)"><path d="m390 190h-52.492188c-5.054687-68.21875-59.289062-122.453125-127.507812-127.507812v-52.492188c0-5.523438-4.476562-10-10-10s-10 4.476562-10 10v52.492188c-68.21875 5.054687-122.453125 59.289062-127.507812 127.507812h-52.492188c-5.523438 0-10 4.476562-10 10s4.476562 10 10 10h52.492188c5.054687 68.21875 59.289062 122.453125 127.507812 127.507812v52.492188c0 5.523438 4.476562 10 10 10s10-4.476562 10-10v-52.492188c68.21875-5.054687 122.453125-59.289062 127.507812-127.507812h52.492188c5.523438 0 10-4.476562 10-10s-4.476562-10-10-10zm-180 127.445312v-31.921874c0-5.523438-4.476562-10-10-10s-10 4.476562-10 10v31.921874c-57.164062-4.949218-102.496094-50.28125-107.445312-107.445312h31.921874c5.523438 0 10-4.476562 10-10s-4.476562-10-10-10h-31.921874c4.949218-57.164062 50.28125-102.496094 107.445312-107.445312v31.921874c0 5.523438 4.476562 10 10 10s10-4.476562 10-10v-31.921874c57.164062 4.949218 102.496094 50.28125 107.445312 107.445312h-31.921874c-5.523438 0-10 4.476562-10 10s4.476562 10 10 10h31.921874c-4.949218 57.164062-50.28125 102.496094-107.445312 107.445312zm0 0"/><path d="m200 153.269531c-25.808594 0-46.730469 20.921875-46.730469 46.730469s20.921875 46.730469 46.730469 46.730469 46.730469-20.921875 46.730469-46.730469c-.027344-25.796875-20.933594-46.703125-46.730469-46.730469zm0 73.460938c-14.765625 0-26.730469-11.964844-26.730469-26.730469s11.964844-26.730469 26.730469-26.730469 26.730469 11.964844 26.730469 26.730469c-.015625 14.757812-11.972657 26.714844-26.730469 26.730469zm0 0"/></g></svg>