<svg height="399pt" viewBox="-22 0 399 399" width="399pt" xmlns="http://www.w3.org/2000/svg" xmlns:xlink="http://www.w3.org/1999/xlink"><linearGradient id="a" gradientUnits="userSpaceOnUse" x1="177.813954" x2="177.813954" y1="387.5002" y2="32.2687"><stop offset=".322" stop-color="#a163f5"/><stop offset=".466" stop-color="#b074ee"/><stop offset=".752" stop-color="#d8a1dd"/><stop offset=".898" stop-color="#efbad3"/></linearGradient><path d="m352.058594 256.101562-33.902344-29.402343s-.097656 0-.097656-.097657c-.101563-.101562-.199219-.203124-.402344-.300781-.097656-.101562-.296875-.199219-.398438-.300781-.101562-.101562-.199218-.199219-.398437-.199219-.101563-.101562-.300781-.199219-.402344-.300781-.097656-.101562-.300781-.101562-.398437-.199219-.101563-.101562-.300782-.101562-.402344-.199219-.097656-.101562-.296875-.101562-.398438-.203124-.199218-.097657-.300781-.097657-.5-.199219-.101562 0-.300781-.097657-.398437-.097657-.203125 0-.300781-.101562-.5-.101562-.101563 0-.300781-.101562-.402344-.101562-.199219 0-.398437-.097657-.597656-.097657-.101563 0-.203125 0-.300781 0-.601563-.101562-1.300782-.101562-1.902344 0-.097656 0-.199219 0-.398438 0-.199218 0-.398437.097657-.601562.097657-.097656 0-.296875.101562-.398438.101562-.199218 0-.300781.101562-.5.101562-.101562 0-.300781.097657-.398437.097657-.101563.101562-.300781.101562-.5.199219-.203125.101562-.300781.101562-.402344.203124-.097656.097657-.300781.097657-.398437.199219-.101563.097657-.300782.097657-.402344.199219-.097656.101562-.296875.199219-.398438.300781-.101562.097657-.199218.199219-.398437.199219-.101563.101562-.300781.199219-.402344.300781-.097656.097657-.199219.199219-.398437.300781 0 0-.101563 0-.101563.097657l-33.898437 29.402343c-4.199219 3.597657-4.601563 9.898438-1 14.097657 3.597656 4.199219 9.898437 4.601562 14.097656 1l17.402344-15.097657c-.5 64.097657-49.902344 117.199219-113.800782 122.5v-222h28.101563c5.5 0 10-4.5 10-10s-4.5-10-10-10h-28.101563v-35.300781c25.800782-5.101562 43.5-29 40.898438-55.199219-2.5-26.101562-24.597656-46.101562-50.898438-46.101562-26.300781 0-48.300781 20-50.898437 46.199219-2.601563 26.199219 15.097656 50.101562 40.898437 55.199219v35.300781h-28.101562c-5.5 0-10 4.5-10 10s4.5 10 10 10h28.101562v222c-63.898437-5.199219-113.300781-58.398438-113.800781-122.5l17.402344 15.101562c4.097656 3.597657 10.398437 3.199219 14.097656-.902343 3.601563-4.097657 3.199219-10.398438-.898437-14.097657l-.101563-.101562-33.898437-29.300781s-.101563-.097657-.101563-.097657c-.097656-.101562-.199219-.199219-.398437-.300781-.101563-.101562-.300782-.199219-.402344-.300781-.097656-.097657-.199219-.199219-.398438-.199219-.101562-.101562-.300781-.199219-.398437-.300781-.101563-.097657-.300781-.097657-.402344-.199219-.097656-.101562-.300781-.101562-.398437-.199219-.101563-.101562-.300782-.101562-.402344-.199219-.199219-.101562-.296875-.101562-.5-.203124-.097656 0-.296875-.097657-.398438-.097657-.199218 0-.300781-.101562-.5-.101562-.101562 0-.300781-.097657-.398437-.097657-.203125 0-.402344-.101562-.601563-.101562-.101562 0-.199218 0-.398437 0-.601563-.101562-1.300781-.101562-1.902344 0-.097656 0-.199219 0-.398437 0-.199219 0-.402344.101562-.601563.101562-.097656 0-.300781.097657-.398437.097657-.199219 0-.300782.101562-.5.101562-.101563 0-.300782.097657-.402344.097657-.097656 0-.296875.101562-.5.203124-.199219.097657-.296875.097657-.398438.199219-.101562.097657-.300781.097657-.398437.199219-.101563.101562-.300781.101562-.402344.199219-.097656.101562-.300781.199219-.398437.300781-.101563.101562-.199219.199219-.402344.199219-.097656.101562-.296875.199219-.398438.300781-.101562.101562-.199218.199219-.398437.300781 0 0-.101563 0-.101563.097657l-33.898437 29.300781c-4.101563 3.601562-4.5 9.902343-.902344 14 3.601563 4.101562 9.800781 4.601562 14 1.101562l17.402344-15.101562c.699219 78.800781 65 142.800781 143.898437 142.800781 79 0 143.300782-64 143.699219-142.898438l17.402344 15.097657c4.199219 3.601562 10.398437 3.101562 14-1.097657 3.699219-4.101562 3.296875-10.402343-.800781-14zm-205.5-204.902343c0-17.199219 14-31.199219 31.199218-31.199219 17.199219 0 31.199219 14 31.199219 31.199219s-14 31.199219-31.199219 31.199219c-17.199218 0-31.199218-14-31.199218-31.199219zm0 0" fill="url(#a)"/></svg>