<svg height="360pt" viewBox="-2 0 360 360" width="360pt" xmlns="http://www.w3.org/2000/svg" xmlns:xlink="http://www.w3.org/1999/xlink"><linearGradient id="a"><stop offset=".322" stop-color="#a163f5"/><stop offset=".466" stop-color="#b074ee"/><stop offset=".752" stop-color="#d8a1dd"/><stop offset=".898" stop-color="#efbad3"/></linearGradient><linearGradient id="b" gradientUnits="userSpaceOnUse" x1="177.5352" x2="177.5352" xlink:href="#a" y1="352" y2="9.9985"/><linearGradient id="c" gradientUnits="userSpaceOnUse" x1="163.2402" x2="163.2402" xlink:href="#a" y1="352" y2="9.9985"/><linearGradient id="d" gradientUnits="userSpaceOnUse" x1="207.8496" x2="207.8496" xlink:href="#a" y1="352" y2="9.9985"/><path d="m345.101562 0h-266.300781c-5.5 0-9.902343 4.398438-10 9.898438l-2.402343 235.5h-56.398438c-5.5 0-10 4.5-10 10v37.203124c0 35.699219 27.300781 64.898438 61.800781 67.199219.597657.097657 1.199219.199219 1.800781.199219h221.898438c.398438 0 .699219 0 1.101562-.101562.796876 0 1.597657.101562 2.398438.101562 36.5 0 66.199219-30.199219 66.199219-67.398438v-282.601562c-.097657-5.5-4.597657-10-10.097657-10zm-325.101562 292.601562v-27.203124h202.699219v27.203124c0 17.699219 6.800781 34.699219 19.199219 47.398438h-175.699219c-25.5 0-46.199219-21.300781-46.199219-47.398438zm315.101562 0c0 26.097657-20.703124 47.398438-46.203124 47.398438s-46.199219-21.300781-46.199219-47.398438v-37.203124c0-5.5-4.5-10-10-10h-146.300781l2.300781-225.398438h246.300781v272.601562zm0 0" fill="url(#b)"/><path d="m139.898438 74.300781h46.703124c5.5 0 10-4.5 10-10s-4.5-10-10-10h-46.703124c-5.5 0-10 4.5-10 10s4.402343 10 10 10zm0 0" fill="url(#c)"/><g fill="url(#d)"><path d="m139.898438 140.199219h136c5.5 0 10-4.5 10-10s-4.5-10-10-10h-136c-5.5 0-10 4.5-10 10s4.402343 10 10 10zm0 0"/><path d="m139.898438 206h136c5.5 0 10-4.5 10-10s-4.5-10-10-10h-136c-5.5 0-10 4.5-10 10s4.402343 10 10 10zm0 0"/></g></svg>