<svg height="400pt" viewBox="0 -59 400 400" width="400pt" xmlns="http://www.w3.org/2000/svg" xmlns:xlink="http://www.w3.org/1999/xlink"><linearGradient id="a"><stop offset=".322" stop-color="#a163f5"/><stop offset=".466" stop-color="#b074ee"/><stop offset=".752" stop-color="#d8a1dd"/><stop offset=".898" stop-color="#efbad3"/></linearGradient><linearGradient id="b" gradientTransform="matrix(1 0 0 -1 -56 398.546)" gradientUnits="userSpaceOnUse" x1="254.016" x2="257.843" xlink:href="#a" y1="-7.811" y2="505.01"/><linearGradient id="c" gradientTransform="matrix(1 0 0 -1 -56 398.546)" gradientUnits="userSpaceOnUse" x1="167.436" x2="171.263" xlink:href="#a" y1="-7.165" y2="505.656"/><path d="m350 0h-300c-27.601562.03125-49.96875 22.398438-50 50v181.09375c.03125 27.597656 22.398438 49.96875 50 50h300c27.601562-.03125 49.96875-22.402344 50-50v-181.09375c-.03125-27.601562-22.398438-49.96875-50-50zm-300 20h300c16.5625.019531 29.980469 13.4375 30 30v2.734375h-360v-2.734375c.019531-16.5625 13.4375-29.980469 30-30zm330 52.734375v35.113281h-360v-35.113281zm-30 188.359375h-300c-16.5625-.019531-29.980469-13.441406-30-30v-103.246094h360v103.246094c-.019531 16.558594-13.4375 29.980469-30 30zm0 0" fill="url(#b)"/><path d="m134.378906 150.945312c-7.488281-.003906-14.847656 1.957032-21.34375 5.6875-18.09375-10.359374-41.011718-6.257812-54.394531 9.730469-13.386719 15.992188-13.386719 39.273438 0 55.261719 13.382813 15.992188 36.300781 20.089844 54.394531 9.734375 15.691406 8.964844 35.3125 7.171875 49.121094-4.484375 13.808594-11.660156 18.863281-30.703125 12.65625-47.675781-6.210938-16.972657-22.359375-28.257813-40.433594-28.253907zm-23.050781 43.050782c0-2.980469.578125-5.933594 1.707031-8.691406 2.277344 5.570312 2.277344 11.8125 0 17.382812-1.125-2.757812-1.707031-5.710938-1.707031-8.6875zm-42.683594 0c0-7.148438 3.316407-13.894532 8.976563-18.257813 5.664062-4.363281 13.027344-5.851562 19.941406-4.03125-8.308594 13.695313-8.308594 30.878907 0 44.578125-6.914062 1.820313-14.28125.332032-19.941406-4.035156-5.660156-4.363281-8.976563-11.105469-8.976563-18.253906zm65.734375 23.050781c-1.980468 0-3.953125-.257813-5.867187-.761719 8.308593-13.699218 8.308593-30.878906 0-44.578125 8.648437-2.277343 17.835937.65625 23.566406 7.527344 5.726563 6.867187 6.964844 16.429687 3.175781 24.53125-3.792968 8.101563-11.929687 13.277344-20.875 13.28125zm0 0" fill="url(#c)"/></svg>