<svg height="400pt" viewBox="-92 0 400 400" width="400pt" xmlns="http://www.w3.org/2000/svg" xmlns:xlink="http://www.w3.org/1999/xlink"><linearGradient id="a" gradientUnits="userSpaceOnUse" x1="107.6025" x2="107.6025" y1="389" y2="12.9987"><stop offset=".322" stop-color="#a163f5"/><stop offset=".466" stop-color="#b074ee"/><stop offset=".752" stop-color="#d8a1dd"/><stop offset=".898" stop-color="#efbad3"/></linearGradient><path d="m136.800781 0c-43.199219 0-78.402343 34.101562-78.402343 76v183.199219c0 26.402343 22.101562 47.800781 49.203124 47.800781 27.097657 0 49.199219-21.5 49.199219-47.800781v-93.097657c0-5.5-4.5-10-10-10s-10 4.5-10 10v93.097657c0 15.300781-13.101562 27.800781-29.199219 27.800781-16.101562 0-29.203124-12.5-29.203124-27.800781v-183.199219c0-30.898438 26.203124-56 58.402343-56s58.398438 25.101562 58.398438 56v219.699219c0 46.402343-39.300781 84.199219-87.597657 84.199219-48.300781 0-87.601562-37.796876-87.601562-84.199219v-129.5c0-5.5-4.5-10-10-10s-10 4.5-10 10v129.601562c0 57.5 48.300781 104.199219 107.601562 104.199219 59.296876 0 107.597657-46.800781 107.597657-104.199219v-219.800781c0-41.898438-35.199219-76-78.398438-76zm0 0" fill="url(#a)"/></svg>