<svg height="420pt" viewBox="0 -63 420.10015 420" width="420pt" xmlns="http://www.w3.org/2000/svg" xmlns:xlink="http://www.w3.org/1999/xlink"><linearGradient id="a" gradientTransform="matrix(1 0 0 -1 -45.999845 405.050395)" gradientUnits="userSpaceOnUse" x1="256.05" x2="256.05" y1="17.518" y2="570.222"><stop offset=".322" stop-color="#a163f5"/><stop offset=".466" stop-color="#b074ee"/><stop offset=".752" stop-color="#d8a1dd"/><stop offset=".898" stop-color="#efbad3"/></linearGradient><path d="m415.101562 1.550781c-3.035156-1.8125-6.796874-1.890625-9.902343-.199219l-156.800781 85.898438v-77.199219c.011718-3.613281-1.941407-6.945312-5.097657-8.699219-3.144531-1.769531-6.992187-1.730468-10.101562.097657l-228.300781 137c-3.019532 1.820312-4.8750005 5.078125-4.898438 8.601562-.0195312 3.535157 1.847656 6.8125 4.898438 8.601563l228.402343 136.898437c3.101563 1.839844 6.953125 1.878907 10.089844.105469 3.140625-1.777344 5.089844-5.097656 5.109375-8.707031v-77.199219l156.800781 85.902344c3.109375 1.667968 6.859375 1.589844 9.898438-.203125 3.019531-1.816407 4.878906-5.074219 4.902343-8.597657v-273.699218c-.109374-3.527344-1.988281-6.765625-5-8.601563zm-15.101562 265.5-156.800781-85.898437c-3.105469-1.671875-6.859375-1.59375-9.898438.199218-3.019531 1.816407-4.875 5.074219-4.902343 8.597657v76.402343l-199-119.300781 198.902343-119.199219v76.398438c.023438 3.523438 1.878907 6.78125 4.898438 8.601562 3.035156 1.8125 6.796875 1.886719 9.902343.199219l156.898438-86zm0 0" fill="url(#a)"/></svg>