<svg height="439pt" viewBox="-58 0 439 439.9" width="439pt" xmlns="http://www.w3.org/2000/svg" xmlns:xlink="http://www.w3.org/1999/xlink"><linearGradient id="a" gradientTransform="matrix(1 0 0 -1 -94.55 477.9)" gradientUnits="userSpaceOnUse" x1="256.1" x2="256.1" y1="34" y2="488.542"><stop offset=".322" stop-color="#a163f5"/><stop offset=".466" stop-color="#b074ee"/><stop offset=".752" stop-color="#d8a1dd"/><stop offset=".898" stop-color="#efbad3"/></linearGradient><path d="m312.550781 112.101562h-61.699219v-25.300781c0-47.9375-38.863281-86.800781-86.800781-86.800781s-86.800781 38.863281-86.800781 86.800781v25.300781h-66.800781c-5.515625.015626-9.984375 4.480469-10 10v267.796876c.011719 27.613281 22.390625 49.992187 50 50h222.199219c27.613281-.007813 49.992187-22.386719 50-50v-267.796876c-.0625-5.539062-4.5625-9.992187-10.097657-10zm-215.402343-25.402343c0-36.890625 29.910156-66.800781 66.800781-66.800781 36.894531 0 66.800781 29.910156 66.800781 66.800781v25.300781h-133.601562zm205.402343 303.199219c-.050781 16.550781-13.453125 29.953124-30 30h-222.199219c-16.550781-.046876-29.953124-13.449219-30-30v-257.796876h56.796876v40.699219c0 5.523438 4.480468 10 10 10 5.523437 0 10-4.476562 10-10v-40.699219h133.703124v40.699219c0 5.523438 4.476563 10 10 10 5.519532 0 10-4.476562 10-10v-40.699219h51.699219zm0 0" fill="url(#a)"/></svg>