<svg height="429pt" viewBox="0 0 429.96113 429" width="429pt" xmlns="http://www.w3.org/2000/svg" xmlns:xlink="http://www.w3.org/1999/xlink"><linearGradient id="a" gradientTransform="matrix(1 0 0 -1 -40.999333 473.481185)" gradientUnits="userSpaceOnUse" x1="256" x2="256" y1="17.518" y2="570.222"><stop offset=".322" stop-color="#a163f5"/><stop offset=".466" stop-color="#b074ee"/><stop offset=".752" stop-color="#d8a1dd"/><stop offset=".898" stop-color="#efbad3"/></linearGradient><path d="m215 .480469c-86.960938-.015625-165.363281 52.363281-198.640625 132.707031-33.273437 80.34375-14.867187 172.820312 46.640625 234.292969 83.949219 83.949219 220.054688 83.949219 304 0 83.949219-83.945313 83.949219-220.050781 0-304-40.222656-40.453125-94.953125-63.136719-152-63zm-137.898438 352.902343c-73.382812-73.40625-76.414062-191.425781-6.902343-268.5l275.402343 275.398438c-76.402343 69-194.800781 66.699219-268.5-6.898438zm282.699219-7.300781-275.398437-275.402343c77.125-69.378907 195.035156-66.347657 268.5 6.902343 73.378906 73.402344 76.414062 191.421875 6.898437 268.5zm0 0" fill="url(#a)"/></svg>