<svg height="400pt" viewBox="-42 0 400 400.30054" width="400pt" xmlns="http://www.w3.org/2000/svg" xmlns:xlink="http://www.w3.org/1999/xlink"><linearGradient id="a" gradientTransform="matrix(1 0 0 -1 -98.09773 458.301012)" gradientUnits="userSpaceOnUse" x1="256.002" x2="256.002" y1="14" y2="444.019"><stop offset=".322" stop-color="#a163f5"/><stop offset=".466" stop-color="#b074ee"/><stop offset=".752" stop-color="#d8a1dd"/><stop offset=".898" stop-color="#efbad3"/></linearGradient><path d="m291.03125 244.117188v-62.4375c0-60.304688-39.421875-111.476563-93.578125-128.546876v-13.28125c.167969-21.851562-17.417969-39.695312-39.269531-39.851562-21.851563-.152344-39.6875 17.441406-39.832032 39.289062v.5625 13.28125c-54.148437 17.066407-93.574218 68.242188-93.574218 128.546876v62.4375c-15.003906 6.960937-24.609375 21.988281-24.628906 38.527343v20.238281c.027343 23.449219 19.03125 42.449219 42.480468 42.476563h53.941406c3.449219 31.273437 29.871094 54.941406 61.332032 54.941406 31.464844 0 57.886718-23.667969 61.335937-54.941406h53.941407c23.449218-.027344 42.453124-19.027344 42.480468-42.476563v-20.238281c-.019531-16.539062-9.625-31.566406-24.628906-38.527343zm-152.679688-204.265626c-.113281-10.800781 8.550782-19.648437 19.351563-19.757812s19.644531 8.5625 19.75 19.363281v.394531 8.671876c-12.964844-1.9375-26.140625-1.9375-39.101563 0zm19.550782 27.21875c62.378906 0 113.128906 51.414063 113.128906 114.609376v58.488281h-226.257812v-58.488281c0-63.195313 50.75-114.609376 113.128906-114.609376zm0 313.230469c-20.414063-.027343-37.816406-14.804687-41.15625-34.941406h82.3125c-3.339844 20.136719-20.742188 34.914063-41.15625 34.941406zm137.753906-77.417969c-.011719 12.40625-10.070312 22.464844-22.480469 22.476563h-230.546875c-12.410156-.011719-22.46875-10.070313-22.480468-22.476563v-20.238281c.011718-12.40625 10.070312-22.464843 22.480468-22.476562h230.546875c12.410157.011719 22.46875 10.070312 22.480469 22.476562zm0 0" fill="url(#a)"/></svg>