<svg height="419pt" viewBox="0 -61 419.99515 419" width="419pt" xmlns="http://www.w3.org/2000/svg" xmlns:xlink="http://www.w3.org/1999/xlink"><linearGradient id="a"><stop offset=".322" stop-color="#a163f5"/><stop offset=".466" stop-color="#b074ee"/><stop offset=".752" stop-color="#d8a1dd"/><stop offset=".898" stop-color="#efbad3"/></linearGradient><linearGradient id="b" gradientTransform="matrix(1 0 0 -1 -45.99893 406.598475)" gradientUnits="userSpaceOnUse" x1="255.99" x2="255.99" xlink:href="#a" y1="3.998" y2="508.995"/><linearGradient id="c" gradientTransform="matrix(1 0 0 -1 -45.99893 406.598475)" gradientUnits="userSpaceOnUse" x1="135.451" x2="135.451" xlink:href="#a" y1="3.998" y2="508.995"/><linearGradient id="d" gradientTransform="matrix(1 0 0 -1 -45.99893 406.598475)" gradientUnits="userSpaceOnUse" x1="375.373" x2="375.373" xlink:href="#a" y1="3.998" y2="508.995"/><path d="m417.292969 185.386719c-1.53125-6.070313-3.699219-11.957031-6.46875-17.570313l-46.039063-124.136718c-9.761718-29.320313-39.316406-47.261719-69.835937-42.394532-30.515625 4.871094-53.023438 31.117188-53.175781 62.019532l-.085938 17.964843h-63.375l-.082031-17.960937c-.152344-30.902344-22.660157-57.152344-53.175781-62.023438-30.519532-4.867187-60.074219 13.074219-69.839844 42.394532l-46.039063 124.136718c-2.769531 5.613282-4.9375 11.5-6.46875 17.570313-.03125.125-.0625.246093-.089843.371093-10.90625 44.105469 12.976562 89.378907 55.535156 105.273438 42.5625 15.894531 90.277344-2.640625 110.949218-43.09375l22.335938 13.171875c11.449219 6.742187 25.644531 6.765625 37.117188.0625l22.40625-13.109375c20.726562 40.394531 68.425781 58.851562 110.945312 42.9375 42.519531-15.917969 66.371094-61.164062 55.476562-105.238281-.027343-.128907-.054687-.25-.089843-.375zm-112.378907-164.886719c18.617188-.027344 35.136719 11.925781 40.933594 29.621094.039063.117187.082032.230468.125.347656l29.457032 79.429688c-37.953126-22.0625-86.308594-13.277344-114.074219 20.726562l.417969-87.222656c.160156-23.722656 19.417968-42.875 43.140624-42.902344zm-63.324218 80.769531-.289063 60.371094h-62.613281l-.28125-60.371094zm-167.558594-50.800781c.042969-.117188.082031-.234375.121094-.351562 6.617187-20.070313 26.808594-32.390626 47.683594-29.09375 20.875 3.296874 36.285156 21.238281 36.394531 42.375l.40625 87.207031c-27.769531-33.988281-76.121094-42.765625-114.066407-20.707031zm15.421875 226.230469c-21.320313.007812-41.464844-9.78125-54.628906-26.546875-13.167969-16.769532-17.902344-38.660156-12.835938-59.367188l5.523438-14.886718c14.492187-28.65625 46.75-43.636719 77.996093-36.21875 31.242188 7.417968 53.324219 35.292968 53.394532 67.40625v.273437c-.105469 38.292969-31.15625 69.292969-69.449219 69.339844zm129.003906-32.789063c-5.207031 3.042969-11.65625 3.03125-16.855469-.03125l-25.359374-14.953125c1.699218-6.8125 2.589843-13.804687 2.652343-20.828125 0-.078125.011719-.15625.011719-.234375v-.976562l-.121094-25.25h62.414063l-.105469 22.445312c0 .25.015625.492188.035156.738281-.023437.804688-.035156 1.617188-.035156 2.425782-.003906 7.363281.902344 14.699218 2.699219 21.835937zm112.09375 32.789063c-34.195312.015625-63.3125-24.859375-68.640625-58.632813-5.324218-33.777344 14.722656-66.402344 47.261719-76.910156s67.882813 4.230469 83.316406 34.742188l5.523438 14.890624c5.066406 20.710938.332031 42.597657-12.835938 59.363282-13.167969 16.769531-33.308593 26.554687-54.625 26.546875zm0 0" fill="url(#b)"/><path d="m89.453125 155.558594c-28.546875 0-51.691406 23.140625-51.691406 51.6875s23.140625 51.691406 51.6875 51.691406c28.550781 0 51.691406-23.140625 51.691406-51.6875-.03125-28.535156-23.152344-51.65625-51.6875-51.691406zm0 83.378906c-17.5 0-31.691406-14.1875-31.691406-31.6875 0-17.503906 14.1875-31.691406 31.6875-31.691406 17.503906 0 31.691406 14.1875 31.691406 31.6875-.019531 17.492187-14.195313 31.671875-31.6875 31.691406zm0 0" fill="url(#c)"/><path d="m329.375 155.558594c-28.546875 0-51.6875 23.140625-51.691406 51.6875 0 28.546875 23.140625 51.691406 51.691406 51.691406 28.546875 0 51.6875-23.140625 51.6875-51.6875-.03125-28.535156-23.152344-51.65625-51.6875-51.691406zm0 83.378906c-17.5 0-31.6875-14.1875-31.691406-31.6875 0-17.503906 14.1875-31.691406 31.691406-31.691406 17.5 0 31.6875 14.1875 31.6875 31.6875-.019531 17.492187-14.195312 31.671875-31.6875 31.691406zm0 0" fill="url(#d)"/></svg>