<svg height="400pt" viewBox="-81 0 400 400.0047" width="400pt" xmlns="http://www.w3.org/2000/svg" xmlns:xlink="http://www.w3.org/1999/xlink"><linearGradient id="a" gradientTransform="matrix(1 0 0 -1 -137.3391 458.00418)" gradientUnits="userSpaceOnUse" x1="256" x2="256" y1="14" y2="444.019"><stop offset=".322" stop-color="#a163f5"/><stop offset=".466" stop-color="#b074ee"/><stop offset=".752" stop-color="#d8a1dd"/><stop offset=".898" stop-color="#efbad3"/></linearGradient><path d="m237.277344 94.605469c-.269532-3.023438-1.898438-5.757813-4.425782-7.433594l-128.757812-85.5c-3.070312-2.039063-7.011719-2.226563-10.261719-.484375-3.246093 1.742188-5.273437 5.132812-5.269531 8.816406v147.179688l-71.628906-68.886719c-3.980469-3.828125-10.3125-3.703125-14.140625.277344s-3.703125 10.308593.277343 14.136719l85.492188 82.21875v30.148437l-85.492188 82.21875c-3.980468 3.828125-4.105468 10.15625-.277343 14.140625 3.828125 3.980469 10.160156 4.101562 14.140625.273438l71.628906-68.882813v147.175781c0 3.683594 2.023438 7.070313 5.273438 8.8125 3.246093 1.742188 7.1875 1.558594 10.257812-.480468l128.753906-85.5c2.527344-1.679688 4.15625-4.414063 4.429688-7.433594.273437-3.023438-.84375-6.003906-3.027344-8.105469l-101.164062-97.292969 101.164062-97.292968c2.1875-2.101563 3.300781-5.085938 3.027344-8.105469zm-25.875 208.464843-102.839844 68.289063v-147.769531l10.097656-9.710938zm-92.742188-116.941406-10.097656-9.710937v-147.769531l102.839844 68.289062zm0 0" fill="url(#a)"/></svg>