<svg height="420pt" viewBox="-25 0 420 420" width="420pt" xmlns="http://www.w3.org/2000/svg" xmlns:xlink="http://www.w3.org/1999/xlink"><linearGradient id="a" gradientTransform="matrix(1 0 0 -1 -73.1 468)" gradientUnits="userSpaceOnUse" x1="257.95" x2="257.95" y1="31" y2="480.464"><stop offset=".322" stop-color="#a163f5"/><stop offset=".466" stop-color="#b074ee"/><stop offset=".752" stop-color="#d8a1dd"/><stop offset=".898" stop-color="#efbad3"/></linearGradient><path d="m319.800781 0h-236.300781c-27.609375.0117188-49.988281 22.390625-50 50v21.601562h-23.5c-5.523438 0-10 4.476563-10 10 0 5.519532 4.476562 10 10 10h23.398438v65.597657h-23.398438c-5.523438 0-10 4.476562-10 10 0 5.523437 4.476562 10 10 10h23.398438v65.601562h-23.398438c-5.523438 0-10 4.476563-10 10 0 5.523438 4.476562 10 10 10h23.398438v65.597657h-23.398438c-5.523438 0-10 4.480468-10 10 0 5.523437 4.476562 10 10 10h23.398438v21.601562c.011718 27.609375 22.390624 49.988281 50 50h236.300781c27.609375-.011719 49.992187-22.390625 50-50v-320c.039062-27.589844-22.308594-49.9804688-49.898438-50zm-180.699219 400h-55.601562c-16.546875-.046875-29.953125-13.453125-30-30v-21.601562h23.398438c5.523437 0 10-4.476563 10-10 0-5.519532-4.476563-10-10-10h-23.398438v-65.597657h23.398438c5.523437 0 10-4.476562 10-10 0-5.523437-4.476563-10-10-10h-23.398438v-65.601562h23.398438c5.523437 0 10-4.476563 10-10 0-5.523438-4.476563-10-10-10h-23.398438v-65.597657h23.398438c5.523437 0 10-4.480468 10-10 0-5.523437-4.476563-10-10-10h-23.398438v-21.601562c.046875-16.546875 13.453125-29.953125 30-30h55.601562zm210.699219-30c-.050781 16.546875-13.453125 29.953125-30 30h-160.699219v-380h160.699219c16.546875.046875 29.949219 13.453125 30 30zm0 0" fill="url(#a)"/></svg>