<svg height="387pt" viewBox="-23 0 387 387" width="387pt" xmlns="http://www.w3.org/2000/svg" xmlns:xlink="http://www.w3.org/1999/xlink"><linearGradient id="a" gradientTransform="matrix(1 0 0 -1 -85.999935 451.5)" gradientUnits="userSpaceOnUse" x1="262.488" x2="248.757" y1="8.277" y2="502.589"><stop offset=".322" stop-color="#a163f5"/><stop offset=".466" stop-color="#b074ee"/><stop offset=".752" stop-color="#d8a1dd"/><stop offset=".898" stop-color="#efbad3"/></linearGradient><path d="m292.398438 0h-244.796876c-26.277343.0273438-47.5742182 21.324219-47.601562 47.601562v324.597657c-.015625 5.660156 3.210938 10.828125 8.300781 13.300781 2.027344.980469 4.246094 1.492188 6.5 1.5 3.308594-.007812 6.515625-1.136719 9.097657-3.199219.324218-.238281.628906-.507812.902343-.800781l102.800781-103.5 102.796876 103.5c.277343.292969.578124.5625.902343.800781 4.4375 3.511719 10.496094 4.175781 15.589844 1.703125s8.324219-7.640625 8.308594-13.304687v-239.398438h34.800781c27.609375-.011719 49.988281-22.390625 50-50v-35.199219c-.0625-26.265624-21.335938-47.539062-47.601562-47.601562zm-57.097657 47.601562v311.898438l-100.601562-101.199219c-1.863281-1.917969-4.425781-3-7.097657-3-2.675781 0-5.238281 1.082031-7.101562 3l-100.5 101.199219v-311.898438c.03125-15.230468 12.371094-27.570312 27.601562-27.601562h196.5c-5.722656 8.066406-8.796874 17.710938-8.800781 27.601562zm84.699219 35.199219c-.046875 16.546875-13.453125 29.949219-30 30h-34.699219v-65.199219c.03125-15.230468 12.367188-27.570312 27.597657-27.601562h9.402343c15.230469.03125 27.570313 12.371094 27.597657 27.601562v35.199219zm0 0" fill="url(#a)"/></svg>