<svg height="400pt" viewBox="-52 0 400 400.1" width="400pt" xmlns="http://www.w3.org/2000/svg" xmlns:xlink="http://www.w3.org/1999/xlink"><linearGradient id="a" gradientUnits="userSpaceOnUse" x1="148.15" x2="148.15" y1="390" y2="36.9646"><stop offset=".322" stop-color="#a163f5"/><stop offset=".466" stop-color="#b074ee"/><stop offset=".752" stop-color="#d8a1dd"/><stop offset=".898" stop-color="#efbad3"/></linearGradient><path d="m286.351562 65.601562h-31v-55.601562c0-5.5-4.5-10-10-10h-201.703124c-24.097657 0-43.5976568 19.199219-43.5976568 42.800781v314.5c0 23.597657 19.5976568 42.800781 43.5976568 42.800781h242.703124c5.5 0 10-4.5 10-10v-314.5c0-5.601562-4.5-10-10-10zm-242.703124-45.601562h191.703124v45.601562h-191.703124c-13 0-23.597657-10.203124-23.597657-22.800781-.101562-12.601562 10.5-22.800781 23.597657-22.800781zm54.101562 65.601562h59.300781v122.5l-24.601562-14.5c-3.097657-1.800781-7-1.800781-10.097657 0l-24.601562 14.5zm178.601562 294.398438h-232.703124c-13 0-23.597657-10.199219-23.597657-22.800781v-278.5c7.097657 4.5 15.300781 6.800781 23.597657 6.800781h34.101562v140c0 5.5 4.5 10 10 10 1.800781 0 3.5-.5 5.101562-1.398438l34.597657-20.300781 34.601562 20.300781c4.800781 2.796876 10.898438 1.199219 13.699219-3.601562.898438-1.5 1.398438-3.300781 1.398438-5.101562v-140h99.300781v294.601562zm0 0" fill="url(#a)"/></svg>