<svg height="425pt" viewBox="0 -7 425.894 425" width="425pt" xmlns="http://www.w3.org/2000/svg" xmlns:xlink="http://www.w3.org/1999/xlink"><linearGradient id="a" gradientTransform="matrix(1 0 0 -1 -43.053 463.447)" gradientUnits="userSpaceOnUse" x1="256" x2="256" y1="14" y2="444.019"><stop offset=".322" stop-color="#a163f5"/><stop offset=".466" stop-color="#b074ee"/><stop offset=".752" stop-color="#d8a1dd"/><stop offset=".898" stop-color="#efbad3"/></linearGradient><path d="m350.910156 12.226562c-5.484375-7.394531-14.140625-11.761718-23.347656-11.78125h-229.234375c-9.203125.019532-17.859375 4.386719-23.34375 11.78125l-73.027344 98.875c-1.273437 1.722657-1.957031 3.804688-1.957031 5.941407v264.382812c.0195312 16.019531 13 29.003907 29.019531 29.019531h367.851563c16.023437-.015624 29.003906-13 29.023437-29.019531v-264.378906c0-2.136719-.6875-4.21875-1.957031-5.941406zm-16.089844 11.882813 61.253907 82.9375h-173.128907v-86.601563h104.617188c2.863281.007813 5.554688 1.363282 7.257812 3.664063zm-243.746093 0c1.703125-2.300781 4.394531-3.65625 7.253906-3.664063h104.617187v86.601563h-173.128906zm168.582031 366.335937h-93.417969v-165.050781l93.417969 39.167969zm137.214844 0h-117.214844v-132.535156c0-4.027344-2.417969-7.664062-6.132812-9.222656l-113.417969-47.550781c-3.085938-1.296875-6.617188-.960938-9.40625.894531-2.785157 1.851562-4.460938 4.976562-4.460938 8.324219v180.089843h-117.21875c-4.976562-.003906-9.015625-4.039062-9.019531-9.019531v-254.378906h385.894531v254.378906c-.007812 4.980469-4.042969 9.015625-9.023437 9.019531zm0 0" fill="url(#a)"/></svg>