<svg height="436pt" viewBox="0 -18 436.438 436" width="436pt" xmlns="http://www.w3.org/2000/svg" xmlns:xlink="http://www.w3.org/1999/xlink"><linearGradient id="a" gradientTransform="matrix(1 0 0 -1 -37.781 458.219)" gradientUnits="userSpaceOnUse" x1="254.589" x2="258.416" y1="38.319" y2="551.14"><stop offset=".322" stop-color="#a163f5"/><stop offset=".466" stop-color="#b074ee"/><stop offset=".752" stop-color="#d8a1dd"/><stop offset=".898" stop-color="#efbad3"/></linearGradient><path d="m386.4375 61.367188h-72.320312v-30.875c-.015626-16.710938-13.5625-30.253907-30.273438-30.273438h-131.25c-16.710938.019531-30.253906 13.5625-30.273438 30.273438v30.875h-72.320312c-27.601562.03125-49.96875 22.398437-50 50v238.851562c.03125 27.601562 22.398438 49.96875 50 50h336.4375c27.601562-.03125 49.96875-22.398438 50-50v-238.851562c-.03125-27.601563-22.398438-49.96875-50-50zm-244.117188-30.875c.003907-5.671876 4.601563-10.265626 10.273438-10.273438h131.25c5.671875.007812 10.269531 4.601562 10.273438 10.273438v30.875h-151.796876zm-92.320312 50.875h336.4375c16.5625.015624 29.980469 13.4375 30 30v39.199218h-396.4375v-39.199218c.019531-16.5625 13.4375-29.984376 30-30zm366.4375 89.199218v50.953125h-396.4375v-50.960937zm-30 209.652344h-336.4375c-16.5625-.019531-29.980469-13.4375-30-30v-108.699219h396.4375v108.699219c-.019531 16.5625-13.4375 29.980469-30 30zm0 0" fill="url(#a)"/></svg>