<svg height="400pt" viewBox="-38 0 400 400.007" width="400pt" xmlns="http://www.w3.org/2000/svg" xmlns:xlink="http://www.w3.org/1999/xlink"><linearGradient id="a"><stop offset=".322" stop-color="#a163f5"/><stop offset=".466" stop-color="#b074ee"/><stop offset=".752" stop-color="#d8a1dd"/><stop offset=".898" stop-color="#efbad3"/></linearGradient><linearGradient id="b" gradientTransform="matrix(1 0 0 -1 -93.7225 458)" gradientUnits="userSpaceOnUse" x1="255.999" x2="255.999" xlink:href="#a" y1="3.998" y2="508.995"/><linearGradient id="c" gradientTransform="matrix(1 0 0 -1 -93.7225 458)" gradientUnits="userSpaceOnUse" x1="256" x2="256" xlink:href="#a" y1="3.998" y2="508.995"/><path d="m314.550781 0h-304.546875c-5.523437 0-9.99999975 4.476562-9.99999975 10v168.859375c.02734375 16.628906 10.44531275 31.464844 26.07421875 37.140625l98.074219 35.398438c-3.71875 26.582031-10.230469 89.511718-10.230469 100.253906 0 26.707031 21.648437 48.355468 48.355469 48.355468 26.703125 0 48.351562-21.648437 48.351562-48.355468 0-10.457032-6.28125-71.578125-10.042968-98.984375l98.28125-36.652344c15.410156-5.800781 25.632812-20.527344 25.683593-36.992187v-169.023438c0-5.523438-4.476562-10-10-10zm-294.546875 20h63.363282v57.390625c0 5.523437 4.476562 10 10 10 5.523437 0 10-4.476563 10-10v-57.390625h48.9375v81.464844c0 5.523437 4.476562 10 10 10 5.523437 0 10-4.476563 10-10v-81.464844h48.882812v80.457031c0 5.523438 4.476562 10 10 10s10-4.476562 10-10v-80.457031h63.363281v114.78125h-284.546875zm284.546875 159.015625c-.023437 8.125-5.070312 15.390625-12.671875 18.253906l-104.632812 39.023438c-5.160156 1.9375-8.253906 7.230469-7.40625 12.675781 3.511718 22.203125 10.789062 93.324219 10.789062 102.679688 0 15.65625-12.691406 28.351562-28.351562 28.351562s-28.351563-12.695312-28.351563-28.351562c0-9.945313 7.46875-82.480469 10.945313-103.558594 1.148437-5.628906-2.023438-11.242188-7.433594-13.164063l-104.566406-37.742187c-7.714844-2.800782-12.851563-10.121094-12.867188-18.324219v-24.078125h284.546875zm0 0" fill="url(#b)"/><path d="m162.277344 371.449219c11.617187 0 21.035156-9.417969 21.035156-21.035157 0-11.617187-9.417969-21.035156-21.035156-21.035156-11.617188 0-21.035156 9.417969-21.035156 21.035156.015624 11.609376 9.425781 21.019532 21.035156 21.035157zm0-22.070313c.570312 0 1.035156.464844 1.035156 1.035156 0 .570313-.464844 1.035157-1.035156 1.035157-.570313 0-1.035156-.464844-1.035156-1.035157 0-.570312.464843-1.035156 1.035156-1.035156zm0 0" fill="url(#c)"/></svg>