<svg height="402pt" viewBox="-21 0 402 402.3" width="402pt" xmlns="http://www.w3.org/2000/svg" xmlns:xlink="http://www.w3.org/1999/xlink"><linearGradient id="a"><stop offset=".322" stop-color="#a163f5"/><stop offset=".466" stop-color="#b074ee"/><stop offset=".752" stop-color="#d8a1dd"/><stop offset=".898" stop-color="#efbad3"/></linearGradient><linearGradient id="b" gradientUnits="userSpaceOnUse" x1="180.15" x2="180.15" xlink:href="#a" y1="408.2" y2="-23.135"/><linearGradient id="c" gradientUnits="userSpaceOnUse" x1="138.8" x2="138.8" xlink:href="#a" y1="408.2" y2="-23.135"/><path d="m310.148438 29.300781h-41.5v-19.300781c0-5.523438-4.476563-10-10-10-5.519532 0-10 4.476562-10 10v19.199219h-137v-19.199219c0-5.523438-4.476563-10-10-10-5.519532 0-10 4.476562-10 10v19.199219h-41.5c-27.609376.011719-49.988282 22.390625-50 50v273.101562c.011718 27.609375 22.390624 49.988281 50 50h260c27.613281-.011719 49.992187-22.390625 50-50v-273c-.007813-27.609375-22.386719-49.992187-50-50zm-260 20h41.5v19.199219c0 5.523438 4.480468 10 10 10 5.523437 0 10-4.476562 10-10v-19.199219h136.902343v19.199219c0 5.523438 4.476563 10 10 10 5.523438 0 10-4.476562 10-10v-19.199219h41.597657c16.550781.046875 29.953124 13.449219 30 30v24.597657h-320v-24.597657c.015624-16.5625 13.4375-29.988281 30-30zm260 333.097657h-260c-16.546876-.046876-29.949219-13.449219-30-30v-228.5h320v228.5c-.046876 16.550781-13.449219 29.953124-30 30zm0 0" fill="url(#b)"/><path d="m278.25 210.398438h-196.199219c-5.523437 0-10 4.480468-10 10 0 5.523437 4.476563 10 10 10h196.199219c5.523438 0 10-4.476563 10-10 0-5.519532-4.476562-10-10-10zm0 0" fill="url(#b)"/><path d="m195.550781 275.800781h-113.5c-5.523437 0-10 4.476563-10 10 0 5.523438 4.476563 10 10 10h113.5c5.523438 0 10-4.476562 10-10 0-5.523437-4.476562-10-10-10zm0 0" fill="url(#c)"/></svg>