<svg height="400pt" viewBox="-14 0 400 400" width="400pt" xmlns="http://www.w3.org/2000/svg" xmlns:xlink="http://www.w3.org/1999/xlink"><linearGradient id="a"><stop offset=".322" stop-color="#a163f5"/><stop offset=".466" stop-color="#b074ee"/><stop offset=".752" stop-color="#d8a1dd"/><stop offset=".898" stop-color="#efbad3"/></linearGradient><linearGradient id="b" gradientTransform="matrix(1 0 0 -1 -70.37 458)" gradientUnits="userSpaceOnUse" x1="254.185" x2="258.012" xlink:href="#a" y1="-16.2" y2="496.62"/><linearGradient id="c" gradientTransform="matrix(1 0 0 -1 -70.37 458)" gradientUnits="userSpaceOnUse" x1="329.393" x2="333.22" xlink:href="#a" y1="-16.761" y2="496.059"/><linearGradient id="d" gradientTransform="matrix(1 0 0 -1 -70.37 458)" gradientUnits="userSpaceOnUse" x1="329.922" x2="333.749" xlink:href="#a" y1="-16.765" y2="496.055"/><linearGradient id="e" gradientTransform="matrix(1 0 0 -1 -70.37 458)" gradientUnits="userSpaceOnUse" x1="330.234" x2="334.061" xlink:href="#a" y1="-16.768" y2="496.053"/><path d="m341.253906 103.121094h-168.800781v-11.769532c-.015625-16.558593-13.4375-29.980468-30-30h-49.722656v-51.351562c0-5.523438-4.476563-10-10-10-5.523438 0-10 4.476562-10 10v51.488281c-15.410157 1.457031-27.191407 14.386719-27.210938 29.863281v11.769532h-15.519531c-16.5625.019531-29.9804688 13.441406-30 30v195.109375c.0195312 16.5625 13.4375 29.980469 30 30h15.53125v11.769531c.015625 16.5625 13.4375 29.980469 30 30h66.929688c16.558593-.019531 29.980468-13.4375 30-30v-11.769531h168.800781c16.558593-.019531 29.980469-13.4375 30-30v-195.109375c-.019531-16.5625-13.445313-29.984375-30.007813-30zm-311.25 235.109375c-5.519531-.003907-9.992187-4.480469-10-10v-195.109375c.007813-5.519532 4.480469-9.992188 10-10h15.527344v215.109375zm122.453125 31.769531c-.003906 5.519531-4.480469 9.992188-10 10h-66.925781c-5.519531-.007812-9.992188-4.480469-10-10v-278.648438c.007812-5.519531 4.480469-9.992187 10-10h66.929688c5.519531.007813 9.992187 4.480469 10 10zm198.800781-41.769531c-.007812 5.519531-4.480468 9.996093-10 10h-168.800781v-215.109375h168.800781c5.519532.007812 9.992188 4.480468 10 10zm0 0" fill="url(#b)"/><path d="m313.359375 151.757812h-104.3125c-5.523437 0-10 4.476563-10 10v41.769532c0 5.523437 4.476563 10 10 10h104.3125c5.519531 0 10-4.476563 10-10v-41.769532c0-5.523437-4.480469-10-10-10zm-10 41.769532h-84.3125v-21.769532h84.3125zm0 0" fill="url(#c)"/><path d="m313.359375 243.648438h-104.3125c-5.523437 0-10 4.476562-10 10 0 5.523437 4.476563 10 10 10h104.3125c5.519531 0 10-4.476563 10-10 0-5.523438-4.480469-10-10-10zm0 0" fill="url(#d)"/><path d="m313.359375 285.417969h-104.3125c-5.523437 0-10 4.476562-10 10 0 5.523437 4.476563 10 10 10h104.3125c5.519531 0 10-4.476563 10-10 0-5.523438-4.480469-10-10-10zm0 0" fill="url(#e)"/></svg>