<svg height="370pt" viewBox="-10 0 369 370" width="370pt" xmlns="http://www.w3.org/2000/svg" xmlns:xlink="http://www.w3.org/1999/xlink"><linearGradient id="a"><stop offset=".322" stop-color="#a163f5"/><stop offset=".466" stop-color="#b074ee"/><stop offset=".752" stop-color="#d8a1dd"/><stop offset=".898" stop-color="#efbad3"/></linearGradient><linearGradient id="b" gradientTransform="matrix(1 0 0 -1 -80.841245 443)" gradientUnits="userSpaceOnUse" x1="168.415" x2="172.242" xlink:href="#a" y1="-19.754" y2="493.067"/><linearGradient id="c" gradientTransform="matrix(1 0 0 -1 -80.841245 443)" gradientUnits="userSpaceOnUse" x1="388.407" x2="392.234" xlink:href="#a" y1="-21.396" y2="491.425"/><linearGradient id="d" gradientTransform="matrix(1 0 0 -1 -80.841245 443)" gradientUnits="userSpaceOnUse" x1="332.374" x2="336.201" xlink:href="#a" y1="-20.978" y2="491.843"/><linearGradient id="e" gradientTransform="matrix(1 0 0 -1 -80.841245 443)" gradientUnits="userSpaceOnUse" x1="271.07" x2="274.897" xlink:href="#a" y1="-20.52" y2="492.3"/><path d="m147.285156 254.546875h-35.046875c-5.515625.074219-10.339843-3.699219-11.589843-9.070313-.007813-.027343-.011719-.054687-.019532-.082031-8.207031-39.84375-8.207031-80.945312 0-120.789062l.015625-.082031c1.253907-5.371094 6.078125-9.144532 11.59375-9.070313h35.046875c16.738282 0 30.359375-13.40625 30.359375-29.886719v-55.679687c0-16.480469-13.621093-29.886719-30.359375-29.886719h-14.367187c-59.957031 0-111.269531 41.894531-122.015625 99.613281l-4.960938 26.640625c-7.253906 38.828125-7.253906 78.667969 0 117.5l4.960938 26.636719c10.746094 57.714844 62.054687 99.609375 122.015625 99.609375h14.367187c16.738282 0 30.359375-13.40625 30.359375-29.886719v-55.679687c0-16.480469-13.621093-29.886719-30.359375-29.886719zm10.359375 85.566406c-.140625 5.585938-4.773437 10.007813-10.359375 9.886719h-14.367187c-50.324219 0-93.371094-35.019531-102.355469-83.273438l-4.957031-26.636718c-6.804688-36.414063-6.804688-73.765625 0-110.179688l4.957031-26.636718c8.984375-48.253907 52.03125-83.273438 102.355469-83.273438h14.367187c5.585938-.121094 10.21875 4.300781 10.359375 9.886719v55.679687c-.140625 5.589844-4.773437 10.011719-10.359375 9.886719h-35.046875c-15.03125-.050781-28.046875 10.433594-31.199219 25.132813-.007812.035156-.015624.070312-.023437.109374-8.722656 42.425782-8.722656 86.183594 0 128.609376.007813.035156.015625.074218.023437.109374 3.152344 14.699219 16.167969 25.183594 31.199219 25.132813h35.046875c5.585938-.125 10.21875 4.296875 10.359375 9.886719zm0 0" fill="url(#b)"/><path d="m273.386719 38.289062c-3.859375 3.949219-3.785157 10.28125.167969 14.140626 36.269531 35.425781 56.242187 82.503906 56.242187 132.570312s-19.972656 97.144531-56.242187 132.570312c-3.96875 3.839844-4.074219 10.171876-.234376 14.140626 3.84375 3.96875 10.175782 4.070312 14.140626.230468l.066406-.0625c40.15625-39.21875 62.269531-91.378906 62.269531-146.878906s-22.113281-107.660156-62.269531-146.878906c-3.953125-3.859375-10.28125-3.78125-14.140625.167968zm0 0" fill="url(#c)"/><path d="m240.980469 83.585938c-2.539063-2.535157-6.242188-3.515626-9.703125-2.570313-3.460938.945313-6.148438 3.675781-7.046875 7.148437-.894531 3.472657.136719 7.160157 2.707031 9.664063l.066406.0625c48.109375 46.476563 49.433594 123.152344 2.957032 171.261719-.96875 1-1.953126 1.984375-2.957032 2.957031-3.96875 3.839844-4.070312 10.171875-.230468 14.140625 3.84375 3.96875 10.171874 4.070312 14.140624.230469l.066407-.066407c56.007812-54.191406 57.484375-143.527343 3.289062-199.539062-1.078125-1.117188-2.175781-2.210938-3.289062-3.289062zm0 0" fill="url(#d)"/><path d="m175.882812 133.519531c-3.859374 3.949219-3.785156 10.28125.167969 14.140625 20.617188 19.902344 21.199219 52.753906 1.300781 73.378906-.429687.441407-.863281.875-1.300781 1.300782-3.96875 3.839844-4.074219 10.171875-.230469 14.136718 3.839844 3.96875 10.171876 4.074219 14.140626.234376l.0625-.066407c28.527343-27.617187 29.261718-73.132812 1.640624-101.65625-.539062-.558593-1.085937-1.105469-1.640624-1.640625-3.953126-3.859375-10.285157-3.78125-14.140626.171875zm0 0" fill="url(#e)"/></svg>