<svg height="420pt" viewBox="-7 0 420 420" width="420pt" xmlns="http://www.w3.org/2000/svg" xmlns:xlink="http://www.w3.org/1999/xlink"><linearGradient id="a"><stop offset=".322" stop-color="#a163f5"/><stop offset=".466" stop-color="#b074ee"/><stop offset=".752" stop-color="#d8a1dd"/><stop offset=".898" stop-color="#efbad3"/></linearGradient><linearGradient id="b" gradientTransform="matrix(1 0 0 -1 -52.512999 468.000001)" gradientUnits="userSpaceOnUse" x1="213.441" x2="213.441" xlink:href="#a" y1="14" y2="444.019"/><linearGradient id="c" gradientTransform="matrix(1 0 0 -1 -52.512999 468.000001)" gradientUnits="userSpaceOnUse" x1="354.842" x2="354.842" xlink:href="#a" y1="14" y2="444.019"/><linearGradient id="d" gradientTransform="matrix(1 0 0 -1 -52.512999 468.000001)" gradientUnits="userSpaceOnUse" x1="256.002" x2="256.002" xlink:href="#a" y1="14" y2="444.019"/><path d="m160.929688 337.171875c-22.875 0-41.414063 18.542969-41.414063 41.414063 0 22.871093 18.539063 41.414062 41.414063 41.414062 22.871093 0 41.414062-18.542969 41.414062-41.414062 0-22.871094-18.542969-41.414063-41.414062-41.414063zm0 62.828125c-11.828126 0-21.414063-9.585938-21.414063-21.414062 0-11.828126 9.585937-21.414063 21.414063-21.414063 11.824218 0 21.414062 9.585937 21.414062 21.414063 0 11.828124-9.589844 21.414062-21.414062 21.414062zm0 0" fill="url(#b)"/><path d="m302.328125 337.171875c-22.871094 0-41.414063 18.539063-41.414063 41.414063 0 22.871093 18.542969 41.414062 41.414063 41.414062s41.414063-18.539062 41.414063-41.414062c-.023438-22.859376-18.550782-41.386719-41.414063-41.414063zm0 62.828125c-11.824219 0-21.414063-9.585938-21.414063-21.414062 0-11.824219 9.585938-21.414063 21.414063-21.414063s21.414063 9.585937 21.414063 21.414063c-.011719 11.820312-9.589844 21.398437-21.414063 21.414062zm0 0" fill="url(#c)"/><path d="m396.980469 127.695312h-48.667969v-60.179687c0-1.902344-.542969-3.769531-1.566406-5.375l-36.660156-57.515625c-1.835938-2.882812-5.019532-4.625-8.4375-4.625h-115.6875c-3.417969 0-6.597657 1.742188-8.433594 4.625l-36.664063 57.515625c-1.023437 1.605469-1.566406 3.472656-1.566406 5.375v60.179687h-40.269531l-3.925782-21.34375c-3.386718-21.542968-21.996093-37.390624-43.800781-37.300781h-41.300781c-5.523438 0-10 4.476563-10 10 0 5.523438 4.476562 10 10 10h41.304688c12.003906-.046875 22.238281 8.691407 24.066406 20.554688.015625.082031.027344.164062.042968.246093l31.917969 173.449219c4.0625 20.847657 22.3125 35.90625 43.554688 35.9375h203.128906c5.523437 0 10-4.476562 10-10 0-5.523437-4.476563-10-10-10h-203.128906c-11.632813-.007812-21.640625-8.234375-23.898438-19.644531l-1.203125-6.527344h200.3125c18.851563-.007812 35.644532-11.921875 41.878906-29.710937l38.363282-102.144531c1.15625-3.070313.726562-6.515626-1.140625-9.210938-1.867188-2.695312-4.9375-4.304688-8.21875-4.304688zm-136.765625 69.671876h-32.816406v-63.484376l32.816406 13.757813zm13.863281-65.601563-52.8125-22.144531c-3.089844-1.292969-6.617187-.957032-9.40625.894531-2.789063 1.855469-4.460937 4.980469-4.460937 8.328125v78.519531h-48.101563v-119.847656h169.015625v119.851563h-48.097656v-56.375c0-4.03125-2.417969-7.664063-6.136719-9.222657zm46-74.25h-66.273437v-37.515625h42.359374zm-128.632813-37.515625h42.359376v37.515625h-66.273438zm157.765626 216.433594c-.03125.082031-.058594.164062-.089844.246094-3.402344 9.804687-12.640625 16.382812-23.023438 16.386718h-204l-19.386718-105.371094h36.585937v59.671876c0 5.523437 4.476563 10 10 10h189.015625c5.523438 0 10-4.476563 10-10v-59.671876h34.226562zm0 0" fill="url(#d)"/></svg>