<svg height="400pt" viewBox="0 -60 400 400" width="400pt" xmlns="http://www.w3.org/2000/svg" xmlns:xlink="http://www.w3.org/1999/xlink"><linearGradient id="a" gradientTransform="matrix(1 0 0 -1 -56 397.7)" gradientUnits="userSpaceOnUse" x1="256" x2="256" y1="3.998" y2="508.995"><stop offset=".322" stop-color="#a163f5"/><stop offset=".466" stop-color="#b074ee"/><stop offset=".752" stop-color="#d8a1dd"/><stop offset=".898" stop-color="#efbad3"/></linearGradient><path d="m390 129.699219h-53.324219v-60.496094c0-5.519531-4.476562-10-10-10h-92.132812c-5.523438 0-10 4.480469-10 10v60.496094h-49.085938v-119.699219c0-5.523438-4.476562-10-10-10h-101.355469c-5.523437 0-10 4.476562-10 10v119.699219h-44.101562c-5.523438 0-10 4.476562-10 10 0 5.523437 4.476562 10 10 10h44.101562v119.699219c0 5.523437 4.476563 10 10 10h101.355469c5.523438 0 10-4.476563 10-10v-119.699219h49.085938v60.5c0 5.523437 4.476562 10 10 10h92.132812c5.523438 0 10-4.476563 10-10v-60.5h53.324219c5.523438 0 10-4.476563 10-10 0-5.523438-4.476562-10-10-10zm-315.898438 129.699219v-239.398438h81.351563v239.398438zm170.4375-59.199219v-120.996094h72.132813v121zm0 0" fill="url(#a)"/></svg>