<svg height="400pt" viewBox="-60 0 400 400" width="400pt" xmlns="http://www.w3.org/2000/svg" xmlns:xlink="http://www.w3.org/1999/xlink"><linearGradient id="a" gradientTransform="matrix(1 0 0 -1 -116.3 458)" gradientUnits="userSpaceOnUse" x1="256" x2="256" y1="3.998" y2="508.995"><stop offset=".322" stop-color="#a163f5"/><stop offset=".466" stop-color="#b074ee"/><stop offset=".752" stop-color="#d8a1dd"/><stop offset=".898" stop-color="#efbad3"/></linearGradient><path d="m269.398438 224.542969h-119.699219v-49.085938h60.5c5.523437 0 10-4.476562 10-10v-92.132812c0-5.523438-4.476563-10-10-10h-60.5v-53.324219c0-5.523438-4.476563-10-10-10-5.523438 0-10 4.476562-10 10v53.324219h-60.496094c-5.519531 0-10 4.476562-10 10v92.132812c0 5.523438 4.480469 10 10 10h60.496094v49.085938h-119.699219c-5.523438 0-10 4.476562-10 10v101.355469c0 5.523437 4.476562 10 10 10h119.699219v44.101562c0 5.523438 4.476562 10 10 10 5.523437 0 10-4.476562 10-10v-44.101562h119.699219c5.523437 0 10-4.476563 10-10v-101.355469c0-5.523438-4.476563-10-10-10zm-190.195313-141.21875h121v72.132812h-121zm180.195313 242.574219h-239.398438v-81.355469h239.398438zm0 0" fill="url(#a)"/></svg>