<svg height="427pt" viewBox="-3 0 427 427.80299" width="427pt" xmlns="http://www.w3.org/2000/svg" xmlns:xlink="http://www.w3.org/1999/xlink"><linearGradient id="a"><stop offset=".322" stop-color="#a163f5"/><stop offset=".466" stop-color="#b074ee"/><stop offset=".752" stop-color="#d8a1dd"/><stop offset=".898" stop-color="#efbad3"/></linearGradient><linearGradient id="b" gradientTransform="matrix(1 0 0 -1 -45.598505 471.9)" gradientUnits="userSpaceOnUse" x1="260.878" x2="247.147" xlink:href="#a" y1="86.288" y2="580.599"/><linearGradient id="c" gradientTransform="matrix(1 0 0 -1 -45.598505 471.9)" gradientUnits="userSpaceOnUse" x1="346.004" x2="332.273" xlink:href="#a" y1="88.653" y2="582.964"/><linearGradient id="d" gradientTransform="matrix(1 0 0 -1 -45.598505 471.9)" gradientUnits="userSpaceOnUse" x1="260.77" x2="247.039" xlink:href="#a" y1="86.285" y2="580.596"/><linearGradient id="e" gradientTransform="matrix(1 0 0 -1 -45.598505 471.9)" gradientUnits="userSpaceOnUse" x1="175.536" x2="161.805" xlink:href="#a" y1="83.917" y2="578.229"/><path d="m210.402344 0c-115.800782 0-210 94.199219-210 210s94.199218 210 210 210c23.957031-.003906 47.738281-4.128906 70.300781-12.199219l113.5 19.898438c.5625.082031 1.128906.113281 1.699219.101562 3.34375-.023437 6.457031-1.707031 8.304687-4.496093 1.847657-2.792969 2.183594-6.316407.894531-9.40625l-30.898437-72.699219c29.980469-37.144531 46.292969-83.464844 46.199219-131.199219 0-115.800781-94.199219-210-210-210zm177 279.199219c-7.730469 19.613281-18.679688 37.796875-32.402344 53.800781-2.488281 2.871094-3.109375 6.914062-1.597656 10.398438l26.097656 61.402343-98-17.101562c-.5625-.082031-1.128906-.117188-1.699219-.097657-1.191406-.003906-2.375.199219-3.5.597657-21.082031 7.855469-43.398437 11.886719-65.898437 11.902343-104.800782 0-190-85.203124-190-190 0-104.800781 85.199218-190 190-190 104.800781 0 190 85.199219 190 190 .019531 23.640626-4.390625 47.078126-13 69.097657zm0 0" fill="url(#b)"/><path d="m295.703125 181.300781c-18.007813 0-32.601563 14.59375-32.601563 32.597657 0 18.007812 14.59375 32.601562 32.601563 32.601562 18.003906 0 32.597656-14.59375 32.597656-32.601562-.003906-18-14.597656-32.59375-32.597656-32.597657zm0 45.199219c-6.960937 0-12.601563-5.640625-12.601563-12.601562 0-6.957032 5.640626-12.597657 12.601563-12.597657 6.957031 0 12.597656 5.640625 12.597656 12.597657-.003906 6.957031-5.644531 12.59375-12.597656 12.601562zm0 0" fill="url(#c)"/><path d="m210.402344 181.300781c-18.003906 0-32.601563 14.59375-32.601563 32.597657 0 18.007812 14.597657 32.601562 32.601563 32.601562s32.597656-14.59375 32.597656-32.601562c0-18-14.59375-32.59375-32.597656-32.597657zm0 45.199219c-6.960938 0-12.601563-5.640625-12.601563-12.601562 0-6.957032 5.640625-12.597657 12.601563-12.597657 6.957031 0 12.597656 5.640625 12.597656 12.597657-.003906 6.957031-5.640625 12.59375-12.597656 12.601562zm0 0" fill="url(#d)"/><path d="m125.101562 181.300781c-18.003906 0-32.601562 14.59375-32.601562 32.597657 0 18.007812 14.597656 32.601562 32.601562 32.601562 18.003907 0 32.601563-14.59375 32.601563-32.601562-.003906-18-14.597656-32.59375-32.601563-32.597657zm0 45.199219c-6.957031 0-12.601562-5.640625-12.601562-12.601562 0-6.957032 5.644531-12.597657 12.601562-12.597657 6.957032 0 12.601563 5.640625 12.601563 12.597657-.007813 6.957031-5.644531 12.59375-12.601563 12.601562zm0 0" fill="url(#e)"/></svg>