<svg height="419pt" viewBox="-37 0 419 419.90046" width="419pt" xmlns="http://www.w3.org/2000/svg" xmlns:xlink="http://www.w3.org/1999/xlink"><linearGradient id="a"><stop offset=".322" stop-color="#a163f5"/><stop offset=".466" stop-color="#b074ee"/><stop offset=".752" stop-color="#d8a1dd"/><stop offset=".898" stop-color="#efbad3"/></linearGradient><linearGradient id="b" gradientUnits="userSpaceOnUse" x1="172.451493" x2="172.451493" xlink:href="#a" y1="410.900458" y2="48.573258"/><linearGradient id="c" gradientUnits="userSpaceOnUse" x1="200.346793" x2="200.346793" xlink:href="#a" y1="410.900458" y2="48.573258"/><linearGradient id="d" gradientUnits="userSpaceOnUse" x1="198.345893" x2="198.345893" xlink:href="#a" y1="410.900458" y2="48.573258"/><path d="m275.550781 3s-.101562-.097656-.101562-.097656c-.097657-.101563-.097657-.101563-.199219-.203125-.199219-.199219-.300781-.296875-.5-.5-.097656-.097657-.199219-.097657-.199219-.199219-.199219-.097656-.398437-.300781-.5-.398438-.101562-.101562-.199219-.101562-.300781-.199218-.199219-.101563-.300781-.203125-.5-.300782-.199219-.101562-.300781-.199218-.5-.199218-.097656-.101563-.300781-.101563-.398438-.203125-.300781-.097657-.5-.199219-.800781-.296875h-.101562c-.699219-.203125-1.5-.402344-2.296875-.402344-.203125 0-.5 0-.703125 0h-180c-20.199219-.0976562-37 16.199219-37 36.300781v10.601563h-14.898438c-20 .097656-36.199219 16.398437-36.101562 36.398437v300.199219c-.097657 20 16 36.300781 36 36.402344h224.800781c20 0 36.199219-16.300782 36.199219-36.300782v-15.699218h10.902343c19.898438.097656 36-16 36.097657-35.902344 0-.097656 0-.199219 0-.300781v-252.296875c.101562-2.601563-.898438-5-2.597657-6.902344zm2.898438 31.800781 32.902343 34.101563h-32.902343zm-1 348.699219c.101562 9-7.097657 16.300781-16 16.402344h-224.898438c-8.898437 0-16.101562-7.300782-16.101562-16.203125 0-.097657 0-.097657 0-.199219v-300.097656c-.097657-9 7-16.300782 16-16.5h15v264.796875c0 20.101562 16.800781 36.203125 36.902343 36.203125h189.097657zm30.902343-35.597656h-220c-9.101562 0-16.902343-7.101563-16.902343-16.203125v-295.398438c0-9.101562 7.800781-16.398437 16.902343-16.398437h170.097657v59.5c0 5.5 4.300781 9.5 9.902343 9.5h56.097657v242.796875c.101562 8.800781-7 16.101562-15.796875 16.203125-.101563 0-.203125 0-.300782 0zm0 0" fill="url(#b)"/><path d="m178.152344 107.601562c12.296875 12.300782 32.199218 12.300782 44.5 0 12.296875-12.300781 12.296875-32.199218 0-44.5l-15.203125-15.199218c-3.898438-3.902344-10.199219-3.902344-14.097657 0l-15.199218 15.199218c-12.300782 12.300782-12.300782 32.199219 0 44.5zm14.097656-30.300781 8.101562-8.101562 8.097657 8.101562c4.5 4.398438 4.601562 11.699219.101562 16.199219-4.398437 4.5-11.699219 4.601562-16.199219.101562 0 0-.101562-.101562-.101562-.101562-4.5-4.5-4.5-11.800781 0-16.199219zm0 0" fill="url(#c)"/><path d="m286.449219 269.699219c-.097657-.097657-.097657-.199219-.199219-.296875l-48.800781-78.800782c-2.597657-4.101562-4-8.800781-4-13.699218v-9.101563c5.902343-2 10-7.5 10-13.800781v-17.300781c-.097657-8.097657-6.699219-14.699219-14.796875-14.796875h-60.703125c-8.097657.097656-14.5 6.699218-14.5 14.796875v17.300781c0 6.300781 4.101562 11.800781 10 13.800781v9.101563c-.097657 4.898437-1.5 9.597656-4.097657 13.699218l-48.699218 78.800782c-.101563.097656-.203125.199218-.203125.296875 0 .101562-.097657.101562-.199219.203125-9.097656 15.398437-4.097656 35.296875 11.402344 44.5 5 3 10.796875 4.597656 16.597656 4.5h120.402344c17.898437 0 32.5-14.5 32.597656-32.402344 0-5.898438-1.597656-11.597656-4.5-16.597656-.300781-.101563-.300781-.101563-.300781-.203125zm-63-127.796875v7h-50v-7zm-47.097657 59.296875c4.597657-7.296875 7-15.699219 7.097657-24.398438v-8h30v8c0 8.601563 2.5 17 7 24.398438l39.300781 63.703125h-122.898438zm93.097657 91.5c-2.199219 4-6.398438 6.402343-11 6.203125h-120.296875c-4.5.097656-8.703125-2.300782-11-6.203125-1.300782-2.398438-1.800782-5.097657-1.5-7.796875h145.199218c.5 2.699218-.101562 5.398437-1.402343 7.796875zm0 0" fill="url(#d)"/></svg>