<svg height="420pt" viewBox="-38 0 420 420" width="420pt" xmlns="http://www.w3.org/2000/svg" xmlns:xlink="http://www.w3.org/1999/xlink"><linearGradient id="a"><stop offset=".322" stop-color="#a163f5"/><stop offset=".466" stop-color="#b074ee"/><stop offset=".752" stop-color="#d8a1dd"/><stop offset=".898" stop-color="#efbad3"/></linearGradient><linearGradient id="b" gradientUnits="userSpaceOnUse" x1="172.001263" x2="172.001263" xlink:href="#a" y1="408" y2="6.7893"/><linearGradient id="c" gradientUnits="userSpaceOnUse" x1="183.004063" x2="183.004063" xlink:href="#a" y1="408" y2="6.7893"/><linearGradient id="d" gradientUnits="userSpaceOnUse" x1="271.975463" x2="271.975463" xlink:href="#a" y1="408" y2="6.7893"/><linearGradient id="e" gradientUnits="userSpaceOnUse" x1="153.028963" x2="153.028963" xlink:href="#a" y1="408" y2="6.7893"/><linearGradient id="f" gradientUnits="userSpaceOnUse" x1="143.028963" x2="143.028963" xlink:href="#a" y1="408" y2="6.7893"/><path d="m275.101562 3.101562s-.101562-.101562-.101562-.101562c-.097656-.101562-.097656-.101562-.199219-.199219-.199219-.199219-.300781-.300781-.5-.5-.101562-.101562-.101562-.101562-.199219-.199219-.199218-.101562-.402343-.300781-.601562-.402343-.097656-.097657-.199219-.097657-.300781-.199219-.199219-.101562-.398438-.199219-.597657-.300781-.101562-.097657-.300781-.097657-.402343-.199219-.097657-.101562-.296875-.101562-.398438-.199219-.199219-.101562-.5-.199219-.800781-.300781-.097656 0-.097656-.101562-.199219-.101562-.601562-.199219-1.300781-.398438-2-.398438-.101562 0-.199219 0-.300781 0-.199219 0-.5 0-.800781 0h-180c-19.898438 0-36.699219 16.300781-36.699219 36.398438v10.601562h-14.898438c-20 .101562-36.1992182 16.398438-36.101562 36.398438v300.203124c-.0976562 20 16 36.296876 36 36.398438h224.800781c20 0 36.199219-16.300781 36.199219-36.300781v-15.699219h10.902344c19.898437.101562 36-16 36.097656-35.898438 0-.101562 0-.203124 0-.300781v-252.300781c.101562-2.601562-.898438-5-2.597656-6.898438zm2.898438 31.796876 32.902344 34.101562h-32.902344zm-1 348.703124c.101562 9-7.097656 16.296876-16 16.398438h-224.898438c-8.902343 0-16.101562-7.300781-16.101562-16.199219 0-.101562 0-.101562 0-.199219v-300.101562c-.097656-9 7-16.300781 16-16.5h15v264.800781c0 20.097657 16.800781 36.199219 36.902344 36.199219h189.097656zm30.902344-35.601562h-220c-9.101563 0-16.902344-7.101562-16.902344-16.199219v-295.402343c0-9.097657 7.800781-16.398438 16.902344-16.398438h170.097656v59.5c0 5.5 4.300781 9.5 9.902344 9.5h56.097656v242.800781c.101562 8.800781-7 16.097657-15.800781 16.199219-.097657 0-.199219 0-.296875 0zm0 0" fill="url(#b)"/><path d="m235.902344 223.398438 10.5-10.5c.796875-.796876 1.699218-1.398438 2.796875-1.796876l22.601562-8.703124c5.199219-2 7.699219-7.796876 5.699219-12.898438-.5-1.300781-1.300781-2.5-2.300781-3.5l-54.097657-54.101562c-3.902343-3.898438-10.199218-3.898438-14.101562 0-1 1-1.800781 2.203124-2.300781 3.5l-8.699219 22.601562c-.398438 1-1 2-1.800781 2.800781l-95.5 95.5c-14.398438 14.398438-14.398438 37.800781 0 52.199219 14.402343 14.398438 37.800781 14.398438 52.203125 0l83.097656-83.101562c.699219-.597657 1.300781-1.199219 1.902344-2zm-27.601563-48.5c2.800781-2.796876 4.898438-6.097657 6.300781-9.699219l3.199219-8.199219 32.398438 32.398438-8.199219 3.203124c-3.699219 1.398438-7 3.597657-9.699219 6.296876l-8 8-41.800781-6zm-71.601562 119.402343c-6.597657 6.597657-17.296875 6.597657-23.898438 0-6.601562-6.601562-6.601562-17.300781 0-23.902343l52-52 41.800781 6zm0 0" fill="url(#c)"/><path d="m279 216.699219c-3.898438-3.898438-10.199219-3.898438-14.097656 0l-18.300782 18.300781c-14 14-14 36.800781 0 50.800781s36.800782 14 50.800782 0 14-36.800781 0-50.800781zm4.199219 55c-6.199219 6.199219-16.296875 6.199219-22.5 0-6.199219-6.199219-6.199219-16.300781 0-22.5l11.203125-11.199219 11.199218 11.300781c6.300782 6.097657 6.300782 16.199219.097657 22.398438zm0 0" fill="url(#d)"/><path d="m111.5 100h83.101562c5.5 0 10-4.5 10-10s-4.5-10-10-10h-83.101562c-5.5 0-10 4.5-10 10s4.402344 10 10 10zm0 0" fill="url(#e)"/><path d="m111.5 150h63.101562c5.5 0 10-4.5 10-10s-4.5-10-10-10h-63.101562c-5.5 0-10 4.5-10 10s4.402344 10 10 10zm0 0" fill="url(#f)"/></svg>