<svg height="346pt" viewBox="0 -11 346.30047 346" width="346pt" xmlns="http://www.w3.org/2000/svg" xmlns:xlink="http://www.w3.org/1999/xlink"><linearGradient id="a"><stop offset=".322" stop-color="#a163f5"/><stop offset=".466" stop-color="#b074ee"/><stop offset=".752" stop-color="#d8a1dd"/><stop offset=".898" stop-color="#efbad3"/></linearGradient><linearGradient id="b" gradientUnits="userSpaceOnUse" x1="60.0544" x2="60.0544" xlink:href="#a" y1="300.050235" y2="17.795035"/><linearGradient id="c" gradientUnits="userSpaceOnUse" x1="236.5" x2="236.5" xlink:href="#a" y1="300.050235" y2="17.795035"/><path d="m110 54.050781h-100c-5.398438-.101562-9.898438 4.300781-10 9.699219 0 1.398438.300781 2.898438.898438 4.199219l13 28.800781c.800781 1.699219 1.300781 3.601562 1.402343 5.5v176.300781c0 24.898438 20.097657 45 45 45 24.898438 0 45-20.101562 45-45v-176.300781c0-1.898438.398438-3.800781 1.097657-5.5l12.800781-28.898438c1.402343-3.101562 1.101562-6.601562-.800781-9.402343-1.796876-2.800781-5-4.398438-8.398438-4.398438zm-15.300781 20-6.5 14.699219c-1.898438 4.199219-2.898438 8.800781-2.800781 13.5v16.199219l-50 37.601562v-53.902343c-.097657-4.699219-1.097657-9.296876-3.097657-13.5l-6.800781-14.699219zm-34.398438 229.699219c-13.800781 0-25-11.300781-25-25.101562v-97.597657l50-37.601562v135.101562c.097657 13.898438-11.101562 25.097657-25 25.199219zm0 0" fill="url(#b)"/><path d="m291.300781 167.75c-7.902343-16-12-33.601562-12-51.5v-61.199219h5.898438c5.5.097657 10-4.300781 10.101562-9.699219v-34.902343c0-5.597657-4.5-10.199219-10.101562-10.300781h-97.398438c-5.5 0-9.601562 4.800781-9.601562 10.300781v34.902343c-.199219 5.199219 3.902343 9.597657 9.199219 9.796876h.402343 5.398438v61.300781c0 17.800781-4 35.402343-11.699219 51.5l-51.5 105c-8.601562 17.699219-1.300781 39 16.398438 47.699219 4.800781 2.300781 10.101562 3.601562 15.402343 3.601562h149.199219c19.601562-.101562 35.398438-16.101562 35.300781-35.699219 0-5.402343-1.300781-10.601562-3.601562-15.402343zm-93-147.699219h77v15h-77zm1.199219 156.300781c9.101562-18.703124 13.800781-39.203124 13.800781-60v-61.300781h46v61.300781c0 20.796876 4.800781 41.398438 14 60l9.300781 18.699219h-92.203124zm124.699219 120.296876c-2.699219 4.601562-7.699219 7.402343-13 7.402343h-149.300781c-5.296876 0-10.296876-2.800781-13-7.402343-2.898438-4.597657-3.097657-10.296876-.796876-15.199219l32.5-66.398438h111.898438l32.5 66.398438c2.300781 4.902343 2.101562 10.601562-.800781 15.199219zm0 0" fill="url(#c)"/></svg>