<svg height="400pt" viewBox="-57 0 400 400" width="400pt" xmlns="http://www.w3.org/2000/svg" xmlns:xlink="http://www.w3.org/1999/xlink"><linearGradient id="a" gradientTransform="matrix(1 0 0 -1 -112.9 458)" gradientUnits="userSpaceOnUse" x1="256" x2="256" y1="14" y2="444.019"><stop offset=".322" stop-color="#a163f5"/><stop offset=".466" stop-color="#b074ee"/><stop offset=".752" stop-color="#d8a1dd"/><stop offset=".898" stop-color="#efbad3"/></linearGradient><path d="m253.664062 66.773438v-46.773438h22.535157c5.523437 0 10-4.476562 10-10s-4.476563-10-10-10h-266.199219c-5.523438 0-10 4.476562-10 10s4.476562 10 10 10h22.53125v46.773438c.066406 28.660156 11.683594 56.085937 32.226562 76.070312l63.84375 61.835938-61.3125 57.539062c-21.296874 20.042969-33.390624 47.980469-33.4375 77.226562v40.554688h-23.851562c-5.523438 0-10 4.476562-10 10s4.476562 10 10 10h266.199219c5.523437 0 10-4.476562 10-10s-4.476563-10-10-10h-21.21875v-39.8125c-.03125-29.730469-12.527344-58.082031-34.453125-78.164062l-62.835938-57.4375 63.746094-61.742188c20.542969-19.984375 32.164062-47.410156 32.226562-76.070312zm-18.683593 273.414062v39.8125h-181.128907v-40.554688c.039063-23.726562 9.847657-46.382812 27.125-62.644531l62.210938-58.378906 63.847656 58.359375c17.785156 16.289062 27.921875 39.292969 27.945313 63.40625zm-91.878907-149.3125-64.425781-62.394531c-16.664062-16.214844-26.085937-38.457031-26.140625-61.707031v-46.773438h181.128906v46.773438c-.050781 23.25-9.476562 45.492187-26.140624 61.707031zm0 0" fill="url(#a)"/></svg>