<svg height="400pt" viewBox="-40 0 400 400" width="400pt" xmlns="http://www.w3.org/2000/svg" xmlns:xlink="http://www.w3.org/1999/xlink"><linearGradient id="a"><stop offset=".322" stop-color="#a163f5"/><stop offset=".466" stop-color="#b074ee"/><stop offset=".752" stop-color="#d8a1dd"/><stop offset=".898" stop-color="#efbad3"/></linearGradient><linearGradient id="b" gradientTransform="matrix(1 0 0 -1 -96.137 468)" gradientUnits="userSpaceOnUse" x1="256" x2="256" xlink:href="#a" y1="14" y2="444.019"/><linearGradient id="c" gradientTransform="matrix(1 0 0 -1 -96.137 468)" gradientUnits="userSpaceOnUse" x1="315.091" x2="315.091" xlink:href="#a" y1="14" y2="444.019"/><linearGradient id="d" gradientTransform="matrix(1 0 0 -1 -96.137 468)" gradientUnits="userSpaceOnUse" x1="196.867" x2="196.867" xlink:href="#a" y1="14" y2="444.019"/><path d="m227.613281 2.660156c-1.847656-1.710937-4.269531-2.660156-6.789062-2.660156h-176.148438c-24.664062.0273438-44.6484372 20.015625-44.675781 44.675781v310.648438c.0273438 24.660156 20.011719 44.648437 44.675781 44.675781h230.375c24.660157-.027344 44.648438-20.015625 44.675781-44.675781v-263.074219c0-2.789062-1.164062-5.449219-3.210937-7.34375zm3.210938 30.214844 53.367187 49.375h-46.027344c-4.050781-.003906-7.335937-3.289062-7.339843-7.339844zm44.226562 347.125h-230.375c-13.621093-.011719-24.664062-11.054688-24.675781-24.675781v-310.648438c.011719-13.621093 11.054688-24.664062 24.675781-24.675781h166.148438v54.910156c.019531 15.09375 12.246093 27.320313 27.339843 27.339844h61.5625v253.074219c-.011718 13.621093-11.054687 24.664062-24.675781 24.675781zm0 0" fill="url(#b)"/><path d="m212.707031 193.855469c-3.574219-4.160157-9.828125-4.664063-14.023437-1.132813-4.195313 3.53125-4.765625 9.78125-1.277344 14.011719l22.457031 26.683594-22.457031 26.683593c-2.363281 2.699219-3.097656 6.457032-1.925781 9.847657s4.066406 5.894531 7.59375 6.5625c3.523437.664062 7.136719-.605469 9.464843-3.335938.054688-.066406.113282-.128906.167969-.199219l27.878907-33.121093c3.132812-3.722657 3.132812-9.15625 0-12.878907zm0 0" fill="url(#c)"/><path d="m121.109375 192.644531c-4.226563-3.554687-10.535156-3.015625-14.089844 1.210938l-27.882812 33.125c-3.128907 3.71875-3.128907 9.15625 0 12.875l27.882812 33.125c3.578125 4.140625 9.820313 4.636719 14.003907 1.113281 4.1875-3.523438 4.765624-9.761719 1.296874-13.992188l-22.457031-26.683593 22.460938-26.683594c3.554687-4.226563 3.011719-10.535156-1.214844-14.089844zm0 0" fill="url(#d)"/><path d="m169.800781 168.332031c-5.453125-.84375-10.558593 2.902344-11.398437 8.355469v.019531l-16.855469 110.402344c-.832031 5.460937 2.917969 10.5625 8.378906 11.398437 5.457031.832032 10.558594-2.917968 11.394531-8.378906l16.859376-110.398437c.835937-5.460938-2.914063-10.566407-8.371094-11.402344zm0 0" fill="url(#b)"/></svg>