<svg height="400pt" viewBox="0 -4 400.004 400" width="400pt" xmlns="http://www.w3.org/2000/svg" xmlns:xlink="http://www.w3.org/1999/xlink"><linearGradient id="a"><stop offset=".322" stop-color="#a163f5"/><stop offset=".466" stop-color="#b074ee"/><stop offset=".752" stop-color="#d8a1dd"/><stop offset=".898" stop-color="#efbad3"/></linearGradient><linearGradient id="b" gradientTransform="matrix(1 0 0 -1 -56 454.081)" gradientUnits="userSpaceOnUse" x1="253.83" x2="257.657" xlink:href="#a" y1="-32.973" y2="479.847"/><linearGradient id="c" gradientTransform="matrix(1 0 0 -1 -56 454.081)" gradientUnits="userSpaceOnUse" x1="253.829" x2="257.656" xlink:href="#a" y1="-32.973" y2="479.847"/><path d="m390.898438 158.804688-34.089844-3.082032c-3.734375-13.992187-9.40625-27.390625-16.84375-39.816406l21.734375-25.617188c3.394531-4 3.121093-9.941406-.628907-13.613281l-39.449218-38.636719c-3.632813-3.558593-9.363282-3.820312-13.308594-.609374l-26.398438 21.488281c-12.820312-7.394531-26.59375-12.996094-40.933593-16.65625l-3.125-33.199219c-.484375-5.136719-4.796875-9.0625-9.957031-9.05859375h-55.789063c-5.160156-.00390625-9.472656 3.92187475-9.957031 9.05859375l-3.128906 33.199219c-14.339844 3.660156-28.109376 9.261719-40.929688 16.65625l-26.402344-21.488281c-3.945312-3.210938-9.671875-2.949219-13.308594.609374l-39.453124 38.640626c-3.75 3.671874-4.023438 9.613281-.628907 13.617187l21.734375 25.617187c-7.4375 12.421876-13.109375 25.820313-16.84375 39.808594l-34.089844 3.082032c-5.15625.464843-9.101562 4.785156-9.101562 9.957031v54.636719c0 5.175781 3.945312 9.496093 9.101562 9.960937l34.089844 3.082031c3.734375 13.988282 9.40625 27.390625 16.84375 39.8125l-21.734375 25.617188c-3.394531 4-3.121093 9.945312.628907 13.613281l39.449218 38.636719c3.632813 3.558594 9.363282 3.824218 13.308594.609375l26.398438-21.484375c12.820312 7.390625 26.59375 12.996094 40.933593 16.652344l3.125 33.199218c.484375 5.136719 4.796875 9.0625 9.957031 9.0625h55.800782c5.160156 0 9.472656-3.925781 9.957031-9.0625l3.125-33.199218c14.339844-3.65625 28.113281-9.261719 40.933594-16.652344l26.398437 21.484375c3.945313 3.214843 9.675782 2.949219 13.3125-.609375l39.445313-38.636719c3.75-3.667969 4.023437-9.613281.628906-13.613281l-21.734375-25.617188c7.4375-12.421875 13.109375-25.824218 16.84375-39.8125l34.089844-3.082031c5.15625-.464844 9.101562-4.785156 9.101562-9.960937v-54.636719c0-5.175781-3.949218-9.496094-9.105468-9.957031zm-10.898438 55.457031-32.128906 2.902343c-4.355469.394532-7.949219 3.570313-8.871094 7.847657-3.609375 16.628906-10.304688 32.429687-19.738281 46.589843-2.460938 3.710938-2.175781 8.605469.707031 12l20.457031 24.109376-26.414062 25.871093-24.941407-20.300781c-3.339843-2.71875-8.046874-2.992188-11.683593-.679688-14.597657 9.308594-30.765625 15.878907-47.71875 19.386719-4.296875.894531-7.511719 4.484375-7.925781 8.855469l-2.949219 31.3125h-37.585938l-2.949219-31.3125c-.414062-4.371094-3.628906-7.960938-7.925781-8.855469-16.953125-3.511719-33.121093-10.078125-47.71875-19.386719-3.636719-2.3125-8.34375-2.039062-11.683593.679688l-24.941407 20.300781-26.414062-25.871093 20.457031-24.109376c2.882812-3.398437 3.171875-8.289062.707031-12-9.433593-14.160156-16.128906-29.964843-19.738281-46.589843-.925781-4.273438-4.519531-7.449219-8.871094-7.84375l-32.128906-2.90625v-36.363281l32.128906-2.898438c4.355469-.394531 7.949219-3.574219 8.871094-7.847656 3.605469-16.628906 10.304688-32.433594 19.738281-46.59375 2.464844-3.710938 2.175781-8.601563-.707031-12l-20.457031-24.109375 26.414062-25.871094 24.941407 20.300781c3.339843 2.71875 8.046874 2.992188 11.683593.679688 14.597657-9.308594 30.765625-15.878906 47.71875-19.386719 4.296875-.894531 7.511719-4.484375 7.925781-8.855469l2.949219-31.3125h37.585938l2.949219 31.3125c.414062 4.371094 3.628906 7.960938 7.925781 8.855469 16.953125 3.507813 33.121093 10.078125 47.71875 19.386719 3.636719 2.3125 8.34375 2.039062 11.683593-.679688l24.941407-20.300781 26.414062 25.871094-20.457031 24.109375c-2.882812 3.398437-3.167969 8.289062-.707031 12 9.4375 14.160156 16.132812 29.964844 19.738281 46.59375.925781 4.273437 4.519531 7.449218 8.871094 7.84375l32.128906 2.898437zm0 0" fill="url(#b)"/><path d="m200 139.035156c-32 0-58.039062 25.589844-58.039062 57.046875 0 31.453125 26.039062 57.046875 58.039062 57.046875s58.039062-25.59375 58.039062-57.046875c0-31.457031-26.039062-57.046875-58.039062-57.046875zm0 94.09375c-20.976562 0-38.039062-16.621094-38.039062-37.046875 0-20.429687 17.0625-37.046875 38.039062-37.046875s38.039062 16.617188 38.039062 37.046875c0 20.425781-17.0625 37.046875-38.039062 37.046875zm0 0" fill="url(#c)"/></svg>