<svg height="400pt" viewBox="0 0 400 400" width="400pt" xmlns="http://www.w3.org/2000/svg" xmlns:xlink="http://www.w3.org/1999/xlink"><linearGradient id="a" gradientUnits="userSpaceOnUse" x1="200" x2="200" y1="405" y2="-9.0048"><stop offset=".322" stop-color="#a163f5"/><stop offset=".466" stop-color="#b074ee"/><stop offset=".752" stop-color="#d8a1dd"/><stop offset=".898" stop-color="#efbad3"/></linearGradient><g fill="url(#a)"><path d="m200 0c-110.300781 0-200 89.699219-200 200s89.699219 200 200 200 200-89.699219 200-200-89.699219-200-200-200zm138.101562 210h41.597657c-2.199219 40.800781-18.300781 79.601562-45.597657 109.898438l-29.402343-29.398438c-3.898438-3.898438-10.300781-3.898438-14.097657.101562-3.902343 3.898438-3.902343 10.199219 0 14.097657l29.398438 29.402343c-30.398438 27.296876-69.199219 43.398438-109.898438 45.597657v-41.597657c0-5.5-4.5-10-10-10s-10 4.5-10 10v41.597657c-40.800781-2.199219-79.601562-18.300781-109.902343-45.597657l29.402343-29.402343c3.898438-3.898438 3.898438-10.300781-.101562-14.097657-3.898438-3.902343-10.199219-3.902343-14.101562 0l-29.398438 29.398438c-27.398438-30.398438-43.5-69.199219-45.699219-110h41.597657c5.5 0 10-4.5 10-10s-4.5-10-10-10h-41.597657c2.199219-40.800781 18.300781-79.601562 45.597657-109.898438l29.402343 29.398438c3.898438 3.898438 10.300781 3.898438 14.097657-.101562 3.902343-3.898438 3.902343-10.199219 0-14.097657l-29.398438-29.402343c30.398438-27.296876 69.199219-43.398438 109.898438-45.597657v41.597657c0 5.5 4.5 10 10 10s10-4.5 10-10v-41.597657c40.800781 2.199219 79.601562 18.300781 109.902343 45.597657l-29.402343 29.402343c-3.898438 4-3.796876 10.300781.203124 14.097657 3.898438 3.800781 10 3.800781 13.898438.101562l29.5-29.5c27.300781 30.398438 43.398438 69.199219 45.601562 109.898438h-41.601562c-5.5 0-10 4.5-10 10 .101562 5.601562 4.601562 10.101562 10.101562 10.101562zm0 0"/><path d="m267 120.101562-102.300781 38.898438c-2.699219 1-4.800781 3.101562-5.800781 5.800781l-38.796876 102.199219c-2 5.199219.597657 10.898438 5.796876 12.898438 2.300781.902343 4.800781.902343 7.101562 0l102.300781-38.898438c2.699219-1 4.800781-3.101562 5.800781-5.800781l38.796876-102.199219c2-5.199219-.597657-10.898438-5.796876-12.898438-2.300781-.902343-4.800781-.902343-7.101562 0zm-95 66.597657 41.300781 41.300781-66.601562 25.300781zm55.699219 27.402343-41.800781-41.800781 67.402343-25.601562zm0 0"/></g></svg>