<svg height="400pt" viewBox="0 0 400 400" width="400pt" xmlns="http://www.w3.org/2000/svg" xmlns:xlink="http://www.w3.org/1999/xlink"><linearGradient id="a"><stop offset=".322" stop-color="#a163f5"/><stop offset=".466" stop-color="#b074ee"/><stop offset=".752" stop-color="#d8a1dd"/><stop offset=".898" stop-color="#efbad3"/></linearGradient><linearGradient id="b" gradientTransform="matrix(1 0 0 -1 -56 456.378)" gradientUnits="userSpaceOnUse" x1="381.773" x2="390.774" xlink:href="#a" y1="84.15" y2="477.189"/><linearGradient id="c" gradientTransform="matrix(1 0 0 -1 -56 456.378)" gradientUnits="userSpaceOnUse" x1="254.545" x2="263.546" xlink:href="#a" y1="87.064" y2="480.103"/><linearGradient id="d" gradientTransform="matrix(1 0 0 -1 -56 456.378)" gradientUnits="userSpaceOnUse" x1="249.707" x2="258.708" xlink:href="#a" y1="87.174" y2="480.214"/><linearGradient id="e" gradientTransform="matrix(1 0 0 -1 -56 456.378)" gradientUnits="userSpaceOnUse" x1="122.477" x2="131.478" xlink:href="#a" y1="90.088" y2="483.127"/><path d="m390 190h-100.351562l23.875-31.253906c3.351562-4.386719 2.511718-10.664063-1.875-14.015625-4.390626-3.351563-10.667969-2.511719-14.019532 1.875l-36.152344 47.324219c-.066406.089843-.128906.183593-.191406.277343-.066406.089844-.148437.199219-.214844.304688-.101562.160156-.203124.320312-.292968.484375-.058594.097656-.121094.199218-.175782.300781-.136718.253906-.261718.515625-.375.78125-.039062.085937-.066406.179687-.101562.265625-.074219.191406-.148438.382812-.210938.578125-.039062.121094-.070312.242187-.101562.363281-.046875.175782-.097656.347656-.132812.523438-.027344.121094-.050782.246094-.074219.367187-.039063.195313-.066407.390625-.089844.585938-.011719.105469-.03125.210937-.039063.316406-.054687.617187-.054687 1.234375 0 1.847656.007813.105469.027344.214844.039063.320313.023437.199218.050781.386718.089844.578125.023437.128906.046875.25.074219.375.039062.171875.085937.34375.132812.515625.035156.125.066406.25.105469.371094.0625.1875.132812.375.207031.558593.035156.09375.066406.191407.105469.285157.113281.261718.238281.519531.375.777343.058593.105469.121093.207031.183593.3125.089844.15625.183594.3125.28125.464844.074219.109375.148438.214844.222657.320313.066406.085937.121093.179687.191406.269531l36.148437 47.320312c3.316407 4.417969 9.582032 5.316407 14 2 4.417969-3.3125 5.316407-9.582031 2-14-.035156-.046875-.070312-.097656-.109374-.140625l-23.871094-31.253906h100.347656c5.523438 0 10-4.476562 10-10s-4.476562-10-10-10zm0 0" fill="url(#b)"/><path d="m253.394531 297.628906-47.324219-36.152344c-.085937-.066406-.179687-.125-.269531-.1875-.105469-.074218-.210937-.152343-.320312-.222656-.152344-.101562-.304688-.191406-.460938-.28125-.105469-.0625-.207031-.125-.316406-.183594-.246094-.128906-.492187-.25-.746094-.359374-.109375-.046876-.222656-.085938-.332031-.128907-.179688-.070312-.359375-.140625-.539062-.199219-.125-.042968-.253907-.074218-.378907-.109374-.167969-.046876-.335937-.09375-.5-.128907-.128906-.03125-.253906-.054687-.382812-.078125-.1875-.035156-.378907-.0625-.566407-.085937-.113281-.015625-.222656-.03125-.335937-.042969-.300781-.027344-.601563-.042969-.894531-.042969h-.046875c-.296875 0-.597657.015625-.890625.042969-.113282.011719-.226563.027344-.335938.042969-.191406.023437-.378906.050781-.566406.085937-.128906.023438-.257812.046875-.382812.078125-.167969.035157-.335938.082031-.5.128907-.128907.035156-.253907.066406-.378907.109374-.183593.058594-.363281.125-.542969.199219-.109374.042969-.222656.082031-.328124.128907-.253907.109374-.5.230468-.746094.359374-.109375.058594-.214844.121094-.320313.183594-.152343.089844-.308593.183594-.460937.28125-.105469.070313-.210938.148438-.316406.222656-.09375.0625-.183594.121094-.269532.1875l-47.324218 36.152344c-4.390626 3.351563-5.230469 9.628906-1.878907 14.015625 3.355469 4.390625 9.628907 5.230469 14.019531 1.878907l31.242188-23.875v100.351562c0 5.523438 4.476562 10 10 10s10-4.476562 10-10v-100.351562l31.253906 23.875c4.386719 3.351562 10.664063 2.511718 14.015625-1.878907 3.355469-4.386719 2.511719-10.664062-1.875-14.015625zm0 0" fill="url(#c)"/><path d="m241.253906 86.476562-31.253906 23.875v-100.351562c0-5.523438-4.476562-10-10-10s-10 4.476562-10 10v100.351562l-31.253906-23.875c-4.386719-3.351562-10.664063-2.511718-14.015625 1.878907-3.355469 4.386719-2.511719 10.664062 1.875 14.015625l47.324219 36.152344c.089843.066406.179687.125.269531.1875.105469.074218.210937.152343.320312.222656.152344.101562.304688.191406.460938.28125.105469.0625.207031.128906.316406.183594.25.132812.5.257812.757813.367187.101562.042969.210937.078125.3125.121094.183593.070312.363281.140625.550781.199219.121093.039062.246093.070312.371093.105468.171876.050782.34375.09375.515626.132813.121093.027343.246093.054687.375.078125.191406.035156.382812.0625.574218.085937.109375.015625.214844.03125.324219.039063.308594.03125.613281.046875.921875.046875s.613281-.015625.921875-.046875c.109375-.007813.214844-.023438.324219-.039063.191406-.023437.382812-.050781.574218-.085937.128907-.023438.253907-.050782.375-.078125.171876-.039063.34375-.082031.515626-.132813.125-.035156.25-.066406.371093-.105468.1875-.0625.367188-.132813.550781-.199219.097657-.042969.210938-.078125.3125-.121094.257813-.109375.507813-.234375.757813-.367187.109375-.054688.210937-.121094.316406-.183594.15625-.089844.308594-.179688.460938-.28125.109375-.070313.214843-.148438.320312-.222656.089844-.0625.179688-.121094.269531-.1875l47.324219-36.152344c4.386719-3.351563 5.230469-9.628906 1.875-14.015625-3.351562-4.390625-9.628906-5.230469-14.015625-1.878907zm0 0" fill="url(#d)"/><path d="m139.21875 205.015625c.058594-.101563.125-.199219.179688-.3125.136718-.253906.261718-.515625.375-.777344.039062-.09375.070312-.1875.105468-.28125.074219-.1875.144532-.375.207032-.5625.039062-.121093.070312-.246093.105468-.367187.050782-.171875.09375-.347656.132813-.519532.027343-.121093.054687-.246093.078125-.371093.035156-.195313.0625-.386719.085937-.582031.015625-.105469.03125-.210938.039063-.320313.058594-.613281.058594-1.230469 0-1.84375-.007813-.109375-.023438-.214844-.039063-.320313-.023437-.199218-.050781-.390624-.085937-.582031-.023438-.125-.046875-.246093-.078125-.371093-.039063-.175782-.085938-.351563-.132813-.523438-.035156-.121094-.066406-.242188-.101562-.359375-.0625-.195313-.136719-.390625-.210938-.582031-.035156-.085938-.0625-.175782-.101562-.265625-.113282-.265625-.238282-.523438-.375-.78125-.054688-.101563-.117188-.199219-.171875-.300781-.09375-.164063-.191407-.324219-.292969-.480469-.070312-.101563-.144531-.203125-.214844-.308594-.074218-.105469-.125-.1875-.195312-.277344l-36.152344-47.324219c-3.351562-4.386718-9.628906-5.226562-14.015625-1.875-4.390625 3.355469-5.230469 9.628907-1.875 14.019532l23.871094 31.25h-100.355469c-5.523438 0-10 4.476562-10 10 0 5.523437 4.476562 10 10 10h100.351562l-23.875 31.253906c-3.390624 4.359375-2.605468 10.640625 1.75 14.035156 4.359376 3.390625 10.644532 2.605469 14.035157-1.753906.039062-.046875.074219-.09375.109375-.140625l36.152344-47.324219c.066406-.085937.125-.179687.1875-.269531.074218-.101563.152343-.210937.222656-.316406.101562-.152344.191406-.308594.285156-.464844zm0 0" fill="url(#e)"/></svg>