<svg height="443pt" viewBox="0 -21 443.376 443" width="443pt" xmlns="http://www.w3.org/2000/svg" xmlns:xlink="http://www.w3.org/1999/xlink"><linearGradient id="a" gradientTransform="matrix(1 0 0 -1 -34.312 456.566)" gradientUnits="userSpaceOnUse" x1="246.158" x2="255.158" y1="-131.538" y2="261.501"><stop offset=".322" stop-color="#a163f5"/><stop offset=".466" stop-color="#b074ee"/><stop offset=".752" stop-color="#d8a1dd"/><stop offset=".898" stop-color="#efbad3"/></linearGradient><path d="m404.128906.1875h-364.882812c-21.664063.023438-39.2226565 17.582031-39.246094 39.246094v237.675781c.0234375 21.667969 17.582031 39.222656 39.246094 39.25h116.492187v63.828125h-23.9375c-5.523437 0-10 4.476562-10 10s4.476563 10 10 10h185.039063c5.523437 0 10-4.476562 10-10s-4.476563-10-10-10h-29.199219v-63.828125h116.488281c21.664063-.027344 39.222656-17.582031 39.246094-39.25v-237.675781c-.023438-21.664063-17.582031-39.222656-39.246094-39.246094zm-364.882812 20h364.882812c10.625.011719 19.234375 8.621094 19.246094 19.246094v200.976562h-403.375v-200.976562c.011719-10.625 8.621094-19.234375 19.246094-19.246094zm228.390625 360h-91.902344v-63.828125h91.902344zm136.492187-83.828125h-364.882812c-10.625-.011719-19.234375-8.625-19.246094-19.25v-16.699219h403.375v16.699219c-.011719 10.625-8.621094 19.238281-19.246094 19.25zm0 0" fill="url(#a)"/></svg>