<svg height="420pt" viewBox="-25 0 420 420" width="420pt" xmlns="http://www.w3.org/2000/svg" xmlns:xlink="http://www.w3.org/1999/xlink"><linearGradient id="a"><stop offset=".322" stop-color="#a163f5"/><stop offset=".466" stop-color="#b074ee"/><stop offset=".752" stop-color="#d8a1dd"/><stop offset=".898" stop-color="#efbad3"/></linearGradient><linearGradient id="b" gradientTransform="matrix(1 0 0 -1 -73.1 468)" gradientUnits="userSpaceOnUse" x1="257.95" x2="257.95" xlink:href="#a" y1="34" y2="488.04"/><linearGradient id="c" gradientTransform="matrix(1 0 0 -1 -73.1 468)" gradientUnits="userSpaceOnUse" x1="274.7" x2="274.7" xlink:href="#a" y1="34" y2="488.04"/><path d="m319.800781 0h-236.300781c-27.609375.0117188-49.988281 22.390625-50 50v21.601562h-23.5c-5.523438 0-10 4.476563-10 10 0 5.519532 4.476562 10 10 10h23.398438v65.597657h-23.398438c-5.523438 0-10 4.476562-10 10 0 5.523437 4.476562 10 10 10h23.398438v65.601562h-23.398438c-5.523438 0-10 4.476563-10 10 0 5.523438 4.476562 10 10 10h23.398438v65.597657h-23.398438c-5.523438 0-10 4.480468-10 10 0 5.523437 4.476562 10 10 10h23.398438v21.601562c.011718 27.609375 22.390624 49.988281 50 50h236.300781c27.609375-.011719 49.992187-22.390625 50-50v-320c.039062-27.589844-22.308594-49.9804688-49.898438-50zm30 370c-.050781 16.546875-13.453125 29.953125-30 30h-236.300781c-16.546875-.046875-29.953125-13.453125-30-30v-21.601562h23.398438c5.523437 0 10-4.476563 10-10 0-5.519532-4.476563-10-10-10h-23.398438v-65.597657h23.398438c5.523437 0 10-4.476562 10-10 0-5.523437-4.476563-10-10-10h-23.398438v-65.601562h23.398438c5.523437 0 10-4.476563 10-10 0-5.523438-4.476563-10-10-10h-23.398438v-65.597657h23.398438c5.523437 0 10-4.480468 10-10 0-5.523437-4.476563-10-10-10h-23.398438v-21.601562c.046875-16.546875 13.453125-29.953125 30-30h236.300781c16.546875.046875 29.949219 13.453125 30 30zm0 0" fill="url(#b)"/><g fill="url(#c)"><path d="m201.601562 207.101562c26.785157 0 48.5-21.714843 48.5-48.5 0-26.789062-21.714843-48.5-48.5-48.5-26.789062 0-48.5 21.710938-48.5 48.5.023438 26.773438 21.722657 48.472657 48.5 48.5zm0-77.101562c15.738282 0 28.5 12.761719 28.5 28.5s-12.761718 28.5-28.5 28.5c-15.742187 0-28.5-12.761719-28.5-28.5.027344-15.726562 12.769532-28.472656 28.5-28.5zm0 0"/><path d="m201.601562 223.199219c-41.601562 0-74.203124 33.699219-74.203124 76.800781.015624 5.515625 4.484374 9.984375 10 10h128.402343c5.515625-.015625 9.984375-4.484375 10-10 0-43.101562-32.601562-76.800781-74.199219-76.800781zm-53.402343 66.800781c4.300781-27.300781 25.800781-46.800781 53.402343-46.800781 27.597657 0 49.199219 19.5 53.398438 46.800781zm0 0"/></g></svg>