<svg height="400pt" viewBox="-4 0 400 400" width="400pt" xmlns="http://www.w3.org/2000/svg" xmlns:xlink="http://www.w3.org/1999/xlink"><linearGradient id="a" gradientTransform="matrix(1 0 0 -1 -60.184 458)" gradientUnits="userSpaceOnUse" x1="256" x2="256" y1="14" y2="444.019"><stop offset=".322" stop-color="#a163f5"/><stop offset=".466" stop-color="#b074ee"/><stop offset=".752" stop-color="#d8a1dd"/><stop offset=".898" stop-color="#efbad3"/></linearGradient><g fill="url(#a)"><path d="m260.132812 129.867188h-128.632812c-5.523438 0-10 4.476562-10 10v128.632812c0 5.523438 4.476562 10 10 10h128.632812c5.523438 0 10-4.476562 10-10v-128.632812c0-5.523438-4.476562-10-10-10zm-10 128.632812h-108.632812v-108.632812h108.632812zm0 0"/><path d="m381.632812 172.035156c5.523438 0 10-4.476562 10-10 0-5.523437-4.476562-10-10-10h-49.761718v-22.144531h24.660156c5.523438 0 10-4.480469 10-10 0-5.523437-4.476562-10-10-10h-25.351562c-3.550782-21.039063-20.03125-37.519531-41.070313-41.070313v-25.351562c0-5.523438-4.476563-10-10-10-5.519531 0-10 4.476562-10 10v24.660156h-22.144531v-58.128906c0-5.523438-4.480469-10-10-10-5.523438 0-10 4.476562-10 10v58.128906h-22.148438v-24.660156c0-5.523438-4.476562-10-10-10-5.523437 0-10 4.476562-10 10v24.660156h-22.148437v-58.128906c0-5.523438-4.476563-10-10-10-5.523438 0-10 4.476562-10 10v58.128906h-22.148438v-24.660156c0-5.523438-4.476562-10-10-10-5.519531 0-10 4.476562-10 10v25.351562c-21.035156 3.550782-37.515625 20.03125-41.070312 41.070313h-25.347657c-5.523437 0-10 4.476563-10 10 0 5.519531 4.476563 10 10 10h24.660157v22.144531h-49.761719c-5.523438 0-10 4.476563-10 10 0 5.523438 4.476562 10 10 10h49.761719v22.148438h-24.660157c-5.523437 0-10 4.476562-10 10 0 5.523437 4.476563 10 10 10h24.660157v22.148437h-49.761719c-5.523438 0-10 4.476563-10 10 0 5.523438 4.476562 10 10 10h49.761719v22.144531h-24.660157c-5.523437 0-10 4.480469-10 10 0 5.523438 4.476563 10 10 10h25.347657c3.554687 21.039063 20.035156 37.519532 41.070312 41.070313v25.351563c0 5.523437 4.480469 10 10 10 5.523438 0 10-4.476563 10-10v-24.660157h22.148438v49.761719c0 5.523438 4.476562 10 10 10 5.523437 0 10-4.476562 10-10v-49.761719h22.148437v24.660157c0 5.523437 4.476563 10 10 10 5.523438 0 10-4.476563 10-10v-24.660157h22.148438v49.761719c0 5.523438 4.476562 10 10 10 5.519531 0 10-4.476562 10-10v-49.761719h22.152344v24.660157c0 5.523437 4.476562 10 10 10 5.523437 0 10-4.476563 10-10v-25.351563c21.035156-3.550781 37.515624-20.03125 41.070312-41.070313h25.347656c5.523438 0 10-4.476562 10-10 0-5.519531-4.476562-10-10-10h-24.664062v-22.144531h49.761718c5.523438 0 10-4.476562 10-10 0-5.523437-4.476562-10-10-10h-49.761718v-22.148437h24.660156c5.523438 0 10-4.476563 10-10 0-5.523438-4.476562-10-10-10h-24.660156v-22.148438zm-99.761718 148.199219h-.878906c-.292969-.023437-.585938-.042969-.882813-.042969s-.585937.019532-.878906.042969h-40.386719c-.289062-.023437-.582031-.042969-.878906-.042969-.300782 0-.589844.019532-.878906.042969h-40.390626c-.289062-.023437-.582031-.042969-.878906-.042969s-.589844.019532-.878906.042969h-40.390625c-.289063-.023437-.582031-.042969-.878906-.042969s-.589844.019532-.878907.042969h-40.386718c-.292969-.023437-.585938-.042969-.882813-.042969s-.585937.019532-.878906.042969h-.878906c-16.5625-.015625-29.984375-13.4375-30-30v-.871094c.023437-.292969.042969-.589843.042969-.886719 0-.300781-.019532-.601562-.042969-.890624v-40.363282c.023437-.296875.042969-.589844.042969-.890625s-.019532-.601562-.042969-.890625v-40.367187c.023437-.292969.042969-.589844.042969-.890625 0-.300782-.019532-.597656-.042969-.890625v-40.367188c.023437-.292969.042969-.589843.042969-.890625 0-.300781-.019532-.597656-.042969-.886718v-40.371094c.023437-.292969.042969-.589844.042969-.886719 0-.300781-.019532-.601563-.042969-.890625v-.871094c.015625-16.5625 13.4375-29.980468 30-30h.890625c.285156.023438.574218.042969.867187.042969.296875 0 .585938-.019531.871094-.042969h40.40625c.289063.023438.578125.042969.871094.042969.296875 0 .585937-.019531.871093-.042969h40.40625c.289063.023438.578126.042969.871094.042969.292969 0 .582032-.019531.871094-.042969h40.40625c.285156.023438.578125.042969.871094.042969.292968 0 .582031-.019531.871094-.042969h40.40625c.285156.023438.574218.042969.867187.042969.296875 0 .585937-.019531.871094-.042969h.890625c16.5625.019532 29.980468 13.4375 30 30v.871094c-.023438.292969-.042969.589844-.042969.890625 0 .296875.019531.597656.042969.886719v40.371094c-.023438.292968-.042969.585937-.042969.886718 0 .300782.019531.601563.042969.890625v40.367188c-.023438.296875-.042969.589843-.042969.890625 0 .300781.019531.601562.042969.890625v40.367187c-.023438.292969-.042969.589844-.042969.890625s.019531.597657.042969.890625v40.367188c-.023438.292968-.042969.589844-.042969.886718 0 .300782.019531.601563.042969.890626v.871093c-.019532 16.5625-13.4375 29.980469-30 30zm0 0"/></g></svg>