<svg height="424pt" viewBox="-12 0 424 424.5" width="424pt" xmlns="http://www.w3.org/2000/svg" xmlns:xlink="http://www.w3.org/1999/xlink"><linearGradient id="a" gradientUnits="userSpaceOnUse" x1="200.2" x2="200.2" y1="428.3" y2="-10.864"><stop offset=".322" stop-color="#a163f5"/><stop offset=".466" stop-color="#b074ee"/><stop offset=".752" stop-color="#d8a1dd"/><stop offset=".898" stop-color="#efbad3"/></linearGradient><path d="m356.75 204h-6.800781v-54.300781c0-82.5-67.199219-149.699219-149.699219-149.699219s-149.699219 67.199219-149.699219 149.699219v54.300781h-6.800781c-24.015625.015625-43.484375 19.484375-43.5 43.5v44.800781c.015625 24.015625 19.484375 43.480469 43.5 43.5h39.101562c5.515626-.015625 9.984376-4.484375 10-10v-111.800781c-.015624-5.515625-4.484374-9.984375-10-10h-12.402343v-54.300781c0-71.5 58.199219-129.699219 129.699219-129.699219s129.703124 58.199219 129.703124 129.699219v54.300781h-12.402343c-5.515625.015625-9.984375 4.484375-10 10v111.800781c.015625 5.515625 4.484375 9.984375 10 10h12.402343v13.300781c-.03125 16.777344-13.625 30.371094-30.402343 30.398438h-19.597657c-.980468.027344-1.953124.164062-2.902343.398438-4.300781-15.039063-18.054688-25.40625-33.699219-25.398438h-49.199219c-19.332031 0-35 15.671875-35 35s15.667969 35 35 35h49.199219c15.632812-.03125 29.363281-10.382812 33.699219-25.398438.941406.285157 1.917969.421876 2.902343.398438h19.597657c27.824219-.023438 50.375-22.574219 50.402343-50.398438v-13.300781h6.796876c24.019531-.019531 43.484374-19.484375 43.5-43.5v-44.699219c.054687-11.546874-4.496094-22.636718-12.640626-30.820312-8.144531-8.179688-19.210937-12.78125-30.757812-12.78125zm-283.898438 111.800781h-29.101562c-12.96875-.019531-23.480469-10.53125-23.5-23.5v-44.699219c.019531-12.972656 10.53125-23.480468 23.5-23.5h29.101562zm170.5 88.699219h-49.203124c-8.28125 0-15-6.714844-15-15s6.71875-15 15-15h49.203124c8.28125 0 15 6.714844 15 15s-6.71875 15-15 15zm136.898438-112.199219c-.019531 12.96875-10.53125 23.480469-23.5 23.5h-29.101562v-91.800781h29.101562c12.96875.019531 23.480469 10.53125 23.5 23.5zm0 0" fill="url(#a)"/></svg>