<svg height="450pt" viewBox="-56 0 450 450" width="450pt" xmlns="http://www.w3.org/2000/svg" xmlns:xlink="http://www.w3.org/1999/xlink"><linearGradient id="a"><stop offset=".322" stop-color="#a163f5"/><stop offset=".466" stop-color="#b074ee"/><stop offset=".752" stop-color="#d8a1dd"/><stop offset=".898" stop-color="#efbad3"/></linearGradient><linearGradient id="b" gradientTransform="matrix(1 0 0 -1 -87.3 483)" gradientUnits="userSpaceOnUse" x1="256" x2="256" xlink:href="#a" y1="24" y2="487.039"/><linearGradient id="c" gradientTransform="matrix(1 0 0 -1 -87.3 483)" gradientUnits="userSpaceOnUse" x1="255.95" x2="255.95" xlink:href="#a" y1="24" y2="487.039"/><path d="m287.398438 31.601562h-44v-21.601562c-.015626-5.515625-4.480469-9.984375-10-10h-129.398438c-5.515625.015625-9.984375 4.484375-10 10v21.601562h-44c-27.609375.007813-49.9882812 22.386719-50 50v318.398438c.0117188 27.609375 22.390625 49.988281 50 50h237.398438c27.613281-.011719 49.992187-22.390625 50-50v-318.398438c-.007813-27.613281-22.386719-49.992187-50-50zm-173.398438-11.601562h109.398438v41.398438h-109.398438zm203.398438 380c-.046876 16.546875-13.449219 29.953125-30 30h-237.398438c-16.546875-.046875-29.953125-13.453125-30-30v-318.398438c.046875-16.550781 13.453125-29.953124 30-30h44v19.898438c.015625 5.515625 4.484375 9.984375 10 10h129.398438c5.519531-.015625 9.984374-4.484375 10-10v-19.898438h44c16.550781.046876 29.953124 13.449219 30 30zm0 0" fill="url(#b)"/><path d="m253.601562 285.898438h-169.800781c-5.523437 0-10 4.480468-10 10 0 5.523437 4.476563 10 10 10h169.699219c5.523438.027343 10.023438-4.425782 10.050781-9.949219.027344-5.523438-4.429687-10.023438-9.949219-10.050781zm0 0" fill="url(#c)"/><path d="m253.601562 345.300781h-169.800781c-5.523437 0-10 4.476563-10 10 0 5.523438 4.476563 10 10 10h169.699219c5.523438.027344 10.023438-4.429687 10.050781-9.949219.027344-5.523437-4.429687-10.023437-9.949219-10.050781zm0 0" fill="url(#c)"/><g fill="url(#b)"><path d="m168.699219 184.300781c20.269531 0 36.699219-16.433593 36.699219-36.699219 0-20.269531-16.429688-36.703124-36.699219-36.703124s-36.699219 16.433593-36.699219 36.703124c.011719 20.261719 16.4375 36.683594 36.699219 36.699219zm0-53.300781c9.222656 0 16.699219 7.476562 16.699219 16.699219 0 9.222656-7.476563 16.699219-16.699219 16.699219-9.222657 0-16.699219-7.476563-16.699219-16.699219.015625-9.214844 7.484375-16.683594 16.699219-16.699219zm0 0"/><path d="m128.699219 259c5.515625-.015625 9.984375-4.484375 10-10v-8c0-16.570312 13.433593-30 30-30 16.570312 0 30 13.429688 30 30v8c0 5.523438 4.476562 10 10 10 5.523437 0 10-4.476562 10-10v-8c0-27.613281-22.386719-50-50-50s-50 22.386719-50 50v8c.015625 5.515625 4.484375 9.984375 10 10zm0 0"/></g></svg>