<svg height="406pt" viewBox="0 0 406.94095 406" width="406pt" xmlns="http://www.w3.org/2000/svg" xmlns:xlink="http://www.w3.org/1999/xlink"><linearGradient id="a"><stop offset=".322" stop-color="#a163f5"/><stop offset=".466" stop-color="#b074ee"/><stop offset=".752" stop-color="#d8a1dd"/><stop offset=".898" stop-color="#efbad3"/></linearGradient><linearGradient id="b" gradientTransform="matrix(1 0 0 -1 -40.763178 459.476274)" gradientUnits="userSpaceOnUse" x1="242.188" x2="246.015" xlink:href="#a" y1="-3.528" y2="509.292"/><linearGradient id="c" gradientTransform="matrix(.999849 0 0 -.999849 -40.763091 459.476457)" gradientUnits="userSpaceOnUse" x1="345.45" x2="349.277" xlink:href="#a" y1="-4.299" y2="508.521"/><linearGradient id="d" gradientTransform="matrix(.999849 0 0 -.999849 -40.763106 459.476451)" gradientUnits="userSpaceOnUse" x1="376.493" x2="380.32" xlink:href="#a" y1="-4.531" y2="508.29"/><path d="m332.878906 9.242188c-11.722656-11.695313-30.703125-11.695313-42.425781 0l-53.265625 53.265624-12.101562-12.097656c-3.90625-3.90625-10.238282-3.90625-14.140626 0l-196.300781 196.289063c-19.527343 19.527343-19.527343 51.1875 0 70.710937l75.351563 75.351563c19.539062 19.496093 51.171875 19.496093 70.710937 0l196.292969-196.292969c3.90625-3.90625 3.90625-10.238281 0-14.140625l-12.097656-12.101563 53.265625-53.269531c11.695312-11.722656 11.695312-30.699219 0-42.425781zm-186.3125 369.378906c-11.726562 11.695312-30.703125 11.695312-42.429687 0l-75.347657-75.351563c-11.699218-11.722656-11.699218-30.703125 0-42.425781l48.464844-48.46875 117.773438 117.78125zm62.605469-62.609375-117.777344-117.777344 126.617188-126.613281 117.777343 117.773437zm174.851563-213.199219-53.265626 53.265625-79.429687-79.429687 53.265625-53.273438c3.90625-3.898438 10.234375-3.898438 14.140625 0l65.289063 65.300781c3.894531 3.90625 3.894531 10.230469 0 14.136719zm0 0" fill="url(#b)"/><path d="m294.6875 67.761719 11.746094-11.746094 14.144531 14.144531-11.746094 11.742188zm0 0" fill="url(#c)"/><path d="m325.503906 98.578125 11.746094-11.746094 14.144531 14.140625-11.746093 11.746094zm0 0" fill="url(#d)"/></svg>