<svg height="400pt" viewBox="0 -15 400 400" width="400pt" xmlns="http://www.w3.org/2000/svg" xmlns:xlink="http://www.w3.org/1999/xlink"><linearGradient id="a" gradientTransform="matrix(1 0 0 -1 -56 439.607)" gradientUnits="userSpaceOnUse" x1="253.84" x2="262.841" y1="138.561" y2="531.6"><stop offset=".322" stop-color="#a163f5"/><stop offset=".466" stop-color="#b074ee"/><stop offset=".752" stop-color="#d8a1dd"/><stop offset=".898" stop-color="#efbad3"/></linearGradient><path d="m355.398438 43.734375h-10.097657v-16.433594c-.019531-15.070312-12.230469-27.285156-27.300781-27.300781h-25.949219c-15.070312.015625-27.28125 12.230469-27.296875 27.300781v16.433594h-129.5v-16.433594c-.019531-15.070312-12.230468-27.285156-27.300781-27.300781h-25.953125c-15.070312.015625-27.28125 12.230469-27.300781 27.300781v16.433594h-10.097657c-24.621093.027344-44.5742182 19.976563-44.601562 44.597656v236.773438c.0273438 24.621093 19.980469 44.574219 44.601562 44.601562h310.796876c24.621093-.027343 44.574218-19.980469 44.601562-44.601562v-236.773438c-.027344-24.621093-19.980469-44.570312-44.601562-44.597656zm-70.648438-16.433594c.007812-4.03125 3.269531-7.296875 7.300781-7.300781h25.949219c4.03125.003906 7.296875 3.269531 7.300781 7.300781v60.167969h-40.546875zm-210.050781 0c.003906-4.03125 3.269531-7.296875 7.296875-7.300781h25.949218c4.03125.003906 7.296876 3.269531 7.300782 7.300781v60.167969h-40.546875zm-30.101563 36.433594h10.101563v33.734375c0 5.519531 4.476562 10 10 10h60.546875c5.523437 0 10-4.480469 10-10v-33.734375h129.5v33.734375c0 5.519531 4.476562 10 10 10h60.554687c5.523438 0 10-4.480469 10-10v-33.734375h10.097657c13.582031.011719 24.585937 11.019531 24.601562 24.597656v42.984375h-360v-42.984375c.015625-13.578125 11.019531-24.585937 24.601562-24.597656zm310.800782 285.964844h-310.796876c-13.578124-.011719-24.582031-11.015625-24.601562-24.59375v-173.789063h360v173.789063c-.019531 13.578125-11.023438 24.582031-24.601562 24.59375zm0 0" fill="url(#a)"/></svg>