<svg height="399pt" viewBox="-8 0 399 399.70047" width="399pt" xmlns="http://www.w3.org/2000/svg" xmlns:xlink="http://www.w3.org/1999/xlink"><linearGradient id="a"><stop offset=".322" stop-color="#a163f5"/><stop offset=".466" stop-color="#b074ee"/><stop offset=".752" stop-color="#d8a1dd"/><stop offset=".898" stop-color="#efbad3"/></linearGradient><linearGradient id="b" gradientUnits="userSpaceOnUse" x1="192.250335" x2="192.250335" xlink:href="#a" y1="391.800469" y2="47.591269"/><linearGradient id="c" gradientUnits="userSpaceOnUse" x1="192.237335" x2="192.237335" xlink:href="#a" y1="391.800469" y2="47.591269"/><path d="m383.648438 148.101562v-61.699218c0-24.203125-19.699219-43.902344-43.898438-43.902344h-11.601562v-6.898438c-.097657-19.800781-16.199219-35.6992182-35.898438-35.601562-19.601562.101562-35.5 16-35.601562 35.601562v6.898438h-129.296876v-6.898438c-.101562-19.800781-16.203124-35.6992182-36-35.601562-19.601562.101562-35.5 16-35.601562 35.601562v6.898438h-11.5c-24.199219 0-43.898438 19.699219-43.898438 43.902344v269.398437c0 24.199219 19.699219 43.898438 43.898438 43.898438h295.398438c24.203124 0 43.902343-19.699219 43.902343-43.898438v-201.398437c.800781-2 .800781-4.203125.097657-6.300782zm-91.296876-128.300781c8.699219 0 15.796876 7.101563 15.796876 15.800781v21.097657c-.097657 8.703125-7.199219 15.703125-15.898438 15.601562-8.601562-.101562-15.601562-7-15.601562-15.601562v-21.097657c-.097657-8.699218 7-15.800781 15.703124-15.800781zm-216.5 15.800781c.097657-8.699218 7.199219-15.699218 15.898438-15.601562 8.601562.101562 15.601562 7 15.601562 15.601562v21.097657c-.101562 8.703125-7.203124 15.703125-15.902343 15.601562-8.597657-.101562-15.597657-7-15.597657-15.601562zm-31.601562 26.898438h12.101562c3.199219 19.5 21.699219 32.601562 41.097657 29.402344 15.101562-2.5 26.902343-14.300782 29.402343-29.402344h130.199219c3.199219 19.5 21.699219 32.601562 41.097657 29.402344 15.101562-2.5 26.902343-14.300782 29.402343-29.402344h12.097657c13.203124 0 23.902343 10.699219 23.902343 23.902344v54.796875h-343.199219v-54.796875c0-13.203125 10.699219-23.902344 23.898438-23.902344zm295.398438 317.300781h-295.398438c-13.199219 0-23.898438-10.699219-23.898438-23.898437v-194.601563h343.199219v194.601563c0 13.199218-10.699219 23.898437-23.902343 23.898437zm0 0" fill="url(#b)"/><path d="m241.75 224.601562-65.699219 64.097657-33.300781-32.5c-3.898438-3.898438-10.300781-3.796875-14.101562.203125-3.796876 3.898437-3.796876 10.097656 0 14l.101562.097656 40.300781 39.402344c3.898438 3.796875 10.097657 3.796875 14 0l72.597657-70.902344c3.902343-3.898438 4-10.199219.101562-14.097656-3.699219-4.101563-10-4.203125-14-.300782zm0 0" fill="url(#c)"/></svg>