<svg height="400pt" viewBox="0 -59 400 400" width="400pt" xmlns="http://www.w3.org/2000/svg" xmlns:xlink="http://www.w3.org/1999/xlink"><linearGradient id="a" gradientTransform="matrix(1 0 0 -1 -56 397.567)" gradientUnits="userSpaceOnUse" x1="247.759" x2="256.76" y1="-2.873" y2="390.167"><stop offset=".322" stop-color="#a163f5"/><stop offset=".466" stop-color="#b074ee"/><stop offset=".752" stop-color="#d8a1dd"/><stop offset=".898" stop-color="#efbad3"/></linearGradient><path d="m360.101562 1.535156c-17.9375-.097656-33.726562 11.804688-38.570312 29.074219h-81.332031v-20.609375c0-5.523438-4.476563-10-10-10h-61.21875c-5.523438 0-10 4.476562-10 10v20.609375h-82.070313c-4.359375-17.171875-19.667968-29.898437-37.835937-29.898437-21.546875 0-39.074219 17.898437-39.074219 39.898437s17.527344 39.902344 39.074219 39.902344c18.167969 0 33.476562-12.722657 37.835937-29.902344h53.390625c-24.75 20.578125-39.050781 51.101563-39.03125 83.285156v67.261719h-18.5c-5.523437 0-10 4.476562-10 10v61.222656c0 5.523438 4.476563 10 10 10h61.230469c5.523438 0 10-4.476562 10-10v-61.222656c0-5.523438-4.476562-10-10-10h-22.730469v-67.261719c-.027343-33.015625 18.382813-63.289062 47.714844-78.449219v15.777344c0 5.519532 4.476563 10 10 10h61.214844c5.523437 0 10-4.480468 10-10v-15.792968c29.375 15.121093 47.804687 45.425781 47.714843 78.464843v67.261719h-22.730468c-5.519532 0-10 4.476562-10 10v61.222656c0 5.523438 4.480468 10 10 10h61.222656c5.523438 0 10-4.476562 10-10v-61.222656c0-5.523438-4.476562-10-10-10h-18.492188v-67.261719c.074219-32.179687-14.210937-62.714843-38.957031-83.285156h52.578125c4.84375 17.269531 20.628906 29.171875 38.566406 29.078125 22 0 39.898438-17.53125 39.898438-39.078125s-17.898438-39.074219-39.898438-39.074219zm-236.101562 260.84375h-41.226562v-41.222656h41.226562zm192.410156 0h-41.21875v-41.222656h41.21875zm-277.335937-201.871094c-10.515625 0-19.074219-8.925781-19.074219-19.902343 0-10.972657 8.558594-19.898438 19.074219-19.898438 10.519531 0 19.078125 8.925781 19.078125 19.898438 0 10.976562-8.550782 19.902343-19.078125 19.902343zm139.902343.714844v-41.222656h41.222657v16.816406c-.046875.128906-.097657.25-.140625.382813-.679688 2.113281-.628906 4.394531.140625 6.480469v17.542968zm181.125-1.535156c-10.972656 0-19.902343-8.558594-19.902343-19.078125s8.925781-19.074219 19.902343-19.074219c10.972657 0 19.898438 8.558594 19.898438 19.074219 0 10.519531-8.925781 19.078125-19.898438 19.078125zm0 0" fill="url(#a)"/></svg>