<svg height="400pt" viewBox="-85 0 400 400" width="400pt" xmlns="http://www.w3.org/2000/svg" xmlns:xlink="http://www.w3.org/1999/xlink"><linearGradient id="a"><stop offset=".322" stop-color="#a163f5"/><stop offset=".466" stop-color="#b074ee"/><stop offset=".752" stop-color="#d8a1dd"/><stop offset=".898" stop-color="#efbad3"/></linearGradient><linearGradient id="b" gradientTransform="matrix(1 0 0 -1 -140.8 454.756)" gradientUnits="userSpaceOnUse" x1="253.634" x2="262.635" xlink:href="#a" y1="151.435" y2="544.475"/><linearGradient id="c" gradientTransform="matrix(1 0 0 -1 -140.8 454.756)" gradientUnits="userSpaceOnUse" x1="257.141" x2="266.142" xlink:href="#a" y1="151.355" y2="544.394"/><path d="m188.300781 0h-146.199219c-23.242187.0273438-42.0742182 18.859375-42.101562 42.101562v315.796876c.0273438 23.242187 18.859375 42.074218 42.101562 42.101562h146.199219c23.238281-.027344 42.074219-18.859375 42.097657-42.101562v-315.796876c-.023438-23.242187-18.859376-42.0781245-42.097657-42.101562zm-168.300781 72.730469h190.398438v233.226562h-190.398438zm22.101562-52.730469h146.199219c12.199219.011719 22.085938 9.898438 22.097657 22.101562v10.628907h-190.398438v-10.628907c.011719-12.203124 9.898438-22.089843 22.101562-22.101562zm146.199219 360h-146.199219c-12.203124-.015625-22.085937-9.898438-22.101562-22.101562v-31.941407h190.398438v31.945313c-.011719 12.203125-9.898438 22.089844-22.097657 22.101562zm0 0" fill="url(#b)"/><path d="m134.769531 343.242188h-39.136719c-5.523437 0-10 4.476562-10 10 0 5.523437 4.476563 10 10 10h39.136719c5.523438 0 10-4.476563 10-10 0-5.523438-4.476562-10-10-10zm0 0" fill="url(#c)"/></svg>