<svg height="399pt" viewBox="0 -16 399.996 399" width="399pt" xmlns="http://www.w3.org/2000/svg" xmlns:xlink="http://www.w3.org/1999/xlink"><linearGradient id="a" gradientTransform="matrix(1 0 0 -1 -56.004 440.249)" gradientUnits="userSpaceOnUse" x1="245.795" x2="254.796" y1="-144.4" y2="248.639"><stop offset=".322" stop-color="#a163f5"/><stop offset=".466" stop-color="#b074ee"/><stop offset=".752" stop-color="#d8a1dd"/><stop offset=".898" stop-color="#efbad3"/></linearGradient><path d="m398.179688 144.640625c.066406-.097656.132812-.191406.199218-.292969.101563-.152344.195313-.3125.289063-.46875.058593-.101562.117187-.203125.171875-.300781.097656-.1875.1875-.375.273437-.566406.042969-.101563.089844-.195313.128907-.300781.101562-.242188.191406-.488282.273437-.738282.035156-.113281.066406-.234375.097656-.351562.050781-.171875.101563-.347656.136719-.519532.027344-.125.050781-.246093.074219-.367187.035156-.195313.066406-.394531.089843-.589844.011719-.101562.027344-.203125.035157-.300781.03125-.300781.046875-.601562.046875-.910156v-.03125c0-.042969-.007813-.085938-.007813-.128906 0-.253907-.015625-.507813-.039062-.757813-.007813-.109375-.019531-.214844-.035157-.320313-.023437-.199218-.050781-.394531-.089843-.589843-.019531-.113281-.039063-.226563-.0625-.339844-.042969-.199219-.101563-.398437-.152344-.597656-.03125-.101563-.058594-.210938-.089844-.316407-.082031-.253906-.175781-.507812-.277343-.753906-.050782-.125-.109376-.246094-.167969-.367187-.066407-.148438-.136719-.300781-.210938-.441407-.0625-.125-.132812-.246093-.199219-.367187-.042968-.074219-.078124-.148437-.121093-.21875l-78.148438-128.40625c-1.8125-2.980469-5.050781-4.800781-8.539062-4.800781h-223.714844c-3.488281 0-6.726563 1.820312-8.539063 4.800781l-78.148437 128.410156c-.042969.070313-.078125.144531-.121094.21875-.070312.121094-.140625.242188-.199219.367188-.074218.144531-.144531.292969-.210937.441406-.058594.121094-.117187.242187-.167969.367187-.101562.25-.195312.5-.277344.753907-.03125.101562-.058593.210937-.089843.316406-.054688.199219-.109375.398437-.152344.597656-.023437.113281-.042969.226563-.0625.339844-.039063.199219-.066406.394531-.09375.589844-.0117188.101562-.0234375.210937-.03125.320312-.0234375.25-.0351562.503907-.0390625.757813 0 .042968-.0078125.085937-.0078125.128906v.03125c0 .300781.015625.609375.046875.910156.0078125.097656.0234375.199219.0351562.300782.0234378.199218.0546878.394531.0898438.589843.023437.121094.046875.242188.074219.367188.039062.171875.085937.347656.136718.519531.03125.117188.0625.238281.097657.351562.082031.25.171875.496094.273437.738282.039063.101562.085938.199218.128906.300781.085938.191406.175782.378906.273438.566406.054688.097657.113281.199219.171875.300781.09375.15625.1875.316407.289063.46875.0625.101563.128906.203126.199218.292969.109375.15625.21875.300781.335938.453125.070312.085938.136718.175782.210937.257813.03125.039062.058594.082031.09375.117187l189.960938 218.300782.03125.039062.113281.121094.097656.101562c.03125.035156.0625.070313.097656.101563l.003907.007812c.085937.085938.175781.171875.261719.253907.074218.070312.140624.140624.210937.207031l.015625.015625h.007812c.070313.066406.148438.125.222657.1875s.171875.148437.261719.222656c.113281.085938.226562.175781.34375.261719.207031.152343.417968.300781.636718.4375.011719.007812.023438.015625.039063.023437.054687.035156.121093.066406.179687.101563.214844.125.4375.25.660156.359375.023438.011718.042969.023437.0625.035156.050782.023438.101563.039062.152344.0625l.03125.011719.21875.101562c.171875.074219.34375.140625.519532.199219.101562.039062.199218.070312.300781.101562.121093.039063.242187.082032.363281.117188l.078125.019531c.082031.023438.167969.039063.25.0625.117187.027344.234375.058594.355469.085938.167968.035156.34375.0625.515625.089843.09375.011719.183593.03125.277343.042969s.164063.023438.246094.03125c.253906.027344.519532.039063.78125.042969.082032 0 .160156.015625.238282.015625h.015624c.078126 0 .15625-.011719.234376-.015625.265624-.003906.527343-.015625.785156-.042969.082031-.007812.164062-.023437.246094-.03125.082031-.011719.179687-.03125.273437-.042969.175781-.027343.347656-.054687.519531-.089843.117188-.027344.234375-.058594.351563-.085938.085937-.023437.171875-.039062.253906-.0625.023437-.007812.050781-.011719.074219-.019531.125-.035156.242187-.078125.363281-.117188l.300781-.101562c.179688-.0625.351563-.132812.523438-.207031.074218-.027344.140625-.0625.210937-.097657l.039063-.015624c.046875-.023438.097656-.039063.148437-.066407.023438-.007812.042969-.019531.0625-.03125.226563-.113281.445313-.234375.664063-.359375.058594-.035156.125-.066406.183594-.101562l.03125-.019532c.21875-.136718.429687-.285156.640624-.441406.117188-.085937.230469-.175781.34375-.265625.089844-.070312.171876-.140625.257813-.214843.085937-.074219.152344-.121094.226563-.191407h.003906l.015625-.015625c.074219-.066406.140625-.136718.210937-.203125.085938-.085937.175782-.167969.261719-.257812l.007813-.007813c.03125-.035156.0625-.070312.101562-.105468l.089844-.101563.113281-.125.03125-.039063 189.964844-218.296874c.03125-.039063.058593-.082032.09375-.117188.070312-.085938.136719-.171875.207031-.261719.117188-.132812.226562-.285156.335938-.441406zm-309.464844 4.265625 70.109375 145.792969-126.871094-145.792969zm22.191406 0h79.089844v164.46875zm99.089844 0h79.089844l-79.089844 164.46875zm101.28125 0h56.761718l-126.871093 145.792969zm60.925781-20h-60.5l-44.320313-108.410156h38.847657zm-126.425781-108.410156 44.320312 108.410156h-80.101562v-108.410156zm-55.78125 108.410156h-80.101563l44.320313-108.410156h35.78125zm-96.234375-108.410156h38.847656l-44.320313 108.410156h-60.5zm0 0" fill="url(#a)"/></svg>