<svg height="410pt" viewBox="-27 0 410 410" width="410pt" xmlns="http://www.w3.org/2000/svg" xmlns:xlink="http://www.w3.org/1999/xlink"><linearGradient id="a"><stop offset=".322" stop-color="#a163f5"/><stop offset=".466" stop-color="#b074ee"/><stop offset=".752" stop-color="#d8a1dd"/><stop offset=".898" stop-color="#efbad3"/></linearGradient><linearGradient id="b" gradientTransform="matrix(1 0 0 -1 -78.135 463)" gradientUnits="userSpaceOnUse" x1="256" x2="256" xlink:href="#a" y1="14" y2="444.019"/><linearGradient id="c" gradientTransform="matrix(1 0 0 -1 -78.135 463)" gradientUnits="userSpaceOnUse" x1="288.564" x2="288.564" xlink:href="#a" y1="14" y2="444.019"/><path d="m305.730469 0h-255.730469c-27.601562.03125-49.96875 22.398438-50 50v310c.03125 27.601562 22.398438 49.96875 50 50h255.730469c27.601562-.03125 49.96875-22.398438 50-50v-310c-.03125-27.601562-22.398438-49.96875-50-50zm-285.730469 360v-310c.019531-16.5625 13.4375-29.980469 30-30h22.15625v370h-22.15625c-16.5625-.019531-29.980469-13.4375-30-30zm315.730469 0c-.019531 16.5625-13.441407 29.980469-30 30h-213.574219v-370h213.574219c16.558593.019531 29.980469 13.4375 30 30zm0 0" fill="url(#b)"/><g fill="url(#c)"><path d="m272.191406 86.59375h-123.527344c-15.480468.019531-28.023437 12.5625-28.042968 28.042969v76.585937c.019531 15.480469 12.5625 28.023438 28.042968 28.042969h123.527344c15.480469-.019531 28.027344-12.5625 28.042969-28.042969v-76.585937c-.015625-15.480469-12.5625-28.023438-28.042969-28.042969zm8.042969 104.628906c-.003906 4.441406-3.601563 8.039063-8.042969 8.042969h-123.527344c-4.4375-.003906-8.035156-3.601563-8.042968-8.042969v-76.585937c.007812-4.441407 3.605468-8.039063 8.042968-8.042969h123.527344c4.441406.003906 8.039063 3.601562 8.042969 8.042969zm0 0"/><path d="m290.234375 262.414062h-159.613281c-5.523438 0-10 4.476563-10 10 0 5.523438 4.476562 10 10 10h159.613281c5.523437 0 10-4.476562 10-10 0-5.523437-4.476563-10-10-10zm0 0"/></g></svg>