<svg height="400pt" viewBox="-40 0 400 400" width="400pt" xmlns="http://www.w3.org/2000/svg" xmlns:xlink="http://www.w3.org/1999/xlink"><linearGradient id="a"><stop offset=".322" stop-color="#a163f5"/><stop offset=".466" stop-color="#b074ee"/><stop offset=".752" stop-color="#d8a1dd"/><stop offset=".898" stop-color="#efbad3"/></linearGradient><linearGradient id="b" gradientTransform="matrix(1 0 0 -1 -96.137 468)" gradientUnits="userSpaceOnUse" x1="256" x2="256" xlink:href="#a" y1="14" y2="444.019"/><linearGradient id="c" gradientTransform="matrix(1 0 0 -1 -96.137 468)" gradientUnits="userSpaceOnUse" x1="255.984" x2="255.984" xlink:href="#a" y1="14" y2="444.019"/><path d="m227.617188 2.660156c-1.847657-1.710937-4.273438-2.660156-6.792969-2.660156h-176.148438c-24.664062.0273438-44.6484372 20.015625-44.675781 44.675781v310.648438c.0273438 24.660156 20.011719 44.648437 44.675781 44.675781h230.375c24.660157-.027344 44.648438-20.015625 44.675781-44.675781v-263.074219c0-2.789062-1.164062-5.449219-3.210937-7.34375zm3.207031 30.214844 53.367187 49.375h-53.367187zm44.226562 347.125h-230.375c-13.621093-.011719-24.664062-11.054688-24.675781-24.675781v-310.648438c.011719-13.621093 11.054688-24.664062 24.675781-24.675781h166.148438v72.25c0 5.523438 4.476562 10 10 10h78.902343v253.074219c-.015624 13.621093-11.054687 24.660156-24.675781 24.675781zm0 0" fill="url(#b)"/><path d="m252.792969 132.929688-27.953125 27.953124-2.136719-2.132812c-11.296875-11.269531-29.585937-11.269531-40.882813 0l-104.1875 104.183594-2.132812-2.132813c-3.90625-3.90625-10.238281-3.90625-14.140625 0-3.90625 3.902344-3.90625 10.234375-.003906 14.140625l24.710937 24.710938-11.113281 11.117187-8.019531-8.019531c-3.90625-3.90625-10.238282-3.90625-14.140625 0-3.90625 3.90625-3.90625 10.238281 0 14.140625l30.179687 30.179687c3.902344 3.90625 10.234375 3.90625 14.140625 0 3.90625-3.902343 3.90625-10.234374 0-14.140624l-8.019531-8.019532 11.117188-11.109375 24.710937 24.710938c3.90625 3.90625 10.238281 3.902343 14.144531-.003907s3.902344-10.238281-.003906-14.144531l-2.132812-2.136719 104.183593-104.183593c11.289063-11.289063 11.289063-29.59375 0-40.882813l-2.132812-2.132812 27.953125-27.957032c3.875-3.910156 3.863281-10.21875-.03125-14.109374-3.890625-3.894532-10.199219-3.90625-14.109375-.03125zm-138.441407 166.722656-22.574218-22.574219 26.886718-26.878906 31 31-26.882812 26.882812zm112.621094-95.753906-63.164062 63.164062-31.007813-31.007812 63.164063-63.164063c3.480468-3.472656 9.117187-3.472656 12.597656 0l18.410156 18.410156c3.480469 3.476563 3.480469 9.121094 0 12.597657zm0 0" fill="url(#c)"/></svg>