<svg height="400pt" viewBox="-61 0 400 400.014" width="400pt" xmlns="http://www.w3.org/2000/svg" xmlns:xlink="http://www.w3.org/1999/xlink"><linearGradient id="a" gradientTransform="matrix(1 0 0 -1 -116.413 458)" gradientUnits="userSpaceOnUse" x1="255.995" x2="255.995" y1="14" y2="444.019"><stop offset=".322" stop-color="#a163f5"/><stop offset=".466" stop-color="#b074ee"/><stop offset=".752" stop-color="#d8a1dd"/><stop offset=".898" stop-color="#efbad3"/></linearGradient><path d="m269.164062 0c-5.519531 0-10 4.476562-10 10v108.582031c0 47.109375-38.1875 85.300781-85.296874 85.300781-47.109376 0-85.300782-38.191406-85.300782-85.300781v-108.582031c0-5.523438-4.476562-10-10-10-5.523437 0-10 4.476562-10 10v108.582031c.070313 54.25 41.300782 99.59375 95.300782 104.804688v100.035156c0 31.253906-25.339844 56.59375-56.59375 56.59375-31.257813 0-56.59375-25.339844-56.59375-56.59375v-20.421875c19.882812-5.042969 32.898437-24.105469 30.355468-44.460938-2.539062-20.355468-19.84375-35.632812-40.355468-35.632812-20.515626 0-37.816407 15.277344-40.359376 35.632812-2.542968 20.355469 10.472657 39.417969 30.359376 44.460938v20.421875c0 42.300781 34.289062 76.59375 76.59375 76.59375 42.300781 0 76.59375-34.292969 76.59375-76.59375v-100.03125c54-5.210937 95.230468-50.554687 95.296874-104.808594v-108.582031c0-5.523438-4.476562-10-10-10zm-249.15625 263.570312c0-11.414062 9.253907-20.667968 20.671876-20.667968 11.414062 0 20.671874 9.253906 20.671874 20.667968 0 11.417969-9.257812 20.671876-20.671874 20.671876-11.410157-.011719-20.660157-9.257813-20.671876-20.671876zm0 0" fill="url(#a)"/></svg>