<svg height="440pt" viewBox="-51 0 440 440.10405" width="440pt" xmlns="http://www.w3.org/2000/svg" xmlns:xlink="http://www.w3.org/1999/xlink"><linearGradient id="a"><stop offset=".322" stop-color="#a163f5"/><stop offset=".466" stop-color="#b074ee"/><stop offset=".752" stop-color="#d8a1dd"/><stop offset=".898" stop-color="#efbad3"/></linearGradient><linearGradient id="b" gradientTransform="matrix(1 0 0 -1 -87.047975 477.90405)" gradientUnits="userSpaceOnUse" x1="256" x2="256" xlink:href="#a" y1="29" y2="481.09"/><linearGradient id="c" gradientTransform="matrix(1 0 0 -1 -87.047975 477.90405)" gradientUnits="userSpaceOnUse" x1="256.076" x2="256.076" xlink:href="#a" y1="29" y2="481.09"/><path d="m221.652344 3.105469-.101563-.101563c-1.886719-1.945312-4.488281-3.0312498-7.199219-2.99999975-.367187-.01562505-.738281.01562495-1.097656.10156275h-161.203125c-28.710937.011719-51.9843748 23.285156-51.9999998 52v336c.015625 28.710937 23.2890628 51.984375 51.9999998 52h233.800781c28.714844-.015625 51.988282-23.289063 52-52v-264.902344c-.019531-2.648437-1.058593-5.191406-2.898437-7.097656zm2.699218 30.898437 79.601563 79.398438h-47.601563c-17.652343-.050782-31.949218-14.347656-32-32zm93.5 353.898438c-.050781 17.652344-14.347656 31.949218-32 32h-233.800781c-17.652343-.050782-31.945312-14.347656-32-32v-336c.054688-17.648438 14.347657-31.945313 32-32h152.300781v61.5c.015626 28.714844 23.289063 51.988281 52 52h61.5zm0 0" fill="url(#b)"/><path d="m242.050781 213.902344-95 90.800781-51-51c-3.890625-3.894531-10.207031-3.894531-14.097656 0-3.894531 3.894531-3.894531 10.207031 0 14.101563l57.898437 57.898437c1.875 1.890625 4.4375 2.9375 7.101563 2.902344 2.582031.023437 5.066406-.984375 6.898437-2.800781l102.101563-97.5c1.910156-1.828126 3.019531-4.34375 3.074219-6.988282.054687-2.644531-.941406-5.203125-2.773438-7.113281-3.847656-3.984375-10.191406-4.117187-14.203125-.300781zm0 0" fill="url(#c)"/></svg>