<svg height="465pt" viewBox="-22 0 465 465.60059" width="465pt" xmlns="http://www.w3.org/2000/svg" xmlns:xlink="http://www.w3.org/1999/xlink"><linearGradient id="a"><stop offset=".322" stop-color="#a163f5"/><stop offset=".466" stop-color="#b074ee"/><stop offset=".752" stop-color="#d8a1dd"/><stop offset=".898" stop-color="#efbad3"/></linearGradient><linearGradient id="b" gradientTransform="matrix(1 0 0 -1 -45.699705 490.800592)" gradientUnits="userSpaceOnUse" x1="256" x2="256" xlink:href="#a" y1="17.518" y2="570.222"/><linearGradient id="c" gradientTransform="matrix(1 0 0 -1 -45.699705 490.800592)" gradientUnits="userSpaceOnUse" x1="157.25" x2="157.25" xlink:href="#a" y1="17.518" y2="570.222"/><linearGradient id="d" gradientTransform="matrix(1 0 0 -1 -45.699705 490.800592)" gradientUnits="userSpaceOnUse" x1="197.75" x2="197.75" xlink:href="#a" y1="17.518" y2="570.222"/><linearGradient id="e" gradientTransform="matrix(1 0 0 -1 -45.699705 490.800592)" gradientUnits="userSpaceOnUse" x1="390.15" x2="390.15" xlink:href="#a" y1="17.518" y2="570.222"/><path d="m316.300781 3.101562-.101562-.101562c-1.886719-1.945312-4.488281-3.0273438-7.199219-3h-142.199219c-27.609375.0117188-49.992187 22.390625-50 50v20.902344h-66.5c-27.609375.007812-49.992187 22.386718-50 50v294.699218c.007813 27.609376 22.390625 49.988282 50 50h203.5c27.609375-.011718 49.988281-22.390624 50-50v-20.902343h66.5c27.609375-.007813 49.988281-22.386719 50-50v-233.597657c-.019531-2.652343-1.058593-5.195312-2.902343-7.101562zm2.699219 31 67.300781 67.199219h-37.300781c-16.546875-.046875-29.953125-13.453125-30-30zm-65.199219 411.5h-203.5c-16.550781-.050781-29.953125-13.453124-30-30v-294.699218c.046875-16.550782 13.449219-29.953125 30-30h73c2.265625.796875 4.734375.796875 7 0h52.300781v51.296875c.007813 27.613281 22.386719 49.992187 50 50h51.296876v223.402343c-.09375 16.566407-13.53125 29.957032-30.097657 30zm16.097657-273.402343h-37.296876c-16.550781-.046875-29.953124-13.449219-30-30v-37.199219zm100.402343 202.5h-66.5v-192.699219c-.019531-2.652344-1.058593-5.191406-2.902343-7.097656l-101-100.902344-.097657-.097656c-1.886719-1.945313-4.492187-3.03125-7.199219-3h-55.800781v-20.902344c.046875-16.546875 13.449219-29.949219 30-30h132.300781v51.300781c.007813 27.609375 22.386719 49.988281 50 50h51.199219v223.398438c-.046875 16.550781-13.453125 29.953125-30 30zm0 0" fill="url(#b)"/><path d="m60.898438 252.902344h101.300781c5.523437 0 10-4.480469 10-10 0-5.523438-4.476563-10-10-10h-101.300781c-5.519532 0-10 4.476562-10 10 0 5.519531 4.480468 10 10 10zm0 0" fill="url(#c)"/><path d="m243.199219 303.800781h-182.300781c-5.519532 0-10 4.476563-10 10 0 5.523438 4.480468 10 10 10h182.300781c5.523437 0 10-4.476562 10-10 0-5.523437-4.476563-10-10-10zm0 0" fill="url(#d)"/><path d="m243.199219 374.699219h-182.300781c-5.519532 0-10 4.480469-10 10 0 5.523437 4.480468 10 10 10h182.300781c5.523437 0 10-4.476563 10-10 0-5.519531-4.476563-10-10-10zm0 0" fill="url(#d)"/><g fill="url(#e)"><path d="m359.699219 232.902344h-30.5c-5.523438 0-10 4.476562-10 10 0 5.519531 4.476562 10 10 10h30.5c5.523437 0 10-4.480469 10-10 0-5.523438-4.476563-10-10-10zm0 0"/><path d="m359.699219 303.800781h-30.5c-5.523438 0-10 4.476563-10 10 0 5.523438 4.476562 10 10 10h30.5c5.523437 0 10-4.476562 10-10 0-5.523437-4.476563-10-10-10zm0 0"/></g></svg>