<svg height="400pt" viewBox="0 -23 400 399" width="400pt" xmlns="http://www.w3.org/2000/svg" xmlns:xlink="http://www.w3.org/1999/xlink"><linearGradient id="a" gradientTransform="matrix(1 0 0 -1 -56 420.191)" gradientUnits="userSpaceOnUse" x1="256" x2="256" y1="3.998" y2="508.995"><stop offset=".322" stop-color="#a163f5"/><stop offset=".466" stop-color="#b074ee"/><stop offset=".752" stop-color="#d8a1dd"/><stop offset=".898" stop-color="#efbad3"/></linearGradient><g fill="url(#a)"><path d="m390 .5h-380c-5.523438 0-10 4.476562-10 10s4.476562 10 10 10h380c5.523438 0 10-4.476562 10-10s-4.476562-10-10-10zm0 0"/><path d="m276.078125 264.589844-66.078125 57.367187v-229.839843c0-5.523438-4.476562-10-10-10s-10 4.476562-10 10v229.839843l-66.078125-57.367187c-2.65625-2.421875-6.40625-3.230469-9.824219-2.121094-3.421875 1.109375-5.980468 3.96875-6.707031 7.488281s.492187 7.160157 3.191406 9.535157c.078125.066406.152344.132812.230469.199218l82.632812 71.738282c.03125.027343.066407.050781.097657.078124.113281.101563.234375.1875.351562.277344.121094.09375.261719.199219.402344.300782.117187.085937.242187.160156.367187.238281.140626.089843.28125.179687.425782.261719.125.070312.257812.136718.386718.203124.132813.070313.296876.148438.445313.214844s.273437.117188.414063.171875c.136718.054688.296874.117188.453124.167969.160157.050781.285157.101562.429688.136719.144531.039062.324219.085937.484375.125.140625.03125.28125.066406.421875.09375.1875.035156.378906.0625.566406.085937.121094.015625.242188.035156.363282.046875.3125.03125.632812.050781.949218.050781.3125 0 .632813-.019531.945313-.050781.121093-.011719.242187-.03125.363281-.046875.1875-.023437.378906-.050781.566406-.085937.140625-.027344.28125-.0625.421875-.09375.160157-.039063.324219-.078125.484375-.125s.285156-.089844.429688-.136719c.140625-.046875.304687-.105469.457031-.167969.148437-.058593.273437-.109375.410156-.171875s.300781-.140625.445313-.214844c.140625-.070312.261718-.132812.386718-.203124.144532-.082032.285157-.171876.425782-.261719.125-.078125.25-.152344.371094-.238281.117187-.082032.265624-.195313.398437-.300782.132813-.105468.238281-.179687.351563-.277344.03125-.027343.066406-.050781.097656-.078124l82.628906-71.738282c4.226562-3.558594 4.765625-9.867187 1.210938-14.089844-3.558594-4.226562-9.867188-4.769531-14.09375-1.210937-.078126.066406-.152344.132813-.226563.199219zm0 0"/></g></svg>