<svg height="419pt" viewBox="-109 0 419 419.98498" width="419pt" xmlns="http://www.w3.org/2000/svg" xmlns:xlink="http://www.w3.org/1999/xlink"><linearGradient id="a" gradientTransform="matrix(1 0 0 -1 -155.09551 467.984983)" gradientUnits="userSpaceOnUse" x1="256" x2="256" y1="14" y2="444.019"><stop offset=".322" stop-color="#a163f5"/><stop offset=".466" stop-color="#b074ee"/><stop offset=".752" stop-color="#d8a1dd"/><stop offset=".898" stop-color="#efbad3"/></linearGradient><path d="m187.121094 157.734375c-2.890625-40.015625-32.886719-72.808594-72.488282-79.242187v-29.1875c-.015624-9.574219 5.746094-18.210938 14.589844-21.875l19.730469-8.210938c5.078125-2.136719 7.472656-7.976562 5.355469-13.0625-2.117188-5.082031-7.945313-7.5-13.039063-5.402344l-19.730469 8.210938c-16.308593 6.757812-26.933593 22.6875-26.902343 40.339844v28.324218c-42.828125 3.171875-76.855469 37.265625-79.945313 80.097656-8.621094 3.816407-14.1875 12.351563-14.199218 21.78125v49.335938c0 5.523438 4.476562 10 10 10h.125l20.699218 143.304688c3.226563 21.667968 21.78125 37.738281 43.6875 37.835937h54.910156c22.273438-.027344 41.046876-16.617187 43.808594-38.71875l17.636719-142.417969c5.507813-.023437 9.957031-4.496094 9.957031-10v-49.332031c-.011718-9.429687-5.574218-17.964844-14.195312-21.78125zm-166.632813 61.113281v-39.332031c.003907-2.109375 1.710938-3.8125 3.816407-3.816406h153.199218c2.105469.003906 3.8125 1.707031 3.816406 3.816406v39.332031zm80.417969-121.449218c33.523438.046874 61.773438 25.03125 65.917969 58.300781h-131.839844c4.144531-33.269531 32.394531-58.253907 65.921875-58.300781zm52.972656 281.410156c-1.511718 12.085937-11.777344 21.160156-23.960937 21.175781h-54.914063c-11.980468-.050781-22.132812-8.839844-23.898437-20.6875l-20.289063-140.449219h140.398438zm0 0" fill="url(#a)"/></svg>