<svg height="399pt" viewBox="-21 1 399 399.999" width="399pt" xmlns="http://www.w3.org/2000/svg" xmlns:xlink="http://www.w3.org/1999/xlink"><linearGradient id="a"><stop offset=".322" stop-color="#a163f5"/><stop offset=".466" stop-color="#b074ee"/><stop offset=".752" stop-color="#d8a1dd"/><stop offset=".898" stop-color="#efbad3"/></linearGradient><linearGradient id="b" gradientTransform="matrix(1 0 0 -1 -77.0875 456.377004)" gradientUnits="userSpaceOnUse" x1="248.926" x2="257.927" xlink:href="#a" y1="35.711" y2="428.751"/><linearGradient id="c" gradientTransform="matrix(1 0 0 -1 -77.0875 456.377004)" gradientUnits="userSpaceOnUse" x1="179.123" x2="188.124" xlink:href="#a" y1="37.31" y2="430.349"/><linearGradient id="d" gradientTransform="matrix(1 0 0 -1 -77.0875 456.377004)" gradientUnits="userSpaceOnUse" x1="203.783" x2="212.784" xlink:href="#a" y1="36.745" y2="429.784"/><path d="m344.832031 154.765625c-7.285156-8.367187-17.617187-13.46875-28.691406-14.160156-2.691406-.175781-5.394531-.09375-8.074219.246093v-48.546874c0-2.65625-1.054687-5.203126-2.9375-7.078126l-82.304687-82.09375c-.039063-.035156-.078125-.066406-.113281-.101562-1.878907-1.9375-4.464844-3.03515625-7.164063-3.03125-.324219 0-.644531.0195312-.960937.046875-.320313-.03125-.640626-.046875-.964844-.046875h-172.847656c-22.234376.0234375-40.25 18.039062-40.273438 40.269531v319.457031c.023438 22.230469 18.039062 40.246094 40.273438 40.273438h227.023437c22.230469-.027344 40.246094-18.042969 40.269531-40.273438v-112.722656l35.117188-30.960937c17.210937-15.230469 18.910156-41.496094 3.800781-58.816407zm-51.726562 78.769531c-1.171875.671875-2.191407 1.574219-3.007813 2.652344l-22.75 20.058594-56.109375 49.121094-38.734375 2.210937 7.882813-37.3125 93.824219-82.488281 30.839843 35.226562zm-67.558594-199.4375 48.550781 48.421875h-48.550781zm62.519531 325.628906c-.011718 11.191407-9.078125 20.261719-20.269531 20.273438h-227.023437c-11.191407-.015625-20.257813-9.082031-20.273438-20.273438v-319.457031c.015625-11.1875 9.082031-20.253906 20.273438-20.269531h164.773437v72.519531c0 5.523438 4.476563 10 10 10h72.519531v46.585938c-.75.578125-1.492187 1.171875-2.214844 1.800781l-15.75 13.847656c-1.222656.6875-2.289062 1.625-3.128906 2.753906l-102.289062 89.929688c-1.617188 1.421875-2.734375 3.332031-3.179688 5.441406l-11.273437 53.359375c-.625 2.949219.117187 6.023438 2.015625 8.363281 1.898437 2.34375 4.753906 3.703126 7.769531 3.703126.1875 0 .378906-.003907.570313-.015626l55.222656-3.152343c2.226562-.128907 4.34375-.996094 6.019531-2.460938l57.476563-50.320312 8.761718-7.726563zm41.894532-158.683593-9.902344 8.730469-30.820313-35.199219 9.824219-8.636719c9.023438-7.933594 22.769531-7.050781 30.699219 1.972656l.03125.035156 2.152343 2.460938c7.867188 9.023438 6.980469 22.703125-1.984374 30.636719zm0 0" fill="url(#b)"/><path d="m68.601562 140.601562h80.078126c5.523437 0 10-4.476562 10-10 0-5.523437-4.476563-10-10-10h-80.078126c-5.523437 0-10 4.476563-10 10 0 5.523438 4.476563 10 10 10zm0 0" fill="url(#c)"/><path d="m205.066406 195.542969c0-5.523438-4.476562-10-10-10h-126.464844c-5.523437-.007813-10.003906 4.464843-10.011718 9.988281-.007813 5.519531 4.464844 10.003906 9.988281 10.011719h126.488281c5.523438 0 10-4.476563 10-10zm0 0" fill="url(#d)"/></svg>