<svg height="439pt" viewBox="-9 0 439 439.10403" width="439pt" xmlns="http://www.w3.org/2000/svg" xmlns:xlink="http://www.w3.org/1999/xlink"><linearGradient id="a"><stop offset=".322" stop-color="#a163f5"/><stop offset=".466" stop-color="#b074ee"/><stop offset=".752" stop-color="#d8a1dd"/><stop offset=".898" stop-color="#efbad3"/></linearGradient><linearGradient id="b" gradientTransform="matrix(1 0 0 -1 -45.947985 477.504026)" gradientUnits="userSpaceOnUse" x1="209.8" x2="209.8" xlink:href="#a" y1="17.518" y2="570.222"/><linearGradient id="c" gradientTransform="matrix(1 0 0 -1 -45.947985 477.504026)" gradientUnits="userSpaceOnUse" x1="364.916" x2="364.916" xlink:href="#a" y1="17.518" y2="570.215"/><path d="m317.652344 361.105469c-5.515625.015625-9.984375 4.480469-10 10v17.898437c-.046875 16.546875-13.453125 29.953125-30 30h-227.601563c-16.546875-.046875-29.949219-13.453125-30-30v-339c.050781-16.546875 13.453125-29.953125 30-30h149.402344v58.199219c.007813 27.609375 22.390625 49.992187 50 50h58.199219v53c0 5.523437 4.476562 10 10 10 5.523437 0 10-4.476563 10-10v-63.199219c-.019532-2.652344-1.058594-5.191406-2.898438-7.101562l-108-107.796875-.101562-.101563c-1.886719-1.945312-4.492188-3.0312498-7.199219-2.99999975-.335937-.01562505-.675781.01562495-1 .10156275h-158.402344c-27.609375.007812-49.988281 22.386719-49.9999998 50v339c.0117188 27.609375 22.3906248 49.988281 49.9999998 50h227.601563c27.609375-.011719 49.988281-22.390625 50-50v-17.902344c.03125-2.667969-1.011719-5.242187-2.890625-7.136719-1.878907-1.898437-4.4375-2.964844-7.109375-2.960937zm-98.199219-282.902344v-44.097656l74.199219 74.097656h-44.199219c-16.550781-.046875-29.953125-13.449219-30-30zm0 0" fill="url(#b)"/><path d="m376.753906 183.703125c-1.738281-2.011719-4.210937-3.242187-6.863281-3.410156-2.652344-.171875-5.261719.734375-7.238281 2.511719l-130.898438 114.597656c-1.660156 1.421875-2.789062 3.359375-3.203125 5.5l-10.5 49.5c-.59375 3.054687.214844 6.210937 2.203125 8.601562 1.90625 2.210938 4.679688 3.484375 7.597656 3.5h.601563l51.398437-2.898437c2.226563-.125 4.34375-1.007813 6-2.5l130.800782-114.601563c2.011718-1.753906 3.234375-4.238281 3.398437-6.898437.203125-2.644531-.699219-5.253907-2.5-7.203125zm-101.601562 158.101563-34.898438 2 7.097656-33.601563 120.800782-105.800781 27.699218 31.601562zm0 0" fill="url(#c)"/></svg>