<svg height="470pt" viewBox="-11 0 470 470.00051" width="470pt" xmlns="http://www.w3.org/2000/svg" xmlns:xlink="http://www.w3.org/1999/xlink"><linearGradient id="a"><stop offset=".322" stop-color="#a163f5"/><stop offset=".466" stop-color="#b074ee"/><stop offset=".752" stop-color="#d8a1dd"/><stop offset=".898" stop-color="#efbad3"/></linearGradient><linearGradient id="b" gradientTransform="matrix(1 0 0 -1 -32.099745 493)" gradientUnits="userSpaceOnUse" x1="369.95" x2="369.95" xlink:href="#a" y1="20" y2="498.004"/><linearGradient id="c" gradientTransform="matrix(1 0 0 -1 -32.099745 493)" gradientUnits="userSpaceOnUse" x1="201.2" x2="201.2" xlink:href="#a" y1="20" y2="498.004"/><linearGradient id="d" gradientTransform="matrix(1 0 0 -1 -32.099745 493)" gradientUnits="userSpaceOnUse" x1="170.1" x2="170.1" xlink:href="#a" y1="20" y2="498.004"/><linearGradient id="e" gradientTransform="matrix(1 0 0 -1 -32.099745 493)" gradientUnits="userSpaceOnUse" x1="255.9" x2="255.9" xlink:href="#a" y1="20" y2="498.004"/><path d="m382.101562 316.5c-1.871093-1.871094-4.40625-2.925781-7.050781-2.925781s-5.183593 1.054687-7.050781 2.925781l-29.398438 29.398438-31.101562-31.097657c-3.894531-3.894531-10.207031-3.894531-14.101562 0-3.890626 3.894531-3.890626 10.207031 0 14.097657l31.101562 31.101562-31.101562 31.101562c-1.871094 1.867188-2.921876 4.402344-2.921876 7.046876 0 2.648437 1.050782 5.183593 2.921876 7.050781 1.878906 1.890625 4.441406 2.9375 7.101562 2.902343 2.652344-.011718 5.199219-1.050781 7.101562-2.902343l31.097657-31.097657 29.402343 29.398438c1.875 1.890625 4.4375 2.9375 7.097657 2.898438 2.652343-.007813 5.199219-1.046876 7.101562-2.898438 1.871094-1.867188 2.925781-4.40625 2.925781-7.050781s-1.054687-5.179688-2.925781-7.050781l-29.601562-29.398438 29.402343-29.398438c1.871094-1.871093 2.921876-4.40625 2.921876-7.050781s-1.050782-5.183593-2.921876-7.050781zm0 0" fill="url(#b)"/><path d="m246.601562 209.101562h-155c-5.523437 0-10 4.476563-10 10 0 5.519532 4.476563 10 10 10h155c5.523438 0 10-4.480468 10-10 0-5.523437-4.476562-10-10-10zm0 0" fill="url(#c)"/><path d="m184.398438 274.101562h-92.796876c-5.523437 0-10 4.476563-10 10 0 5.519532 4.476563 10 10 10h92.796876c5.523437 0 10-4.480468 10-10 0-5.523437-4.476563-10-10-10zm0 0" fill="url(#d)"/><path d="m358 251.898438v-172.796876c-.007812-27.613281-22.390625-49.992187-50-50h-41v-19.101562c0-5.523438-4.476562-10-10-10s-10 4.476562-10 10v19.101562h-136v-19.101562c0-5.523438-4.476562-10-10-10s-10 4.476562-10 10v19.101562h-41c-27.609375.007813-49.9882812 22.386719-50 50v270.898438c.0117188 27.609375 22.390625 49.988281 50 50h185.101562c19.242188 49.28125 70.839844 77.886719 122.832032 68.101562 51.992187-9.785156 89.660156-55.195312 89.667968-108.101562.097657-53.699219-38.601562-98.5-89.601562-108.101562zm-337.898438-172.796876c.046876-16.550781 13.449219-29.953124 30-30h41v19.097657c0 5.523437 4.476563 10 10 10 5.523438 0 10-4.476563 10-10v-19.097657h136v19.097657c0 5.523437 4.476563 10 10 10 5.523438 0 10-4.476563 10-10v-19.097657h41c16.546876.046876 29.949219 13.449219 30 30v24.199219h-318zm209.398438 300.898438h-179.398438c-16.550781-.046875-29.953124-13.453125-30-30v-226.800781h317.898438v126.800781h-.300781c-32.660157.050781-63.613281 14.585938-84.507813 39.691406-20.894531 25.101563-29.570312 58.183594-23.691406 90.308594zm108.199219 70c-49.703125 0-90-40.292969-90-90s40.296875-90 90-90c49.707031 0 90 40.292969 90 90-.074219 49.675781-40.324219 89.925781-90 90zm0 0" fill="url(#e)"/></svg>