<svg height="400pt" viewBox="0 -3 400 400" width="400pt" xmlns="http://www.w3.org/2000/svg" xmlns:xlink="http://www.w3.org/1999/xlink"><linearGradient id="a"><stop offset=".322" stop-color="#a163f5"/><stop offset=".466" stop-color="#b074ee"/><stop offset=".752" stop-color="#d8a1dd"/><stop offset=".898" stop-color="#efbad3"/></linearGradient><linearGradient id="b" gradientTransform="matrix(1 0 0 -1 -56 455.25)" gradientUnits="userSpaceOnUse" x1="256" x2="256" xlink:href="#a" y1="14" y2="444.019"/><linearGradient id="c" gradientTransform="matrix(1 0 0 -1 -56 455.25)" gradientUnits="userSpaceOnUse" x1="206.742" x2="206.742" xlink:href="#a" y1="14" y2="444.019"/><g fill="url(#b)"><path d="m350 34.5625h-26.972656v-24.5625c0-5.523438-4.476563-10-10-10-5.519532 0-10 4.476562-10 10v24.5625h-206.054688v-24.5625c0-5.523438-4.480468-10-10-10-5.523437 0-10 4.476562-10 10v24.5625h-26.972656c-27.601562.03125-49.96875 22.398438-50 50v259.9375c.03125 27.601562 22.398438 49.96875 50 50h300c27.601562-.03125 49.96875-22.398438 50-50v-259.9375c-.03125-27.601562-22.398438-49.96875-50-50zm30 309.9375c-.019531 16.5625-13.4375 29.980469-30 30h-300c-16.5625-.019531-29.980469-13.4375-30-30v-259.9375c.019531-16.558594 13.4375-29.980469 30-30h26.972656v34.78125c0 5.523438 4.476563 10 10 10 5.519532 0 10-4.476562 10-10v-34.78125h206.054688v34.78125c0 5.523438 4.480468 10 10 10 5.523437 0 10-4.476562 10-10v-34.78125h26.972656c16.5625.019531 29.980469 13.441406 30 30zm0 0"/><path d="m307.472656 224.449219h-214.945312c-5.523438 0-10 4.476562-10 10 0 5.523437 4.476562 10 10 10h214.945312c5.523438 0 10-4.476563 10-10 0-5.523438-4.476562-10-10-10zm0 0"/><path d="m307.472656 296.097656h-214.945312c-5.523438 0-10 4.476563-10 10 0 5.523438 4.476562 10 10 10h214.945312c5.523438 0 10-4.476562 10-10 0-5.523437-4.476562-10-10-10zm0 0"/></g><path d="m92.527344 172.800781h116.429687c5.523438 0 10-4.476562 10-10 0-5.523437-4.476562-10-10-10h-116.429687c-5.523438 0-10 4.476563-10 10 0 5.523438 4.476562 10 10 10zm0 0" fill="url(#c)"/></svg>