<svg height="399pt" viewBox="0 -28 399.9502 399" width="399pt" xmlns="http://www.w3.org/2000/svg" xmlns:xlink="http://www.w3.org/1999/xlink"><linearGradient id="a"><stop offset=".322" stop-color="#a163f5"/><stop offset=".466" stop-color="#b074ee"/><stop offset=".752" stop-color="#d8a1dd"/><stop offset=".898" stop-color="#efbad3"/></linearGradient><linearGradient id="b" gradientUnits="userSpaceOnUse" x1="171.659577" x2="171.659577" xlink:href="#a" y1="350.2001" y2="6.8613"/><linearGradient id="c" gradientUnits="userSpaceOnUse" x1="340.674577" x2="340.674577" xlink:href="#a" y1="350.2001" y2="7.1637"/><path d="m265.1875 165 20.398438-20.398438c2.402343-2.402343 5.300781-4.300781 8.402343-5.5l42.898438-16.5c5.199219-2 7.699219-7.800781 5.699219-12.902343-.5-1.300781-1.296876-2.5-2.296876-3.5l-102.703124-102.800781c-3.898438-3.898438-10.199219-3.898438-14.097657 0-1 1-1.800781 2.203124-2.300781 3.5l-16.5 42.902343c-1.199219 3.199219-3.101562 6-5.5 8.398438l-181.398438 181.402343c-23.800781 23.898438-23.703124 62.597657.199219 86.398438 23.800781 23.699219 62.398438 23.699219 86.199219 0l158.300781-158.300781c1.097657-.699219 2-1.597657 2.699219-2.699219zm-51.898438-92.699219c4.398438-4.402343 7.796876-9.601562 10-15.402343l11-28.5 81.097657 81.101562-28.5 11c-5.800781 2.199219-11 5.601562-15.398438 10l-18.300781 18.300781-101.699219-14.601562zm-123.203124 239.597657c-16.097657 16.101562-42.097657 16.101562-58.199219 0-16.097657-16.097657-16.097657-42.097657 0-58.199219l102-101.898438 101.699219 14.597657zm0 0" fill="url(#b)"/><path d="m347.6875 164.5c-3.898438-3.898438-10.199219-3.898438-14.101562 0l-34.796876 34.800781c-23.101562 23.097657-23.101562 60.597657 0 83.800781 23.097657 23.097657 60.597657 23.097657 83.796876 0 23.203124-23.101562 23.101562-60.601562 0-83.800781zm20.699219 104.5c-15.300781 15.300781-40.097657 15.300781-55.5 0-15.300781-15.300781-15.300781-40.199219 0-55.5l27.699219-27.699219 27.703124 27.699219c15.398438 15.300781 15.398438 40.101562.097657 55.5zm0 0" fill="url(#c)"/></svg>