<svg height="320pt" viewBox="-27 0 320 320" width="320pt" xmlns="http://www.w3.org/2000/svg" xmlns:xlink="http://www.w3.org/1999/xlink"><linearGradient id="a" gradientTransform="matrix(1 0 0 -1 -123.4 418)" gradientUnits="userSpaceOnUse" x1="256" x2="256" y1="17.518" y2="570.222"><stop offset=".322" stop-color="#a163f5"/><stop offset=".466" stop-color="#b074ee"/><stop offset=".752" stop-color="#d8a1dd"/><stop offset=".898" stop-color="#efbad3"/></linearGradient><path d="m260.199219 21.300781c-3.089844-1.800781-6.910157-1.800781-10 0l-225.300781 130c-2.6875 1.574219-4.496094 4.308594-4.898438 7.398438v-148.699219c0-5.523438-4.476562-10-10-10s-10 4.476562-10 10v300c0 5.523438 4.476562 10 10 10s10-4.476562 10-10v-148.800781c.375 3.101562 2.191406 5.84375 4.898438 7.402343l225.300781 130.097657c3.109375 1.734375 6.894531 1.734375 10 0 3.101562-1.796875 5.007812-5.113281 5-8.699219v-260.101562c.03125-3.5625-1.886719-6.859376-5-8.597657zm-15 251.5-195.300781-112.800781 195.300781-112.800781zm0 0" fill="url(#a)"/></svg>