<svg height="320pt" viewBox="-27 0 320 320" width="320pt" xmlns="http://www.w3.org/2000/svg" xmlns:xlink="http://www.w3.org/1999/xlink"><linearGradient id="a" gradientTransform="matrix(1 0 0 -1 -123.39998 418)" gradientUnits="userSpaceOnUse" x1="256" x2="256" y1="17.518" y2="570.222"><stop offset=".322" stop-color="#a163f5"/><stop offset=".466" stop-color="#b074ee"/><stop offset=".752" stop-color="#d8a1dd"/><stop offset=".898" stop-color="#efbad3"/></linearGradient><path d="m255.199219 0c-5.515625.015625-9.984375 4.484375-10 10v148.800781c-.375-3.101562-2.191407-5.84375-4.898438-7.402343l-225.300781-130.097657c-3.089844-1.800781-6.910156-1.800781-10 0-3.101562 1.796875-5.0078125 5.113281-5 8.699219v260.199219c-.0078125 3.585937 1.898438 6.902343 5 8.699219 3.109375 1.734374 6.890625 1.734374 10 0l225.300781-130.097657c2.6875-1.578125 4.5-4.308593 4.898438-7.402343v148.601562c0 5.523438 4.476562 10 10 10 5.523437 0 10-4.476562 10-10v-300c-.015625-5.515625-4.484375-9.984375-10-10zm-235.199219 272.800781v-225.601562l195.300781 112.800781zm0 0" fill="url(#a)"/></svg>