<svg height="382pt" viewBox="-21 0 382 382.3" width="382pt" xmlns="http://www.w3.org/2000/svg" xmlns:xlink="http://www.w3.org/1999/xlink"><linearGradient id="a" gradientUnits="userSpaceOnUse" x1="170.175" x2="170.175" y1="408.2" y2="-33.818"><stop offset=".322" stop-color="#a163f5"/><stop offset=".466" stop-color="#b074ee"/><stop offset=".752" stop-color="#d8a1dd"/><stop offset=".898" stop-color="#efbad3"/></linearGradient><path d="m338.851562 49.300781c-1.800781-3.101562-5.117187-5.007812-8.703124-5h-129v-34.300781c-.015626-5.515625-4.480469-9.984375-10-10h-181c-5.515626.015625-9.984376 4.484375-10 10v362.300781c0 5.523438 4.480468 10 10 10 5.523437 0 10-4.476562 10-10v-183.402343h88.601562v30.203124c.015625 5.515626 4.484375 9.984376 10 10h211.398438c3.585937.003907 6.902343-1.902343 8.703124-5 1.796876-3.09375 1.796876-6.910156 0-10l-45.300781-77.402343 45.300781-77.398438c1.75-3.105469 1.75-6.898437 0-10zm-318.703124-29.300781h161v148.898438h-161zm253.101562 111.601562c-1.800781 3.125-1.800781 6.972657 0 10.097657l39.398438 67.402343h-183.898438v-20.203124h62.398438c5.519531-.015626 9.984374-4.480469 10-10v-114.699219h111.601562zm0 0" fill="url(#a)"/></svg>