<svg height="423pt" viewBox="-73 0 423 423.4" width="423pt" xmlns="http://www.w3.org/2000/svg" xmlns:xlink="http://www.w3.org/1999/xlink"><linearGradient id="a" gradientUnits="userSpaceOnUse" x1="138.7" x2="138.7" y1="435.7" y2="-6.554"><stop offset=".322" stop-color="#a163f5"/><stop offset=".466" stop-color="#b074ee"/><stop offset=".752" stop-color="#d8a1dd"/><stop offset=".898" stop-color="#efbad3"/></linearGradient><path d="m271.898438 146.699219-194.699219-104.300781v-32.398438c0-5.523438-4.476563-10-10-10-5.523438 0-10 4.476562-10 10v393.398438h-47c-5.523438 0-10 4.480468-10 10 0 5.523437 4.476562 10 10 10h114c5.523437 0 10-4.476563 10-10 0-5.519532-4.476563-10-10-10h-47v-134.699219l194.699219-104.300781c3.265624-1.746094 5.300781-5.148438 5.300781-8.847657 0-3.703125-2.035157-7.101562-5.300781-8.851562zm-194.699219 99.300781v-180.898438l168.800781 90.398438zm0 0" fill="url(#a)"/></svg>