<svg height="399pt" viewBox="-100 0 399 399.98682" width="399pt" xmlns="http://www.w3.org/2000/svg" xmlns:xlink="http://www.w3.org/1999/xlink"><linearGradient id="a" gradientUnits="userSpaceOnUse" x1="99.63073" x2="99.63073" y1="402.986817" y2="4.266317"><stop offset=".322" stop-color="#a163f5"/><stop offset=".466" stop-color="#b074ee"/><stop offset=".752" stop-color="#d8a1dd"/><stop offset=".898" stop-color="#efbad3"/></linearGradient><path d="m195.132812 130.488281c-2.703124-2.300781-6.402343-2.902343-9.800781-1.703125l-73.902343 26.5-49-148.398437c-1.699219-5.199219-7.398438-8.101563-12.597657-6.398438-3.5 1.199219-6.101562 4.199219-6.699219 7.796875l-42.5 248.203125c-.902343 5.398438 2.699219 10.597657 8.199219 11.5 1.5.296875 3.097657.199219 4.597657-.300781l77.402343-23.699219 48.300781 149.097657c1.296876 4.101562 5.199219 6.902343 9.5 6.902343h.796876c4.601562-.402343 8.402343-3.800781 9.101562-8.402343l40.101562-251.800782c.5-3.5-.800781-7-3.5-9.296875zm-49.800781 216.796875-38.5-118.796875c-1.699219-5.203125-7.199219-8.101562-12.402343-6.5l-71.296876 21.796875 32.898438-192.597656 39.601562 120c1.699219 5.199219 7.398438 8.097656 12.597657 6.398438.101562 0 .199219-.097657.199219-.097657l67.601562-24.203125zm0 0" fill="url(#a)"/></svg>