<svg height="400pt" viewBox="-46 0 400 400.1" width="400pt" xmlns="http://www.w3.org/2000/svg" xmlns:xlink="http://www.w3.org/1999/xlink"><linearGradient id="a" gradientUnits="userSpaceOnUse" x1="154.27904" x2="154.27904" y1="397" y2="-1.0452"><stop offset=".322" stop-color="#a163f5"/><stop offset=".466" stop-color="#b074ee"/><stop offset=".752" stop-color="#d8a1dd"/><stop offset=".898" stop-color="#efbad3"/></linearGradient><path d="m229.171875 181.300781c-11.699219-23.699219-17.796875-49.800781-17.898437-76.199219v-35.101562h13.199218c5.300782.101562 9.601563-4.101562 9.800782-9.300781 0-.097657 0-.199219 0-.398438v-50.300781c.101562-5.398438-4.199219-9.898438-9.601563-10h-140.597656c-5.402344 0-9.800781 4.398438-9.800781 9.800781v.199219 50.300781c-.101563 5.300781 4.101562 9.597657 9.398437 9.699219h.402344 13.199219v35.199219c-.101563 26.402343-6.199219 52.5-17.898438 76.199219l-74.5 151.601562c-11.402344 23.101562-1.902344 51 21.199219 62.300781 6.398437 3.199219 13.398437 4.800781 20.597656 4.800781h215.300781c25.699219 0 46.5-20.800781 46.5-46.402343 0-7.199219-1.597656-14.199219-4.800781-20.699219zm-134.898437-161.300781h120v30h-120zm3.101562 170.199219c13-26.5 19.796875-55.597657 19.898438-85.097657v-35.101562h74v35.199219c.101562 29.5 6.898437 58.601562 19.898437 85.101562l16.703125 33.800781h-147.300781zm187.097656 177.300781c-4.800781 7.800781-13.398437 12.601562-22.597656 12.5h-215.300781c-14.699219 0-26.601563-11.898438-26.601563-26.5 0-4.101562.902344-8.101562 2.699219-11.699219l48-97.800781h167l48 97.800781c4.203125 8.199219 3.703125 17.898438-1.199219 25.699219zm0 0" fill="url(#a)"/></svg>