<svg height="420pt" viewBox="-83 0 420 420.025" width="420pt" xmlns="http://www.w3.org/2000/svg" xmlns:xlink="http://www.w3.org/1999/xlink"><linearGradient id="a"><stop offset=".322" stop-color="#a163f5"/><stop offset=".466" stop-color="#b074ee"/><stop offset=".752" stop-color="#d8a1dd"/><stop offset=".898" stop-color="#efbad3"/></linearGradient><linearGradient id="b" gradientUnits="userSpaceOnUse" x1="127.30678" x2="127.30678" xlink:href="#a" y1="411.025" y2="40.0034"/><linearGradient id="c" gradientUnits="userSpaceOnUse" x1="127.33398" x2="127.33398" xlink:href="#a" y1="411.025" y2="40.0034"/><path d="m190.230469 239.625c-9.203125-19-14-39.898438-13.902344-61.101562v-26.5h8.101563c5.5 0 9.898437-4.398438 9.898437-9.898438v-41c.101563-5.5-4.398437-10.101562-9.898437-10.101562h-114.199219c-5.5.101562-10 4.601562-9.902344 10.101562v40.898438c0 5.5 4.402344 9.902343 9.800781 10h8.199219v26.5c.101563 21.203124-4.699219 42.101562-13.898437 61.101562l-60.402344 123.199219c-9.597656 19.699219-1.398438 43.601562 18.300781 53.199219 5.402344 2.703124 11.402344 4 17.5 4h175c22 0 39.800781-17.898438 39.800781-39.898438 0-6-1.398437-11.898438-4-17.300781zm-109.902344-128.601562h94v21h-94zm2 137.402343c10.601563-21.800781 16-45.699219 16-69.902343v-26.5h58v26.5c-.097656 24.203124 5.402344 48.101562 16 69.902343l11.902344 24.597657h-113.800781zm149.300781 142.300781c-3.601562 5.796876-9.898437 9.398438-16.699218 9.296876h-175c-10.902344 0-19.699219-8.898438-19.699219-19.796876 0-3 .699219-6 2-8.703124l38.5-78.5h133.398437l38.5 78.5c3 6.101562 2.601563 13.402343-1 19.203124zm0 0" fill="url(#b)"/><path d="m127.328125 81.125c19.5 0 35.300781-15.800781 35.300781-35.300781 0-9.398438-3.699218-18.398438-10.398437-25l-17.902344-17.898438c-3.898437-3.902343-10.199219-3.902343-14.097656 0l-17.902344 17.898438c-13.800781 13.800781-13.800781 36.101562 0 49.902343 6.601563 6.699219 15.601563 10.398438 25 10.398438zm-10.800781-46.101562 10.800781-10.898438 10.800781 10.898438c6 6 6 15.703124 0 21.703124s-15.699218 6-21.699218 0c-5.902344-6-5.902344-15.703124.097656-21.703124zm0 0" fill="url(#c)"/></svg>