<svg height="485pt" viewBox="0 -42 485.9 485" width="485pt" xmlns="http://www.w3.org/2000/svg" xmlns:xlink="http://www.w3.org/1999/xlink"><linearGradient id="a" gradientUnits="userSpaceOnUse" x1="242.9" x2="242.9" y1="397.45" y2="18.0979"><stop offset=".322" stop-color="#a163f5"/><stop offset=".466" stop-color="#b074ee"/><stop offset=".752" stop-color="#d8a1dd"/><stop offset=".898" stop-color="#efbad3"/></linearGradient><path d="m455.800781 275.351562h-24.402343v-18.5c0-16.902343-13.699219-30.601562-30.699219-30.703124h-147.800781v-100.597657h130.601562c16.601562 0 30-13.402343 30-30v-65.101562c0-16.597657-13.398438-30-30-30h-281.199219c-16.601562 0-30 13.402343-30 30v65.101562c0 16.597657 13.398438 30 30 30h130.597657v100.597657h-147.796876c-16.902343 0-30.601562 13.703124-30.703124 30.703124v18.5h-24.398438c-16.601562 0-30 13.398438-30 30v65.097657c0 16.601562 13.398438 30 30 30h67.101562c16.597657 0 30-13.398438 30-30v-65.097657c0-16.601562-13.402343-30-30-30h-22.703124v-18.5c0-5.902343 4.800781-10.601562 10.703124-10.703124h147.796876v29.203124h-23.5c-16.597657 0-30 13.398438-30 30v65.097657c0 16.601562 13.402343 30 30 30h67.101562c16.601562 0 30-13.398438 30-30v-65.097657c0-16.601562-13.398438-30-30-30h-23.601562v-29.203124h147.800781c5.902343 0 10.601562 4.800781 10.699219 10.703124v18.5h-22.597657c-16.601562 0-30 13.398438-30 30v65.097657c0 16.601562 13.398438 30 30 30h67.097657c16.601562 0 30-13.398438 30-30v-65.097657c-.097657-16.601562-13.5-30-30.097657-30zm-363.5-179.800781v-65.101562c0-5.5 4.5-10 10-10h281.199219c5.5 0 10 4.5 10 10v65.101562c0 5.5-4.5 10-10 10h-281.199219c-5.5 0-10-4.402343-10-10zm14.800781 209.800781v65.097657c0 5.5-4.5 10-10 10h-67.101562c-5.5 0-10-4.5-10-10v-65.097657c0-5.5 4.5-10 10-10h67.101562c5.5 0 10 4.398438 10 10zm179.296876 0v65.097657c0 5.5-4.5 10-10 10h-67.097657c-5.5 0-10-4.5-10-10v-65.097657c0-5.5 4.5-10 10-10h67.097657c5.601562 0 10 4.398438 10 10zm179.402343 65.097657c0 5.5-4.5 10-10 10h-67.101562c-5.5 0-10-4.5-10-10v-65.097657c0-5.5 4.5-10 10-10h67.101562c5.5 0 10 4.5 10 10zm0 0" fill="url(#a)"/></svg>