<svg height="430pt" viewBox="0 -25 430 430" width="430pt" xmlns="http://www.w3.org/2000/svg" xmlns:xlink="http://www.w3.org/1999/xlink"><linearGradient id="a"><stop offset=".322" stop-color="#a163f5"/><stop offset=".466" stop-color="#b074ee"/><stop offset=".752" stop-color="#d8a1dd"/><stop offset=".898" stop-color="#efbad3"/></linearGradient><linearGradient id="b" gradientTransform="matrix(1 0 0 -1 -41 447.900406)" gradientUnits="userSpaceOnUse" x1="256" x2="256" xlink:href="#a" y1="60" y2="476.236"/><linearGradient id="c" gradientTransform="matrix(1 0 0 -1 -41 447.900406)" gradientUnits="userSpaceOnUse" x1="256.076" x2="256.076" xlink:href="#a" y1="60" y2="476.236"/><path d="m380 82.800781h-146.300781c-11.199219.003907-21.464844-6.246093-26.597657-16.199219l-20.601562-39.699218c-8.578125-16.589844-25.726562-26.9765628-44.398438-26.902344h-92.101562c-27.609375.0117188-49.9882812 22.390625-50 50v279.601562c.0117188 27.609376 22.390625 49.988282 50 50h330c27.609375-.011718 49.988281-22.390624 50-50v-196.800781c-.011719-27.609375-22.390625-49.992187-50-50zm-360-32.699219c.046875-16.550781 13.453125-29.953124 30-30h92.101562c11.199219-.007812 21.464844 6.246094 26.597657 16.199219l20.601562 39.699219c1.277344 2.394531 2.714844 4.699219 4.300781 6.902344h-173.601562zm390 279.597657c-.046875 16.550781-13.453125 29.953125-30 30h-330c-16.546875-.046875-29.953125-13.449219-30-30v-226.898438h203.898438c.984374.019531 1.960937-.113281 2.902343-.398437 2.320313.316406 4.65625.484375 7 .5h146.199219c16.546875.046875 29.953125 13.449218 30 30zm0 0" fill="url(#b)"/><path d="m283.101562 177-88.601562 84.699219-47.398438-47.398438c-3.894531-3.894531-10.207031-3.894531-14.101562 0s-3.894531 10.207031 0 14.101563l54.300781 54.296875c1.875 1.890625 4.4375 2.9375 7.097657 2.902343 2.582031.023438 5.066406-.984374 6.902343-2.800781l95.699219-91.398437c3.976562-3.839844 4.089844-10.175782.25-14.152344s-10.171875-4.089844-14.148438-.25zm0 0" fill="url(#c)"/></svg>