<svg height="400pt" viewBox="-86 0 400 400" width="400pt" xmlns="http://www.w3.org/2000/svg" xmlns:xlink="http://www.w3.org/1999/xlink"><linearGradient id="a"><stop offset=".322" stop-color="#a163f5"/><stop offset=".466" stop-color="#b074ee"/><stop offset=".752" stop-color="#d8a1dd"/><stop offset=".898" stop-color="#efbad3"/></linearGradient><linearGradient id="b" gradientTransform="matrix(1 0 0 -1 -142.5 458)" gradientUnits="userSpaceOnUse" x1="187.242" x2="187.242" xlink:href="#a" y1="3.998" y2="508.995"/><linearGradient id="c" gradientTransform="matrix(1 0 0 -1 -142.5 458)" gradientUnits="userSpaceOnUse" x1="323.233" x2="323.233" xlink:href="#a" y1="3.998" y2="508.995"/><path d="m79.476562 4.726562c-5.519531 0-10 4.476563-10 10v72.761719c-.007812 9.792969-5.789062 18.660157-14.742187 22.625v-95.386719c0-5.523437-4.476563-10-10-10-5.519531 0-10 4.476563-10 10v95.386719c-8.949219-3.96875-14.722656-12.832031-14.734375-22.625v-72.761719c0-5.523437-4.476562-10-10-10s-10 4.476563-10 10v72.761719c.03125 20.84375 14.429688 38.917969 34.742188 43.601563v86.882812c-14.257813 4.40625-23.988282 17.578125-24.007813 32.5v136.800782c0 5.523437 4.476563 10 10 10h48.011719c5.523437 0 10-4.476563 10-10v-136.800782c-.019532-14.921875-9.75-28.09375-24.003906-32.5v-86.882812c20.3125-4.683594 34.710937-22.753906 34.742187-43.601563v-72.761719c0-5.523437-4.480469-10-10-10zm-20.734374 372.546876h-28.011719v-126.796876c-.066407-7.738281 6.152343-14.0625 13.886719-14.125 7.738281-.066406 14.058593 6.152344 14.125 13.886719v.238281zm0 0" fill="url(#b)"/><path d="m216.898438 0-35.46875.363281h-.117188c-26.035156.570313-46.84375 21.839844-46.847656 47.882813v341.753906c0 5.523438 4.476562 10 10 10h44.222656c5.523438 0 10-4.476562 10-10v-110.074219h18.3125c5.523438 0 10-4.480469 10-10v-259.925781c0-5.523438-4.476562-10-10-10zm-38.207032 380h-24.222656v-100.074219h24.222656zm28.3125-120.074219h-52.535156v-211.675781c.082031-15.113281 12.125-27.445312 27.230469-27.890625l25.304687-.257813zm0 0" fill="url(#c)"/></svg>