<svg height="420pt" viewBox="0 -63 420.10016 420" width="420pt" xmlns="http://www.w3.org/2000/svg" xmlns:xlink="http://www.w3.org/1999/xlink"><linearGradient id="a" gradientTransform="matrix(1 0 0 -1 -46 404.98828)" gradientUnits="userSpaceOnUse" x1="256.05" x2="256.05" y1="17.518" y2="570.222"><stop offset=".322" stop-color="#a163f5"/><stop offset=".466" stop-color="#b074ee"/><stop offset=".752" stop-color="#d8a1dd"/><stop offset=".898" stop-color="#efbad3"/></linearGradient><path d="m415.101562 138.386719-228.300781-136.898438c-3.09375-1.882812-6.96875-1.917969-10.101562-.101562-3.125 1.789062-5.066407 5.101562-5.097657 8.703125v77.199218l-156.800781-86c-3.105469-1.6875-6.867187-1.613281-9.902343.199219-3.019532 1.816407-4.8750005 5.074219-4.898438 8.601563v273.796875c.0234375 3.527343 1.878906 6.785156 4.898438 8.601562 1.550781.902344 3.308593 1.386719 5.101562 1.398438 1.675781.007812 3.324219-.40625 4.800781-1.199219l156.800781-85.898438v77.199219c-.011718 3.613281 1.941407 6.945313 5.097657 8.699219 3.144531 1.769531 6.992187 1.730469 10.101562-.097656l228.398438-136.902344c3.058593-1.820312 4.921875-5.121094 4.902343-8.679688-.023437-3.554687-1.925781-6.835937-5-8.621093zm-223.5 127.800781v-76.398438c-.023437-3.523437-1.882812-6.785156-4.902343-8.601562-3.03125-1.8125-6.796875-1.886719-9.898438-.199219l-156.800781 86v-240l156.800781 85.898438c3.101563 1.691406 6.867188 1.613281 9.898438-.199219 3.019531-1.816406 4.878906-5.074219 4.902343-8.597656v-76.402344l199 119.300781zm0 0" fill="url(#a)"/></svg>