<svg height="460pt" viewBox="0 -117 460 460" width="460pt" xmlns="http://www.w3.org/2000/svg" xmlns:xlink="http://www.w3.org/1999/xlink"><linearGradient id="a"><stop offset=".322" stop-color="#a163f5"/><stop offset=".466" stop-color="#b074ee"/><stop offset=".752" stop-color="#d8a1dd"/><stop offset=".898" stop-color="#efbad3"/></linearGradient><linearGradient id="b" gradientTransform="matrix(1 0 0 -1 -26 371.371)" gradientUnits="userSpaceOnUse" x1="256" x2="256" xlink:href="#a" y1="14" y2="444.019"/><linearGradient id="c" gradientTransform="matrix(1 0 0 -1 -26 371.371)" gradientUnits="userSpaceOnUse" x1="116.724" x2="116.724" xlink:href="#a" y1="14" y2="444.019"/><linearGradient id="d" gradientTransform="matrix(1 0 0 -1 -26 371.371)" gradientUnits="userSpaceOnUse" x1="184.968" x2="184.968" xlink:href="#a" y1="14" y2="444.019"/><linearGradient id="e" gradientTransform="matrix(1 0 0 -1 -26 371.371)" gradientUnits="userSpaceOnUse" x1="253.212" x2="253.212" xlink:href="#a" y1="14" y2="444.019"/><linearGradient id="f" gradientTransform="matrix(1 0 0 -1 -26 371.371)" gradientUnits="userSpaceOnUse" x1="321.457" x2="321.457" xlink:href="#a" y1="14" y2="444.019"/><path d="m430.5 51.894531h-24.175781v-1.894531c-.03125-27.601562-22.398438-49.96875-50-50h-306.324219c-27.601562.03125-49.96875 22.398438-50 50v126.742188c.03125 27.601562 22.398438 49.96875 50 50h306.324219c27.601562-.03125 49.96875-22.398438 50-50v-1.894532h24.175781c16.285156-.019531 29.480469-13.214844 29.5-29.5v-63.957031c-.019531-16.28125-13.214844-29.476563-29.5-29.496094zm-44.175781 124.847657c-.019531 16.5625-13.441407 29.980468-30 30h-306.324219c-16.5625-.019532-29.980469-13.4375-30-30v-126.742188c.019531-16.5625 13.4375-29.980469 30-30h306.324219c16.558593.019531 29.980469 13.4375 30 30zm53.675781-31.390626c-.003906 5.242188-4.253906 9.492188-9.5 9.5h-24.175781v-82.957031h24.175781c5.246094.003907 9.496094 4.253907 9.5 9.5zm0 0" fill="url(#b)"/><path d="m90.722656 74.277344c-5.523437 0-10 4.476562-10 10v58.199218c0 5.523438 4.476563 10 10 10 5.523438 0 10-4.476562 10-10v-58.195312c0-5.523438-4.476562-10-10-10zm0 0" fill="url(#c)"/><path d="m158.96875 74.277344c-5.523438 0-10 4.476562-10 10v58.199218c0 5.523438 4.476562 10 10 10s10-4.476562 10-10v-58.195312c0-5.519531-4.476562-9.996094-9.996094-10zm0 0" fill="url(#d)"/><path d="m227.210938 74.277344c-5.523438 0-10 4.476562-10 10v58.199218c0 5.523438 4.476562 10 10 10 5.523437 0 10-4.476562 10-10v-58.195312c0-5.519531-4.472657-9.996094-9.992188-10zm0 0" fill="url(#e)"/><path d="m295.457031 74.277344c-5.523437 0-10 4.476562-10 10v58.199218c0 5.523438 4.476563 10 10 10 5.523438 0 10-4.476562 10-10v-58.195312c0-5.523438-4.476562-10-10-10zm0 0" fill="url(#f)"/></svg>