<svg height="460pt" viewBox="-4 0 460 460.00012" width="460pt" xmlns="http://www.w3.org/2000/svg" xmlns:xlink="http://www.w3.org/1999/xlink"><linearGradient id="a" gradientTransform="matrix(1 0 0 -1 -29.89994 488.000124)" gradientUnits="userSpaceOnUse" x1="255.95" x2="255.95" y1="17" y2="510.789"><stop offset=".322" stop-color="#a163f5"/><stop offset=".466" stop-color="#b074ee"/><stop offset=".752" stop-color="#d8a1dd"/><stop offset=".898" stop-color="#efbad3"/></linearGradient><path d="m402.199219 89.300781h-45.5l8.101562-8.300781c18.398438-18.582031 18.398438-48.515625 0-67.101562-18.527343-18.53125-48.574219-18.53125-67.101562 0l-70.5 70.402343-52.097657-52.101562c-16.804687-16.816407-43.464843-18.59375-62.351562-4.15625s-24.167969 40.628906-12.351562 61.257812h-50.398438c-27.609375.007813-49.9882812 22.390625-50 50v55.800781c.015625 5.515626 4.484375 9.984376 10 10h18.199219v204.898438c.011719 27.609375 22.390625 49.988281 50 50h295.699219c27.613281-.011719 49.992187-22.390625 50-50v-204.898438h18.203124c5.515626-.015624 9.984376-4.484374 10-10v-55.800781c.035157-13.253906-5.210937-25.976562-14.574218-35.359375-9.359375-9.382812-22.074219-14.648437-35.328125-14.640625zm-90.398438-61.300781c5.136719-5.152344 12.125-8.03125 19.398438-8 11.097656-.019531 21.113281 6.65625 25.363281 16.90625 4.25 10.253906 1.894531 22.058594-5.960938 29.894531l-.101562.097657-21.800781 22.300781h-78.199219zm-189.699219 18.300781c10.71875-10.699219 28.078126-10.699219 38.796876 0l42.902343 42.898438h-77.601562l-4.097657-4.097657c-10.703124-10.722656-10.703124-28.082031 0-38.800781zm49 393.699219h-92.902343c-16.546875-.046875-29.949219-13.453125-30-30v-204.898438h122.902343zm0-254.898438h-151.101562v-45.800781c.046875-16.550781 13.453125-29.953125 30-30h121.101562zm89 254.898438h-69v-234.898438h69zm0-254.898438h-69v-75.800781h69zm143.898438 224.898438c-.046875 16.546875-13.453125 29.953125-30 30h-93.898438v-234.898438h123.898438zm28.199219-224.898438h-152.097657v-75.800781h122.097657c16.550781.046875 29.953125 13.449219 30 30zm0 0" fill="url(#a)"/></svg>