<svg height="440pt" viewBox="0 -45 440.1 440" width="440pt" xmlns="http://www.w3.org/2000/svg" xmlns:xlink="http://www.w3.org/1999/xlink"><linearGradient id="a"><stop offset=".322" stop-color="#a163f5"/><stop offset=".466" stop-color="#b074ee"/><stop offset=".752" stop-color="#d8a1dd"/><stop offset=".898" stop-color="#efbad3"/></linearGradient><linearGradient id="b" gradientUnits="userSpaceOnUse" x1="219.9405" x2="219.9405" xlink:href="#a" y1="348.05" y2="7.0485"/><linearGradient id="c" gradientUnits="userSpaceOnUse" x1="127.9143" x2="127.9143" xlink:href="#a" y1="348.05" y2="7.0485"/><path d="m406 198.050781h-3.300781c-2.898438-16.101562-16.898438-27.902343-33.300781-28h-12.898438c-18.699219.097657-33.800781 15.398438-33.699219 34.097657v14.902343h-107.902343v-14.902343c.101562-4.898438-.898438-9.796876-2.898438-14.199219 0-.097657.199219-.199219.199219-.199219 7.300781-15 11.101562-31.398438 11.101562-48.101562 0-58.199219-45.402343-106.097657-101.402343-111.199219v-10.398438h10.5c5.5 0 10-4.5 10-10s-4.5-9.9999998-10-9.9999998h-41.699219c-5.5 0-10 4.4999998-10 9.9999998s4.5 10 10 10h11.199219v10.398438c-57 5.101562-101.898438 53-101.898438 111.199219 0 56.703124 42.898438 104.203124 97.898438 110.800781v36.601562c.101562 18.800781 15.300781 34 34.101562 34.097657h3.300781c3.300781 15.703124 17.199219 27 33.300781 27h12.898438c18.398438.101562 33.398438-14.699219 33.5-33 0-.199219 0-.296876 0-.5v-15.597657h108v15.5c0 18.5 14.898438 33.5 33.398438 33.5h13.203124c16.097657 0 29.898438-11.300781 33.296876-27h3.300781c18.699219-.101562 33.902343-15.402343 33.902343-34.101562v-57.199219c-.203124-18.699219-15.402343-33.699219-34.101562-33.699219.101562 0 .101562 0 0 0zm-351.898438 15 15.296876-15.300781c3.902343-3.898438 3.902343-10.199219 0-14.101562-3.898438-3.898438-10.199219-3.898438-14.097657 0l-15.199219 15.402343c-10.800781-13.601562-17.601562-29.800781-19.601562-47h21.601562c5.5 0 10-4.5 10-10s-4.5-10-10-10h-21.703124c1.800781-17.402343 8.703124-33.902343 19.601562-47.5l15.199219 15.097657c3.902343 3.902343 10.300781 3.902343 14.199219-.097657 3.902343-3.902343 3.902343-10.300781-.097657-14.199219l-15-15.203124c13.597657-11 30.097657-17.796876 47.5-19.597657v21.5c0 5.5 4.5 10 10 10s10-4.5 10-10v-21.601562c17.199219 2 33.5 8.800781 47.097657 19.601562l-15.296876 15.199219c-3.902343 3.898438-3.902343 10.199219 0 14.101562 3.898438 3.898438 10.199219 3.898438 14.097657 0l15.199219-15c11 13.597657 17.800781 30.097657 19.601562 47.5h-21.601562c-5.5 0-10 4.5-10 10s4.5 10 10 10h21.601562c-.898438 7.597657-2.699219 15.097657-5.398438 22.199219-4.800781-2.699219-10.203124-4.101562-15.703124-4.199219h-12.898438c-16.398438.097657-30.398438 11.898438-33.300781 28h-3.300781c-18.699219 0-34.097657 15-34.097657 33.699219v.5c-15.902343-2.300781-31-8.902343-43.699219-19zm63.796876 75.898438v-57.199219c.101562-7.699219 6.402343-13.800781 14.101562-13.699219h2.898438v85h-2.898438c-7.699219-.101562-14-6.402343-14.101562-14.101562zm63.5 41.101562h-12.898438c-7.398438.097657-13.5-5.699219-13.699219-13.101562 0-.097657 0-.300781 0-.398438v-112.402343c-.101562-7.699219 6-13.898438 13.699219-14.097657h12.898438c7.703124 0 13.5 6.398438 13.5 14.097657v21.300781c0 1.199219-.898438 2.601562-.898438 4.101562s.898438 2.800781.898438 4.097657v53.703124c0 1.199219-.898438 2.597657-.898438 4.097657s.898438 2.800781.898438 4.101562v21.300781c.101562 7.296876-5.699219 13.398438-13 13.5-.097657-.300781-.296876-.300781-.5-.300781zm33.5-49v-42h108v42zm168 35.5c.203124 7.300781-5.597657 13.300781-12.898438 13.5-.199219 0-.398438 0-.5 0h-12.898438c-7.402343.097657-13.601562-5.699219-13.703124-13.199219 0-.101562 0-.203124 0-.300781v-21.300781c0-1.199219.902343-2.601562.902343-4.101562s-.902343-2.796876-.902343-4.097657v-53.699219c0-1.203124.902343-2.601562.902343-4.101562s-.902343-2.800781-.902343-4v-21.300781c-.097657-7.699219 6-13.898438 13.703124-14.097657h12.898438c7.699219 0 13.398438 6.398438 13.398438 14.097657zm37-27.601562c0 7.699219-6.199219 14-13.898438 14.101562h-3.101562v-85h3.101562c7.601562-.101562 13.800781 6 13.898438 13.5v.097657zm0 0" fill="url(#b)"/><path d="m106.398438 151.050781 32.300781 20.199219c1.601562 1 3.402343 1.5 5.199219 1.5 5.601562 0 10-4.601562 10-10.101562 0-3.398438-1.699219-6.5-4.5-8.398438l-27.5-17.199219v-34c0-5.5-4.5-10-10-10s-10 4.5-10 10v39.5c-.097657 3.398438 1.601562 6.597657 4.5 8.5zm0 0" fill="url(#c)"/></svg>