<svg height="399pt" viewBox="0 -15 399.80091 399" width="399pt" xmlns="http://www.w3.org/2000/svg" xmlns:xlink="http://www.w3.org/1999/xlink"><linearGradient id="a" gradientUnits="userSpaceOnUse" x1="199.901" x2="199.901" y1="377.100455" y2="-24.000545"><stop offset=".322" stop-color="#a163f5"/><stop offset=".466" stop-color="#b074ee"/><stop offset=".752" stop-color="#d8a1dd"/><stop offset=".898" stop-color="#efbad3"/></linearGradient><path d="m356.5 204.402344h-6.800781v-54.300782c0-82.5-67.199219-149.699218-149.699219-149.699218s-149.699219 67.199218-149.699219 149.699218v54.300782h-6.800781c-24.015625.015625-43.484375 19.480468-43.5 43.5v78.199218c.015625 24.015626 19.484375 43.480469 43.5 43.5h39.101562c5.515626-.015624 9.984376-4.484374 10-10v-145.199218c-.015624-5.519532-4.484374-9.984375-10-10h-12.402343v-54.300782c0-71.5 58.199219-129.699218 129.699219-129.699218s129.703124 58.199218 129.703124 129.699218v54.300782h-12.402343c-5.515625.015625-9.984375 4.480468-10 10v145.296875c.015625 5.515625 4.484375 9.984375 10 10h39.101562c24.015625-.015625 43.480469-19.480469 43.5-43.5v-78.199219c.074219-11.535156-4.453125-22.621094-12.582031-30.804688-8.128906-8.183593-19.183594-12.789062-30.71875-12.792968zm-283.898438 145.296875h-29.101562c-12.96875-.019531-23.480469-10.527344-23.5-23.5v-78.199219c.019531-12.96875 10.53125-23.480469 23.5-23.5h29.101562zm307.398438-23.5c-.019531 12.972656-10.53125 23.480469-23.5 23.5h-29.101562v-125.296875h29.101562c12.96875.019531 23.480469 10.527344 23.5 23.5zm0 0" fill="url(#a)"/></svg>