<svg height="474pt" viewBox="0 -21 474.35494 474" width="474pt" xmlns="http://www.w3.org/2000/svg" xmlns:xlink="http://www.w3.org/1999/xlink"><linearGradient id="a" gradientTransform="matrix(1 0 0 -1 -17.563032 472.828935)" gradientUnits="userSpaceOnUse" x1="247.625" x2="256.625" y1="-54.351" y2="338.689"><stop offset=".322" stop-color="#a163f5"/><stop offset=".466" stop-color="#b074ee"/><stop offset=".752" stop-color="#d8a1dd"/><stop offset=".898" stop-color="#efbad3"/></linearGradient><path d="m404.277344 139.175781c-13.519532-11.511719-27.8125-22.085937-42.777344-31.648437l90.28125-90.277344c3.90625-3.90625 3.90625-10.238281 0-14.144531-3.90625-3.90625-10.238281-3.902344-14.144531 0l-93.898438 93.90625c-4.605469-2.523438-9.207031-4.890625-13.800781-7.101563-31.421875-15.097656-62.628906-22.75-92.757812-22.75-30.128907 0-61.339844 7.65625-92.757813 22.75-24.8125 11.921875-49.824219 28.5-74.34375 49.265625-41.542969 35.1875-67.085937 69.917969-68.152344 71.378907-2.566406 3.511718-2.566406 8.285156 0 11.796874 1.066407 1.460938 26.609375 36.191407 68.152344 71.378907 13.980469 11.910156 28.792969 22.8125 44.324219 32.621093l-89.308594 89.300782c-3.90625 3.90625-3.90625 10.238281 0 14.140625 3.90625 3.90625 10.238281 3.90625 14.144531 0l93.023438-93.023438c4.054687 2.191407 8.105469 4.265625 12.15625 6.21875 31.421875 15.101563 62.628906 22.75 92.757812 22.75 30.128907 0 61.339844-7.652343 92.757813-22.75 24.8125-11.921875 49.824218-28.5 74.34375-49.261719 41.542968-35.191406 67.085937-69.917968 68.152344-71.378906 2.566406-3.515625 2.566406-8.285156 0-11.800781-1.070313-1.453125-26.609376-36.183594-68.152344-71.371094zm-320.933594 139.582031c-22.144531-18.8125-42.46875-39.671874-60.699219-62.300781 20.8125-26.027343 109.992188-129.296875 214.53125-129.296875 32.890625 0 64.183594 10.375 91.714844 24.695313l-22.871094 22.875c-42.429687-35.796875-105.203125-33.140625-144.453125 6.109375-39.253906 39.253906-41.910156 102.027344-6.117187 144.457031l-26.46875 26.46875c-16.050781-9.796875-31.308594-20.832031-45.636719-33.007813zm86.300781-7.660156c-28.011719-34.550781-25.402343-84.675781 6.050781-116.128906 31.449219-31.449219 81.578126-34.058594 116.125-6.046875zm136.175781-107.886718c26.859376 34.578124 23.78125 83.742187-7.179687 114.703124-30.960937 30.960938-80.125 34.039063-114.703125 7.183594zm-68.644531 182.527343c-32.230469 0-62.921875-9.964843-90.046875-23.839843l22.578125-22.578126c42.492188 34.648438 104.3125 31.515626 143.082031-7.253906 38.769532-38.769531 41.90625-100.589844 7.257813-143.082031l26.898437-26.898437c15.46875 9.566406 30.199219 20.28125 44.058594 32.058593 22.148438 18.8125 42.472656 39.671875 60.699219 62.300781-20.808594 26.027344-109.988281 129.292969-214.527344 129.292969zm0 0" fill="url(#a)"/></svg>