<svg height="478pt" viewBox="-59 0 478 478" width="478pt" xmlns="http://www.w3.org/2000/svg" xmlns:xlink="http://www.w3.org/1999/xlink"><linearGradient id="a"><stop offset=".322" stop-color="#a163f5"/><stop offset=".466" stop-color="#b074ee"/><stop offset=".752" stop-color="#d8a1dd"/><stop offset=".898" stop-color="#efbad3"/></linearGradient><linearGradient id="b" gradientTransform="matrix(1 0 0 -1 -76 497)" gradientUnits="userSpaceOnUse" x1="256" x2="256" xlink:href="#a" y1="-54" y2="536.979"/><linearGradient id="c" gradientTransform="matrix(1 0 0 -1 -76 497)" gradientUnits="userSpaceOnUse" x1="256.05" x2="256.05" xlink:href="#a" y1="-54" y2="536.979"/><g fill="url(#b)"><path d="m180 221.300781c28.527344-.027343 51.628906-23.175781 51.601562-51.699219-.027343-28.527343-23.175781-51.628906-51.703124-51.601562-28.523438.027344-51.625 23.175781-51.597657 51.699219.089844 28.5 23.199219 51.5625 51.699219 51.601562zm0-83.300781c17.507812 0 31.699219 14.191406 31.699219 31.699219 0 17.507812-14.191407 31.699219-31.699219 31.699219s-31.699219-14.191407-31.699219-31.699219c.003907-17.503907 14.195313-31.695313 31.699219-31.699219zm0 0"/><path d="m110.601562 332.601562h138.796876c5.519531-.015624 9.984374-4.484374 10-10 0-22.601562-8.199219-43.402343-23.199219-58.703124-14.835938-15.035157-35.078125-23.5-56.199219-23.5s-41.363281 8.464843-56.199219 23.5c-15 15.300781-23.199219 36.101562-23.199219 58.703124.015626 5.515626 4.480469 9.984376 10 10zm27.5-54.703124c11.066407-11.195313 26.15625-17.5 41.898438-17.5s30.832031 6.304687 41.898438 17.5c9.175781 9.46875 15.066406 21.632812 16.800781 34.703124h-117.398438c1.710938-13.078124 7.605469-25.25 16.800781-34.703124zm0 0"/><path d="m310 34h-90v-24c-.015625-5.515625-4.484375-9.984375-10-10h-60c-5.515625.015625-9.984375 4.484375-10 10v24h-90c-27.609375.011719-49.9882812 22.390625-50 50v344c.0117188 27.609375 22.390625 49.988281 50 50h260c27.609375-.011719 49.988281-22.390625 50-50v-344c-.011719-27.609375-22.390625-49.988281-50-50zm-150-14h40v40h-40zm180 408c-.046875 16.546875-13.453125 29.953125-30 30h-260c-16.546875-.046875-29.953125-13.453125-30-30v-344c.046875-16.546875 13.453125-29.953125 30-30h90v16c.015625 5.515625 4.484375 9.984375 10 10h60c5.515625-.015625 9.984375-4.484375 10-10v-16h90c16.546875.046875 29.953125 13.453125 30 30zm0 0"/></g><path d="m288.199219 404h-216.398438c-5.523437 0-10 4.476562-10 10s4.476563 10 10 10h216.5c5.523438-.027344 9.976563-4.527344 9.949219-10.050781-.027344-5.523438-4.527344-9.976563-10.050781-9.949219zm0 0" fill="url(#c)"/><path d="m121.800781 360c-5.523437 0-10 4.476562-10 10s4.476563 10 10 10h116.5c5.523438 0 10-4.476562 10-10s-4.476562-10-10-10zm0 0" fill="url(#c)"/></svg>