<svg height="400pt" viewBox="0 -7 400 400" width="400pt" xmlns="http://www.w3.org/2000/svg" xmlns:xlink="http://www.w3.org/1999/xlink"><linearGradient id="a"><stop offset=".322" stop-color="#a163f5"/><stop offset=".466" stop-color="#b074ee"/><stop offset=".752" stop-color="#d8a1dd"/><stop offset=".898" stop-color="#efbad3"/></linearGradient><linearGradient id="b" gradientUnits="userSpaceOnUse" x1="200" x2="200" xlink:href="#a" y1="370.325646" y2="46.103546"/><linearGradient id="c" gradientUnits="userSpaceOnUse" x1="218.974" x2="218.974" xlink:href="#a" y1="370.325646" y2="46.103546"/><path d="m399.898438 163.625c0-.097656 0-.199219 0-.300781-.097657-.398438-.097657-.796875-.199219-1.199219 0-.097656 0-.097656-.097657-.199219-.101562-.300781-.203124-.699219-.300781-1 0-.101562-.101562-.199219-.101562-.300781-.097657-.300781-.300781-.597656-.5-.898438 0-.101562-.097657-.101562-.097657-.199218-.203124-.402344-.402343-.703125-.703124-1 0 0-.097657-.101563-.097657-.101563-.199219-.300781-.402343-.5-.699219-.800781-.101562-.097656-.203124-.199219-.203124-.199219-.199219-.199219-.5-.398437-.699219-.601562-.097657-.097657-.199219-.097657-.199219-.199219 0 0-.300781-.097656-.300781-.097656l-61.699219-44.101563v-10c.199219-17-13.5-30.898437-30.5-31.101562h-9.601562l-87.699219-69.199219c-3.699219-2.898438-8.898438-2.800781-12.5.101562l-85.097657 69h-11.800781c-17 0-30.800781 13.800782-30.800781 30.800782v.296875 2.402343l-62.199219 52.199219h-.101562c-2.300781 1.898438-3.597657 4.699219-3.699219 7.601563v185.5c0 9.296875 3.5 18.199218 9.898438 25 .402343.398437.800781.796875 1.300781 1.097656 6.800781 6.5 15.902343 10.101562 25.300781 10.101562h327c20 .199219 36.398438-15.902343 36.5-36 0-.101562 0-.101562 0-.199218v-185.300782c0-.101562 0-.101562 0-.199218 0-.300782 0-.601563-.101562-.902344zm-379.898438 186.601562v-167.902343l46 28.101562v.800781h.898438l80 49.300782-126.398438 93.597656c-.300781-1.300781-.5-2.597656-.5-3.898438zm188.699219-85.601562c-5.300781 3.300781-12 3.300781-17.300781 0l-95.699219-59.097656 53.199219-35.703125 61.300781 62.902343c3.601562 3.699219 9.300781 4 13.402343.898438l50-39.5 25.699219 14.800781zm-43.5 7.101562 15.601562 9.699219c11.699219 7.300781 26.597657 7.300781 38.300781.101563l15.296876-9.601563 128 94.398438h-325.296876zm87.601562-10.800781 80.597657-49.601562h.601562v-.597657l46-28.101562v167.601562c0 1.398438-.199219 2.800782-.601562 4.199219zm118.800781-96.800781-37.601562 23.101562v-50.101562zm-171.5-141.199219 61.5 48.398438h-121.203124zm-103.300781 68.398438h206.398438c6 0 10.800781 4.800781 10.800781 10.800781v.300781 92l-36.601562-21.101562c-3.5-2-7.898438-1.699219-11.097657.800781l-48.199219 38.101562-60.800781-62.402343c-3.300781-3.5-8.601562-4-12.5-1.296875l-58.800781 39.597656v-85.699219c-.199219-6 4.5-10.898437 10.5-11.101562zm-30.800781 95.703125-38.398438-23.703125 38.398438-32.296875zm0 0" fill="url(#b)"/><path d="m219 178.027344c20.101562 0 36.398438-16.300782 36.398438-36.402344 0-20.097656-16.296876-36.398438-36.398438-36.398438s-36.398438 16.300782-36.398438 36.398438c0 20.101562 16.296876 36.402344 36.398438 36.402344zm0-52.800782c9.101562 0 16.398438 7.300782 16.398438 16.398438 0 9.101562-7.296876 16.402344-16.398438 16.402344s-16.398438-7.300782-16.398438-16.402344c0-9 7.296876-16.398438 16.398438-16.398438zm0 0" fill="url(#c)"/></svg>