<svg height="419pt" viewBox="0 -98 419.91659 419" width="419pt" xmlns="http://www.w3.org/2000/svg" xmlns:xlink="http://www.w3.org/1999/xlink"><linearGradient id="a"><stop offset=".322" stop-color="#a163f5"/><stop offset=".466" stop-color="#b074ee"/><stop offset=".752" stop-color="#d8a1dd"/><stop offset=".898" stop-color="#efbad3"/></linearGradient><linearGradient id="b" gradientUnits="userSpaceOnUse" x1="257.1315" x2="257.1315" xlink:href="#a" y1="209.460225" y2="-34.281475"/><linearGradient id="c" gradientUnits="userSpaceOnUse" x1="287.061" x2="287.061" xlink:href="#a" y1="209.460225" y2="-34.281475"/><linearGradient id="d" gradientUnits="userSpaceOnUse" x1="66.9" x2="66.9" xlink:href="#a" y1="209.460225" y2="-34.281475"/><linearGradient id="e" gradientUnits="userSpaceOnUse" x1="60.531" x2="60.531" xlink:href="#a" y1="209.460225" y2="-34.281475"/><linearGradient id="f" gradientUnits="userSpaceOnUse" x1="40.573" x2="40.573" xlink:href="#a" y1="209.460225" y2="-34.281475"/><path d="m392.800781.460938h-217.402343c-16.796876 0-33.5 13.199218-38 29.898437l-42 156.902344c-2.398438 9.097656-.898438 18.199219 4.203124 24.898437 5.296876 6.699219 13.296876 10.5 21.796876 10.300782h217.402343c16.800781 0 33.5-13.199219 38-29.902344l42-156.898438c2.398438-9.101562.898438-18.199218-4.199219-24.898437-5.203124-6.601563-13.300781-10.402344-21.800781-10.300781zm-35.300781 186.898437c-2.101562 8-10.898438 15.101563-18.699219 15.101563h-217.402343c-1.898438 0-4.398438-.5-5.898438-2.5-1.300781-1.699219-1.601562-4.402344-.800781-7.5l11.402343-42.800782 81.199219-46.199218 46.097657 65.097656c3.101562 4.402344 9.101562 5.5 13.601562 2.601562l64.800781-42.199218 34.5 25.097656zm42-156.898437-27.601562 102.898437-33.898438-24.597656c-3.398438-2.402344-7.898438-2.5-11.300781-.300781l-62.5 40.699218-45.699219-64.5c-3-4.199218-8.601562-5.5-13.101562-2.898437l-71.898438 40.898437 23.300781-87.101562c2.097657-8 10.898438-15.097656 18.699219-15.097656h217.398438c1.902343 0 4.402343.5 5.902343 2.5 1.300781 1.699218 1.597657 4.5.699219 7.5zm0 0" fill="url(#b)"/><path d="m294.5 36.558594c-19.898438 0-39.601562 15.5-44.898438 35.203125-2.800781 10.5-1.101562 21 4.898438 28.699219 5.699219 7.398437 14.898438 11.699218 25.199219 11.699218 19.902343 0 39.601562-15.5 44.902343-35.199218 2.796876-10.5 1.097657-21-4.902343-28.699219-5.699219-7.402344-14.898438-11.703125-25.199219-11.703125zm10.699219 35.203125c-3 11.097656-14.699219 20.398437-25.597657 20.398437-4.101562 0-7.300781-1.300781-9.300781-3.898437-2.101562-2.800781-2.601562-6.800781-1.402343-11.300781 3-11.101563 14.703124-20.402344 25.601562-20.402344 4.101562 0 7.300781 1.300781 9.300781 3.902344 2.097657 2.800781 2.597657 6.800781 1.398438 11.300781zm0 0" fill="url(#c)"/><path d="m20.199219 72.460938h93.402343c5.5 0 10-4.5 10-10s-4.5-10-10-10h-93.402343c-5.5 0-10 4.5-10 10s4.5 10 10 10zm0 0" fill="url(#d)"/><path d="m98.101562 111.460938c0-5.5-4.5-10-10-10h-55.203124c-5.5 0-10 4.5-10 10s4.5 10 10 10h55.203124c5.597657 0 10-4.5 10-10zm0 0" fill="url(#e)"/><path d="m71.101562 150.460938h-61.101562c-5.5 0-10 4.5-10 10s4.5 10 10 10h61.101562c5.5 0 10-4.5 10-10s-4.402343-10-10-10zm0 0" fill="url(#f)"/></svg>