<svg height="400pt" viewBox="0 -49 400 400" width="400pt" xmlns="http://www.w3.org/2000/svg" xmlns:xlink="http://www.w3.org/1999/xlink"><linearGradient id="a"><stop offset=".322" stop-color="#a163f5"/><stop offset=".466" stop-color="#b074ee"/><stop offset=".752" stop-color="#d8a1dd"/><stop offset=".898" stop-color="#efbad3"/></linearGradient><linearGradient id="b" gradientTransform="matrix(1 0 0 -1 -51 418.656)" gradientUnits="userSpaceOnUse" x1="251" x2="251" xlink:href="#a" y1="3.998" y2="508.995"/><linearGradient id="c" gradientTransform="matrix(1 0 0 -1 -51 418.656)" gradientUnits="userSpaceOnUse" x1="211.286" x2="211.286" xlink:href="#a" y1="3.998" y2="508.995"/><path d="m350 0h-300c-27.601562.03125-49.96875 22.398438-50 50v201.3125c.03125 27.601562 22.398438 49.96875 50 50h300c27.601562-.03125 49.96875-22.398438 50-50v-201.3125c-.03125-27.601562-22.398438-49.96875-50-50zm-300 20h300c16.5625.019531 29.980469 13.4375 30 30v183.371094l-88.84375-57.070313c-13.265625-9.316406-31.351562-7.511719-42.519531 4.242188l-28.367188 29.558593-67.582031-41.925781c-11.667969-7.214843-26.582031-6.453125-37.457031 1.910157l-95.230469 63.070312v-183.15625c.019531-16.5625 13.4375-29.980469 30-30zm-29.484375 236.808594 106.085937-70.265625c.238282-.160157.472657-.328125.699219-.507813 4.269531-3.386718 10.203125-3.730468 14.839844-.867187l63.96875 39.6875-54.175781 56.457031h-101.933594c-14.441406-.019531-26.824219-10.3125-29.484375-24.503906zm329.484375 24.503906h-170.34375l83.410156-86.921875c4.40625-4.636719 11.550782-5.324219 16.757813-1.609375.117187.082031.238281.160156.359375.238281l99.300781 63.792969c-2.664063 14.1875-15.046875 24.476562-29.484375 24.5zm0 0" fill="url(#b)"/><path d="m160.285156 154.019531c33.675782 0 60.976563-27.296875 60.976563-60.972656 0-33.679687-27.296875-60.976563-60.976563-60.980469-33.675781 0-60.972656 27.300782-60.976562 60.976563.039062 33.660156 27.316406 60.9375 60.976562 60.976562zm0-101.949219c22.628906 0 40.976563 18.34375 40.976563 40.972657 0 22.632812-18.34375 40.976562-40.976563 40.976562-22.628906.003907-40.972656-18.34375-40.976562-40.972656.027344-22.621094 18.355468-40.953125 40.976562-40.976563zm0 0" fill="url(#c)"/></svg>