<svg height="430pt" viewBox="0 -38 430.00476 430" width="430pt" xmlns="http://www.w3.org/2000/svg" xmlns:xlink="http://www.w3.org/1999/xlink"><linearGradient id="a"><stop offset=".322" stop-color="#a163f5"/><stop offset=".466" stop-color="#b074ee"/><stop offset=".752" stop-color="#d8a1dd"/><stop offset=".898" stop-color="#efbad3"/></linearGradient><linearGradient id="b" gradientUnits="userSpaceOnUse" x1="215.001229" x2="215.001229" xlink:href="#a" y1="368.506155" y2="-19.823845"/><linearGradient id="c" gradientUnits="userSpaceOnUse" x1="210.004229" x2="210.004229" xlink:href="#a" y1="368.506155" y2="-19.823845"/><linearGradient id="d" gradientUnits="userSpaceOnUse" x1="205.004229" x2="205.004229" xlink:href="#a" y1="368.506155" y2="-19.823845"/><path d="m430.003906 174.707031c-.199218-1.199219-.300781-1.402343-.300781-1.601562 0-.097657 0-.199219-.097656-.199219l-35.5-134.101562c0-.199219-.101563-.296876-.101563-.398438-6.621094-21.09375-26.089844-35.515625-48.199218-35.699219l-257-2.6992185c-21.988282-.2695315-41.664063 13.6015625-48.800782 34.3984375-.101562.199219-.101562.300781-.199218.5l-38.300782 133.398438c0 .101562-.101562.203124-.101562.402343s-.097656.300781-.097656.5c-.023438.167969-.058594.335938-.101563.5.015625.140625-.019531.28125-.097656.398438v.902343l-1.10156275 126.796876c-.36328125 28.195312 22.20312475 51.347656 50.39843775 51.703124l326.800781 3.597657h.601563c27.960937-.023438 50.699218-22.539063 51-50.5l1.097656-126.898438v-.199219c.074218-.261718.105468-.53125.101562-.800781zm-370.898437-134c4.433593-12.515625 16.324219-20.828125 29.597656-20.699219l257 2.699219c13.355469.109375 25.132813 8.777344 29.199219 21.5l32 121.199219-138.796875-1.398438c-5.503907-.003906-9.992188 4.398438-10.101563 9.898438-.078125 11.28125-4.691406 22.054688-12.800781 29.898438-12.308594 12.03125-30.65625 15.449218-46.472656 8.65625-15.8125-6.789063-25.972657-22.445313-25.726563-39.65625.015625-2.636719-.984375-5.179688-2.800781-7.097657-1.839844-1.890625-4.359375-2.96875-7-3l-138.699219-1.402343zm349.796875 261.597657c-.214844 16.984374-14.015625 30.652343-31 30.703124h-.296875l-326.800781-3.601562c-8.25-.050781-16.132813-3.398438-21.898438-9.296875s-8.9375-13.855469-8.800781-22.101563l1-116.902343 132.699219 1.402343c4.597656 30.328126 30.488281 52.863282 61.164062 53.234376 30.671875.371093 57.101562-21.527344 62.433594-51.734376l132.703125 1.398438zm0 0" fill="url(#b)"/><path d="m76.003906 125.90625h268c5.523438 0 10-4.476562 10-10s-4.476562-10-10-10h-268c-5.523437 0-10 4.476562-10 10s4.476563 10 10 10zm0 0" fill="url(#c)"/><path d="m116.003906 74.90625h178c5.523438 0 10-4.476562 10-10s-4.476562-10-10-10h-178c-5.523437 0-10 4.476562-10 10s4.476563 10 10 10zm0 0" fill="url(#d)"/></svg>