<svg height="400pt" viewBox="0 -32 400 400" width="400pt" xmlns="http://www.w3.org/2000/svg" xmlns:xlink="http://www.w3.org/1999/xlink"><linearGradient id="a"><stop offset=".322" stop-color="#a163f5"/><stop offset=".466" stop-color="#b074ee"/><stop offset=".752" stop-color="#d8a1dd"/><stop offset=".898" stop-color="#efbad3"/></linearGradient><linearGradient id="b" gradientTransform="matrix(1 0 0 -1 -56 425.983258)" gradientUnits="userSpaceOnUse" x1="256" x2="256" xlink:href="#a" y1="14" y2="444.019"/><linearGradient id="c" gradientTransform="matrix(1 0 0 -1 -56 425.983258)" gradientUnits="userSpaceOnUse" x1="227.474" x2="227.474" xlink:href="#a" y1="14" y2="444.019"/><linearGradient id="d" gradientTransform="matrix(1 0 0 -1 -56 425.983258)" gradientUnits="userSpaceOnUse" x1="260.116" x2="260.116" xlink:href="#a" y1="14" y2="444.019"/><linearGradient id="e" gradientTransform="matrix(1 0 0 -1 -56 425.983258)" gradientUnits="userSpaceOnUse" x1="110.905" x2="110.905" xlink:href="#a" y1="14" y2="444.019"/><linearGradient id="f" gradientTransform="matrix(1 0 0 -1 -56 425.983258)" gradientUnits="userSpaceOnUse" x1="78.295" x2="78.295" xlink:href="#a" y1="14" y2="444.019"/><linearGradient id="g" gradientTransform="matrix(1 0 0 -1 -56 425.983258)" gradientUnits="userSpaceOnUse" x1="134.791" x2="134.791" xlink:href="#a" y1="14" y2="444.019"/><linearGradient id="h" gradientTransform="matrix(1 0 0 -1 -56 425.983258)" gradientUnits="userSpaceOnUse" x1="201.882" x2="201.882" xlink:href="#a" y1="14" y2="444.019"/><path d="m350 162.617188h-226.796875v-74.527344c14.066406-4.878906 22.550781-19.203125 20.078125-33.882813-2.476562-14.679687-15.1875-25.429687-30.078125-25.429687-14.886719 0-27.597656 10.75-30.074219 25.429687-2.472656 14.679688 6.011719 29.003907 20.074219 33.882813v74.527344h-53.203125c-27.601562.03125-49.96875 22.398437-50 50v36.21875c.0195312 19.351562 11.191406 36.960937 28.691406 45.21875v31.910156c0 5.523437 4.480469 10 10 10h322.617188c5.519531 0 10-4.476563 10-10v-31.910156c17.5-8.257813 28.671875-25.867188 28.691406-45.21875v-36.21875c-.03125-27.601563-22.398438-49.96875-50-50zm-236.796875-113.824219c5.800781 0 10.5 4.703125 10.5 10.5 0 5.800781-4.699219 10.5-10.5 10.5-5.796875 0-10.5-4.699219-10.5-10.5 0-5.796875 4.703125-10.5 10.5-10.5zm238.101563 267.171875h-302.613282v-17.164063c.4375.011719.871094.035157 1.308594.035157h300c.4375 0 .871094-.023438 1.308594-.035157zm28.695312-67.128906c-.019531 16.558593-13.4375 29.980468-30 30h-300c-16.5625-.019532-29.980469-13.441407-30-30v-36.21875c.019531-16.5625 13.4375-29.980469 30-30h300c16.5625.019531 29.980469 13.4375 30 30zm0 0" fill="url(#b)"/><path d="m158.601562 78.296875c-.070312.070313-.140624.140625-.203124.199219-3.757813 3.972656-3.628907 10.230468.289062 14.042968 3.921875 3.816407 10.179688 3.773438 14.046875-.097656l.011719-.011718c19.46875-19.535157 19.453125-51.144532-.035156-70.65625-3.890626-3.921876-10.222657-3.949219-14.144532-.058594s-3.949218 10.222656-.058594 14.144531l.0625.0625c11.691407 11.703125 11.703126 30.65625.03125 42.375zm0 0" fill="url(#c)"/><path d="m187.3125 97.109375c-3.90625 3.90625-3.902344 10.238281.003906 14.140625 3.902344 3.90625 10.234375 3.902344 14.140625 0 29.855469-29.9375 29.855469-78.386719 0-108.320312-3.90625-3.90625-10.238281-3.90625-14.140625 0-3.90625 3.902343-3.910156 10.234374-.003906 14.140624 22.058594 22.117188 22.058594 57.917969 0 80.039063zm0 0" fill="url(#d)"/><path d="m53.699219 92.402344c3.90625 3.90625 10.238281 3.902344 14.144531-.003906 3.902344-3.910157 3.898438-10.242188-.007812-14.144532-11.710938-11.695312-11.71875-30.664062-.023438-42.371094 3.878906-3.867187 3.929688-10.136718.105469-14.0625-3.824219-3.925781-10.09375-4.042968-14.058594-.265624-.058594.054687-.125.121093-.1875.183593l-.015625.015625c-19.5 19.519532-19.484375 51.15625.039062 70.65625zm0 0" fill="url(#e)"/><path d="m32.023438 114.183594c4.046874 0 7.695312-2.433594 9.242187-6.171875 1.550781-3.734375.695313-8.039063-2.164063-10.898438-22.0625-22.121093-22.0625-57.917969 0-80.039062 3.902344-3.90625 3.902344-10.238281-.003906-14.140625-3.90625-3.90625-10.238281-3.90625-14.144531 0-29.851563 29.9375-29.851563 78.382812 0 108.320312 1.875 1.878906 4.417969 2.933594 7.070313 2.929688zm0 0" fill="url(#f)"/><path d="m78.789062 202.488281c-15.226562 0-27.570312 12.34375-27.570312 27.574219 0 15.226562 12.34375 27.570312 27.570312 27.570312 15.230469 0 27.574219-12.34375 27.574219-27.570312-.015625-15.222656-12.351562-27.558594-27.574219-27.574219zm0 35.144531c-4.179687 0-7.570312-3.390624-7.570312-7.574218 0-4.179688 3.390625-7.570313 7.570312-7.570313 4.183594 0 7.574219 3.390625 7.574219 7.570313-.003906 4.179687-3.390625 7.570312-7.574219 7.574218zm0 0" fill="url(#g)"/><path d="m145.882812 202.488281c-15.226562 0-27.570312 12.34375-27.574218 27.570313 0 15.230468 12.34375 27.574218 27.574218 27.574218 15.226563 0 27.570313-12.34375 27.570313-27.570312-.015625-15.222656-12.347656-27.558594-27.570313-27.574219zm0 35.144531c-4.183593 0-7.570312-3.390624-7.574218-7.570312 0-4.183594 3.390625-7.574219 7.574218-7.574219 4.179688 0 7.570313 3.390625 7.570313 7.570313-.003906 4.179687-3.390625 7.566406-7.570313 7.570312zm0 0" fill="url(#h)"/></svg>