<svg height="400pt" viewBox="-37 0 400 400" width="400pt" xmlns="http://www.w3.org/2000/svg" xmlns:xlink="http://www.w3.org/1999/xlink"><linearGradient id="a"><stop offset=".322" stop-color="#a163f5"/><stop offset=".466" stop-color="#b074ee"/><stop offset=".752" stop-color="#d8a1dd"/><stop offset=".898" stop-color="#efbad3"/></linearGradient><linearGradient id="b" gradientTransform="matrix(1 0 0 -1 -93.417 458)" gradientUnits="userSpaceOnUse" x1="278.883" x2="278.883" xlink:href="#a" y1="3.998" y2="508.995"/><linearGradient id="c" gradientTransform="matrix(1 0 0 -1 -93.417 458)" gradientUnits="userSpaceOnUse" x1="228.453" x2="228.453" xlink:href="#a" y1="3.998" y2="508.995"/><linearGradient id="d" gradientTransform="matrix(1 0 0 -1 -93.417 458)" gradientUnits="userSpaceOnUse" x1="103.417" x2="103.417" xlink:href="#a" y1="3.998" y2="508.995"/><path d="m315.164062 224.542969h-259.398437c-5.523437 0-10 4.476562-10 10v101.355469c0 5.523437 4.476563 10 10 10h259.398437c5.523438 0 10-4.476563 10-10v-101.355469c0-5.523438-4.476562-10-10-10zm-10 101.351562h-239.398437v-81.351562h239.398437zm0 0" fill="url(#b)"/><path d="m55.769531 175.457031h158.535157c5.523437 0 10-4.476562 10-10v-92.132812c0-5.523438-4.476563-10-10-10h-158.535157c-5.523437 0-10 4.476562-10 10v92.132812c0 5.523438 4.476563 10 10 10zm10-92.132812h138.535157v72.132812h-138.535157zm0 0" fill="url(#c)"/><path d="m10 0c-5.523438 0-10 4.476562-10 10v380c0 5.523438 4.476562 10 10 10s10-4.476562 10-10v-380c0-5.523438-4.476562-10-10-10zm0 0" fill="url(#d)"/></svg>