<svg height="400pt" viewBox="-82 0 400 400" width="400pt" xmlns="http://www.w3.org/2000/svg" xmlns:xlink="http://www.w3.org/1999/xlink"><linearGradient id="a"><stop offset=".322" stop-color="#a163f5"/><stop offset=".466" stop-color="#b074ee"/><stop offset=".752" stop-color="#d8a1dd"/><stop offset=".898" stop-color="#efbad3"/></linearGradient><linearGradient id="b" gradientTransform="matrix(1 0 0 -1 -138.428 458.5)" gradientUnits="userSpaceOnUse" x1="254.046" x2="257.873" xlink:href="#a" y1="-45.557" y2="467.263"/><linearGradient id="c" gradientTransform="matrix(1 0 0 -1 -138.428 458.5)" gradientUnits="userSpaceOnUse" x1="180.831" x2="184.658" xlink:href="#a" y1="-45.011" y2="467.809"/><linearGradient id="d" gradientTransform="matrix(1 0 0 -1 -138.428 458.5)" gradientUnits="userSpaceOnUse" x1="312.772" x2="316.599" xlink:href="#a" y1="-45.995" y2="466.825"/><linearGradient id="e" gradientTransform="matrix(1 0 0 -1 -138.428 458.5)" gradientUnits="userSpaceOnUse" x1="248.925" x2="252.752" xlink:href="#a" y1="-45.519" y2="467.302"/><path d="m162.828125 137.164062v-16.820312c-.019531-14.867188-12.0625-26.910156-26.929687-26.929688h-8.328126v-83.414062c0-5.523438-4.476562-10-10-10-5.519531 0-10 4.476562-10 10v83.414062h-10.132812c-14.867188.019532-26.910156 12.0625-26.925781 26.929688v17.5625c-42.457031 18.007812-70.511719 59.171875-70.511719 104.539062 0 5.523438 4.476562 10 10 10h50.433594c4.5 26.742188 28.398437 47.21875 57.136718 47.21875 28.742188 0 52.644532-20.476562 57.140626-47.21875h50.433593c5.523438 0 10-4.476562 10-10 0-46.246093-28.773437-87.703124-72.316406-105.28125zm-45.257813 142.5c-17.617187 0-32.464843-11.578124-36.699218-27.21875h73.402344c-4.238282 15.640626-19.085938 27.21875-36.703126 27.21875zm-97.011718-47.21875c3.933594-35.167968 28.378906-65.890624 63.296875-78.28125 3.992187-1.414062 6.65625-5.191406 6.65625-9.421874v-24.402344c.003906-3.820313 3.105469-6.921875 6.925781-6.925782h38.464844c3.824218.003907 6.921875 3.101563 6.925781 6.925782v23.789062c0 4.296875 2.75 8.117188 6.824219 9.480469 35.878906 12.015625 60.972656 42.972656 64.945312 78.835937zm0 0" fill="url(#b)"/><path d="m53.304688 302.671875-32.953126 31.875c-3.9375 3.847656-4.027343 10.152344-.199218 14.105469 3.824218 3.957031 10.128906 4.078125 14.101562.269531l32.953125-31.875c3.84375-3.863281 3.886719-10.089844.101563-14.003906-3.789063-3.917969-10.011719-4.082031-14-.371094zm0 0" fill="url(#c)"/><path d="m166.070312 313.300781c-3.898437-3.890625-10.210937-3.898437-14.113281-.011719-3.90625 3.886719-3.933593 10.199219-.0625 14.117188.089844.089844.183594.179688.277344.269531l32.953125 31.875c2.515625 2.546875 6.203125 3.554688 9.667969 2.640625 3.460937-.914062 6.171875-3.609375 7.101562-7.066406.933594-3.457031-.058593-7.148438-2.589843-9.679688-.09375-.09375-.1875-.179687-.28125-.269531zm0 0" fill="url(#d)"/><path d="m111.515625 334.921875c-5.523437 0-10 4.476563-10 10v45.078125c0 5.523438 4.476563 10 10 10s10-4.476562 10-10v-45.078125c0-5.523437-4.476563-10-10-10zm0 0" fill="url(#e)"/></svg>