<svg height="399pt" viewBox="-38 0 399 399.9969" width="399pt" xmlns="http://www.w3.org/2000/svg" xmlns:xlink="http://www.w3.org/1999/xlink"><linearGradient id="a"><stop offset=".322" stop-color="#a163f5"/><stop offset=".466" stop-color="#b074ee"/><stop offset=".752" stop-color="#d8a1dd"/><stop offset=".898" stop-color="#efbad3"/></linearGradient><linearGradient id="b" gradientTransform="matrix(1 0 0 -1 -94.47555 458)" gradientUnits="userSpaceOnUse" x1="254.054" x2="257.881" xlink:href="#a" y1="29.935" y2="542.756"/><linearGradient id="c" gradientTransform="matrix(1 0 0 -1 -94.47555 458)" gradientUnits="userSpaceOnUse" x1="253.933" x2="257.76" xlink:href="#a" y1="29.936" y2="542.757"/><path d="m275.484375 49.132812c-30.425781-31.683593-70.894531-49.132812-113.960937-49.132812-43.066407 0-83.53125 17.445312-113.953126 49.128906l-.054687.058594c-30.320313 31.597656-47.015625 73.582031-47.015625 118.214844 0 44.636718 16.699219 86.617187 47.015625 118.21875l106.792969 111.300781c3.824218 3.984375 10.152344 4.113281 14.140625.292969.097656-.101563.199219-.195313.292969-.292969l106.792968-111.300781c30.316406-31.601563 47.015625-73.582032 47.015625-118.21875 0-44.632813-16.703125-86.617188-47.015625-118.214844zm-14.382813 222.640626-99.578124 103.78125-99.578126-103.78125c-55.199218-57.535157-55.222656-151.140626-.042968-208.699219l.054687-.054688c26.617188-27.742187 61.980469-43.019531 99.566407-43.019531 37.589843 0 72.949218 15.277344 99.570312 43.023438l.046875.050781c55.183594 57.554687 55.167969 151.164062-.039063 208.699219zm0 0" fill="url(#b)"/><path d="m161.523438 61.03125c-49.703126 0-90 40.296875-90 90 0 49.707031 40.296874 90 90 90 49.707031 0 90-40.292969 90-90-.054688-49.679688-40.316407-89.941406-90-90zm0 160c-38.660157 0-70-31.339844-70-70 0-38.65625 31.339843-70 70-70 38.660156 0 70 31.34375 70 70 0 38.660156-31.339844 70-70 70zm0 0" fill="url(#c)"/></svg>