<svg height="422pt" viewBox="-67 0 422 422.3" width="422pt" xmlns="http://www.w3.org/2000/svg" xmlns:xlink="http://www.w3.org/1999/xlink"><linearGradient id="a"><stop offset=".322" stop-color="#a163f5"/><stop offset=".466" stop-color="#b074ee"/><stop offset=".752" stop-color="#d8a1dd"/><stop offset=".898" stop-color="#efbad3"/></linearGradient><linearGradient id="b" gradientTransform="matrix(1 0 0 -1 -111.85 469.2)" gradientUnits="userSpaceOnUse" x1="284.934" x2="271.203" xlink:href="#a" y1="118.178" y2="612.49"/><linearGradient id="c" gradientTransform="matrix(1 0 0 -1 -111.85 469.2)" gradientUnits="userSpaceOnUse" x1="205.473" x2="191.742" xlink:href="#a" y1="115.971" y2="610.283"/><path d="m239.449219 0h-140.597657c-26.800781 0-48.601562 22-48.601562 49.101562v65.097657c0 5.523437 4.476562 10 10 10s10-4.476563 10-10v-65c-.070312-7.652344 2.902344-15.019531 8.265625-20.476563 5.367187-5.460937 12.679687-8.5625 20.335937-8.621094h140.699219c15.800781 0 28.597657 13.097657 28.597657 29.097657v324c.074218 7.652343-2.902344 15.019531-8.265626 20.480469-5.363281 5.457031-12.679687 8.558593-20.332031 8.621093h-140.699219c-15.800781 0-28.601562-13.101562-28.601562-29.101562v-64.597657c0-5.523437-4.476562-10-10-10s-10 4.476563-10 10v64.597657c0 27.101562 21.800781 49.101562 48.601562 49.101562h140.699219c26.800781 0 48.597657-22 48.597657-49.101562v-324c0-27.097657-21.796876-49.199219-48.699219-49.199219zm0 0" fill="url(#b)"/><path d="m124.550781 248.5c-3.527343 4.230469-2.988281 10.511719 1.210938 14.078125 4.195312 3.566406 10.484375 3.085937 14.089843-1.078125l37-43.699219.296876-.300781c.101562-.101562.203124-.300781.300781-.398438.125-.097656.199219-.246093.199219-.402343.101562-.097657.203124-.300781.300781-.398438.101562-.101562.101562-.300781.199219-.402343.101562-.097657.101562-.296876.203124-.398438.097657-.101562.097657-.300781.199219-.398438.097657-.203124.097657-.300781.199219-.5 0-.101562.101562-.300781.101562-.402343 0-.199219.097657-.300781.097657-.5 0-.097657.101562-.300781.101562-.398438 0-.199219.097657-.402343.097657-.601562v-.300781c.101562-.628907.101562-1.269532 0-1.898438v-.300781c0-.199219-.097657-.398438-.097657-.597657 0-.101562-.101562-.300781-.101562-.402343 0-.199219-.097657-.300781-.097657-.5 0-.097657-.101562-.300781-.101562-.398438-.101562-.199219-.101562-.300781-.199219-.5-.101562-.101562-.101562-.300781-.199219-.402343-.101562-.199219-.101562-.296876-.203124-.398438-.097657-.101562-.097657-.300781-.199219-.398438-.097657-.101562-.199219-.300781-.300781-.402343-.097657-.097657-.097657-.199219-.199219-.398438-.097657-.101562-.199219-.300781-.300781-.402343l-.296876-.296876-37-43.703124c-3.5625-4.222657-9.875-4.761719-14.101562-1.199219s-4.761719 9.875-1.199219 14.101562l23.097657 27.300781h-137.5c-5.519532 0-10 4.476563-10 10 0 5.519532 4.480468 10 10 10h137.5zm0 0" fill="url(#c)"/></svg>