<svg height="420pt" viewBox="0 -67 420 420" width="420pt" xmlns="http://www.w3.org/2000/svg" xmlns:xlink="http://www.w3.org/1999/xlink"><linearGradient id="a" gradientTransform="matrix(1 0 0 -1 -46 401.3)" gradientUnits="userSpaceOnUse" x1="256" x2="256" y1="17.518" y2="570.222"><stop offset=".322" stop-color="#a163f5"/><stop offset=".466" stop-color="#b074ee"/><stop offset=".752" stop-color="#d8a1dd"/><stop offset=".898" stop-color="#efbad3"/></linearGradient><path d="m370 0h-320c-27.609375.0117188-49.9882812 22.390625-50 50v186.699219c.0117188 27.609375 22.390625 49.992187 50 50h320c27.609375-.007813 49.988281-22.390625 50-50v-186.699219c-.011719-27.609375-22.390625-49.9882812-50-50zm-320 20h320c14.402344.039062 26.761719 10.261719 29.5 24.398438l-189.5 105.601562-189.5-105.601562c2.738281-14.136719 15.097656-24.359376 29.5-24.398438zm320 246.601562h-320c-16.546875-.050781-29.953125-13.453124-30-30v-169.601562l185.101562 103.199219c1.5.824219 3.183594 1.273437 4.898438 1.300781 1.722656.019531 3.414062-.429688 4.898438-1.300781l185.101562-103.199219v169.601562c-.011719 16.5625-13.4375 29.984376-30 30zm0 0" fill="url(#a)"/></svg>