<svg height="399pt" viewBox="-130 0 399 399.996" width="399pt" xmlns="http://www.w3.org/2000/svg" xmlns:xlink="http://www.w3.org/1999/xlink"><linearGradient id="a" gradientTransform="matrix(1 0 0 -1 -186.419 456.378)" gradientUnits="userSpaceOnUse" x1="253.891" x2="262.892" y1="164.3" y2="557.339"><stop offset=".322" stop-color="#a163f5"/><stop offset=".466" stop-color="#b074ee"/><stop offset=".752" stop-color="#d8a1dd"/><stop offset=".898" stop-color="#efbad3"/></linearGradient><path d="m120.015625 0h-100.871094c-10.292969.0117188-18.632812 8.355469-18.648437 18.648438v362.699218c.015625 10.292969 8.355468 18.636719 18.648437 18.648438h100.871094c10.292969-.011719 18.636719-8.355469 18.648437-18.648438v-362.699218c-.011718-10.292969-8.355468-18.6367192-18.648437-18.648438zm-99.519531 380v-360h98.167968v54.121094h-22.273437c-5.523437 0-10 4.476562-10 10 0 5.523437 4.476563 10 10 10h22.273437v57.828125h-40.433593c-5.523438 0-10 4.476562-10 10 0 5.523437 4.476562 10 10 10h40.433593v56.964843h-22.273437c-5.523437 0-10 4.476563-10 10 0 5.523438 4.476563 10 10 10h22.273437v56.964844h-40.433593c-5.523438 0-10 4.476563-10 10 0 5.523438 4.476562 10 10 10h40.433593v54.117188zm0 0" fill="url(#a)"/></svg>