<svg height="341pt" viewBox="0 -67 341.628 341" width="341pt" xmlns="http://www.w3.org/2000/svg" xmlns:xlink="http://www.w3.org/1999/xlink"><linearGradient id="a"><stop offset=".322" stop-color="#a163f5"/><stop offset=".466" stop-color="#b074ee"/><stop offset=".752" stop-color="#d8a1dd"/><stop offset=".898" stop-color="#efbad3"/></linearGradient><linearGradient id="b" gradientTransform="matrix(1 0 0 -1 -85.186 362.224)" gradientUnits="userSpaceOnUse" x1="254.967" x2="258.795" xlink:href="#a" y1="25.734" y2="538.555"/><linearGradient id="c" gradientTransform="matrix(1 0 0 -1 -85.186 362.224)" gradientUnits="userSpaceOnUse" x1="254.267" x2="258.094" xlink:href="#a" y1="25.74" y2="538.56"/><linearGradient id="d" gradientTransform="matrix(1 0 0 -1 -85.186 362.224)" gradientUnits="userSpaceOnUse" x1="253.566" x2="257.393" xlink:href="#a" y1="25.745" y2="538.565"/><path d="m331.628906 188.132812h-321.628906c-5.523438 0-10 4.476563-10 10 0 5.523438 4.476562 10 10 10h321.628906c5.523438 0 10-4.476562 10-10 0-5.523437-4.476562-10-10-10zm0 0" fill="url(#b)"/><path d="m331.628906 94.222656h-321.628906c-5.523438 0-10 4.476563-10 10 0 5.523438 4.476562 10 10 10h321.628906c5.523438 0 10-4.476562 10-10 0-5.523437-4.476562-10-10-10zm0 0" fill="url(#c)"/><path d="m331.628906.3125h-321.628906c-5.523438 0-10 4.480469-10 10 0 5.523438 4.476562 10 10 10h321.628906c5.523438 0 10-4.476562 10-10 0-5.519531-4.476562-10-10-10zm0 0" fill="url(#d)"/></svg>