<svg height="420pt" viewBox="0 -14 420 420" width="420pt" xmlns="http://www.w3.org/2000/svg" xmlns:xlink="http://www.w3.org/1999/xlink"><linearGradient id="a"><stop offset=".322" stop-color="#a163f5"/><stop offset=".466" stop-color="#b074ee"/><stop offset=".752" stop-color="#d8a1dd"/><stop offset=".898" stop-color="#efbad3"/></linearGradient><linearGradient id="b" gradientTransform="matrix(1 0 0 -1 -34.7 453.1)" gradientUnits="userSpaceOnUse" x1="244.7" x2="244.7" xlink:href="#a" y1="57" y2="466.176"/><linearGradient id="c" gradientTransform="matrix(1 0 0 -1 -34.7 453.1)" gradientUnits="userSpaceOnUse" x1="244.776" x2="244.776" xlink:href="#a" y1="57" y2="466.176"/><path d="m370 0h-320c-27.609375.0117188-49.9882812 22.390625-50 50v215.898438c.0117188 27.613281 22.390625 49.992187 50 50h103.601562l41.796876 69.101562c0 .101562.101562.101562.101562.199219 2.835938 4.496093 7.785156 7.214843 13.101562 7.199219 5.308594-.007813 10.246094-2.722657 13.097657-7.199219 0-.097657.101562-.097657.101562-.199219l41.800781-69.101562h106.398438c27.609375-.007813 49.988281-22.386719 50-50v-215.898438c-.011719-27.609375-22.390625-49.9882812-50-50zm30 265.898438c-.046875 16.550781-13.453125 29.953124-30 30h-112.101562c-3.5.011718-6.753907 1.824218-8.597657 4.800781l-40.800781 67.5-40.800781-67.5c-1.828125-2.996094-5.089844-4.816407-8.597657-4.800781h-109.101562c-16.546875-.046876-29.953125-13.449219-30-30v-215.898438c.046875-16.546875 13.453125-29.953125 30-30h320c16.546875.046875 29.953125 13.453125 30 30zm0 0" fill="url(#b)"/><path d="m278.101562 107.300781-88.601562 84.699219-47.398438-47.398438c-3.894531-3.894531-10.207031-3.894531-14.101562 0-3.894531 3.890626-3.894531 10.203126 0 14.097657l54.300781 54.300781c1.875 1.890625 4.4375 2.9375 7.097657 2.898438 2.582031.027343 5.066406-.980469 6.902343-2.796876l95.699219-91.402343c3.976562-3.835938 4.089844-10.171875.25-14.148438-3.839844-3.976562-10.171875-4.089843-14.148438-.25zm0 0" fill="url(#c)"/></svg>