<svg height="450pt" viewBox="-101 0 450 450" width="450pt" xmlns="http://www.w3.org/2000/svg" xmlns:xlink="http://www.w3.org/1999/xlink"><linearGradient id="a" gradientUnits="userSpaceOnUse" x1="124" x2="124" y1="448" y2="-24.61"><stop offset=".322" stop-color="#a163f5"/><stop offset=".466" stop-color="#b074ee"/><stop offset=".752" stop-color="#d8a1dd"/><stop offset=".898" stop-color="#efbad3"/></linearGradient><g fill="url(#a)"><path d="m124 291.800781c43.660156-.0625 79.039062-35.441406 79.101562-79.101562v-133.597657c0-43.6875-35.414062-79.101562-79.101562-79.101562s-79.101562 35.414062-79.101562 79.101562v133.597657c.0625 43.660156 35.441406 79.039062 79.101562 79.101562zm-59.101562-212.699219c0-32.640624 26.460937-59.101562 59.101562-59.101562s59.101562 26.460938 59.101562 59.101562v133.597657c0 32.640625-26.460937 59.101562-59.101562 59.101562s-59.101562-26.460937-59.101562-59.101562zm0 0"/><path d="m238 209.300781c-5.515625.015625-9.984375 4.484375-10 10 0 55.398438-46.699219 100.5-104 100.5s-104-45.101562-104-100.5c0-5.523437-4.476562-10-10-10s-10 4.476563-10 10c0 63.199219 50.300781 115.199219 114 120.199219v90.5h-38.398438c-5.523437 0-10 4.476562-10 10s4.476563 10 10 10h96.699219c5.523438 0 10-4.476562 10-10s-4.476562-10-10-10h-38.300781v-90.601562c63.699219-5 114-57 114-120.199219-.058594-5.480469-4.519531-9.894531-10-9.898438zm0 0"/></g></svg>