<svg height="410pt" viewBox="-80 0 410 410" width="410pt" xmlns="http://www.w3.org/2000/svg" xmlns:xlink="http://www.w3.org/1999/xlink"><linearGradient id="a"><stop offset=".322" stop-color="#a163f5"/><stop offset=".466" stop-color="#b074ee"/><stop offset=".752" stop-color="#d8a1dd"/><stop offset=".898" stop-color="#efbad3"/></linearGradient><linearGradient id="b" gradientUnits="userSpaceOnUse" x1="124.771" x2="125.771" xlink:href="#a" y1="396.5013" y2="34.5013"/><linearGradient id="c" gradientUnits="userSpaceOnUse" x1="124.7197" x2="125.7197" xlink:href="#a" y1="396.5012" y2="34.5012"/><linearGradient id="d" gradientUnits="userSpaceOnUse" x1="125.595" x2="126.595" xlink:href="#a" y1="396.5036" y2="34.5036"/><path d="m215.398438 0h-180.199219c-19.398438 0-35.199219 15.5-35.199219 34.5v341c0 19 15.800781 34.5 35.199219 34.5h180.199219c19.402343 0 35.203124-15.5 35.203124-34.5v-341c0-19-15.800781-34.5-35.203124-34.5zm15.203124 375.5c0 8-6.800781 14.5-15.203124 14.5h-180.199219c-8.398438 0-15.199219-6.5-15.199219-14.5v-341c0-8 6.800781-14.5 15.199219-14.5h180.199219c8.402343 0 15.203124 6.5 15.203124 14.5zm0 0" fill="url(#b)"/><path d="m192.699219 37.101562h-134.800781c-11 0-20 9-20 20v258.597657c0 11 9 20 20 20h134.800781c11 0 20-9 20-20v-258.597657c0-11-9-19.902343-20-20zm0 278.597657h-134.800781v-258.597657h134.800781zm0 0" fill="url(#c)"/><path d="m125.300781 339.300781c-13 .199219-23.402343 10.898438-23.199219 24 .199219 13 10.898438 23.398438 24 23.199219 12.898438-.199219 23.199219-10.699219 23.199219-23.601562 0-13-10.601562-23.597657-23.601562-23.597657-.097657 0-.300781 0-.398438 0zm0 27.097657c-2-.199219-3.402343-2-3.199219-3.898438.199219-2 2-3.398438 3.898438-3.199219 1.800781.199219 3.199219 1.699219 3.199219 3.597657-.097657 2-1.800781 3.601562-3.898438 3.5zm0 0" fill="url(#d)"/></svg>