<svg height="433pt" viewBox="0 -1 433.6 433" width="433pt" xmlns="http://www.w3.org/2000/svg" xmlns:xlink="http://www.w3.org/1999/xlink"><linearGradient id="a" gradientTransform="matrix(1 0 0 -1 -39.2 463.3)" gradientUnits="userSpaceOnUse" x1="256" x2="256" y1="24" y2="470.018"><stop offset=".322" stop-color="#a163f5"/><stop offset=".466" stop-color="#b074ee"/><stop offset=".752" stop-color="#d8a1dd"/><stop offset=".898" stop-color="#efbad3"/></linearGradient><path d="m383.601562.300781h-333.601562c-27.609375.007813-49.9882812 22.390625-50 50v244.199219c.0117188 27.609375 22.390625 49.988281 50 50h156.800781v65.800781h-72.601562c-5.523438 0-10 4.476563-10 10 0 5.523438 4.476562 10 10 10h170c5.523437 0 10-4.476562 10-10 0-5.523437-4.476563-10-10-10h-77.398438v-65.800781h156.800781c27.609376-.011719 49.988282-22.390625 50-50v-244.199219c-.011718-27.609375-22.390624-49.992187-50-50zm30 294.199219c-.050781 16.546875-13.453124 29.953125-30 30h-333.601562c-16.546875-.046875-29.953125-13.453125-30-30v-25.300781h393.699219v25.300781zm0-45.300781h-393.601562v-198.898438c.046875-16.550781 13.453125-29.953125 30-30h333.699219c16.550781.046875 29.953125 13.449219 30 30v198.898438zm0 0" fill="url(#a)"/></svg>