<svg height="356pt" viewBox="0 -128 356.903 356" width="356pt" xmlns="http://www.w3.org/2000/svg" xmlns:xlink="http://www.w3.org/1999/xlink"><linearGradient id="a"><stop offset=".322" stop-color="#a163f5"/><stop offset=".466" stop-color="#b074ee"/><stop offset=".752" stop-color="#d8a1dd"/><stop offset=".898" stop-color="#efbad3"/></linearGradient><linearGradient id="b" gradientTransform="matrix(1 0 0 -1 -77.548 308.6125)" gradientUnits="userSpaceOnUse" x1="382.675" x2="386.502" xlink:href="#a" y1="41.557" y2="554.378"/><linearGradient id="c" gradientTransform="matrix(1 0 0 -1 -77.548 308.6125)" gradientUnits="userSpaceOnUse" x1="254.392" x2="258.219" xlink:href="#a" y1="42.515" y2="555.335"/><linearGradient id="d" gradientTransform="matrix(1 0 0 -1 -77.548 308.6125)" gradientUnits="userSpaceOnUse" x1="126.108" x2="129.935" xlink:href="#a" y1="43.472" y2="556.293"/><path d="m306.742188.453125c-27.703126-.003906-50.160157 22.457031-50.160157 50.160156s22.457031 50.160157 50.160157 50.160157c27.703124 0 50.160156-22.457032 50.160156-50.160157-.03125-27.691406-22.46875-50.128906-50.160156-50.160156zm0 80.320313c-16.65625 0-30.160157-13.503907-30.160157-30.160157s13.503907-30.160156 30.160157-30.160156 30.160156 13.5 30.160156 30.160156c-.019532 16.648438-13.511719 30.136719-30.160156 30.160157zm0 0" fill="url(#b)"/><path d="m178.453125.453125c-27.703125 0-50.164063 22.457031-50.164063 50.160156s22.460938 50.160157 50.164063 50.160157 50.160156-22.457032 50.160156-50.160157-22.457031-50.160156-50.160156-50.160156zm0 80.320313c-16.660156 0-30.164063-13.503907-30.164063-30.160157 0-16.660156 13.503907-30.160156 30.164063-30.160156 16.65625 0 30.160156 13.5 30.160156 30.160156 0 16.65625-13.503906 30.160157-30.160156 30.160157zm0 0" fill="url(#c)"/><path d="m50.160156.453125c-27.703125 0-50.160156 22.457031-50.160156 50.160156s22.457031 50.160157 50.160156 50.160157 50.160156-22.457032 50.160156-50.160157c-.03125-27.691406-22.46875-50.128906-50.160156-50.160156zm0 80.320313c-16.65625 0-30.160156-13.503907-30.160156-30.160157 0-16.660156 13.503906-30.160156 30.160156-30.160156 16.660156 0 30.160156 13.5 30.160156 30.160156 0 16.65625-13.503906 30.160157-30.160156 30.160157zm0 0" fill="url(#d)"/></svg>