<svg height="386pt" viewBox="-33 0 386 386.02941" width="386pt" xmlns="http://www.w3.org/2000/svg" xmlns:xlink="http://www.w3.org/1999/xlink"><linearGradient id="a" gradientUnits="userSpaceOnUse" x1="160.080704" x2="160.080704" y1="392.929314" y2="-31.089686"><stop offset=".322" stop-color="#a163f5"/><stop offset=".466" stop-color="#b074ee"/><stop offset=".752" stop-color="#d8a1dd"/><stop offset=".898" stop-color="#efbad3"/></linearGradient><path d="m301.929688 11.429688c-11.496094-9.515626-26.652344-13.371094-41.300782-10.5l-127.699218 24.800781c-23.472657 4.625-40.421876 25.171875-40.5 49.097656v212c-20.164063-16.980469-49.421876-17.667969-70.363282-1.648437-20.9375 16.019531-27.925781 44.441406-16.808594 68.347656 11.117188 23.902344 37.359376 36.867187 63.101563 31.175781s44.066406-28.511719 44.070313-54.875v-254.898437c.019531-14.351563 10.207031-26.679688 24.300781-29.398438l127.699219-24.800781c8.785156-1.710938 17.875.59375 24.78125 6.28125 6.910156 5.691406 10.914062 14.167969 10.917968 23.117187v182.199219c-20.164062-16.980469-49.421875-17.667969-70.359375-1.648437-20.941406 16.019531-27.929687 44.441406-16.8125 68.347656 11.121094 23.902344 37.359375 36.867187 63.101563 31.175781 25.742187-5.691406 44.070312-28.511719 44.070312-54.875v-225.296875c.050782-14.949219-6.632812-29.128906-18.199218-38.601562zm-245.597657 354.5c-19.992187 0-36.203125-16.207032-36.203125-36.199219 0-19.992188 16.210938-36.199219 36.203125-36.199219 19.992188 0 36.199219 16.207031 36.199219 36.199219-.03125 19.980469-16.21875 36.167969-36.199219 36.199219zm207.597657-54.699219c-19.992188 0-36.199219-16.207031-36.199219-36.199219 0-19.996094 16.207031-36.203125 36.199219-36.203125 19.992187 0 36.199218 16.207031 36.199218 36.203125-.027344 19.976562-16.21875 36.167969-36.199218 36.199219zm0 0" fill="url(#a)"/></svg>