<svg height="399pt" viewBox="-50 0 399 399.95948" width="399pt" xmlns="http://www.w3.org/2000/svg" xmlns:xlink="http://www.w3.org/1999/xlink"><linearGradient id="a"><stop offset=".322" stop-color="#a163f5"/><stop offset=".466" stop-color="#b074ee"/><stop offset=".752" stop-color="#d8a1dd"/><stop offset=".898" stop-color="#efbad3"/></linearGradient><linearGradient id="b" gradientUnits="userSpaceOnUse" x1="150.37974" x2="150.37974" xlink:href="#a" y1="395.959478" y2="25.245278"/><linearGradient id="c" gradientUnits="userSpaceOnUse" x1="150.36404" x2="150.36404" xlink:href="#a" y1="395.959478" y2="25.245278"/><path d="m256.378906 27.160156h-64.300781c-10.199219-23-37-33.402344-60.097656-23.300781-10.402344 4.601563-18.699219 12.898437-23.300781 23.300781h-64.300782c-24.199218 0-43.898437 19.699219-43.898437 43.898438v285c0 24.199218 19.699219 43.902344 43.898437 43.902344h212c24.199219 0 43.902344-19.703126 43.902344-43.902344v-285c0-24.300782-19.703125-43.898438-43.902344-43.898438zm-140.398437 20c4.699219 0 8.800781-3.300781 9.800781-7.902344 2.398438-11.199218 12.796875-19.296874 24.597656-19.296874 11.800782 0 22.199219 8.097656 24.699219 19.296874 1 4.601563 5.101563 7.902344 9.800781 7.902344h19.800782v8.800782c0 13.199218-10.699219 23.898437-23.898438 23.898437h-60.703125c-13.199219 0-23.898437-10.699219-23.898437-23.898437v-8.800782zm164.300781 308.898438c0 13.199218-10.703125 23.902344-23.902344 23.902344h-212c-13.199218 0-23.898437-10.703126-23.898437-23.902344v-285c0-13.199219 10.699219-23.898438 23.898437-23.898438h31.699219v8.800782c0 24.199218 19.703125 43.898437 43.902344 43.898437h60.699219c24.199218 0 43.898437-19.699219 43.898437-43.898437v-8.800782h31.800781c13.199219 0 23.902344 10.699219 23.902344 23.898438zm0 0" fill="url(#b)"/><path d="m199.878906 184.757812-65.699218 64.101563-33.300782-32.5c-3.898437-3.898437-10.300781-3.800781-14.097656.199219-3.800781 3.902344-3.800781 10.101562 0 14l.097656.101562 40.300782 39.398438c3.898437 3.800781 10.101562 3.800781 14 0l72.601562-70.898438c3.898438-3.902344 4-10.199218.097656-14.101562-3.800781-4.097656-10.097656-4.199219-14-.300782zm0 0" fill="url(#c)"/></svg>