<svg height="400pt" viewBox="-29 0 400 400" width="400pt" xmlns="http://www.w3.org/2000/svg" xmlns:xlink="http://www.w3.org/1999/xlink"><linearGradient id="a"><stop offset=".322" stop-color="#a163f5"/><stop offset=".466" stop-color="#b074ee"/><stop offset=".752" stop-color="#d8a1dd"/><stop offset=".898" stop-color="#efbad3"/></linearGradient><linearGradient id="b" gradientTransform="matrix(1 0 0 -1 -84.643 458)" gradientUnits="userSpaceOnUse" x1="254.436" x2="258.263" xlink:href="#a" y1="46.709" y2="559.529"/><linearGradient id="c" gradientTransform="matrix(1 0 0 -1 -84.643 458)" gradientUnits="userSpaceOnUse" x1="203.921" x2="207.748" xlink:href="#a" y1="47.086" y2="559.906"/><linearGradient id="d" gradientTransform="matrix(1 0 0 -1 -84.643 458)" gradientUnits="userSpaceOnUse" x1="254.712" x2="258.539" xlink:href="#a" y1="46.706" y2="559.527"/><linearGradient id="e" gradientTransform="matrix(1 0 0 -1 -84.643 458)" gradientUnits="userSpaceOnUse" x1="255.189" x2="259.016" xlink:href="#a" y1="46.703" y2="559.523"/><path d="m292.714844 0h-242.714844c-27.601562.03125-49.96875 22.398438-50 50v300c.03125 27.601562 22.398438 49.96875 50 50h246.121094c25.71875-.027344 46.5625-20.871094 46.59375-46.59375v-303.40625c-.03125-27.601562-22.398438-49.96875-50-50zm-189.335938 20h135.957032v44.390625c-.007813 5.519531-4.480469 9.992187-10 10h-115.957032c-5.519531-.007813-9.992187-4.480469-10-10zm219.335938 333.40625c-.019532 14.679688-11.914063 26.578125-26.59375 26.59375h-246.121094c-16.5625-.019531-29.980469-13.4375-30-30v-300c.019531-16.5625 13.4375-29.980469 30-30h33.378906v44.390625c.019532 16.558594 13.4375 29.980469 30 30h115.957032c16.558593-.019531 29.980468-13.441406 30-30v-44.390625h33.378906c16.558594.019531 29.980468 13.4375 30 30zm0 0" fill="url(#b)"/><path d="m83.1875 184.671875h75.707031c5.523438 0 10-4.480469 10-10 0-5.523437-4.476562-10-10-10h-75.707031c-5.523438 0-10 4.476563-10 10 0 5.519531 4.476562 10 10 10zm0 0" fill="url(#c)"/><path d="m259.527344 228.710938h-176.339844c-5.523438 0-10 4.476562-10 10 0 5.519531 4.476562 10 10 10h176.339844c5.523437 0 10-4.480469 10-10 0-5.523438-4.476563-10-10-10zm0 0" fill="url(#d)"/><path d="m259.527344 292.746094h-176.339844c-5.523438 0-10 4.480468-10 10 0 5.523437 4.476562 10 10 10h176.339844c5.523437 0 10-4.476563 10-10 0-5.519532-4.476563-10-10-10zm0 0" fill="url(#e)"/></svg>