<svg height="485pt" viewBox="0 -26 485.9 485" width="485pt" xmlns="http://www.w3.org/2000/svg" xmlns:xlink="http://www.w3.org/1999/xlink"><linearGradient id="a"><stop offset=".322" stop-color="#a163f5"/><stop offset=".466" stop-color="#b074ee"/><stop offset=".752" stop-color="#d8a1dd"/><stop offset=".898" stop-color="#efbad3"/></linearGradient><linearGradient id="b" gradientUnits="userSpaceOnUse" x1="242.9" x2="242.9" xlink:href="#a" y1="413.501998" y2="19.135398"/><linearGradient id="c" gradientUnits="userSpaceOnUse" x1="63.5004" x2="63.5004" xlink:href="#a" y1="413.501998" y2="19.135398"/><linearGradient id="d" gradientUnits="userSpaceOnUse" x1="422.2838" x2="422.2838" xlink:href="#a" y1="413.501998" y2="19.135398"/><path d="m455.800781 307.402344h-24.402343v-18.5c0-16.898438-13.699219-30.601563-30.699219-30.699219h-147.800781v-98.5c43.800781-5.5 74.902343-45.5 69.402343-89.402344-5.601562-43.699219-45.601562-74.796875-89.402343-69.199219-43.796876 5.601563-74.898438 45.5-69.398438 89.402344 4.601562 36.296875 33.101562 64.796875 69.398438 69.398438v98.5h-147.796876c-16.902343 0-30.601562 13.699218-30.703124 30.699218v18.5h-24.398438c-16.601562 0-30 13.402344-30 30v65.101563c0 16.597656 13.398438 30 30 30h67.101562c16.597657 0 30-13.402344 30-30v-65.101563c0-16.597656-13.402343-30-30-30h-22.703124v-18.5c0-5.898437 4.800781-10.597656 10.703124-10.699218h147.796876v29.199218h-23.5c-16.597657 0-30 13.402344-30 30v65.101563c0 16.597656 13.402343 30 30 30h67.101562c16.601562 0 30-13.402344 30-30v-65.101563c0-16.597656-13.398438-30-30-30h-23.601562v-29.199218h147.800781c5.902343 0 10.601562 4.800781 10.699219 10.699218v18.5h-22.597657c-16.601562 0-30 13.402344-30 30v65.101563c0 16.597656 13.398438 30 30 30h67.097657c16.601562 0 30-13.402344 30-30v-65.101563c-.097657-16.699218-13.5-30.199218-30.097657-30.199218zm-272.902343-227c0-33.101563 26.902343-60 60-60 33.101562 0 60 26.898437 60 60 0 33.101562-26.898438 60-60 60-33.097657 0-60-26.800782-60-60zm-75.796876 257v65.101562c0 5.5-4.5 10-10 10h-67.101562c-5.5 0-10-4.5-10-10v-65.101562c0-5.5 4.5-10 10-10h67.101562c5.5 0 10 4.5 10 10zm179.296876 0v65.101562c0 5.5-4.5 10-10 10h-67.097657c-5.5 0-10-4.5-10-10v-65.101562c0-5.5 4.5-10 10-10h67.097657c5.601562 0 10 4.5 10 10zm179.402343 65.199218c0 5.5-4.5 10-10 10h-67.101562c-5.5 0-10-4.5-10-10v-65.097656c0-5.5 4.5-10 10-10h67.101562c5.5 0 10 4.5 10 10zm0 0" fill="url(#b)"/><path d="m30.898438 373.800781 19.300781 18.902344c3.101562 3 8.101562 3 11.199219 0l34.800781-34c3.199219-3.101563 3.199219-8.199219.101562-11.300781-3.101562-3.199219-8.199219-3.199219-11.300781-.101563l-29.199219 28.5-13.699219-13.398437c-3.101562-3.101563-8.203124-3.101563-11.300781 0-3.101562 3.101562-3.101562 8.199218 0 11.300781-.101562 0 0 0 .097657.097656zm0 0" fill="url(#c)"/><path d="m210.199219 373.800781 19.300781 18.902344c3.101562 3 8.101562 3 11.199219 0l34.800781-34c3.199219-3.101563 3.199219-8.199219.101562-11.300781-3.101562-3.199219-8.203124-3.199219-11.300781-.101563l-29.199219 28.5-13.703124-13.398437c-3.199219-3.101563-8.199219-3-11.296876.101562-3.101562 3.199219-3 8.296875.097657 11.296875zm0 0" fill="url(#b)"/><path d="m443.699219 347.300781-29.199219 28.5-13.699219-13.398437c-3.199219-3.101563-8.199219-3-11.300781.101562-3.101562 3.199219-3 8.199219.101562 11.296875l19.296876 18.902344c3.101562 3 8.101562 3 11.203124 0l34.796876-34c3.203124-3.101563 3.300781-8.101563.203124-11.300781-3.101562-3.199219-8.101562-3.300782-11.402343-.101563zm0 0" fill="url(#d)"/></svg>