<svg height="370pt" viewBox="0 -16 370.58537 370" width="370pt" xmlns="http://www.w3.org/2000/svg" xmlns:xlink="http://www.w3.org/1999/xlink"><linearGradient id="a"><stop offset=".322" stop-color="#a163f5"/><stop offset=".466" stop-color="#b074ee"/><stop offset=".752" stop-color="#d8a1dd"/><stop offset=".898" stop-color="#efbad3"/></linearGradient><linearGradient id="b" gradientTransform="matrix(1 0 0 -1 -70.706631 425.966685)" gradientUnits="userSpaceOnUse" x1="327.624" x2="336.624" xlink:href="#a" y1="-30.442" y2="362.597"/><linearGradient id="c" gradientTransform="matrix(1 0 0 -1 -70.706631 425.966685)" gradientUnits="userSpaceOnUse" x1="204.7" x2="213.701" xlink:href="#a" y1="-27.627" y2="365.412"/><path d="m330.585938.292969h-134.199219c-22.082031.023437-39.976563 17.917969-40 40v35.644531c0 5.519531 4.476562 10 10 10 5.523437 0 10-4.480469 10-10v-35.644531c.011719-11.039063 8.957031-19.988281 20-20h134.199219c11.039062.011719 19.984374 8.960937 20 20v258.589843c-.015626 11.042969-8.960938 19.988282-20 20h-134.199219c-11.042969-.011718-19.988281-8.957031-20-20v-34.898437c0-5.523437-4.476563-10-10-10-5.523438 0-10 4.476563-10 10v34.898437c.023437 22.082032 17.917969 39.976563 40 40h134.199219c22.082031-.023437 39.976562-17.917968 40-40v-258.589843c-.023438-22.082031-17.917969-39.976563-40-40zm0 0" fill="url(#b)"/><path d="m34.328125 179.589844h236.664063c5.523437 0 10-4.476563 10-10 0-5.523438-4.476563-10-10-10h-238.886719l51.304687-59.125c3.480469-4.179688 2.980469-10.378906-1.128906-13.949219-4.109375-3.566406-10.320312-3.191406-13.972656.84375l-64.667969 74.507813c-2.382813 1.960937-3.7265625 4.917968-3.63671875 8.007812.09374995 3.085938 1.60937475 5.957031 4.10546875 7.777344l64.675781 64.675781c3.90625 3.90625 10.238282 3.90625 14.144532 0s3.90625-10.238281 0-14.140625zm0 0" fill="url(#c)"/></svg>