<svg height="400pt" viewBox="-5 0 400 400.00416" width="400pt" xmlns="http://www.w3.org/2000/svg" xmlns:xlink="http://www.w3.org/1999/xlink"><linearGradient id="a"><stop offset=".322" stop-color="#a163f5"/><stop offset=".466" stop-color="#b074ee"/><stop offset=".752" stop-color="#d8a1dd"/><stop offset=".898" stop-color="#efbad3"/></linearGradient><linearGradient id="b" gradientTransform="matrix(1 0 0 -1 -61.18292 458)" gradientUnits="userSpaceOnUse" x1="256" x2="256" xlink:href="#a" y1="14" y2="444.019"/><linearGradient id="c" gradientTransform="matrix(1 0 0 -1 -61.18292 458)" gradientUnits="userSpaceOnUse" x1="328.65" x2="328.65" xlink:href="#a" y1="14" y2="444.019"/><path d="m379.632812 338.96875h-228.691406c-3.84375-20.347656-19.464844-36.4375-39.691406-40.878906v-248.074219c-.03125-27.609375-22.40625-49.984375-50.015625-50.015625h-51.230469c-5.523437 0-9.99999975 4.476562-9.99999975 10s4.47656275 10 9.99999975 10h51.230469c16.570313.019531 29.996094 13.445312 30.015625 30.015625v247.699219c-25.539062 4.550781-43.714844 27.367187-42.445312 53.273437 1.273437 25.90625 21.597656 46.832031 47.457031 48.859375 25.859375 2.023438 49.195312-15.480468 54.488281-40.875h228.882812c5.523438 0 10-4.476562 10-10 0-5.523437-4.476562-10-10-10zm-279.351562 41.03125c-17.421875 0-31.546875-14.125-31.546875-31.550781 0-17.421875 14.125-31.546875 31.546875-31.546875 17.425781 0 31.550781 14.125 31.550781 31.546875 0 17.425781-14.125 31.550781-31.550781 31.550781zm0 0" fill="url(#b)"/><path d="m209.503906 277.101562h115.925782c27.601562-.03125 49.96875-22.398437 50-50v-156.167968c-.03125-27.601563-22.398438-49.96875-50-50h-115.925782c-27.601562.03125-49.96875 22.398437-50 50v156.167968c.03125 27.601563 22.398438 49.96875 50 50zm-30-50v-68.085937h77.964844v98.085937h-47.964844c-16.558594-.019531-29.980468-13.441406-30-30zm145.925782 30h-47.960938v-98.085937h77.960938v68.085937c-.019532 16.558594-13.4375 29.980469-30 30zm30-186.164062v68.082031h-77.960938v-98.085937h47.960938c16.5625.019531 29.980468 13.4375 30 30zm-145.925782-30h47.964844v98.082031h-77.964844v-68.085937c.019532-16.5625 13.441406-29.980469 30-30zm0 0" fill="url(#c)"/></svg>