<svg height="320pt" viewBox="-37 0 320 320.00002" width="320pt" xmlns="http://www.w3.org/2000/svg" xmlns:xlink="http://www.w3.org/1999/xlink"><linearGradient id="a"><stop offset=".322" stop-color="#a163f5"/><stop offset=".466" stop-color="#b074ee"/><stop offset=".752" stop-color="#d8a1dd"/><stop offset=".898" stop-color="#efbad3"/></linearGradient><linearGradient id="b" gradientTransform="matrix(1 0 0 -1 -132.59999 418.00002)" gradientUnits="userSpaceOnUse" x1="185.8" x2="185.8" xlink:href="#a" y1="17.518" y2="570.222"/><linearGradient id="c" gradientTransform="matrix(1 0 0 -1 -132.59999 418.00002)" gradientUnits="userSpaceOnUse" x1="326.201" x2="326.201" xlink:href="#a" y1="17.518" y2="570.222"/><path d="m96.398438 0h-86.398438c-5.515625.015625-9.984375 4.484375-10 10v300c.015625 5.515625 4.484375 9.984375 10 10h86.398438c5.519531-.015625 9.984374-4.484375 10-10v-300c-.015626-5.515625-4.480469-9.984375-10-10zm-10 300h-66.398438v-280h66.398438zm0 0" fill="url(#b)"/><path d="m236.898438 0h-86.5c-5.515626.015625-9.984376 4.484375-10 10v300c.015624 5.515625 4.484374 9.984375 10 10h86.402343c5.515625-.015625 9.984375-4.484375 10-10v-300c.03125-2.644531-1-5.191406-2.859375-7.070312-1.859375-1.878907-4.398437-2.93359425-7.042968-2.929688zm-10 300h-66.5v-280h66.402343v280zm0 0" fill="url(#c)"/></svg>