<svg height="400pt" viewBox="-8 0 399 400" width="400pt" xmlns="http://www.w3.org/2000/svg" xmlns:xlink="http://www.w3.org/1999/xlink"><linearGradient id="a" gradientTransform="matrix(1 0 0 -1 -63.504942 458)" gradientUnits="userSpaceOnUse" x1="254.081" x2="257.908" y1=".577" y2="513.397"><stop offset=".322" stop-color="#a163f5"/><stop offset=".466" stop-color="#b074ee"/><stop offset=".752" stop-color="#d8a1dd"/><stop offset=".898" stop-color="#efbad3"/></linearGradient><path d="m383.179688 123.910156c3.25-13.070312-.15625-22.019531-3.582032-27.222656-11.710937-17.769531-41.769531-22-86.9375-12.222656-11.101562 2.398437-22.800781 5.582031-34.921875 9.460937-2.398437-10.679687-5.390625-21.21875-8.953125-31.570312-17.972656-51.539063-40.53125-62.355469-56.289062-62.355469-15.761719 0-38.320313 10.816406-56.292969 62.355469-3.5625 10.351562-6.550781 20.890625-8.953125 31.570312-12.121094-3.878906-23.824219-7.0625-34.921875-9.460937-45.164063-9.773438-75.226563-5.546875-86.933594 12.222656-3.429687 5.199219-6.835937 14.152344-3.582031 27.222656 5.828125 23.445313 30.066406 48.925782 49.371094 66.171875 3.703125 3.308594 7.554687 6.613281 11.5625 9.917969-3.996094 3.300781-7.851563 6.609375-11.5625 9.917969-19.304688 17.246093-43.542969 42.726562-49.371094 66.171875-3.253906 13.070312.152344 22.019531 3.582031 27.222656 7.597657 11.53125 22.925781 17.359375 45.097657 17.359375 11.992187 0 25.988281-1.707031 41.84375-5.136719 11.097656-2.398437 22.796874-5.582031 34.917968-9.460937 2.402344 10.679687 5.390625 21.21875 8.957032 31.570312 17.964843 51.539063 40.523437 62.355469 56.285156 62.355469 15.757812 0 38.316406-10.816406 56.289062-62.355469 3.5625-10.351562 6.554688-20.890625 8.953125-31.570312 12.121094 3.878906 23.824219 7.0625 34.921875 9.460937 15.855469 3.429688 29.847656 5.136719 41.839844 5.136719 22.167969 0 37.5-5.828125 45.101562-17.359375 3.425782-5.199219 6.832032-14.152344 3.582032-27.222656-5.828125-23.445313-30.066406-48.925782-49.371094-66.171875-3.703125-3.308594-7.558594-6.613281-11.5625-9.917969 3.992188-3.300781 7.847656-6.609375 11.5625-9.917969 19.300781-17.246093 43.535156-42.726562 49.367188-66.171875zm-228.085938-54.96875c10.683594-30.640625 24.664062-48.941406 37.402344-48.941406 12.734375 0 26.71875 18.300781 37.398437 48.941406 3.550781 10.324219 6.496094 20.847656 8.824219 31.515625-15.035156 5.511719-30.546875 11.988281-46.226562 19.300781-15.683594-7.316406-31.199219-13.792968-46.230469-19.300781 2.332031-10.667969 5.28125-21.191406 8.832031-31.515625zm93.652344 131.058594c0 9.414062-.242188 18.714844-.714844 27.84375-8.476562 5.15625-17.222656 10.207031-26.230469 15.144531-9.992187 5.464844-19.757812 10.507813-29.300781 15.128907-9.53125-4.628907-19.304688-9.671876-29.3125-15.128907-9-4.925781-17.746094-9.972656-26.234375-15.144531-.472656-9.128906-.714844-18.429688-.714844-27.84375s.242188-18.714844.714844-27.84375c8.480469-5.15625 17.222656-10.203125 26.234375-15.144531 10-5.46875 19.765625-10.511719 29.304688-15.125 9.535156 4.628906 19.300781 9.671875 29.304687 15.125 9 4.925781 17.746094 9.972656 26.234375 15.144531.472656 9.128906.714844 18.429688.714844 27.84375zm19.804687-14.800781c7.34375 4.882812 14.398438 9.816406 21.167969 14.804687-6.761719 4.980469-13.816406 9.917969-21.167969 14.804688.128907-4.902344.195313-9.835938.195313-14.804688.003906-4.964844-.0625-9.902344-.195313-14.804687zm-22.371093 67.011719c-.957032 9.4375-2.164063 18.617187-3.628907 27.464843-8.613281-3.214843-17.542969-6.828125-26.796875-10.84375 5.214844-2.683593 10.433594-5.449219 15.644532-8.300781 5-2.734375 9.925781-5.507812 14.78125-8.320312zm-76.9375 16.625c-9.242188 4.023437-18.175782 7.636718-26.800782 10.84375-1.460937-8.847657-2.671875-18.03125-3.625-27.46875 4.851563 2.8125 9.777344 5.585937 14.777344 8.320312 5.207031 2.851562 10.425781 5.621094 15.648438 8.300781zm-52.800782-54.03125c-7.347656-4.882813-14.402344-9.816407-21.167968-14.804688 6.757812-4.980469 13.8125-9.914062 21.164062-14.804688-.128906 4.902344-.195312 9.839844-.199219 14.804688-.003906 4.964844.0625 9.902344.199219 14.804688zm22.375-67.015626c.953125-9.4375 2.164063-18.617187 3.625-27.46875 8.613282 3.21875 17.546875 6.832032 26.800782 10.847657-5.21875 2.683593-10.4375 5.449219-15.648438 8.300781-5 2.734375-9.929688 5.507812-14.78125 8.320312zm92.585938-8.320312c-5.207032-2.851562-10.425782-5.617188-15.644532-8.300781 9.242188-4.023438 18.175782-7.636719 26.796876-10.847657 1.464843 8.851563 2.671874 18.03125 3.628906 27.46875-4.855469-2.808593-9.785156-5.582031-14.789063-8.320312zm-166.890625 35.699219c-32.820313-29.320313-41.207031-47.726563-43.289063-56.085938-1.816406-7.304687.210938-10.378906.875-11.390625 3.582032-5.429687 13.226563-8.398437 27.773438-8.398437 17.839844 0 43.050781 4.480469 73.433594 14.34375-2.582032 14.867187-4.484376 30.625-5.660157 46.949219-13.792969 8.699218-26.796875 17.65625-38.820312 26.722656-5-4.039063-9.785157-8.089844-14.316407-12.140625zm-42.417969 117.140625c-.664062-1.011719-2.691406-4.085938-.875-11.390625 2.082031-8.359375 10.46875-26.765625 43.289062-56.085938 4.53125-4.050781 9.320313-8.101562 14.3125-12.140625 12.023438 9.066406 25.027344 18.019532 38.820313 26.722656 1.175781 16.328126 3.078125 32.085938 5.664063 46.957032-55.171876 17.914062-93.242188 18.027344-101.210938 5.9375zm207.800781 38.75c-10.679687 30.640625-24.664062 48.941406-37.398437 48.941406s-26.71875-18.300781-37.402344-48.941406c-3.550781-10.324219-6.496094-20.847656-8.824219-31.515625 15.035157-5.511719 30.546875-11.988281 46.230469-19.300781 15.683594 7.316406 31.195312 13.792968 46.230469 19.300781-2.332031 10.667969-5.28125 21.191406-8.835938 31.515625zm90.582031-106.226563c32.824219 29.320313 41.210938 47.726563 43.289063 56.085938 1.816406 7.304687-.210937 10.378906-.875 11.390625-3.578125 5.429687-13.222656 8.398437-27.773437 8.398437-17.835938 0-43.046876-4.480469-73.433594-14.34375 2.585937-14.867187 4.484375-30.625 5.660156-46.949219 13.792969-8.699218 26.800781-17.65625 38.820312-26.722656 5 4.039063 9.785157 8.089844 14.316407 12.140625zm-53.132812-64.246093c-1.175781-16.324219-3.074219-32.082032-5.660156-46.949219 30.386718-9.863281 55.597656-14.34375 73.433594-14.34375 14.542968 0 24.199218 2.96875 27.773437 8.398437.664063 1.011719 2.691406 4.085938.875 11.390625-2.078125 8.363281-10.464844 26.765625-43.289063 56.085938-4.53125 4.050781-9.316406 8.101562-14.3125 12.144531-12.015624-9.070312-25.023437-18.023438-38.816406-26.726562zm0 0" fill="url(#a)"/></svg>