<svg height="359pt" viewBox="0 0 359.96231 359" width="359pt" xmlns="http://www.w3.org/2000/svg" xmlns:xlink="http://www.w3.org/1999/xlink"><linearGradient id="a" gradientUnits="userSpaceOnUse" x1="179.980856" x2="179.980856" y1="365.381307" y2="-42.629693"><stop offset=".322" stop-color="#a163f5"/><stop offset=".466" stop-color="#b074ee"/><stop offset=".752" stop-color="#d8a1dd"/><stop offset=".898" stop-color="#efbad3"/></linearGradient><path d="m344.824219 74.179688-58.5-58.5c-20.347657-20.265626-53.25-20.265626-73.597657 0l-11.902343 11.902343c-1.878907 1.878907-2.925781 4.4375-2.898438 7.097657.019531 2.652343 1.058594 5.195312 2.898438 7.101562l10.300781 10.300781-31.601562 31.597657h-34c-13.800782-.042969-27.050782 5.429687-36.796876 15.203124l-22.402343 22.398438c-1.878907 1.882812-2.925781 4.441406-2.898438 7.101562.019531 2.648438 1.058594 5.191407 2.898438 7.097657l62.300781 62.300781-145.699219 145.5c-1.875 1.867188-2.925781 4.40625-2.925781 7.050781s1.050781 5.179688 2.925781 7.050781c1.875 1.886719 4.4375 2.933594 7.097657 2.898438 2.65625-.011719 5.199218-1.050781 7.101562-2.898438l145.601562-145.601562 62.296876 62.300781c1.878906 1.886719 4.441406 2.933594 7.101562 2.898438 2.652344-.011719 5.199219-1.050781 7.101562-2.898438l22.398438-22.402343c9.773438-9.746094 15.246094-22.996094 15.199219-36.796876v-34l31.601562-31.601562 10.300781 10.300781c1.867188 1.871094 4.402344 2.925781 7.046876 2.925781 2.648437 0 5.183593-1.054687 7.050781-2.925781l11.902343-11.902343c20.277344-20.285157 20.320313-53.15625.097657-73.5zm-14.199219 59.402343-4.800781 4.800781-10.300781-10.300781c-1.878907-1.882812-4.4375-2.925781-7.097657-2.902343-2.652343.019531-5.195312 1.058593-7.101562 2.902343l-41.597657 41.597657c-1.882812 1.882812-2.929687 4.441406-2.902343 7.101562v38.101562c.039062 8.519532-3.347657 16.699219-9.398438 22.699219l-15.300781 15.300781-124.601562-124.601562 15.300781-15.300781c6-6.050781 14.179687-9.4375 22.699219-9.398438h38.101562c2.652344-.019531 5.191406-1.058593 7.101562-2.902343l41.597657-41.597657c1.882812-1.882812 2.925781-4.441406 2.902343-7.101562-.019531-2.648438-1.058593-5.191407-2.902343-7.097657l-10.300781-10.300781 4.800781-4.800781c12.539062-12.535156 32.863281-12.535156 45.402343 0l58.5 58.5c12.421876 12.5625 12.375 32.792969-.101562 45.300781zm0 0" fill="url(#a)"/></svg>