<svg height="400pt" viewBox="-2 0 399 400" width="400pt" xmlns="http://www.w3.org/2000/svg" xmlns:xlink="http://www.w3.org/1999/xlink"><linearGradient id="a"><stop offset=".322" stop-color="#a163f5"/><stop offset=".466" stop-color="#b074ee"/><stop offset=".752" stop-color="#d8a1dd"/><stop offset=".898" stop-color="#efbad3"/></linearGradient><linearGradient id="b" gradientTransform="matrix(1 0 0 -1 -57.655 458)" gradientUnits="userSpaceOnUse" x1="255.999" x2="255.999" xlink:href="#a" y1="3.998" y2="508.995"/><linearGradient id="c" gradientTransform="matrix(1 0 0 -1 -57.655 458)" gradientUnits="userSpaceOnUse" x1="252.175" x2="252.175" xlink:href="#a" y1="3.998" y2="508.995"/><linearGradient id="d" gradientTransform="matrix(1 0 0 -1 -57.655 458)" gradientUnits="userSpaceOnUse" x1="196.274" x2="196.274" xlink:href="#a" y1="3.998" y2="508.995"/><path d="m369.203125 0h-341.71875c-14.894531.015625-26.96875 12.089844-26.984375 26.984375v38.929687c.019531 13.410157 9.871094 24.78125 23.144531 26.707032v154.691406c.03125 27.601562 22.398438 49.96875 50 50h114.699219v40.222656h-24.210938c-5.523437 0-10 4.476563-10 10v42.464844c0 5.523438 4.476563 10 10 10h68.425782c5.519531 0 10-4.476562 10-10v-42.464844c0-5.523437-4.480469-10-10-10h-24.214844v-40.222656h114.703125c27.597656-.03125 49.964844-22.398438 50-50v-154.691406c13.269531-1.925782 23.121094-13.296875 23.140625-26.707032v-38.929687c-.015625-14.894531-12.085938-26.9648438-26.984375-26.984375zm-146.644531 380h-48.425782v-22.464844h48.425782zm100.488281-102.6875h-249.402344c-16.558593-.015625-29.980469-13.4375-30-30v-154.414062h309.402344v154.414062c-.019531 16.5625-13.441406 29.984375-30 30zm53.140625-211.398438c-.003906 3.855469-3.128906 6.980469-6.988281 6.984376h-341.714844c-3.855469-.003907-6.980469-3.128907-6.984375-6.984376v-38.929687c.003906-3.855469 3.128906-6.980469 6.984375-6.984375h341.71875c3.855469.003906 6.980469 3.128906 6.988281 6.984375zm0 0" fill="url(#b)"/><path d="m275.53125 131.800781h-162.019531c-5.523438 0-10 4.476563-10 10 0 5.523438 4.476562 10 10 10h162.019531c5.523438 0 10-4.476562 10-10 0-5.523437-4.476562-10-10-10zm0 0" fill="url(#c)"/><path d="m275.53125 171.800781h-162.019531c-5.523438 0-10 4.476563-10 10 0 5.523438 4.476562 10 10 10h162.019531c5.523438 0 10-4.476562 10-10 0-5.523437-4.476562-10-10-10zm0 0" fill="url(#c)"/><path d="m163.730469 211.800781h-50.21875c-5.523438 0-10 4.476563-10 10 0 5.523438 4.476562 10 10 10h50.21875c5.519531 0 10-4.476562 10-10 0-5.523437-4.480469-10-10-10zm0 0" fill="url(#d)"/></svg>