<svg height="472pt" viewBox="-46 0 472 472.78" width="472pt" xmlns="http://www.w3.org/2000/svg" xmlns:xlink="http://www.w3.org/1999/xlink"><linearGradient id="a"><stop offset=".322" stop-color="#a163f5"/><stop offset=".466" stop-color="#b074ee"/><stop offset=".752" stop-color="#d8a1dd"/><stop offset=".898" stop-color="#efbad3"/></linearGradient><linearGradient id="b" gradientTransform="matrix(1 0 0 -1 -65.61 494.38)" gradientUnits="userSpaceOnUse" x1="293.027" x2="279.296" xlink:href="#a" y1="-22.097" y2="472.215"/><linearGradient id="c" gradientTransform="matrix(1 0 0 -1 -65.61 494.38)" gradientUnits="userSpaceOnUse" x1="257.56" x2="243.829" xlink:href="#a" y1="-23.082" y2="471.229"/><path d="m190.390625 235.980469c49.71875-.078125 94.078125-31.25 111-78 32.804687-.277344 59.175781-27.09375 58.898437-59.902344-.273437-32.804687-27.09375-59.175781-59.898437-58.898437h-22.199219c-36.199218-40.332032-95.21875-50.820313-143.097656-25.425782-47.875 25.390625-72.296875 80.136719-59.210938 132.726563 13.082032 52.589843 60.3125 89.503906 114.507813 89.5zm0-20c-52.300781 0-95.199219-41.300781-97.902344-93 15.035157 5.472656 30.902344 8.316406 46.902344 8.398437 12.636719.039063 25.195313-1.953125 37.199219-5.898437 17-5.601563 32.398437-15.199219 46.101562-28.5 9.5 18.300781 29.199219 48.898437 58.5 57.898437-15.042968 36.925782-50.933594 61.074219-90.800781 61.101563zm110-156.699219c20.515625.007812 37.59375 15.753906 39.265625 36.199219 1.667969 20.449219-12.625 38.757812-32.867188 42.097656 1.097657-6.441406 1.632813-12.964844 1.601563-19.5.035156-20.640625-5.378906-40.921875-15.699219-58.796875zm-12 58.699219c-.019531 5.933593-.554687 11.855469-1.601563 17.699219-14.898437-4.699219-27-18-34.898437-29.199219-5.726563-8.085938-10.683594-16.691407-14.800781-25.699219 8.070312-10.546875 15.070312-21.871094 20.898437-33.800781 19.371094 18.546875 30.347657 44.183593 30.402344 71zm-98-98c18.203125-.011719 36.046875 5.082031 51.5 14.699219-18.101563 37.898437-42.101563 62-71.402344 71.800781-33.398437 11.199219-65.199219.398437-76.796875-4.5 7.917969-47.257813 48.78125-81.910157 96.699219-82zm0 0" fill="url(#b)"/><path d="m190.390625 265.480469c-51.300781 0-99 19.898437-134.402344 56.097656-35.898437 36.703125-55.597656 86.800781-55.597656 141.203125.015625 5.515625 4.484375 9.984375 10 10h360c5.515625-.015625 9.984375-4.484375 10-10 0-54.300781-19.699219-104.5-55.601563-141.101562-35.398437-36.199219-83.097656-56.199219-134.398437-56.199219zm-169.800781 187.300781c2.199218-45.203125 19.699218-86.5 49.601562-117.101562 31.597656-32.300782 74.296875-50.101563 120.097656-50.101563 45.902344 0 88.5 17.800781 120.101563 50.101563 30 30.601562 47.398437 71.898437 49.597656 117.101562zm0 0" fill="url(#c)"/></svg>