<svg height="400pt" viewBox="-72 0 400 400" width="400pt" xmlns="http://www.w3.org/2000/svg" xmlns:xlink="http://www.w3.org/1999/xlink"><linearGradient id="a" gradientUnits="userSpaceOnUse" x1="127.9" x2="127.9" y1="403" y2="17.8299"><stop offset=".322" stop-color="#a163f5"/><stop offset=".466" stop-color="#b074ee"/><stop offset=".752" stop-color="#d8a1dd"/><stop offset=".898" stop-color="#efbad3"/></linearGradient><g fill="url(#a)"><path d="m245.699219 55.898438h-25v-45.898438c0-5.5-4.5-10-10-10h-172c-21.300781 0-38.699219 17-38.699219 38v268.199219c0 20.902343 17.398438 37.902343 38.699219 37.902343h27.601562v45.898438c0 5.5 4.5 10 10 10 1.800781 0 3.5-.5 5.097657-1.398438l28.703124-16.902343 28.699219 16.902343c4.800781 2.796876 10.898438 1.199219 13.699219-3.601562.898438-1.5 1.398438-3.300781 1.398438-5.101562v-45.898438h91.703124c5.5 0 10-4.5 10-10v-268.101562c.097657-5.5-4.300781-10-9.902343-10zm-206.898438-35.898438h162v35.898438h-162c-10.300781 0-18.699219-8-18.699219-18 0-9.898438 8.398438-17.898438 18.699219-17.898438zm95.199219 352.5-18.699219-11c-3.101562-1.800781-7-1.800781-10.101562 0l-18.699219 11v-28.398438h47.601562v28.398438zm101.699219-48.398438h-197c-10.300781 0-18.699219-8-18.699219-17.902343v-235c5.699219 3.101562 12.199219 4.699219 18.699219 4.699219h197zm0 0"/><path d="m84.398438 190h87c5.5 0 10-4.5 10-10s-4.5-10-10-10h-87c-5.5 0-10 4.5-10 10s4.5 10 10 10zm0 0"/><path d="m84.398438 230h87c5.5 0 10-4.5 10-10s-4.5-10-10-10h-87c-5.5 0-10 4.5-10 10s4.5 10 10 10zm0 0"/></g></svg>