<svg height="400pt" viewBox="-41 0 400 400" width="400pt" xmlns="http://www.w3.org/2000/svg" xmlns:xlink="http://www.w3.org/1999/xlink"><linearGradient id="a"><stop offset=".322" stop-color="#a163f5"/><stop offset=".466" stop-color="#b074ee"/><stop offset=".752" stop-color="#d8a1dd"/><stop offset=".898" stop-color="#efbad3"/></linearGradient><linearGradient id="b" gradientUnits="userSpaceOnUse" x1="159" x2="159" xlink:href="#a" y1="396" y2="12.7442"/><linearGradient id="c" gradientUnits="userSpaceOnUse" x1="150.8444" x2="150.8444" xlink:href="#a" y1="396" y2="12.7442"/><linearGradient id="d" gradientUnits="userSpaceOnUse" x1="167.1564" x2="167.1564" xlink:href="#a" y1="396" y2="12.7442"/><path d="m242.601562 3.101562s-.101562-.101562-.101562-.101562c-.101562-.101562-.101562-.101562-.199219-.199219-.199219-.199219-.300781-.300781-.5-.5-.101562-.101562-.101562-.101562-.199219-.199219-.203124-.101562-.402343-.300781-.601562-.402343-.101562-.097657-.199219-.097657-.300781-.199219-.199219-.101562-.398438-.199219-.5-.300781-.097657-.097657-.300781-.097657-.5-.199219s-.300781-.101562-.398438-.199219c-.199219-.101562-.5-.199219-.800781-.300781-.101562 0-.101562-.101562-.199219-.101562-.601562-.199219-1.300781-.398438-2-.398438-.101562 0-.199219 0-.300781 0-.300781 0-.5 0-.800781 0h-196.199219c-21.5 0-38.898438 17.398438-39 38.800781v322.398438c.101562 21.5 17.5 38.800781 39 38.800781h240c21.5 0 38.898438-17.398438 39-38.800781v-275.398438c0-2.601562-1-5.101562-2.800781-6.902343zm2.398438 31.796876 39.5 41.101562h-39.5zm34 345.101562h-240c-10.398438 0-18.898438-8.398438-19-18.800781v-322.398438c.101562-10.402343 8.5-18.800781 19-18.800781h186v65.800781c.199219 5.597657 4.699219 10.097657 10.398438 10.199219h62.601562v265.199219c-.101562 10.402343-8.5 18.800781-19 18.800781zm0 0" fill="url(#b)"/><path d="m70.800781 243.601562c0-20.402343 8.898438-42.5 23.699219-59 16.199219-18.300781 39.5-28.703124 63.898438-28.601562 24.703124 0 45.5 11 59.902343 24.101562l-23.402343-.601562c-5.5-.101562-10.097657 4.199219-10.199219 9.699219-.097657 5.5 4.199219 10.101562 9.699219 10.199219l43.800781 1.101562c5.300781 1.5 10.902343-1.5 12.402343-6.800781.5-1.800781.5-3.800781 0-5.597657l-1.101562-43.800781c-.101562-5.5-4.699219-9.902343-10.199219-9.699219-5.5.097657-9.902343 4.699219-9.699219 10.199219l.5 18.597657c-17.601562-15.398438-42.101562-27.597657-71.5-27.597657-64.300781 0-107.601562 55.597657-107.601562 107.597657 0 5.5 4.5 10 10 10s9.800781-4.199219 9.800781-9.796876zm0 0" fill="url(#c)"/><path d="m257.199219 233.601562c-5.5 0-10 4.5-10 10 0 20.398438-8.898438 42.5-23.699219 59-16.199219 18.296876-39.5 28.699219-63.898438 28.597657-24.703124 0-45.5-11-59.902343-24.097657l23.402343.597657c5.5.101562 10.097657-4.199219 10.199219-9.699219.097657-5.5-4.199219-10.101562-9.699219-10.199219l-43.800781-1.101562c-5.300781-1.5-10.902343 1.5-12.402343 6.800781-.5 1.800781-.5 3.800781 0 5.601562l1.101562 43.796876c.101562 5.402343 4.601562 9.703124 10 9.703124h.300781c5.5-.101562 9.898438-4.703124 9.699219-10.203124l-.5-18.597657c17.601562 15.398438 42.101562 27.597657 71.5 27.597657 64.300781 0 107.601562-55.597657 107.601562-107.597657.097657-5.699219-4.402343-10.199219-9.902343-10.199219zm0 0" fill="url(#d)"/></svg>