<svg height="420pt" viewBox="-38 0 420 420" width="420pt" xmlns="http://www.w3.org/2000/svg" xmlns:xlink="http://www.w3.org/1999/xlink"><linearGradient id="a"><stop offset=".322" stop-color="#a163f5"/><stop offset=".466" stop-color="#b074ee"/><stop offset=".752" stop-color="#d8a1dd"/><stop offset=".898" stop-color="#efbad3"/></linearGradient><linearGradient id="b" gradientUnits="userSpaceOnUse" x1="172.001263" x2="172.001263" xlink:href="#a" y1="418" y2="13.8119"/><linearGradient id="c" gradientUnits="userSpaceOnUse" x1="190.409663" x2="190.409663" xlink:href="#a" y1="418" y2="13.8119"/><linearGradient id="d" gradientUnits="userSpaceOnUse" x1="205.357263" x2="205.357263" xlink:href="#a" y1="418" y2="13.8119"/><path d="m275.101562 3.101562s-.101562-.101562-.101562-.101562c-.097656-.101562-.097656-.101562-.199219-.199219-.199219-.199219-.300781-.300781-.5-.5-.101562-.101562-.101562-.101562-.199219-.199219-.199218-.101562-.402343-.300781-.601562-.402343-.097656-.097657-.199219-.097657-.300781-.199219-.199219-.101562-.398438-.199219-.597657-.300781-.101562-.097657-.300781-.097657-.402343-.199219-.097657-.101562-.296875-.101562-.398438-.199219-.199219-.101562-.5-.199219-.800781-.300781-.097656 0-.097656-.101562-.199219-.101562-.601562-.199219-1.300781-.398438-2-.398438-.101562 0-.199219 0-.300781 0-.300781 0-.5 0-.800781 0h-180c-19.898438 0-36.699219 16.300781-36.699219 36.398438v10.601562h-14.898438c-20 .101562-36.1992182 16.398438-36.101562 36.398438v300.203124c-.0976562 20 16 36.296876 36 36.398438h224.800781c20 0 36.199219-16.300781 36.199219-36.300781v-15.699219h10.902344c19.898437.101562 36-16 36.097656-35.898438 0-.101562 0-.203124 0-.300781v-252.300781c.101562-2.601562-.898438-5-2.597656-6.898438zm2.898438 31.796876 32.902344 34.101562h-32.902344zm-1 348.703124c.101562 9-7.097656 16.296876-16 16.398438h-224.898438c-8.902343 0-16.101562-7.300781-16.101562-16.199219 0-.101562 0-.101562 0-.199219v-300.101562c-.097656-9 7-16.300781 16-16.5h15v264.800781c0 20.097657 16.800781 36.199219 36.902344 36.199219h189.097656zm30.902344-35.601562h-220c-9.101563 0-16.902344-7.101562-16.902344-16.199219v-295.402343c0-9.097657 7.800781-16.398438 16.902344-16.398438h170.097656v59.5c0 5.5 4.300781 9.5 9.902344 9.5h56.097656v242.800781c.101562 8.800781-7 16.097657-15.800781 16.199219-.097657 0-.199219 0-.296875 0zm0 0" fill="url(#b)"/><path d="m117.902344 224.101562c0-18.5 8-38.5 21.5-53.5 14.699218-16.601562 35.796875-26 57.898437-25.902343 21.5 0 39.601563 9.199219 52.601563 20.402343l-19.203125-.5h-.296875c-5.5-.101562-10.101563 4.398438-10.101563 9.898438-.101562 5.5 4.398438 10.101562 9.898438 10.101562l40 1c5.300781 1.5 10.800781-1.601562 12.300781-7 .5-1.800781.5-3.601562 0-5.402343l-1-40c-.097656-5.5-4.699219-9.898438-10.199219-9.699219-5.5.101562-9.898437 4.699219-9.699219 10.199219l.398438 15.199219c-16.097656-13.597657-38.199219-24.296876-64.699219-24.296876-59.5 0-99.398437 51.398438-99.398437 99.398438 0 5.5 4.5 10 10 10s10-4.398438 10-9.898438zm0 0" fill="url(#c)"/><path d="m287.902344 214.101562c-5.5 0-10 4.5-10 10 0 18.5-8 38.5-21.5 53.5-14.703125 16.597657-35.800782 26-57.902344 25.898438-21.5 0-39.597656-9.199219-52.597656-20.398438l19.199218.5c5.5.097657 10.097657-4.203124 10.300782-9.800781.199218-5.601562-4.203125-10.101562-9.800782-10.300781l-40-1c-5.300781-1.5-10.800781 1.601562-12.300781 6.898438-.5 1.800781-.5 3.601562 0 5.402343l1 40c.101563 5.398438 4.601563 9.699219 10 9.699219h.300781c5.5-.101562 9.898438-4.699219 9.699219-10.199219l-.398437-15.199219c16.097656 13.597657 38.199218 24.296876 64.699218 24.296876 59.5 0 99.398438-51.398438 99.398438-99.398438-.097656-5.398438-4.597656-9.898438-10.097656-9.898438zm0 0" fill="url(#d)"/></svg>