<svg height="400pt" viewBox="-23 0 400 400.00371" width="400pt" xmlns="http://www.w3.org/2000/svg" xmlns:xlink="http://www.w3.org/1999/xlink"><linearGradient id="a" gradientUnits="userSpaceOnUse" x1="177.091494" x2="177.091494" y1="414" y2="11.1601"><stop offset=".322" stop-color="#a163f5"/><stop offset=".466" stop-color="#b074ee"/><stop offset=".752" stop-color="#d8a1dd"/><stop offset=".898" stop-color="#efbad3"/></linearGradient><path d="m163.191406 18c-33.699218 0-67.402344 9.5-97.402344 27.5-16.398437 9.898438-31.398437 22-44.5 35.898438l1.5-71.199219c.101563-5.5-4.296874-10.097657-9.796874-10.199219h-.203126c-5.398437 0-9.898437 4.398438-10 9.800781l-2.097656 98.097657c-2 5.101562.5 10.902343 5.597656 13 2.300782.902343 5 .902343 7.300782 0l98.101562-2.097657c5.5-.101562 10-4.601562 9.898438-10.101562-.097656-5.5-4.597656-10-10.097656-9.898438h-.203126l-80.296874 1.699219c12.898437-14.898438 28.097656-27.601562 45-37.800781 26.898437-16.097657 57-24.699219 87.097656-24.699219 48.101562 0 92.402344 19.800781 124.800781 55.898438 29 32.101562 46.300781 75.101562 46.300781 115.101562s-17.300781 83-46.199218 115.101562c-32.402344 36-76.800782 55.898438-124.800782 55.898438-28.199218.199219-56-6.898438-80.601562-20.5-22.597656-12.699219-42.199219-30.300781-57.199219-51.5-3.199219-4.5-9.398437-5.601562-13.898437-2.5-4.5 3.199219-5.601563 9.398438-2.5 13.898438 0 .101562.097656.101562.097656.203124 16.699218 23.597657 38.5 43.296876 63.800781 57.398438 27.601563 15.300781 58.699219 23.199219 90.300781 23 53.800782 0 103.398438-22.199219 139.699219-62.5 32.101563-35.699219 51.300781-83.699219 51.300781-128.5s-19.199218-92.800781-51.300781-128.5c-36.300781-40.300781-85.898437-62.5-139.699219-62.5zm0 0" fill="url(#a)"/></svg>