<svg height="440pt" viewBox="-51 0 440 440.10405" width="440pt" xmlns="http://www.w3.org/2000/svg" xmlns:xlink="http://www.w3.org/1999/xlink"><linearGradient id="a"><stop offset=".322" stop-color="#a163f5"/><stop offset=".466" stop-color="#b074ee"/><stop offset=".752" stop-color="#d8a1dd"/><stop offset=".898" stop-color="#efbad3"/></linearGradient><linearGradient id="b" gradientTransform="matrix(1 0 0 -1 -87.047975 477.90405)" gradientUnits="userSpaceOnUse" x1="256" x2="256" xlink:href="#a" y1="28" y2="487.109"/><linearGradient id="c" gradientTransform="matrix(1 0 0 -1 -87.047975 477.90405)" gradientUnits="userSpaceOnUse" x1="221" x2="221" xlink:href="#a" y1="28" y2="487.109"/><linearGradient id="d" gradientTransform="matrix(1 0 0 -1 -87.047975 477.90405)" gradientUnits="userSpaceOnUse" x1="198.7" x2="198.7" xlink:href="#a" y1="28" y2="487.109"/><path d="m221.652344 3.105469-.101563-.101563c-1.886719-1.945312-4.488281-3.0312498-7.199219-2.99999975-.367187-.01562505-.738281.01562495-1.097656.10156275h-161.203125c-28.710937.011719-51.9843748 23.285156-51.9999998 52v336c.015625 28.710937 23.2890628 51.984375 51.9999998 52h233.800781c28.714844-.015625 51.988282-23.289063 52-52v-264.902344c-.019531-2.648437-1.058593-5.191406-2.898437-7.097656zm2.699218 30.898437 79.601563 79.398438h-47.601563c-17.652343-.050782-31.949218-14.347656-32-32zm93.5 353.898438c-.050781 17.652344-14.347656 31.949218-32 32h-233.800781c-17.652343-.050782-31.945312-14.347656-32-32v-336c.054688-17.648438 14.347657-31.945313 32-32h152.300781v61.5c.015626 28.714844 23.289063 51.988281 52 52h61.5zm0 0" fill="url(#b)"/><path d="m71.652344 278.503906h124.601562c5.519532 0 10-4.476562 10-10 0-5.523437-4.480468-10-10-10h-124.601562c-5.523438 0-10 4.476563-10 10 0 5.523438 4.476562 10 10 10zm0 0" fill="url(#c)"/><path d="m61.652344 344.203125c.015625 5.515625 4.484375 9.984375 10 10h194.601562c5.519532 0 10-4.476563 10-10s-4.480468-10-10-10h-194.601562c-5.515625.015625-9.984375 4.484375-10 10zm0 0" fill="url(#b)"/><g fill="url(#d)"><path d="m111.652344 143.304688c20.269531 0 36.699218-16.433594 36.699218-36.699219 0-20.269531-16.429687-36.703125-36.699218-36.703125-20.269532 0-36.699219 16.433594-36.699219 36.703125.011719 20.261719 16.433594 36.683593 36.699219 36.699219zm0-53.300782c9.222656 0 16.699218 7.476563 16.699218 16.699219s-7.476562 16.699219-16.699218 16.699219-16.699219-7.476563-16.699219-16.699219c.015625-9.214844 7.484375-16.683594 16.699219-16.699219zm0 0"/><path d="m71.652344 218.003906c5.515625-.015625 9.984375-4.484375 10-10v-8c0-16.570312 13.429687-30 30-30 16.566406 0 30 13.429688 30 30v8c0 5.523438 4.476562 10 10 10 5.523437 0 10-4.476562 10-10v-8c0-27.613281-22.386719-50-50-50-27.613282 0-50 22.386719-50 50v8c.015625 5.515625 4.484375 9.984375 10 10zm0 0"/></g></svg>