<svg height="400pt" viewBox="0 -9 400.00107 400" width="400pt" xmlns="http://www.w3.org/2000/svg" xmlns:xlink="http://www.w3.org/1999/xlink"><linearGradient id="a"><stop offset=".322" stop-color="#a163f5"/><stop offset=".466" stop-color="#b074ee"/><stop offset=".752" stop-color="#d8a1dd"/><stop offset=".898" stop-color="#efbad3"/></linearGradient><linearGradient id="b" gradientTransform="matrix(1 0 0 -1 -55.999734 447.403535)" gradientUnits="userSpaceOnUse" x1="250.713" x2="259.714" xlink:href="#a" y1="-118.772" y2="274.267"/><linearGradient id="c" gradientTransform="matrix(1 0 0 -1 -55.999734 447.403535)" gradientUnits="userSpaceOnUse" x1="245.026" x2="254.027" xlink:href="#a" y1="-118.642" y2="274.397"/><path d="m320.175781 205.910156c11.421875-20.542968 17.40625-43.660156 17.378907-67.164062 0-76.503906-62.242188-138.746094-138.746094-138.746094s-138.746094 62.242188-138.746094 138.746094c-.027344 23.519531 5.964844 46.652344 17.402344 67.207031l-75.980469 123.359375c-2.015625 3.273438-1.976563 7.410156.101563 10.644531 2.074218 3.234375 5.820312 4.996094 9.636718 4.523438l43.480469-5.351563 17.613281 37.203125c1.5625 3.292969 4.789063 5.476563 8.429688 5.699219.199218.011719.40625.019531.609375.019531 3.425781 0 6.617187-1.753906 8.449219-4.648437l67.285156-106.320313c27.167968 8.554688 56.3125 8.550781 83.480468-.011719l67.070313 106.15625c1.832031 2.898438 5.023437 4.660157 8.453125 4.660157.160156 0 .324219 0 .488281-.011719 3.601563-.179688 6.828125-2.28125 8.445313-5.5l18.351562-36.5 45.28125 6.125c3.84375.519531 7.644532-1.230469 9.746094-4.492188 2.101562-3.257812 2.128906-7.441406.066406-10.730468zm-237.554687 145.441406-12.933594-27.308593c-1.847656-3.894531-5.980469-6.167969-10.257812-5.644531l-30.007813 3.691406 60.230469-97.789063c13.015625 16.570313 29.613281 29.984375 48.546875 39.230469zm-2.558594-212.605468c0-65.582032 53.164062-118.746094 118.746094-118.746094 65.582031-.003906 118.746094 53.160156 118.746094 118.742188 0 65.582031-53.164063 118.746093-118.746094 118.75-65.550782-.074219-118.671875-53.195313-118.746094-118.746094zm258.925781 180.347656c-4.230469-.574219-8.359375 1.605469-10.277343 5.417969l-13.609376 27.078125-55.644531-88.078125c18.957031-9.261719 35.566407-22.703125 48.582031-39.308594l62.148438 99.117187zm0 0" fill="url(#b)"/><path d="m198.808594 51.558594c-48.152344 0-87.183594 39.035156-87.183594 87.1875s39.035156 87.1875 87.1875 87.1875 87.1875-39.035156 87.1875-87.1875c0-48.15625-39.035156-87.191406-87.191406-87.1875zm0 154.375c-37.105469-.003906-67.1875-30.085938-67.183594-67.191406 0-37.105469 30.082031-67.1875 67.1875-67.1875 37.109375.003906 67.1875 30.085937 67.1875 67.191406 0 37.105468-30.082031 67.1875-67.191406 67.1875zm0 0" fill="url(#c)"/></svg>