<svg height="400pt" viewBox="0 0 400 400" width="400pt" xmlns="http://www.w3.org/2000/svg" xmlns:xlink="http://www.w3.org/1999/xlink"><linearGradient id="a"><stop offset=".322" stop-color="#a163f5"/><stop offset=".466" stop-color="#b074ee"/><stop offset=".752" stop-color="#d8a1dd"/><stop offset=".898" stop-color="#efbad3"/></linearGradient><linearGradient id="b" gradientUnits="userSpaceOnUse" x1="199.95" x2="199.95" xlink:href="#a" y1="390.95" y2="7.9383"/><linearGradient id="c" gradientUnits="userSpaceOnUse" x1="78.6375" x2="78.6375" xlink:href="#a" y1="390.95" y2="7.9383"/><path d="m326.949219 10.351562c-13.800781-13.800781-36.199219-13.800781-50 0l-266.597657 266.5c-13.800781 13.796876-13.800781 36.199219 0 50l62.699219 62.699219c13.800781 13.800781 36.199219 13.800781 50 0l266.597657-266.601562c13.800781-13.800781 13.800781-36.199219 0-50zm48.5 98.5-266.597657 266.597657c-6 6-15.703124 6-21.800781 0l-62.699219-62.699219c-6-6-6-15.699219 0-21.800781l56.097657-56.097657 38.101562 38.097657c3.898438 3.902343 10.199219 3.902343 14.097657 0 3.902343-3.898438 3.902343-10.199219 0-14.097657l-38.097657-38.101562 46.5-46.5 27.199219 27.199219c3.898438 3.902343 10.199219 3.902343 14.101562 0 3.898438-3.898438 3.898438-10.199219 0-14.097657l-27.203124-27.203124 46.5-46.5 38.101562 38.101562c3.898438 3.898438 10.199219 3.898438 14.101562 0 3.898438-3.898438 3.898438-10.199219 0-14.101562l-38.101562-38.097657 46.5-46.5 27.199219 27.199219c3.800781 4 10.199219 4.101562 14.101562.300781 4-3.800781 4.097657-10.199219.300781-14.101562-.101562-.097657-.203124-.199219-.203124-.199219l-.097657-.101562-27.199219-27.199219 14.199219-14.199219c6-6 15.699219-6 21.800781 0l62.699219 62.699219c6.398438 5.699219 6.398438 15.402343.398438 21.402343zm0 0" fill="url(#b)"/><path d="m78.25 306.75c-3.898438-3.898438-10.300781-3.898438-14.101562.101562-3.898438 3.898438-3.898438 10.199219 0 14.097657l14.800781 14.800781c3.902343 3.898438 10.300781 3.898438 14.101562-.101562 3.898438-3.898438 3.898438-10.199219 0-14.097657zm0 0" fill="url(#c)"/></svg>