<svg height="400pt" viewBox="-69 0 400 400" width="400pt" xmlns="http://www.w3.org/2000/svg" xmlns:xlink="http://www.w3.org/1999/xlink"><linearGradient id="a" gradientUnits="userSpaceOnUse" x1="131.1" x2="131.1" y1="393" y2="-.1272"><stop offset=".322" stop-color="#a163f5"/><stop offset=".466" stop-color="#b074ee"/><stop offset=".752" stop-color="#d8a1dd"/><stop offset=".898" stop-color="#efbad3"/></linearGradient><path d="m239.101562 105.300781v-28.300781h4.199219c10.300781 0 18.699219-8.199219 18.800781-18.5v-40c-.203124-10.300781-8.5-18.5-18.800781-18.5h-224.402343c-10.296876 0-18.699219 8.199219-18.796876 18.5v40c.199219 10.300781 8.5 18.5 18.796876 18.5h4.203124v28.300781c0 13.398438 6.097657 26.097657 16.597657 34.398438l75.199219 60.199219-73.796876 57.203124c-10.800781 8.296876-17.101562 21.199219-17.101562 34.796876v31.101562h-5.199219c-10.300781 0-18.699219 8.199219-18.800781 18.5v40c.199219 10.300781 8.5 18.5 18.800781 18.5h224.398438c10.300781 0 18.699219-8.199219 18.800781-18.5v-40c-.199219-10.300781-8.5-18.5-18.800781-18.5h-3.097657v-30.898438c-.101562-13.800781-6.5-26.703124-17.5-35.101562l-75.300781-57.199219 75.097657-60.101562c10.601562-8.300781 16.703124-21 16.703124-34.398438zm-219-85.300781h222v37h-222zm222 360h-222v-37h12.296876c.601562 0 1.203124.199219 1.800781.199219.601562 0 1.199219-.199219 1.800781-.199219h192.300781c.597657 0 1.199219.199219 1.800781.199219.597657 0 1.199219-.199219 1.796876-.199219h10.203124zm-22-87.898438v30.898438h-176v-31.101562c0-7.398438 3.398438-14.5 9.296876-19l77.703124-60.296876 79.398438 60.296876c6 4.601562 9.601562 11.703124 9.601562 19.203124zm-10.101562-168-78.898438 63.097657-78.902343-63.097657c-5.699219-4.601562-9.097657-11.5-9.097657-18.800781v-28.300781h176v28.300781c0 7.300781-3.300781 14.300781-9.101562 18.800781zm0 0" fill="url(#a)"/></svg>