<svg height="400pt" viewBox="0 -15 400.00001 400" width="400pt" xmlns="http://www.w3.org/2000/svg" xmlns:xlink="http://www.w3.org/1999/xlink"><linearGradient id="a" gradientTransform="matrix(1 0 0 -1 -55.999997 441.550005)" gradientUnits="userSpaceOnUse" x1="247.131" x2="256.132" y1="-92.95" y2="300.089"><stop offset=".322" stop-color="#a163f5"/><stop offset=".466" stop-color="#b074ee"/><stop offset=".752" stop-color="#d8a1dd"/><stop offset=".898" stop-color="#efbad3"/></linearGradient><path d="m399.84375 223.660156v-189.433594c-.019531-18.894531-15.332031-34.2070308-34.226562-34.226562h-331.234376c-18.894531.0195312-34.207031 15.332031-34.226562 34.226562v189.433594c-.2070312 1.128906-.2070312 2.289063 0 3.417969v33.160156c.019531 18.890625 15.332031 34.203125 34.226562 34.222657h114.882813v26.574218c.011719 7.894532-3.542969 15.371094-9.675781 20.335938l-11.035156 8.972656h-32.277344c-5.523438 0-10 4.476562-10 10s4.476562 10 10 10h211.773437c5.523438 0 10-4.476562 10-10s-4.476562-10-10-10h-36.605469l-11.035156-8.972656c-6.132812-4.964844-9.691406-12.441406-9.675781-20.335938v-26.574218h114.882813c18.894531-.019532 34.207031-15.332032 34.226562-34.222657v-33.160156c.207031-1.128906.207031-2.289063 0-3.417969zm-365.460938-203.660156h331.234376c7.855468.007812 14.21875 6.371094 14.226562 14.226562v181.140626h-359.6875v-181.140626c.007812-7.855468 6.371094-14.21875 14.226562-14.226562zm206.847657 330.34375h-82.460938c6.800781-8.253906 10.507813-18.617188 10.496094-29.308594v-26.574218h61.46875v26.574218c-.011719 10.691406 3.695313 21.054688 10.496094 29.308594zm124.386719-75.882812h-331.234376c-7.855468-.007813-14.21875-6.371094-14.226562-14.222657v-24.871093h359.6875v24.871093c-.007812 7.851563-6.371094 14.214844-14.226562 14.222657zm0 0" fill="url(#a)"/></svg>