<svg height="390pt" viewBox="0 0 390.02486 390" width="390pt" xmlns="http://www.w3.org/2000/svg" xmlns:xlink="http://www.w3.org/1999/xlink"><linearGradient id="a" gradientTransform="matrix(1 0 0 -1 -61 452.912525)" gradientUnits="userSpaceOnUse" x1="260.179" x2="246.448" y1="23.824" y2="518.136"><stop offset=".322" stop-color="#a163f5"/><stop offset=".466" stop-color="#b074ee"/><stop offset=".752" stop-color="#d8a1dd"/><stop offset=".898" stop-color="#efbad3"/></linearGradient><path d="m307.5 293.3125c28.855469-32.214844 44.808594-73.949219 44.800781-117.199219 0-97.101562-79-176.1015622-176.101562-176.1015622-97.199219-.0976563-176.199219 78.9023432-176.199219 176.0000002 0 97.101562 79 176.101562 176.101562 176.101562 43.261719.074219 85.015626-15.886719 117.199219-44.800781l79.597657 79.601562c1.878906 1.886719 4.441406 2.933594 7.101562 2.898438 2.652344-.011719 5.199219-1.050781 7.101562-2.898438 1.871094-1.871093 2.921876-4.40625 2.921876-7.050781s-1.050782-5.183593-2.921876-7.050781zm-287.5-117.300781c0-86.097657 70-156.097657 156.101562-156.097657 86.097657 0 156.097657 70 156.097657 156.097657 0 86.101562-70 156.101562-156.097657 156.101562-86.101562.097657-156.101562-70-156.101562-156.101562zm0 0" fill="url(#a)"/></svg>