<svg height="431pt" viewBox="0 -31 431.8 431" width="431pt" xmlns="http://www.w3.org/2000/svg" xmlns:xlink="http://www.w3.org/1999/xlink"><linearGradient id="a"><stop offset=".322" stop-color="#a163f5"/><stop offset=".466" stop-color="#b074ee"/><stop offset=".752" stop-color="#d8a1dd"/><stop offset=".898" stop-color="#efbad3"/></linearGradient><linearGradient id="b" gradientUnits="userSpaceOnUse" x1="275.3635" x2="275.3635" xlink:href="#a" y1="397.4" y2="3.2731"/><linearGradient id="c" gradientUnits="userSpaceOnUse" x1="237.2446" x2="237.2446" xlink:href="#a" y1="397.4" y2="3.2731"/><linearGradient id="d" gradientUnits="userSpaceOnUse" x1="49.5" x2="49.5" xlink:href="#a" y1="397.4" y2="3.2731"/><path d="m136.199219 51.300781c-3.898438-4-10.199219-4-14.199219-.101562-1.898438 1.902343-3 4.402343-3 7.101562v300c0 5.597657 4.5 10.097657 10.101562 10.097657h292.699219c5.597657 0 10-4.597657 10-10.199219 0-2.597657-1-5.097657-2.800781-6.898438zm2.800781 297.097657v-37h19.800781c5.5 0 10-4.5 10-10s-4.5-10-10-10h-19.800781v-29h30.5c5.5 0 10-4.5 10-10s-4.5-10-10-10h-30.5v-29h19.800781c5.5 0 10-4.5 10-10s-4.5-10-10-10h-19.800781v-29h30.5c5.5 0 10-4.5 10-10s-4.5-10-10-10h-30.5v-61.597657l259 265.597657zm0 0" fill="url(#b)"/><path d="m192.601562 312.398438h88.898438c5.398438.101562 9.898438-4.097657 10-9.5.101562-2.597657-.898438-5.097657-2.699219-6.898438l-88.800781-96.5c-2.699219-3-7-4-10.800781-2.5s-6.199219 5.300781-6.199219 9.300781v96.5c-.101562 5.097657 3.898438 9.398438 9 9.5.199219.097657.398438.097657.601562.097657zm10.398438-80.398438 55.699219 60.398438h-55.699219zm0 0" fill="url(#c)"/><path d="m99 10.398438c0-5.5-4.5-10-10-10h-79c-5.5 0-10 4.5-10 10v348c0 5.5 4.5 10 10 10h79c5.5 0 10-4.5 10-10zm-79 338v-95h34.199219c5.5 0 10-4.5 10-10s-4.5-10-10-10h-34.199219v-66h18.699219c5.5 0 10-4.5 10-10s-4.5-10-10-10h-18.699219v-66h34.199219c5.5 0 10-4.5 10-10s-4.5-10-10-10h-34.199219v-41h60v291.703124c-1.898438-3.601562-5.5-5.800781-9.5-5.703124h-21c-5.5 0-10 4.5-10 10s4.5 10 10 10h21c4.199219 0 7.5-3 9.5-6.597657v28.597657zm0 0" fill="url(#d)"/></svg>