<svg height="400pt" viewBox="-5 0 400 400.01584" width="400pt" xmlns="http://www.w3.org/2000/svg" xmlns:xlink="http://www.w3.org/1999/xlink"><linearGradient id="a"><stop offset=".322" stop-color="#a163f5"/><stop offset=".466" stop-color="#b074ee"/><stop offset=".752" stop-color="#d8a1dd"/><stop offset=".898" stop-color="#efbad3"/></linearGradient><linearGradient id="b" gradientUnits="userSpaceOnUse" x1="195.185826" x2="195.185826" xlink:href="#a" y1="407.015835" y2="34.175435"/><linearGradient id="c" gradientUnits="userSpaceOnUse" x1="146.359026" x2="146.359026" xlink:href="#a" y1="407.015835" y2="34.175435"/><path d="m16.816406 3.015625c-2.800781-2.898437-7-3.800781-10.800781-2.300781-3.699219 1.601562-6.1015625 5.300781-6 9.300781v380c-.199219 5.398437 4.097656 9.800781 9.398437 10h.199219 370.703125c5.5 0 10-4.5 10-10 0-2.601563-1-5.101563-2.800781-7zm3.199219 377v-51h14.597656c5.5 0 10-4.5 10-10s-4.5-10-10-10h-14.597656v-43h28.199219c5.5 0 10-4.5 10-10s-4.5-10-10-10h-28.199219v-42h14.597656c5.5 0 10-4.5 10-10s-4.5-10-10-10h-14.597656v-42h28.199219c5.5 0 10-4.5 10-10s-4.5-10-10-10h-28.199219v-87.398437l336.597656 345.398437zm0 0" fill="url(#b)"/><path d="m90.113281 330.015625h112.601563c5.601562-.101563 10.101562-4.601563 10-10.199219 0-2.5-1-4.902344-2.601563-6.699218l-112.597656-122.300782c-3.800781-4.101562-10.101563-4.300781-14.199219-.601562-2 1.902344-3.203125 4.5-3.203125 7.300781v122.199219c-.097656 5.699218 4.402344 10.199218 10 10.300781zm9.902344-106.800781 79.898437 86.800781h-79.898437zm0 0" fill="url(#c)"/></svg>