<svg height="400pt" viewBox="-3 0 399 400" width="400pt" xmlns="http://www.w3.org/2000/svg" xmlns:xlink="http://www.w3.org/1999/xlink"><linearGradient id="a"><stop offset=".322" stop-color="#a163f5"/><stop offset=".466" stop-color="#b074ee"/><stop offset=".752" stop-color="#d8a1dd"/><stop offset=".898" stop-color="#efbad3"/></linearGradient><linearGradient id="b" gradientTransform="matrix(1 0 0 -1 -59.307803 456.378)" gradientUnits="userSpaceOnUse" x1="250.828" x2="259.828" xlink:href="#a" y1="48.538" y2="441.577"/><linearGradient id="c" gradientTransform="matrix(1 0 0 -1 -59.307803 456.378)" gradientUnits="userSpaceOnUse" x1="251.243" x2="260.245" xlink:href="#a" y1="48.528" y2="441.568"/><linearGradient id="d" gradientTransform="matrix(1 0 0 -1 -59.307803 456.378)" gradientUnits="userSpaceOnUse" x1="251.24" x2="260.241" xlink:href="#a" y1="48.528" y2="441.568"/><path d="m386.769531 153.859375c6.179688-4.65625 7.925781-13.1875 4.066407-19.894531l-41.023438-69c-5.109375-8.507813-13.398438-8.917969-19.078125-5.699219l-43.507813 20.019531c-9.6875-7.058594-20.089843-13.078125-31.035156-17.964844l-4.34375-47.828124c-.042968-.464844-.117187-.929688-.226562-1.386719-1.679688-7.128907-7.597656-12.105469-14.398438-12.105469h-80.117187c-7.699219 0-14.238281 5.917969-14.597657 13.058594l-4.367187 48.257812c-12.425781 5.527344-22.671875 11.421875-31.148437 17.925782l-43.625-20.0625c-.152344-.066407-.308594-.136719-.464844-.203126-6.820313-2.726562-15.117188.007813-18.394532 5.972657l-40.085937 69c-3.921875 6.75-2.121094 15.371093 4.175781 19.988281l.207032.148438 39.199218 27.867187c-1.953125 11.925781-1.957031 24.085937-.011718 36.011719l-41.0625 27.957031c-.132813.089844-.265626.183594-.394532.28125-6.113281 4.65625-7.828125 13.121094-4.011718 19.789063l40.070312 68.953124c.023438.042969.046875.085938.074219.125 1.808593 3.171876 4.675781 5.601563 8.097656 6.867188 3.652344 1.230469 7.65625.789062 10.953125-1.207031l43.523438-20.019531c9.683593 7.054687 20.082031 13.078124 31.023437 17.96875l4.355469 47.832031c.042968.46875.117187.933593.222656 1.386719 1.679688 7.125 7.601562 12.101562 14.402344 12.101562h80.117187c7.699219 0 14.230469-5.914062 14.601563-13.054688l4.375-48.265624c12.433594-5.53125 22.675781-11.425782 31.140625-17.921876l43.617187 20.070313c.167969.078125.335938.148437.507813.21875 6.789062 2.679687 15.070312-.054687 18.339843-5.96875l40.101563-69.019531c3.921875-6.726563 2.152344-15.328125-4.113281-19.953125l-36.691406-27.945313c.921874-6.007812 1.414062-12.078125 1.476562-18.160156-.058594-6.042969-.546875-12.070312-1.460938-18.042969l39.292969-27.9375c.074219-.054687.140625-.105469.21875-.160156zm-56.0625 15.328125c-3.046875 2.167969-4.628906 5.855469-4.101562 9.558594l.398437 2.84375c1.023438 6.085937 1.597656 12.238281 1.71875 18.410156-.117187 6.167969-.6875 12.316406-1.710937 18.398438l-.394531 2.742187c-.515626 3.589844.953124 7.179687 3.839843 9.378906l38.199219 29.097657-35.484375 61.078124-44.957031-20.6875c-3.472656-1.601562-7.558594-1.082031-10.523438 1.339844l-2.269531 1.859375c-8.101563 6.628907-18.53125 12.636719-31.886719 18.363281l-2.570312 1.101563c-3.375 1.445313-5.6875 4.628906-6.019532 8.289063l-4.445312 49.039062h-70.398438l-4.464843-49.042969c-.332031-3.65625-2.640625-6.839843-6.019531-8.285156l-2.566407-1.101563c-11.511719-4.902343-22.378906-11.199218-32.359375-18.746093l-2.238281-1.675781c-2.9375-2.203126-6.84375-2.621094-10.179687-1.085938l-44.832032 20.625-35.375-60.875 39.90625-27.167969c.078125-.054687.15625-.109375.234375-.167969l2.40625-1.742187c3.007813-2.175781 4.5625-5.835937 4.039063-9.511719l-.414063-2.90625c-1.015625-6.054687-1.585937-12.175781-1.707031-18.316406.125-6.171875.699219-12.328125 1.722656-18.417969l.398438-2.835937c.527344-3.703125-1.054688-7.390625-4.105469-9.558594l-40.667969-28.917969 35.414063-60.957031 44.960937 20.683594c3.472656 1.597656 7.554688 1.074218 10.511719-1.34375l2.273437-1.859375c8.113282-6.636719 18.542969-12.644531 31.878907-18.359375l2.578125-1.101563c3.378906-1.445312 5.691406-4.628906 6.023437-8.292969l4.4375-49.035156h70.398438l4.457031 49.039063c.332031 3.660156 2.644531 6.84375 6.023438 8.289062l2.574218 1.101563c11.511719 4.902344 22.382813 11.195312 32.363282 18.746094l2.242187 1.679687c2.9375 2.207031 6.847656 2.625 10.183594 1.089844l44.871093-20.644531 36.269532 61zm0 0" fill="url(#b)"/><path d="m196.691406 91.867188c-60.632812 0-108.128906 47.5-108.128906 108.132812s47.496094 108.136719 108.128906 108.136719c60.632813 0 108.136719-47.5 108.136719-108.136719s-47.496094-108.132812-108.136719-108.132812zm0 196.269531c-49.417968 0-88.128906-38.714844-88.128906-88.136719s38.710938-88.132812 88.128906-88.132812c49.417969 0 88.136719 38.710937 88.136719 88.132812 0 49.417969-38.710937 88.136719-88.136719 88.136719zm0 0" fill="url(#c)"/><path d="m196.691406 145.804688c-29.933594 0-54.199218 24.265624-54.199218 54.199218s24.265624 54.199219 54.199218 54.199219 54.199219-24.265625 54.199219-54.199219c.324219-29.613281-23.417969-53.878906-53.03125-54.199218-.386719-.003907-.777344-.003907-1.167969 0zm0 88.394531c-18.886718 0-34.199218-15.3125-34.199218-34.203125 0-18.886719 15.3125-34.199219 34.199218-34.199219 18.890625 0 34.199219 15.3125 34.199219 34.199219.207031 18.6875-14.773437 33.996094-33.457031 34.203125-.25 0-.496094 0-.742188 0zm0 0" fill="url(#d)"/></svg>