<svg height="400pt" viewBox="-35 0 400 400.01105" width="400pt" xmlns="http://www.w3.org/2000/svg" xmlns:xlink="http://www.w3.org/1999/xlink"><linearGradient id="a" gradientTransform="matrix(1 0 0 -1 -91.20344 456.387482)" gradientUnits="userSpaceOnUse" x1="250.712" x2="259.713" y1="74.281" y2="467.32"><stop offset=".322" stop-color="#a163f5"/><stop offset=".466" stop-color="#b074ee"/><stop offset=".752" stop-color="#d8a1dd"/><stop offset=".898" stop-color="#efbad3"/></linearGradient><path d="m313.667969 91.230469-129.347657-85.359375c-11.839843-7.828125-27.207031-7.828125-39.046874 0l-129.347657 85.359375c-9.953125 6.546875-15.9374998 17.667969-15.92187475 29.582031v60.554688c-.01953125 90.601562 53.73046875 172.578124 136.82421875 208.6875l.132813.058593 21.835937 9.121094c1.582031.671875 3.316406.914063 5.023437.699219.324219.035156.648438.050781.980469.050781 2.761719 0 5.402344-1.144531 7.285157-3.164063l17.820312-7.726562c84.617188-35.421875 139.695312-118.183594 139.691406-209.917969v-58.363281c.015625-11.914062-5.976562-23.035156-15.929687-29.582031zm-293.664063 90.136719v-60.554688c-.007812-5.191406 2.601563-10.039062 6.9375-12.890625l127.855469-84.375v352.339844l-10.058594-4.199219c-75.757812-32.953125-124.75-107.707031-124.734375-190.320312zm289.582032-2.1875c0 83.691406-50.257813 159.195312-127.464844 191.488281-.039063.015625-.078125.035156-.121094.050781l-7.199219 3.125v-350.296875l127.855469 84.375c4.335938 2.855469 6.945312 7.699219 6.9375 12.890625zm0 0" fill="url(#a)"/></svg>