<svg height="439pt" viewBox="-58 0 439 439.9" width="439pt" xmlns="http://www.w3.org/2000/svg" xmlns:xlink="http://www.w3.org/1999/xlink"><linearGradient id="a"><stop offset=".322" stop-color="#a163f5"/><stop offset=".466" stop-color="#b074ee"/><stop offset=".752" stop-color="#d8a1dd"/><stop offset=".898" stop-color="#efbad3"/></linearGradient><linearGradient id="b" gradientTransform="matrix(1 0 0 -1 -94.55 477.9)" gradientUnits="userSpaceOnUse" x1="256.1" x2="256.1" xlink:href="#a" y1="25" y2="480.633"/><linearGradient id="c" gradientTransform="matrix(1 0 0 -1 -94.55 477.9)" gradientUnits="userSpaceOnUse" x1="256" x2="256" xlink:href="#a" y1="25" y2="480.633"/><linearGradient id="d" gradientTransform="matrix(1 0 0 -1 -94.55 477.9)" gradientUnits="userSpaceOnUse" x1="257.126" x2="257.126" xlink:href="#a" y1="25" y2="480.633"/><path d="m312.550781 112.101562h-61.699219v-25.300781c0-47.9375-38.863281-86.800781-86.800781-86.800781s-86.800781 38.863281-86.800781 86.800781v25.300781h-66.800781c-5.515625.015626-9.984375 4.480469-10 10v267.796876c.011719 27.613281 22.390625 49.992187 50 50h222.199219c27.613281-.007813 49.992187-22.386719 50-50v-267.796876c-.0625-5.539062-4.5625-9.992187-10.097657-10zm-215.402343-25.402343c0-36.890625 29.910156-66.800781 66.800781-66.800781 36.894531 0 66.800781 29.910156 66.800781 66.800781v25.300781h-133.601562zm205.402343 303.199219c-.050781 16.550781-13.453125 29.953124-30 30h-222.199219c-16.550781-.046876-29.953124-13.449219-30-30v-257.796876h56.796876v40.699219c0 5.523438 4.480468 10 10 10 5.523437 0 10-4.476562 10-10v-40.699219h133.703124v40.699219c0 5.523438 4.476563 10 10 10 5.519532 0 10-4.476562 10-10v-40.699219h51.699219zm0 0" fill="url(#b)"/><path d="m161.449219 176c-55.226563 0-100 44.773438-100 100s44.773437 100 100 100c55.230469 0 100-44.773438 100-100-.089844-55.191406-44.808594-99.910156-100-100zm0 180c-44.183594 0-80-35.816406-80-80s35.816406-80 80-80c44.183593 0 80 35.816406 80 80-.058594 44.160156-35.839844 79.941406-80 80zm0 0" fill="url(#c)"/><path d="m202.449219 242.898438-52.699219 50.402343-27-27c-3.894531-3.894531-10.207031-3.894531-14.101562 0-3.890626 3.894531-3.890626 10.207031 0 14.097657l33.902343 33.902343c1.875 1.886719 4.4375 2.933594 7.097657 2.898438 2.582031.023437 5.066406-.984375 6.902343-2.800781l59.800781-57.097657c1.910157-1.828125 3.015626-4.34375 3.074219-6.988281.054688-2.644531-.941406-5.203125-2.777343-7.113281-3.867188-3.933594-10.167969-4.066407-14.199219-.300781zm0 0" fill="url(#d)"/></svg>