<svg height="453pt" viewBox="0 -26 453.49859 453" width="453pt" xmlns="http://www.w3.org/2000/svg" xmlns:xlink="http://www.w3.org/1999/xlink"><linearGradient id="a"><stop offset=".322" stop-color="#a163f5"/><stop offset=".466" stop-color="#b074ee"/><stop offset=".752" stop-color="#d8a1dd"/><stop offset=".898" stop-color="#efbad3"/></linearGradient><linearGradient id="b" gradientTransform="matrix(1 0 0 -1 -29.253 456.627369)" gradientUnits="userSpaceOnUse" x1="352.361" x2="361.362" xlink:href="#a" y1="59.083" y2="452.122"/><linearGradient id="c" gradientTransform="matrix(1 0 0 -1 -29.253 456.627369)" gradientUnits="userSpaceOnUse" x1="247.913" x2="256.914" xlink:href="#a" y1="61.475" y2="454.514"/><linearGradient id="d" gradientTransform="matrix(1 0 0 -1 -29.253 456.627369)" gradientUnits="userSpaceOnUse" x1="217.17" x2="226.171" xlink:href="#a" y1="62.179" y2="455.218"/><path d="m324.070312 310.917969c-24.667968-.003907-44.667968 19.996093-44.667968 44.664062s19.996094 44.667969 44.664062 44.667969c24.671875 0 44.667969-19.996094 44.667969-44.664062-.023437-24.660157-20.007813-44.640626-44.664063-44.667969zm0 69.332031c-13.625 0-24.667968-11.042969-24.667968-24.667969 0-13.621093 11.042968-24.667969 24.664062-24.667969 13.625 0 24.667969 11.042969 24.667969 24.667969-.015625 13.613281-11.046875 24.648438-24.664063 24.667969zm0 0" fill="url(#b)"/><path d="m443.492188 63.503906h-354.84375l-6.242188-25.519531c-5.378906-22.175781-25.25-37.773437-48.066406-37.734375h-24.339844c-5.523438 0-10 4.476562-10 10s4.476562 10 10 10h24.339844c13.597656-.027344 25.4375 9.269531 28.644531 22.484375l48.554687 198.601563c5.382813 22.175781 25.257813 37.777343 48.074219 37.734374h207.691407c23.113281.089844 43.179687-15.90625 48.242187-38.457031l37.699219-164.886719c.679687-2.964843-.03125-6.082031-1.929688-8.460937-1.894531-2.378906-4.773437-3.765625-7.816406-3.765625zm-47.4375 172.652344c-3.019532 13.4375-14.976563 22.972656-28.75 22.917969h-207.691407c-13.597656.023437-25.4375-9.273438-28.644531-22.488281l-37.429688-153.082032h337.40625zm0 0" fill="url(#c)"/><path d="m188.808594 310.917969c-24.667969-.003907-44.667969 19.996093-44.667969 44.664062s19.996094 44.667969 44.664063 44.667969c24.671874 0 44.667968-19.996094 44.667968-44.664062-.023437-24.660157-20.007812-44.640626-44.664062-44.667969zm0 69.332031c-13.625 0-24.667969-11.042969-24.667969-24.667969 0-13.621093 11.042969-24.667969 24.664063-24.667969 13.625 0 24.667968 11.042969 24.667968 24.667969-.015625 13.613281-11.050781 24.648438-24.664062 24.667969zm0 0" fill="url(#d)"/></svg>