<svg height="419pt" viewBox="0 -11 419.99955 419" width="419pt" xmlns="http://www.w3.org/2000/svg" xmlns:xlink="http://www.w3.org/1999/xlink"><linearGradient id="a"><stop offset=".322" stop-color="#a163f5"/><stop offset=".466" stop-color="#b074ee"/><stop offset=".752" stop-color="#d8a1dd"/><stop offset=".898" stop-color="#efbad3"/></linearGradient><linearGradient id="b" gradientTransform="matrix(1 0 0 -1 -46 457.300118)" gradientUnits="userSpaceOnUse" x1="212.009" x2="212.009" xlink:href="#a" y1="14" y2="444.019"/><linearGradient id="c" gradientTransform="matrix(1 0 0 -1 -46 457.300118)" gradientUnits="userSpaceOnUse" x1="358.167" x2="358.167" xlink:href="#a" y1="14" y2="444.019"/><linearGradient id="d" gradientTransform="matrix(1 0 0 -1 -46 457.300118)" gradientUnits="userSpaceOnUse" x1="256.003" x2="256.003" xlink:href="#a" y1="14" y2="444.019"/><path d="m166.011719 313.160156c-23.457031 0-42.472657 19.011719-42.472657 42.46875-.003906 23.457032 19.011719 42.472656 42.46875 42.472656 23.457032 0 42.472657-19.011718 42.472657-42.46875-.027344-23.445312-19.023438-42.445312-42.46875-42.472656zm0 64.941406c-12.410157 0-22.472657-10.058593-22.472657-22.46875-.003906-12.410156 10.058594-22.472656 22.46875-22.472656 12.410157-.003906 22.472657 10.058594 22.472657 22.46875-.015625 12.402344-10.066407 22.453125-22.46875 22.46875zm0 0" fill="url(#b)"/><path d="m312.167969 313.160156c-23.457031 0-42.472657 19.015625-42.472657 42.472656 0 23.453126 19.015626 42.46875 42.472657 42.46875s42.46875-19.015624 42.46875-42.46875c-.023438-23.445312-19.023438-42.445312-42.46875-42.472656zm0 64.941406c-12.410157 0-22.472657-10.0625-22.472657-22.472656s10.0625-22.46875 22.472657-22.46875c12.410156 0 22.46875 10.058594 22.46875 22.46875s-10.058594 22.46875-22.46875 22.472656zm0 0" fill="url(#c)"/><path d="m418.144531 65.3125c-1.875-2.632812-4.910156-4.199219-8.144531-4.199219h-308.824219l-3.519531-22.214843c-3.417969-22.160157-22.535156-38.484376-44.957031-38.398438h-42.699219c-5.523438 0-10 4.476562-10 10s4.476562 10 10 10h42.699219c12.570312-.046875 23.285156 9.105469 25.199219 21.53125l33.804687 213.515625c3.421875 22.160156 22.539063 38.488281 44.964844 38.398437h208.933593c5.519532 0 10-4.476562 10-10 0-5.523437-4.480468-10-10-10h-208.929687c-12.574219.050782-23.292969-9.105468-25.207031-21.53125l-5.203125-32.832031h210.472656c19.394531-.011719 36.65625-12.296875 43.015625-30.621093l39.699219-114.578126c1.058593-3.054687.570312-6.433593-1.304688-9.070312zm-22.191406 15.800781-10.363281 29.914063h-276.511719l-4.738281-29.914063zm-283.710937 49.914063h266.414062l-5.992188 17.296875h-257.683593zm224.492187 68.558594h-213.632813l-4.953124-31.261719h247.585937l-4.882813 14.09375c-3.5625 10.273437-13.242187 17.160156-24.117187 17.167969zm0 0" fill="url(#d)"/></svg>