<svg height="410pt" viewBox="-79 0 410 410" width="410pt" xmlns="http://www.w3.org/2000/svg" xmlns:xlink="http://www.w3.org/1999/xlink"><linearGradient id="a"><stop offset=".322" stop-color="#a163f5"/><stop offset=".466" stop-color="#b074ee"/><stop offset=".752" stop-color="#d8a1dd"/><stop offset=".898" stop-color="#efbad3"/></linearGradient><linearGradient id="b" gradientTransform="matrix(1 0 0 -1 -129.753 463)" gradientUnits="userSpaceOnUse" x1="255.998" x2="255.998" xlink:href="#a" y1="14" y2="444.019"/><linearGradient id="c" gradientTransform="matrix(1 0 0 -1 -129.753 463)" gradientUnits="userSpaceOnUse" x1="275.374" x2="275.374" xlink:href="#a" y1="14" y2="444.019"/><path d="m223.148438 75.621094-10.851563-41.28125c-5.320313-20.226563-23.605469-34.3320315-44.523437-34.339844h-83.054688c-20.917969.0078125-39.199219 14.113281-44.523438 34.339844l-10.847656 41.28125c-17.855468 8.117187-29.3242185 25.90625-29.347656 45.519531v167.71875c.0195312 19.488281 11.347656 37.191406 29.035156 45.375l11.09375 41.59375c5.390625 20.140625 23.632813 34.15625 44.480469 34.171875h83.273437c20.847657-.019531 39.089844-14.03125 44.480469-34.171875l11.089844-41.59375c17.6875-8.183594 29.015625-25.886719 29.035156-45.375v-167.71875c-.019531-19.609375-11.488281-37.402344-29.339843-45.519531zm-163.601563-36.199219c3.007813-11.4375 13.34375-19.410156 25.171875-19.421875h83.054688c11.832031.003906 22.171874 7.980469 25.179687 19.421875l8.332031 31.71875h-150.078125zm133.5 331.253906c-3.050781 11.394531-13.371094 19.316407-25.164063 19.324219h-83.273437c-11.789063-.011719-22.105469-7.9375-25.152344-19.324219l-8.484375-31.816406h150.550782zm39.449219-81.8125c-.015625 16.558594-13.4375 29.980469-30 30h-152.492188c-16.558594-.019531-29.980468-13.441406-30-30v-167.722656c.019532-16.5625 13.441406-29.980469 30-30h152.484375c16.5625.019531 29.980469 13.4375 30 30zm0 0" fill="url(#b)"/><path d="m169.839844 198.042969h-38.4375v-54.207031c0-5.523438-4.476563-10-10-10-5.519532 0-10 4.476562-10 10v64.199218c0 5.523438 4.480468 10 10 10h48.4375c5.519531 0 10-4.476562 10-10 0-5.519531-4.480469-10-10-10zm0 0" fill="url(#c)"/></svg>