<svg height="419pt" viewBox="0 -10 419.55413 419" width="419pt" xmlns="http://www.w3.org/2000/svg" xmlns:xlink="http://www.w3.org/1999/xlink"><linearGradient id="a" gradientTransform="matrix(1 0 0 -1 -46.222933 458.060677)" gradientUnits="userSpaceOnUse" x1="253.808" x2="257.635" y1="8.967" y2="521.787"><stop offset=".322" stop-color="#a163f5"/><stop offset=".466" stop-color="#b074ee"/><stop offset=".752" stop-color="#d8a1dd"/><stop offset=".898" stop-color="#efbad3"/></linearGradient><path d="m410.992188 145.527344-132.839844-19.300782-59.410156-120.375c-1.683594-3.414062-5.160157-5.574218-8.964844-5.574218-3.804688 0-7.28125 2.160156-8.96875 5.574218l-59.40625 120.375-132.839844 19.296876c-3.769531.550781-6.898438 3.1875-8.074219 6.808593-1.175781 3.617188-.195312 7.589844 2.53125 10.25l96.125 93.699219-22.695312 132.300781c-.640625 3.75.898437 7.542969 3.980469 9.78125 3.078124 2.234375 7.164062 2.53125 10.53125.757813l118.816406-62.460938 118.816406 62.464844c3.367188 1.773438 7.453125 1.476562 10.53125-.761719 3.078125-2.234375 4.621094-6.027343 3.976562-9.78125l-22.691406-132.296875 96.125-93.703125c2.726563-2.65625 3.707032-6.628906 2.53125-10.25-1.179687-3.617187-4.308594-6.257812-8.074218-6.804687zm-108.304688 100.101562c-2.359375 2.300782-3.433594 5.609375-2.878906 8.851563l20.15625 117.515625-105.535156-55.480469c-2.914063-1.535156-6.394532-1.535156-9.304688 0l-105.535156 55.480469 20.152344-117.515625c.558593-3.242188-.515626-6.550781-2.875-8.851563l-85.378907-83.222656 117.988281-17.144531c3.257813-.472657 6.074219-2.519531 7.53125-5.472657l52.769532-106.917968 52.769531 106.917968c1.453125 2.953126 4.269531 5 7.527344 5.472657l117.992187 17.144531zm0 0" fill="url(#a)"/></svg>