<svg height="380pt" viewBox="-59 0 380 380.03835" width="380pt" xmlns="http://www.w3.org/2000/svg" xmlns:xlink="http://www.w3.org/1999/xlink"><linearGradient id="a" gradientUnits="userSpaceOnUse" x1="131.521675" x2="131.521675" y1="380.038353" y2="20.691753"><stop offset=".322" stop-color="#a163f5"/><stop offset=".466" stop-color="#b074ee"/><stop offset=".752" stop-color="#d8a1dd"/><stop offset=".898" stop-color="#efbad3"/></linearGradient><path d="m237.917969 106.738281-6.5-30.5c-2.699219-13.101562-14.199219-22.5-27.597657-22.601562l-5.699218-.097657c-2.800782-32.300781-31.300782-56.199218-63.703125-53.300781-30.296875 2.699219-53.597657 28.101563-53.597657 58.5v261.398438h-61.5c-10.601562 0-19.3007808 8.601562-19.3007808 19.300781v21.300781c0 10.601563 8.6015628 19.300781 19.3007808 19.300781h144.097657c10.601562 0 19.300781-8.601562 19.300781-19.300781v-21.300781c0-10.597656-8.597656-19.300781-19.300781-19.300781h-62.597657v-261.398438c0-21.398437 17.300782-38.699219 38.699219-38.699219 19.300781 0 35.699219 14.199219 38.300781 33.300782l-6.300781-.101563c-13.800781-.101562-25.699219 9.601563-28.300781 23.101563l-5.699219 29.398437c-.898437.800781-1.699219 1.601563-2.601562 2.398438-14 13.902343-21.699219 32.902343-21.398438 52.703125v2.597656c.101563 5.402344 4.5 9.800781 9.898438 9.902344l16.601562.199218c4.699219 24 25.601563 41.5 50.101563 41.898438h.597656c24.101562.101562 44.800781-17.097656 49-40.800781l13 .101562h.101562c5.5 0 10-4.5 10-10v-2.699219c-.199218-21.101562-9.199218-41.199218-24.902343-55.300781zm-75.199219 253.300781h-142.597656v-19.902343h142.597656zm.199219-279.800781c.800781-4 4.300781-7 8.5-6.898437l32.203125.296875c4 0 7.398437 2.800781 8.296875 6.800781l2.5 11.699219c-8.5-3.296875-17.5-5.097657-26.597657-5.199219-9.199218-.097656-18.402343 1.5-27 4.800781zm49.101562 106.601563c-5.601562 5.597656-13.199219 8.699218-21.199219 8.699218h-.402343c-13.398438-.199218-25.296875-8.902343-29.597657-21.601562l58.5.601562c-1.300781 4.597657-3.902343 8.800782-7.300781 12.300782zm-78-33.300782c3.199219-27 26.300781-47.101562 53.5-46.699218 27.5.398437 50.601563 20.597656 54.800781 47.796875zm0 0" fill="url(#a)"/></svg>