<svg height="400pt" viewBox="0 0 400 400.1197" width="400pt" xmlns="http://www.w3.org/2000/svg" xmlns:xlink="http://www.w3.org/1999/xlink"><linearGradient id="a" gradientTransform="matrix(1 0 0 -1 -55.971118 457.969032)" gradientUnits="userSpaceOnUse" x1="256" x2="256" y1="14" y2="444.019"><stop offset=".322" stop-color="#a163f5"/><stop offset=".466" stop-color="#b074ee"/><stop offset=".752" stop-color="#d8a1dd"/><stop offset=".898" stop-color="#efbad3"/></linearGradient><path d="m382.957031 2.898438-59.476562 59.476562-10.417969-10.417969c-17.9375-17.933593-47.015625-17.933593-64.949219 0l-204.320312 204.3125-10.417969-10.421875c-3.90625-3.90625-10.238281-3.90625-14.144531 0s-3.90625 10.242188 0 14.148438l10.417969 10.421875 14.144531 14.140625 28.75 28.75-33.84375 33.847656-21.597657-21.601562c-3.910156-3.875-10.21875-3.859376-14.113281.03125-3.894531 3.894531-3.90625 10.203124-.03125 14.113281l57.34375 57.339843c2.5 2.609376 6.210938 3.664063 9.710938 2.765626 3.5-.902344 6.238281-3.617188 7.167969-7.109376.933593-3.492187-.09375-7.214843-2.679688-9.734374l-21.664062-21.664063 33.847656-33.84375 53.320312 53.316406c3.90625 3.90625 10.234375 3.90625 14.140625 0s3.90625-10.238281 0-14.144531l-10.414062-10.421875 204.3125-204.316406c17.933593-17.9375 17.933593-47.015625 0-64.949219l-10.421875-10.417969 59.480468-59.480469c3.875-3.910156 3.859376-10.21875-.03125-14.109374-3.894531-3.894532-10.203124-3.90625-14.113281-.03125zm-282.128906 310.410156-42.890625-42.890625 63.800781-63.800781 71.644531 71.644531-63.800781 63.800781zm233.070313-175.566406-126.371094 126.375-71.644532-71.648438 126.371094-126.371094c10.125-10.121094 26.539063-10.121094 36.664063 0l34.980469 34.980469c10.121093 10.125 10.121093 26.539063 0 36.664063zm0 0" fill="url(#a)"/></svg>