<svg height="420pt" viewBox="-52 0 420 420" width="420pt" xmlns="http://www.w3.org/2000/svg" xmlns:xlink="http://www.w3.org/1999/xlink"><linearGradient id="a"><stop offset=".322" stop-color="#a163f5"/><stop offset=".466" stop-color="#b074ee"/><stop offset=".752" stop-color="#d8a1dd"/><stop offset=".898" stop-color="#efbad3"/></linearGradient><linearGradient id="b" gradientUnits="userSpaceOnUse" x1="158" x2="158" xlink:href="#a" y1="416" y2="16.0875"/><linearGradient id="c" gradientUnits="userSpaceOnUse" x1="158.302" x2="158.302" xlink:href="#a" y1="416" y2="16.0875"/><path d="m280.898438 0h-245.796876c-19.402343 0-35.101562 15.5-35.101562 34.5v351c0 19 15.699219 34.5 35.101562 34.5h245.898438c19.300781 0 35.101562-15.5 35.101562-34.5v-351c-.101562-19-15.800781-34.5-35.203124-34.5zm15.101562 385.5c0 8-6.800781 14.5-15.101562 14.5h-245.796876c-8.300781 0-15.101562-6.5-15.101562-14.5v-351c0-8 6.800781-14.5 15.101562-14.5h245.898438c8.300781 0 15.101562 6.5 15.101562 14.5v351zm0 0" fill="url(#b)"/><path d="m278.300781 27.101562h-240.5c-5.5 0-10 4.5-10 10v297.597657c0 5.5 4.5 10 10 10h240.5c5.5 0 10-4.5 10-10v-297.597657c0-5.5-4.5-10-10-10zm-10 297.597657h-220.5v-277.597657h220.5zm0 0" fill="url(#b)"/><path d="m158 349.300781c-13 .199219-23.398438 10.898438-23.300781 23.898438.199219 13 10.902343 23.402343 23.902343 23.300781 12.898438-.199219 23.296876-10.699219 23.296876-23.601562 0-13-10.597657-23.597657-23.597657-23.597657-.101562 0-.199219 0-.300781 0zm0 27.097657c-2-.199219-3.398438-1.898438-3.300781-3.898438.199219-2 1.902343-3.398438 3.902343-3.300781 1.898438.199219 3.296876 1.699219 3.296876 3.601562-.097657 2.097657-1.796876 3.699219-3.898438 3.597657zm0 0" fill="url(#c)"/></svg>