<svg height="399pt" viewBox="1 1 399.99988 399" width="399pt" xmlns="http://www.w3.org/2000/svg" xmlns:xlink="http://www.w3.org/1999/xlink"><linearGradient id="a"><stop offset=".322" stop-color="#a163f5"/><stop offset=".466" stop-color="#b074ee"/><stop offset=".752" stop-color="#d8a1dd"/><stop offset=".898" stop-color="#efbad3"/></linearGradient><linearGradient id="b" gradientTransform="matrix(1 0 0 -1 -56.000162 458.49994)" gradientUnits="userSpaceOnUse" x1="263.268" x2="249.537" xlink:href="#a" y1="55.132" y2="549.444"/><linearGradient id="c" gradientTransform="matrix(1 0 0 -1 -56.000162 458.49994)" gradientUnits="userSpaceOnUse" x1="345.541" x2="331.81" xlink:href="#a" y1="57.418" y2="551.729"/><path d="m389.199219 1.300781-163-.800781h-.097657c-2.652343.019531-5.195312 1.058594-7.101562 2.898438l-204.800781 204.902343c-18.933594 19.023438-18.933594 49.773438 0 68.800781l109.199219 109.199219c19.027343 18.933594 49.777343 18.933594 68.800781 0l204.902343-204.902343c1.863282-1.890626 2.90625-4.441407 2.898438-7.097657l-.800781-163c-.085938-5.488281-4.511719-9.914062-10-10zm-211.199219 370.800781c-5.347656 5.375-12.617188 8.398438-20.199219 8.398438s-14.855469-3.023438-20.199219-8.398438l-109.203124-109.203124c-5.375-5.34375-8.398438-12.617188-8.398438-20.199219s3.023438-14.851563 8.398438-20.199219l201.902343-202 148.898438.800781.800781 148.898438zm0 0" fill="url(#b)"/><path d="m281.699219 70.199219c-23.117188.058593-42.980469 16.429687-47.449219 39.109375-4.46875 22.683594 7.699219 45.367187 29.070312 54.1875 21.367188 8.820312 45.992188 1.328125 58.824219-17.902344s10.300781-44.847656-6.042969-61.195312c-9.132812-9.101563-21.507812-14.210938-34.402343-14.199219zm20.199219 68.800781c-9.628907 9.578125-24.683594 11.023438-35.964844 3.453125-11.277344-7.570313-15.640625-22.050781-10.425782-34.589844 5.214844-12.542969 18.558594-19.660156 31.882813-17 13.320313 2.660157 22.910156 14.351563 22.910156 27.9375.003907 7.582031-3.019531 14.855469-8.402343 20.199219zm0 0" fill="url(#c)"/></svg>