<svg height="400pt" viewBox="0 -8 400 400" width="400pt" xmlns="http://www.w3.org/2000/svg" xmlns:xlink="http://www.w3.org/1999/xlink"><linearGradient id="a"><stop offset=".322" stop-color="#a163f5"/><stop offset=".466" stop-color="#b074ee"/><stop offset=".752" stop-color="#d8a1dd"/><stop offset=".898" stop-color="#efbad3"/></linearGradient><linearGradient id="b" gradientTransform="matrix(1 0 0 -1 -56 450.09)" gradientUnits="userSpaceOnUse" x1="255.21" x2="259.037" xlink:href="#a" y1="50.897" y2="563.717"/><linearGradient id="c" gradientTransform="matrix(1 0 0 -1 -56 450.09)" gradientUnits="userSpaceOnUse" x1="240.632" x2="244.459" xlink:href="#a" y1="51.006" y2="563.826"/><linearGradient id="d" gradientTransform="matrix(1 0 0 -1 -56 450.09)" gradientUnits="userSpaceOnUse" x1="291.44" x2="295.267" xlink:href="#a" y1="50.626" y2="563.447"/><linearGradient id="e" gradientTransform="matrix(1 0 0 -1 -56 450.09)" gradientUnits="userSpaceOnUse" x1="292.008" x2="295.835" xlink:href="#a" y1="50.622" y2="563.443"/><path d="m370 0h-258.257812c-16.5625.0195312-29.980469 13.4375-30 30v183.589844h-31.742188c-27.601562.03125-49.96875 22.398437-50 50v69.722656c.03125 28.082031 22.789062 50.839844 50.871094 50.871094h288.039062c33.726563-.035156 61.054688-27.367188 61.089844-61.09375v-293.089844c-.019531-16.5625-13.4375-29.9804688-30-30zm-288.257812 333.308594c0 17.050781-13.820313 30.871094-30.871094 30.871094-17.050782 0-30.871094-13.820313-30.871094-30.871094v-69.71875c.019531-16.5625 13.4375-29.980469 30-30h31.742188zm298.257812-10.21875c-.023438 22.683594-18.40625 41.0625-41.089844 41.089844h-247.632812c6.796875-8.855469 10.476562-19.710938 10.464844-30.871094v-303.308594c.007812-5.519531 4.480468-9.992188 10-10h258.257812c5.519531.007812 9.992188 4.480469 10 10zm0 0" fill="url(#b)"/><path d="m159.433594 109.601562h54.867187c5.523438 0 10-4.476562 10-10 0-5.523437-4.476562-10-10-10h-54.867187c-5.523438 0-10 4.476563-10 10 0 5.523438 4.476562 10 10 10zm0 0" fill="url(#c)"/><path d="m314.644531 175.234375h-155.210937c-5.523438 0-10 4.476563-10 10 0 5.519531 4.476562 10 10 10h155.210937c5.523438 0 10-4.480469 10-10 0-5.523437-4.476562-10-10-10zm0 0" fill="url(#d)"/><path d="m314.644531 251.257812h-155.210937c-5.523438 0-10 4.476563-10 10 0 5.519532 4.476562 10 10 10h155.210937c5.523438 0 10-4.480468 10-10 0-5.523437-4.476562-10-10-10zm0 0" fill="url(#e)"/></svg>