<svg height="399pt" viewBox="0 0 399.95984 399" width="399pt" xmlns="http://www.w3.org/2000/svg" xmlns:xlink="http://www.w3.org/1999/xlink"><linearGradient id="a" gradientTransform="matrix(1 0 0 -1 -56.020081 458.457865)" gradientUnits="userSpaceOnUse" x1="254.329" x2="258.156" y1="34.127" y2="546.948"><stop offset=".322" stop-color="#a163f5"/><stop offset=".466" stop-color="#b074ee"/><stop offset=".752" stop-color="#d8a1dd"/><stop offset=".898" stop-color="#efbad3"/></linearGradient><path d="m182.226562 13.066406c-16.820312-16.78125-44.050781-16.78125-60.875 0l-22.617187 22.617188c-3.515625 3.519531-3.914063 9.085937-.933594 13.066406 10.558594 14.085938 9.15625 33.789062-3.292969 46.238281-12.445312 12.445313-32.152343 13.847657-46.234374 3.292969-3.984376-2.984375-9.550782-2.585938-13.066407.929688l-22.617187 22.617187c-16.785156 16.824219-16.785156 44.054687 0 60.878906l205.140625 205.144531c16.824219 16.777344 44.054687 16.777344 60.875 0l108.765625-108.765624c16.785156-16.820313 16.785156-44.054688 0-60.875zm-162.246093 139.203125c-.019531-6.117187 2.414062-11.988281 6.75-16.300781l16.992187-16.996094c21.464844 11.292969 47.777344 7.300782 64.929688-9.847656 17.148437-17.148438 21.140625-43.464844 9.847656-64.929688l16.996094-16.988281c9.003906-8.984375 23.582031-8.984375 32.589844 0l173.183593 173.183594-141.734375 140.980469-172.804687-172.808594c-4.335938-4.3125-6.765625-10.179688-6.75-16.292969zm353.25 112.671875-108.765625 108.765625c-9.003906 8.988281-23.585938 8.988281-32.589844 0l-18.199219-18.199219 141.734375-140.976562 17.820313 17.820312c9 9 9 23.589844 0 32.589844zm0 0" fill="url(#a)"/></svg>