<svg height="399pt" viewBox="-116 1 399 399.99999" width="399pt" xmlns="http://www.w3.org/2000/svg" xmlns:xlink="http://www.w3.org/1999/xlink"><linearGradient id="a" gradientTransform="matrix(1 0 0 -1 -172.156255 458)" gradientUnits="userSpaceOnUse" x1="254.775" x2="258.602" y1="-12.01" y2="500.81"><stop offset=".322" stop-color="#a163f5"/><stop offset=".466" stop-color="#b074ee"/><stop offset=".752" stop-color="#d8a1dd"/><stop offset=".898" stop-color="#efbad3"/></linearGradient><path d="m126.925781 75.125 31.328125-60.523438c1.609375-3.101562 1.480469-6.816406-.332031-9.796874-1.816406-2.984376-5.054687-4.804688-8.546875-4.804688h-131.0625c-3.492188 0-6.730469 1.820312-8.546875 4.804688-1.8125 2.980468-1.941406 6.695312-.332031 9.796874l31.328125 60.527344-39.734375 224.722656c-1.753906 9.902344.90625 20.078126 7.28125 27.859376l48.847656 59.648437c6.550781 8 16.347656 12.640625 26.6875 12.640625s20.132812-4.640625 26.6875-12.640625l48.847656-59.648437c6.375-7.78125 9.035156-17.957032 7.28125-27.859376zm6.019531-55.125-22.535156 43.535156h-53.128906l-22.53125-43.535156zm10.964844 295.039062-48.847656 59.652344c-2.753906 3.359375-6.871094 5.308594-11.214844 5.308594s-8.460937-1.949219-11.210937-5.308594l-48.851563-59.652344c-2.675781-3.265624-3.792968-7.539062-3.054687-11.699218l38.859375-219.800782h48.515625l38.863281 219.800782c.734375 4.160156-.382812 8.433594-3.0625 11.699218zm0 0" fill="url(#a)"/></svg>