<svg height="465pt" viewBox="0 -1 465.1 465" width="465pt" xmlns="http://www.w3.org/2000/svg" xmlns:xlink="http://www.w3.org/1999/xlink"><linearGradient id="a"><stop offset=".322" stop-color="#a163f5"/><stop offset=".466" stop-color="#b074ee"/><stop offset=".752" stop-color="#d8a1dd"/><stop offset=".898" stop-color="#efbad3"/></linearGradient><linearGradient id="b" gradientUnits="userSpaceOnUse" x1="214.0255" x2="214.0255" xlink:href="#a" y1="443.15" y2="-6.4587"/><linearGradient id="c" gradientUnits="userSpaceOnUse" x1="250.9802" x2="250.9802" xlink:href="#a" y1="443.15" y2="-6.4587"/><linearGradient id="d" gradientUnits="userSpaceOnUse" x1="232.5" x2="232.5" xlink:href="#a" y1="443.15" y2="-6.4587"/><linearGradient id="e" gradientUnits="userSpaceOnUse" x1="250.0516" x2="250.0516" xlink:href="#a" y1="443.15" y2="-6.4587"/><path d="m231 20.050781c37.101562 0 74.300781 10.5 107.5 30.5 22.199219 13.300781 42 30.300781 58.5 50.097657l-58.898438-1.898438h-.300781c-5.5 0-10 4.5-10 10 0 5.398438 4.300781 9.800781 9.699219 10l76.5 2.5c5 2.300781 11 0 13.199219-5 1.199219-2.601562 1.199219-5.601562 0-8.199219l-2.5-76.5c-.097657-5.5-4.699219-9.902343-10.199219-9.800781s-9.898438 4.699219-9.800781 10.199219v.199219l1.601562 48.601562c-16.699219-18.5-36.101562-34.5-57.5-47.398438-36.300781-21.800781-77-33.3007808-117.800781-33.3007808-65.101562 0-125.101562 26.8007808-169 75.5976568-19.601562 21.800781-35.101562 47-46 74.203124-10.5 26.699219-16 54.796876-16 81.296876 0 5.5 4.5 10 10 10s10-4.5 10-10c0-49.398438 21.300781-102.5 57-142.097657 39.898438-44.5 94.699219-69 154-69zm0 0" fill="url(#b)"/><path d="m455 221.148438c-5.5 0-10 4.5-10 10 0 49.402343-21.300781 102.5-57 142.101562-40 44.5-94.800781 69-154.101562 69-37.097657 0-74.296876-10.5-107.5-30.5-22.199219-13.300781-42-30.300781-58.5-50.101562l58.902343 1.902343c5.5.199219 10.097657-4.199219 10.300781-9.699219.199219-5.5-4.101562-10.101562-9.601562-10.300781l-76.5-2.5c-5-2.300781-11 0-13.199219 5.097657-1.199219 2.601562-1.199219 5.601562 0 8.203124l2.5 76.5c.097657 5.5 4.699219 9.898438 10.199219 9.796876 5.5-.097657 9.898438-4.699219 9.800781-10.199219 0-.097657 0-.097657 0-.199219l-1.601562-48.601562c16.699219 18.5 36.101562 34.5 57.5 47.402343 36.300781 21.800781 77.101562 33.300781 117.800781 33.300781 65.101562 0 125.101562-26.800781 169-75.601562 19.601562-21.800781 35.101562-47 46-74.199219 10.5-26.601562 16.101562-54.699219 16.101562-81.300781 0-5.601562-4.5-10.101562-10.101562-10.101562zm0 0" fill="url(#c)"/><path d="m112.5 247.550781c0 66.300781 53.699219 120 120 120s120-53.699219 120-120c0-62.402343-47.800781-114.402343-110-119.601562v-12.800781h12.601562c5.5 0 10-4.5 10-10s-4.5-10-10-10h-45.203124c-5.5 0-10 4.5-10 10s4.5 10 10 10h12.601562v12.800781c-62.101562 5.300781-109.898438 57.199219-110 119.601562zm166.101562-46.101562c3.898438 3.902343 10.199219 3.902343 14.097657 0l17.199219-17.300781c12.402343 15.101562 20.101562 33.601562 22.101562 53.101562h-24.300781c-5.5 0-10 4.5-10 10s4.5 10 10 10h24.300781c-2 19.601562-9.699219 38.199219-22.101562 53.398438l-17.097657-17c-3.902343-3.898438-10.300781-3.898438-14.199219 0-3.902343 3.902343-3.902343 10.300781 0 14.203124l17.097657 17.199219c-15.199219 12.5-33.699219 20.199219-53.300781 22.097657v-24.296876c0-5.5-4.5-10-10-10s-10 4.5-10 10v24.296876c-19.5-2-38.097657-9.597657-53.296876-22.097657l17.097657-17.101562c3.902343-3.898438 3.902343-10.199219 0-14.097657-3.898438-3.902343-10.199219-3.902343-14.097657 0l-17.101562 17c-12.398438-15.300781-20.101562-33.800781-22.101562-53.402343h24.300781c5.5 0 10-4.5 10-10s-4.5-10-10-10h-24.300781c2-19.5 9.703124-37.898438 22.101562-53.097657l17.101562 17.199219c3.898438 3.898438 10.199219 3.898438 14.097657 0 3.800781-3.902343 3.902343-10.101562.101562-14l-17.101562-17.402343c15.199219-12.5 33.699219-20.097657 53.300781-22.097657v24.300781c0 5.5 4.5 10 10 10s10-4.5 10-10v-24.300781c19.5 2 38.101562 9.597657 53.300781 22.097657l-17.101562 17.101562c-4 4-4.199219 10.300781-.097657 14.199219zm0 0" fill="url(#d)"/><path d="m242.5 244.25v-38.5c0-5.5-4.5-10-10-10s-10 4.5-10 10v42.800781c0 2.800781 1.101562 5.398438 3.199219 7.300781l35 32.699219c4 3.800781 10.300781 3.597657 14.101562-.402343s3.597657-10.296876-.402343-14.097657l-.097657-.101562zm0 0" fill="url(#e)"/></svg>