<svg height="465pt" viewBox="0 -1 465.1 465" width="465pt" xmlns="http://www.w3.org/2000/svg" xmlns:xlink="http://www.w3.org/1999/xlink"><linearGradient id="a"><stop offset=".322" stop-color="#a163f5"/><stop offset=".466" stop-color="#b074ee"/><stop offset=".752" stop-color="#d8a1dd"/><stop offset=".898" stop-color="#efbad3"/></linearGradient><linearGradient id="b" gradientUnits="userSpaceOnUse" x1="214.0255" x2="214.0255" xlink:href="#a" y1="450.15" y2="-12.877"/><linearGradient id="c" gradientUnits="userSpaceOnUse" x1="250.9802" x2="250.9802" xlink:href="#a" y1="450.15" y2="-12.877"/><linearGradient id="d" gradientUnits="userSpaceOnUse" x1="232.5" x2="232.5" xlink:href="#a" y1="450.15" y2="-12.877"/><path d="m231 20.050781c37.101562 0 74.300781 10.5 107.5 30.5 22.199219 13.300781 42 30.300781 58.5 50.097657l-58.898438-1.898438h-.300781c-5.5 0-10 4.5-10 10 0 5.398438 4.300781 9.800781 9.699219 10l76.5 2.5c5 2.300781 11 0 13.199219-5 1.199219-2.601562 1.199219-5.601562 0-8.199219l-2.5-76.5c-.097657-5.5-4.699219-9.902343-10.199219-9.800781s-9.898438 4.699219-9.800781 10.199219v.199219l1.601562 48.601562c-16.699219-18.5-36.101562-34.5-57.5-47.398438-36.300781-21.800781-77-33.3007808-117.800781-33.3007808-65.101562 0-125.101562 26.8007808-169 75.5976568-19.601562 21.800781-35.101562 47-46 74.203124-10.5 26.699219-16 54.796876-16 81.296876 0 5.5 4.5 10 10 10s10-4.5 10-10c0-49.398438 21.300781-102.5 57-142.097657 39.898438-44.5 94.699219-69 154-69zm0 0" fill="url(#b)"/><path d="m455 221.148438c-5.5 0-10 4.5-10 10 0 49.402343-21.300781 102.5-57 142.101562-40 44.5-94.800781 69-154.101562 69-37.097657 0-74.296876-10.5-107.5-30.5-22.199219-13.300781-42-30.300781-58.5-50.101562l58.902343 1.902343c5.5.199219 10.097657-4.199219 10.300781-9.699219.199219-5.5-4.101562-10.101562-9.601562-10.300781l-76.5-2.5c-5-2.300781-11 0-13.199219 5.097657-1.199219 2.601562-1.199219 5.601562 0 8.203124l2.5 76.5c.097657 5.5 4.699219 9.898438 10.199219 9.796876 5.5-.097657 9.898438-4.699219 9.800781-10.199219 0-.097657 0-.097657 0-.199219l-1.601562-48.601562c16.699219 18.5 36.101562 34.5 57.5 47.402343 36.300781 21.800781 77.101562 33.300781 117.800781 33.300781 65.101562 0 125.101562-26.800781 169-75.601562 19.601562-21.800781 35.101562-47 46-74.199219 10.5-26.601562 16.101562-54.699219 16.101562-81.300781 0-5.601562-4.5-10.101562-10.101562-10.101562zm0 0" fill="url(#c)"/><path d="m309.5 166.351562v-16.203124c8.800781 0 15.898438-7 16-15.796876v-27.402343c0-8.699219-7.5-15.800781-16.199219-15.800781h-153.601562c-8.699219 0-16.199219 7.101562-16.199219 15.800781v27.402343c.101562 8.796876 7.199219 15.796876 16 15.796876v16.203124c0 10.097657 4.601562 19.699219 12.5 26l48.300781 38.699219-47.101562 36.699219c-8.097657 6.300781-12.800781 16-12.699219 26.300781v18.097657h-.800781c-8.699219 0-16.199219 7.101562-16.199219 15.800781v27.402343c0 8.699219 7.5 15.796876 16.199219 15.796876h153.5c8.699219 0 16.199219-7.097657 16.199219-15.796876v-27.402343c-.199219-8.398438-6.699219-15.199219-15-15.800781v-18c-.097657-10.398438-5-20.199219-13.296876-26.5l-48.300781-36.699219 48.199219-38.597657c7.898438-6.300781 12.5-15.902343 12.5-26zm-150-55.203124h146v19h-146zm146 240h-146v-19h5.199219c.5 0 .902343.101562 1.402343.101562s1-.101562 1.398438-.101562h131.199219c.5 0 .902343.101562 1.402343.101562s1-.101562 1.398438-.101562h3.898438v19zm-15-57v18h-114v-18.097657c-.101562-4.101562 1.800781-8 5-10.5l51.199219-39.800781 52.5 39.800781c3.199219 2.5 5.199219 6.5 5.300781 10.597657zm-6-117.398438-52 41.601562-52-41.601562c-3.199219-2.5-5-6.398438-5-10.398438v-16.203124h114v16.203124c0 4.097657-1.800781 7.898438-5 10.398438zm0 0" fill="url(#d)"/></svg>