<svg height="400pt" viewBox="0 -24 400 399" width="400pt" xmlns="http://www.w3.org/2000/svg" xmlns:xlink="http://www.w3.org/1999/xlink"><linearGradient id="a"><stop offset=".322" stop-color="#a163f5"/><stop offset=".466" stop-color="#b074ee"/><stop offset=".752" stop-color="#d8a1dd"/><stop offset=".898" stop-color="#efbad3"/></linearGradient><linearGradient id="b" gradientTransform="matrix(1 0 0 -1 -56 434.214)" gradientUnits="userSpaceOnUse" x1="253.406" x2="257.233" xlink:href="#a" y1="-28.776" y2="484.044"/><linearGradient id="c" gradientTransform="matrix(1 0 0 -1 -56 434.214)" gradientUnits="userSpaceOnUse" x1="385.889" x2="389.716" xlink:href="#a" y1="-29.765" y2="483.056"/><path d="m336.507812.714844c-.570312-.105469-1.144531-.15625-1.722656-.160156h-.328125c-.667969-.03125-1.339843-.054688-2.011719-.054688-.675781 0-1.34375.023438-2.011718.054688h-224.234375c-58.558594 0-106.199219 48.699218-106.199219 108.558593v232.820313c0 5.523437 4.476562 10 10 10h264.890625c5.523437 0 10-4.476563 10-10v-99.742188h47.554687c37.878907 0 67.554688-53.085937 67.554688-120.847656 0-65.324219-27.574219-116.992188-63.492188-120.628906zm-71.617187 331.21875h-244.890625v-222.824219c0-48.832031 38.671875-88.558594 86.199219-88.558594h188.492187c-18.089844 21.460938-29.796875 58.226563-29.796875 100.792969zm20-124.007813c2.839844 5.046875 6.136719 9.820313 9.847656 14.265625h-9.847656zm79.378906-12.8125c-8.933593 17.207031-20.535156 27.078125-31.824219 27.078125-11.289062 0-22.886718-9.871094-31.824218-27.078125-10.144532-19.539062-15.730469-45.734375-15.730469-73.769531s5.585937-54.234375 15.730469-73.773438c8.570312-16.507812 19.597656-26.253906 30.445312-27.019531h2.753906c10.851563.765625 21.875 10.511719 30.449219 27.019531 10.144531 19.542969 15.730469 45.742188 15.730469 73.773438 0 28.027344-5.585938 54.230469-15.730469 73.769531zm0 0" fill="url(#b)"/><path d="m332.445312 86.164062c-13.371093 0-23.074218 14.800782-23.074218 35.179688 0 20.375 9.699218 35.175781 23.074218 35.175781 13.371094 0 23.074219-14.792969 23.074219-35.175781 0-20.386719-9.707031-35.179688-23.074219-35.179688zm0 49.042969c-1.359374-2.324219-3.074218-6.992187-3.074218-13.863281 0-6.875 1.714844-11.542969 3.074218-13.867188 1.359376 2.324219 3.074219 6.992188 3.074219 13.867188 0 6.871094-1.714843 11.539062-3.074219 13.863281zm0 0" fill="url(#c)"/></svg>