<svg height="400pt" viewBox="0 -37 400 400" width="400pt" xmlns="http://www.w3.org/2000/svg" xmlns:xlink="http://www.w3.org/1999/xlink"><linearGradient id="a"><stop offset=".322" stop-color="#a163f5"/><stop offset=".466" stop-color="#b074ee"/><stop offset=".752" stop-color="#d8a1dd"/><stop offset=".898" stop-color="#efbad3"/></linearGradient><linearGradient id="b" gradientTransform="matrix(1 0 0 -1 -56 420.583)" gradientUnits="userSpaceOnUse" x1="341.221" x2="341.221" xlink:href="#a" y1="3.998" y2="508.995"/><linearGradient id="c" gradientTransform="matrix(1 0 0 -1 -56 420.583)" gradientUnits="userSpaceOnUse" x1="175.391" x2="175.391" xlink:href="#a" y1="3.998" y2="508.995"/><linearGradient id="d" gradientTransform="matrix(1 0 0 -1 -56 420.583)" gradientUnits="userSpaceOnUse" x1="256" x2="256" xlink:href="#a" y1="3.998" y2="508.995"/><path d="m335.898438 45.769531h-101.355469c-5.523438 0-10 4.476563-10 10v259.398438c0 5.523437 4.476562 10 10 10h101.355469c5.523437 0 10-4.476563 10-10v-259.398438c0-5.523437-4.476563-10-10-10zm-10 259.398438h-81.355469v-239.398438h81.355469zm0 0" fill="url(#b)"/><path d="m165.457031 45.769531h-92.132812c-5.523438 0-10 4.476563-10 10v158.535157c0 5.523437 4.476562 10 10 10h92.132812c5.523438 0 10-4.476563 10-10v-158.535157c0-5.523437-4.476562-10-10-10zm-10 158.535157h-72.132812v-138.535157h72.132812zm0 0" fill="url(#c)"/><path d="m390 0h-380c-5.523438 0-10 4.476562-10 10s4.476562 10 10 10h380c5.523438 0 10-4.476562 10-10s-4.476562-10-10-10zm0 0" fill="url(#d)"/></svg>