<svg height="399pt" viewBox="0 0 399 399.98192" width="399pt" xmlns="http://www.w3.org/2000/svg" xmlns:xlink="http://www.w3.org/1999/xlink"><linearGradient id="a"><stop offset=".322" stop-color="#a163f5"/><stop offset=".466" stop-color="#b074ee"/><stop offset=".752" stop-color="#d8a1dd"/><stop offset=".898" stop-color="#efbad3"/></linearGradient><linearGradient id="b" gradientTransform="matrix(1 0 0 -1 -55.529549 458.000266)" gradientUnits="userSpaceOnUse" x1="226.475" x2="226.475" xlink:href="#a" y1="3.998" y2="508.995"/><linearGradient id="c" gradientTransform="matrix(1 0 0 -1 -55.529549 458.000266)" gradientUnits="userSpaceOnUse" x1="187.972" x2="187.972" xlink:href="#a" y1="3.998" y2="508.995"/><linearGradient id="d" gradientTransform="matrix(1 0 0 -1 -55.529549 458.000266)" gradientUnits="userSpaceOnUse" x1="377.767" x2="377.767" xlink:href="#a" y1="3.998" y2="508.995"/><linearGradient id="e" gradientTransform="matrix(1 0 0 -1 -55.529549 458.000266)" gradientUnits="userSpaceOnUse" x1="428.817" x2="428.817" xlink:href="#a" y1="3.998" y2="508.995"/><linearGradient id="f" gradientTransform="matrix(1 0 0 -1 -55.529549 458.000266)" gradientUnits="userSpaceOnUse" x1="312.853" x2="312.853" xlink:href="#a" y1="3.998" y2="508.995"/><path d="m219.050781 66.863281c-10.4375-10.410156-27.332031-10.410156-37.769531 0l-14.378906 14.382813c-6.230469 6.25-11.019532 13.789062-14.03125 22.085937l-27.902344 77.25-111.785156 111.78125c-16.925782 16.964844-16.925782 44.429688 0 61.394531l33.53125 33.527344c16.964844 16.929688 44.433594 16.929688 61.398437 0l111.6875-111.683594 77.5-28.203124c8.191407-2.996094 15.640625-7.726563 21.835938-13.871094l14.390625-14.3125c10.457031-10.402344 10.503906-27.3125.101562-37.769532l-.050781-.050781zm-125.082031 306.28125c-9.148438 9.128907-23.957031 9.128907-33.105469 0l-33.53125-33.53125c-9.128906-9.148437-9.128906-23.960937 0-33.109375l105.898438-105.898437 66.828125 66.445312zm225.453125-168.117187-14.390625 14.316406c-4.136719 4.097656-9.109375 7.253906-14.574219 9.253906l-73.734375 26.832032-71.753906-71.347657 26.714844-73.957031c2.011718-5.535156 5.207031-10.566406 9.363281-14.738281l14.382813-14.378907c2.613281-2.617187 6.855468-2.621093 9.476562-.007812l.007812.007812 114.519532 114.523438c2.617187 2.617188 2.617187 6.863281 0 9.484375l-.015625.015625zm0 0" fill="url(#b)"/><path d="m151.625 248.84375c-3.902344-3.90625-10.234375-3.90625-14.140625 0l-24.3125 24.316406c-3.824219 3.917969-3.78125 10.179688.085937 14.050782 3.871094 3.871093 10.132813 3.910156 14.054688.089843l24.3125-24.316406c3.90625-3.90625 3.90625-10.234375 0-14.140625zm0 0" fill="url(#c)"/><path d="m305.070312 105.398438c2.652344.003906 5.199219-1.046876 7.070313-2.925782l34.367187-34.367187c3.777344-3.925781 3.71875-10.152344-.132812-14.003907-3.851562-3.851562-10.078125-3.914062-14.003906-.136718l-34.367188 34.363281c-2.859375 2.859375-3.714844 7.160156-2.167968 10.898437 1.546874 3.734376 5.191406 6.171876 9.234374 6.171876zm0 0" fill="url(#d)"/><path d="m387.488281 128.234375-34.367187 10.738281c-5.269532 1.648438-8.210938 7.257813-6.5625 12.53125 1.648437 5.269532 7.257812 8.207032 12.527344 6.558594l34.367187-10.738281c5.273437-1.648438 8.210937-7.257813 6.5625-12.527344-1.648437-5.273437-7.257813-8.210937-12.527344-6.5625zm0 0" fill="url(#e)"/><path d="m248.96875 53.910156c5.265625 1.652344 10.871094-1.273437 12.523438-6.539062l.007812-.023438 10.738281-34.363281c1.648438-5.273437-1.289062-10.882813-6.5625-12.527344-5.269531-1.648437-10.878906 1.289063-12.527343 6.558594l-10.738282 34.367187c-1.648437 5.273438 1.289063 10.882813 6.558594 12.527344zm0 0" fill="url(#f)"/></svg>