<svg height="472pt" viewBox="-29 0 471 472" width="472pt" xmlns="http://www.w3.org/2000/svg" xmlns:xlink="http://www.w3.org/1999/xlink"><linearGradient id="a"><stop offset=".322" stop-color="#a163f5"/><stop offset=".466" stop-color="#b074ee"/><stop offset=".752" stop-color="#d8a1dd"/><stop offset=".898" stop-color="#efbad3"/></linearGradient><linearGradient id="b" gradientUnits="userSpaceOnUse" x1="206.5" x2="206.5" xlink:href="#a" y1="448" y2="-1.0713"/><linearGradient id="c" gradientUnits="userSpaceOnUse" x1="197.2858" x2="197.2858" xlink:href="#a" y1="448" y2="-1.0713"/><linearGradient id="d" gradientUnits="userSpaceOnUse" x1="215.7149" x2="215.7149" xlink:href="#a" y1="448" y2="-1.0713"/><path d="m362 52h-77.5v-1.898438c0-27.601562-22.800781-50.101562-50.398438-50.101562h-55.203124c-27.597657 0-50.398438 22.5-50.398438 50.101562v1.898438h-77.5c-27.601562 0-50.5 22.601562-50.5 50.101562v43.699219c0 5.5 5 10.199219 10.5 10.199219h27.5v265.898438c0 27.601562 22 50.101562 49.601562 50.101562h216.898438c24 0 69.601562-19.601562 69.601562-50.101562v-265.898438h27.5c5.5 0 10.5-4.601562 10.5-10.199219v-43.699219c-.101562-27.5-23-50.101562-50.601562-50.101562zm-213.5-1.898438c0-16.5 13.800781-30.101562 30.398438-30.101562h55.203124c16.5 0 30.398438 13.601562 30.398438 30.101562v1.898438h-116zm206 371.796876c0 6.101562-6.101562 13.5-16.601562 19.703124-10.398438 6.199219-23.597657 10.398438-33 10.398438h-216.796876c-16.5 0-29.601562-13.601562-29.601562-30.101562v-265.898438h296zm38-285.898438h-372v-33.898438c0-16.5 13.898438-30.101562 30.5-30.101562h311c16.5 0 30.5 13.601562 30.5 30.101562zm0 0" fill="url(#b)"/><path d="m95.5 316c5.5 0 10-4.5 10-10 0-23.398438 10.101562-48.699219 27.101562-67.5 18.5-20.898438 45.199219-32.800781 73.097657-32.699219 29.699219 0 54.300781 13.898438 70.902343 29.800781l-17.300781-.601562c-.101562 0-.199219 0-.300781 0-5.5-.101562-10.101562 4.300781-10.199219 9.800781-.101562 5.5 4.300781 10.097657 9.800781 10.199219l37.296876 1.199219c5.300781 1.699219 10.902343-1.300781 12.5-6.5.601562-2 .601562-4.097657 0-6l-1.199219-37.300781c-.199219-5.398438-4.597657-9.699219-10-9.699219h-.300781c-5.5.199219-9.796876 4.800781-9.699219 10.300781l.402343 11.398438c-19.800781-18.097657-47.902343-32.597657-82-32.597657-71.800781-.101562-120.101562 62.097657-120.101562 120.199219 0 5.5 4.5 10 10 10zm0 0" fill="url(#c)"/><path d="m280.398438 373.5c-18.5 20.898438-45.199219 32.800781-73.097657 32.699219-29.699219 0-54.300781-13.898438-70.902343-29.800781l17.300781.601562c5.5.199219 10.101562-4.199219 10.300781-9.699219s-4.101562-10.101562-9.601562-10.300781l-37.296876-1.199219c-5.300781-1.699219-10.902343 1.300781-12.5 6.5-.601562 2-.601562 4.097657 0 6l1.199219 37.300781c.199219 5.398438 4.597657 9.699219 10 9.699219h.300781c5.5-.199219 9.796876-4.800781 9.699219-10.300781l-.402343-11.398438c19.800781 18.097657 47.902343 32.597657 82 32.597657 71.902343 0 120.300781-62.199219 120.300781-120.300781 0-5.5-4.5-10-10-10s-10 4.5-10 10c-.199219 23.5-10.300781 48.800781-27.300781 67.601562zm0 0" fill="url(#d)"/></svg>