<svg height="472pt" viewBox="-29 0 471 472" width="472pt" xmlns="http://www.w3.org/2000/svg" xmlns:xlink="http://www.w3.org/1999/xlink"><linearGradient id="a"><stop offset=".322" stop-color="#a163f5"/><stop offset=".466" stop-color="#b074ee"/><stop offset=".752" stop-color="#d8a1dd"/><stop offset=".898" stop-color="#efbad3"/></linearGradient><linearGradient id="b" gradientUnits="userSpaceOnUse" x1="206.5" x2="206.5" xlink:href="#a" y1="464" y2="1.027"/><linearGradient id="c" gradientUnits="userSpaceOnUse" x1="206.4967" x2="206.4967" xlink:href="#a" y1="464" y2="1.027"/><path d="m362 52h-77.5v-1.898438c0-27.601562-22.800781-50.101562-50.398438-50.101562h-55.203124c-27.597657 0-50.398438 22.5-50.398438 50.101562v1.898438h-77.5c-27.601562 0-50.5 22.601562-50.5 50.101562v43.699219c0 5.5 5 10.199219 10.5 10.199219h27.5v265.898438c0 27.601562 22 50.101562 49.601562 50.101562h216.898438c24 0 69.601562-19.601562 69.601562-50.101562v-265.898438h27.5c5.5 0 10.5-4.601562 10.5-10.199219v-43.699219c-.101562-27.5-23-50.101562-50.601562-50.101562zm-213.5-1.898438c0-16.5 13.800781-30.101562 30.398438-30.101562h55.203124c16.5 0 30.398438 13.601562 30.398438 30.101562v1.898438h-116zm206 371.796876c0 6.101562-6.101562 13.5-16.601562 19.703124-10.398438 6.199219-23.597657 10.398438-33 10.398438h-216.796876c-16.5 0-29.601562-13.601562-29.601562-30.101562v-265.898438h296zm38-285.898438h-372v-33.898438c0-16.5 13.898438-30.101562 30.5-30.101562h311c16.5 0 30.5 13.601562 30.5 30.101562zm0 0" fill="url(#b)"/><path d="m111 264.800781c2.398438 1.597657 5.5 2.097657 8.300781 1.300781l52.199219-1.101562c5.5-.101562 9.898438-4.601562 9.898438-10.101562s-4.597657-9.898438-10.097657-9.898438h-.101562l-31.898438.699219c14.398438-13.097657 35.199219-24.199219 60-24.199219 24.398438-.101562 47.597657 10.300781 63.800781 28.601562 14.796876 16.5 23.699219 38.5 23.699219 58.898438s-8.902343 42.5-23.699219 58.898438c-16.203124 18.203124-39.402343 28.601562-63.800781 28.601562-38.5 0-60.699219-23.101562-70.5-36.898438-3.199219-4.5-9.5-5.5-14-2.203124-4.402343 3.203124-5.402343 9.300781-2.300781 13.800781 20.5 28.800781 52.101562 45.300781 86.800781 45.300781 64.300781 0 107.5-55.601562 107.5-107.5s-43.199219-107.5-107.5-107.5c-29.5 0-54 12.199219-71.601562 27.699219l.601562-27.097657c.097657-5.5-4.300781-10.101562-9.800781-10.203124-5.5-.097657-10.101562 4.300781-10.199219 9.800781l-1.101562 52.101562c-1.5 4.097657.101562 8.597657 3.800781 11zm0 0" fill="url(#c)"/></svg>