<svg height="463pt" viewBox="-53 0 463 463" width="463pt" xmlns="http://www.w3.org/2000/svg" xmlns:xlink="http://www.w3.org/1999/xlink"><linearGradient id="a"><stop offset=".322" stop-color="#a163f5"/><stop offset=".466" stop-color="#b074ee"/><stop offset=".752" stop-color="#d8a1dd"/><stop offset=".898" stop-color="#efbad3"/></linearGradient><linearGradient id="b" gradientTransform="matrix(1 0 0 -1 -77.307091 489.5)" gradientUnits="userSpaceOnUse" x1="258.566" x2="244.835" xlink:href="#a" y1="70.613" y2="564.924"/><linearGradient id="c" gradientTransform="matrix(1 0 0 -1 -77.307091 489.5)" gradientUnits="userSpaceOnUse" x1="322.517" x2="308.786" xlink:href="#a" y1="72.389" y2="566.701"/><linearGradient id="d" gradientTransform="matrix(1 0 0 -1 -77.307091 489.5)" gradientUnits="userSpaceOnUse" x1="194.616" x2="180.885" xlink:href="#a" y1="68.836" y2="563.148"/><linearGradient id="e" gradientTransform="matrix(1 0 0 -1 -77.307091 489.5)" gradientUnits="userSpaceOnUse" x1="265.001" x2="251.27" xlink:href="#a" y1="70.791" y2="565.103"/><path d="m178.691406 255.5c-5.515625.015625-9.984375 4.484375-10 10v122c0 5.523438 4.480469 10 10 10 5.523438 0 10-4.476562 10-10v-122c-.015625-5.515625-4.480468-9.984375-10-10zm0 0" fill="url(#b)"/><path d="m242.691406 255.5c-5.515625.015625-9.984375 4.484375-10 10v122c0 5.523438 4.480469 10 10 10 5.523438 0 10-4.476562 10-10v-122c-.015625-5.515625-4.480468-9.984375-10-10zm0 0" fill="url(#c)"/><path d="m114.691406 255.5c-5.515625.015625-9.984375 4.484375-10 10v122c0 5.523438 4.480469 10 10 10 5.523438 0 10-4.476562 10-10v-122c-.015625-5.515625-4.480468-9.984375-10-10zm0 0" fill="url(#d)"/><path d="m312.292969 51.199219h-57.199219v-29.097657c-.003906-12.207031-9.898438-22.09765575-22.101562-22.101562h-108.597657c-12.207031.00390625-22.097656 9.894531-22.101562 22.101562v29.199219h-57.199219c-22.011719.003907-40.800781 15.890625-44.464844 37.59375-3.664062 21.703125 8.875 42.878907 29.664063 50.105469-.199219.714844-.296875 1.457031-.300781 2.199219v271.800781c.011718 27.609375 22.390624 49.988281 50 50h197.5c27.609374-.011719 49.992187-22.390625 50-50v-271.800781c.007812-.742188-.09375-1.484375-.300782-2.199219 20.816406-7.25 33.351563-28.46875 29.664063-50.199219s-22.523438-37.621093-44.5625-37.601562zm-189.898438-29.097657c.003907-1.160156.941407-2.09375 2.097657-2.101562h108.601562c1.15625.007812 2.09375.941406 2.097656 2.101562v29.199219h-112.796875zm155 420.898438h-197.402343c-16.546876-.046875-29.949219-13.453125-30-30v-271.5h257.5v271.5c-.09375 16.566406-13.53125 29.960938-30.097657 30zm34.898438-321.5h-267.199219c-13.863281 0-25.101562-11.238281-25.101562-25.101562 0-13.859376 11.238281-25.097657 25.101562-25.097657h267.199219c13.863281 0 25.101562 11.238281 25.101562 25.097657 0 13.863281-11.238281 25.101562-25.101562 25.101562zm0 0" fill="url(#e)"/></svg>