<svg height="430pt" viewBox="0 -10 430.158 430" width="430pt" xmlns="http://www.w3.org/2000/svg" xmlns:xlink="http://www.w3.org/1999/xlink"><linearGradient id="a"><stop offset=".322" stop-color="#a163f5"/><stop offset=".466" stop-color="#b074ee"/><stop offset=".752" stop-color="#d8a1dd"/><stop offset=".898" stop-color="#efbad3"/></linearGradient><linearGradient id="b" gradientTransform="matrix(1 0 0 -1 -40.921 463.079)" gradientUnits="userSpaceOnUse" x1="256" x2="256" xlink:href="#a" y1="14" y2="444.019"/><linearGradient id="c" gradientTransform="matrix(1 0 0 -1 -40.921 463.079)" gradientUnits="userSpaceOnUse" x1="330.536" x2="330.536" xlink:href="#a" y1="14" y2="444.019"/><path d="m420.15625 347.96875h-265.726562c-3.871094-20.953125-19.953126-37.523438-40.78125-42.011719v-254.8125c-.03125-28.1875-22.878907-51.035156-51.070313-51.066406h-52.578125c-5.523438 0-10 4.476563-10 10s4.476562 10 10 10h52.578125c17.152344.019531 31.050781 13.917969 31.070313 31.066406v254.433594c-26.152344 4.546875-44.828126 27.855469-43.5625 54.367187 1.261718 26.515626 22.070312 47.9375 48.535156 49.976563 26.46875 2.039063 50.308594-15.949219 55.617187-41.957031h265.917969c5.523438 0 10-4.476563 10-10 0-5.523438-4.476562-10-10-10zm-317.5 42.109375c-18.027344 0-32.644531-14.613281-32.644531-32.640625s14.613281-32.644531 32.644531-32.644531c18.027344 0 32.640625 14.613281 32.644531 32.640625-.023437 18.019531-14.625 32.625-32.644531 32.644531zm0 0" fill="url(#b)"/><path d="m176.679688 331.367188h225.875c11.1875-.015626 20.253906-9.082032 20.265624-20.269532v-172.042968c0-1.90625-.542968-3.769532-1.566406-5.375l-44.773437-70.230469c-3.710938-5.851563-10.160157-9.386719-17.085938-9.371094h-139.554687c-6.925782-.015625-13.378906 3.523437-17.089844 9.371094l-44.769531 70.230469c-1.027344 1.605468-1.570313 3.46875-1.570313 5.375v172.042968c.015625 11.1875 9.082032 20.253906 20.269532 20.269532zm137.359374-20h-48.847656v-90.363282l48.851563 20.484375zm88.511719 0h-68.511719v-76.53125c0-4.027344-2.414062-7.664063-6.132812-9.222657l-68.851562-28.867187c-3.085938-1.292969-6.617188-.957032-9.402344.894531-2.789063 1.855469-4.464844 4.980469-4.464844 8.328125v105.398438h-68.507812c-.148438 0-.265626-.121094-.269532-.265626v-162.046874h226.410156v162.042968c0 .148438-.121093.265625-.265624.269532zm-42.933593-237.167969 34.96875 54.855469h-94.96875v-54.976563h59.777343c.089844 0 .175781.046875.222657.121094zm-140 0c.050781-.078125.136718-.125.226562-.125h59.777344v54.980469h-94.972656zm0 0" fill="url(#c)"/></svg>