<svg height="400pt" viewBox="-102 0 400 400" width="400pt" xmlns="http://www.w3.org/2000/svg" xmlns:xlink="http://www.w3.org/1999/xlink"><linearGradient id="a" gradientTransform="matrix(1 0 0 -1 -158.468 458)" gradientUnits="userSpaceOnUse" x1="255.998" x2="255.998" y1="14" y2="444.019"><stop offset=".322" stop-color="#a163f5"/><stop offset=".466" stop-color="#b074ee"/><stop offset=".752" stop-color="#d8a1dd"/><stop offset=".898" stop-color="#efbad3"/></linearGradient><path d="m185.0625 75.421875h-13.84375v-48.964844c-.019531-14.605469-11.855469-26.441406-26.460938-26.457031h-94.453124c-14.605469.015625-26.441407 11.851562-26.457032 26.457031v48.964844h-13.847656c-5.523438 0-10 4.476563-10 10v151.066406c.03125 27.601563 22.398438 49.972657 50 50h19.230469v103.511719c0 5.523438 4.480469 10 10 10h36.601562c5.523438 0 10-4.476562 10-10v-103.511719h19.230469c27.601562-.027343 49.96875-22.398437 50-50v-151.066406c0-5.523437-4.476562-10-10-10zm-141.214844-48.964844c.003906-3.5625 2.890625-6.453125 6.457032-6.457031h94.453124c3.566407.003906 6.457032 2.894531 6.460938 6.457031v48.964844h-107.371094zm61.984375 353.542969h-16.601562v-93.511719h16.601562zm69.230469-143.511719c-.019531 16.5625-13.441406 29.980469-30 30h-95.0625c-16.5625-.019531-29.980469-13.4375-30-30v-141.066406h155.0625zm0 0" fill="url(#a)"/></svg>