<svg height="399pt" viewBox="-101 0 399 399.998" width="399pt" xmlns="http://www.w3.org/2000/svg" xmlns:xlink="http://www.w3.org/1999/xlink"><linearGradient id="a"><stop offset=".322" stop-color="#a163f5"/><stop offset=".466" stop-color="#b074ee"/><stop offset=".752" stop-color="#d8a1dd"/><stop offset=".898" stop-color="#efbad3"/></linearGradient><linearGradient id="b" gradientTransform="matrix(1 0 0 -1 -156.675 456.378)" gradientUnits="userSpaceOnUse" x1="247.84" x2="256.841" xlink:href="#a" y1="-105.837" y2="287.203"/><linearGradient id="c" gradientTransform="matrix(1 0 0 -1 -156.675 456.378)" gradientUnits="userSpaceOnUse" x1="222.151" x2="231.152" xlink:href="#a" y1="-105.248" y2="287.791"/><linearGradient id="d" gradientTransform="matrix(1 0 0 -1 -156.675 456.378)" gradientUnits="userSpaceOnUse" x1="266.761" x2="275.762" xlink:href="#a" y1="-106.27" y2="286.77"/><path d="m188.152344 96.726562h-16.589844v-86.726562c0-5.523438-4.476562-10-10-10h-124.472656c-5.523438 0-10 4.476562-10 10v86.726562h-16.589844c-5.523438 0-10 4.476563-10 10v197.671876c.058594 52.773437 42.824219 95.539062 95.597656 95.597656h6.449219c52.773437-.058594 95.539063-42.824219 95.601563-95.597656v-197.671876c0-5.523437-4.476563-10-9.996094-10zm-141.0625-76.726562h104.472656v76.726562h-104.472656zm131.0625 284.398438c-.050782 41.734374-33.867188 75.554687-75.601563 75.601562h-6.449219c-41.730468-.046875-75.550781-33.867188-75.597656-75.601562v-187.671876h157.648438zm0 0" fill="url(#b)"/><path d="m77.007812 35.136719c-5.523437 0-10 4.476562-10 10v25.828125c0 5.519531 4.476563 10 10 10 5.523438 0 10-4.480469 10-10v-25.828125c0-5.523438-4.476562-10-10-10zm0 0" fill="url(#c)"/><path d="m121.640625 35.136719c-5.519531 0-10 4.476562-10 10v25.828125c0 5.519531 4.480469 10 10 10 5.523437 0 10-4.480469 10-10v-25.828125c0-5.523438-4.476563-10-10-10zm0 0" fill="url(#d)"/></svg>