<svg height="464pt" viewBox="0 -3 464.3007 464" width="464pt" xmlns="http://www.w3.org/2000/svg" xmlns:xlink="http://www.w3.org/1999/xlink"><linearGradient id="a"><stop offset=".322" stop-color="#a163f5"/><stop offset=".466" stop-color="#b074ee"/><stop offset=".752" stop-color="#d8a1dd"/><stop offset=".898" stop-color="#efbad3"/></linearGradient><linearGradient id="b" gradientTransform="matrix(1 0 0 -1 -25.999574 484.65035)" gradientUnits="userSpaceOnUse" x1="258.15" x2="258.15" xlink:href="#a" y1="-54" y2="536.979"/><linearGradient id="c" gradientTransform="matrix(1 0 0 -1 -25.999574 484.65035)" gradientUnits="userSpaceOnUse" x1="195.3" x2="195.3" xlink:href="#a" y1="-54" y2="536.979"/><linearGradient id="d" gradientTransform="matrix(1 0 0 -1 -25.999574 484.65035)" gradientUnits="userSpaceOnUse" x1="380.334" x2="380.334" xlink:href="#a" y1="-54" y2="536.979"/><path d="m354.300781 237.449219c-30.25-.105469-59.1875 12.351562-79.898437 34.402343-29.789063-23.765624-66.796875-36.644531-104.902344-36.5h-.300781c-45.796875.097657-88.296875 17.898438-119.796875 50.296876-32 32.703124-49.5000002 77.402343-49.402344 125.902343.0195312 2.652344 1.058594 5.191407 2.902344 7.097657 1.878906 1.882812 4.4375 2.929687 7.097656 2.902343l262.5-.5c.601562.699219 1.199219 1.300781 1.800781 2 34.464844 36.472657 89.246094 45.003907 133.171875 20.742188 43.925782-24.265625 65.871094-75.175781 53.347656-123.769531-12.523437-48.59375-56.335937-82.558594-106.519531-82.574219zm-334 164c2.101563-39.300781 17.300781-75.199219 43.398438-101.898438 27.703125-28.5 65.203125-44.199219 105.5-44.199219h.300781c33.632812-.132812 66.304688 11.226563 92.601562 32.199219-22.15625 34.21875-23.617187 77.875-3.800781 113.5zm334 36c-49.707031 0-90-40.292969-90-90 0-49.703125 40.292969-90 90-90s90 40.296875 90 90c0 49.707031-40.292969 90-90 90zm0 0" fill="url(#b)"/><path d="m169.300781 211.550781c58.375 0 105.699219-47.324219 105.699219-105.699219 0-58.378906-47.324219-105.703124-105.699219-105.703124s-105.699219 47.324218-105.699219 105.703124c.054688 58.351563 47.34375 105.644532 105.699219 105.699219zm0-191.402343c47.332031 0 85.699219 38.371093 85.699219 85.703124 0 47.328126-38.367188 85.699219-85.699219 85.699219s-85.699219-38.371093-85.699219-85.699219c.054688-47.308593 38.390626-85.644531 85.699219-85.703124zm0 0" fill="url(#c)"/><path d="m388 316.949219-48.300781 39.300781-17.699219-20.699219c-3.589844-4.199219-9.902344-4.691406-14.097656-1.101562-4.199219 3.589843-4.691406 9.902343-1.101563 14.101562l24 28.097657c1.90625 2.214843 4.679688 3.492187 7.601563 3.5 2.289062.023437 4.515625-.757813 6.296875-2.199219l55.902343-45.5c4.222657-3.492188 4.839844-9.738281 1.382813-13.992188-3.460937-4.253906-9.699219-4.925781-13.984375-1.507812zm0 0" fill="url(#d)"/></svg>