<svg height="454pt" viewBox="0 0 454.30046 454" width="454pt" xmlns="http://www.w3.org/2000/svg" xmlns:xlink="http://www.w3.org/1999/xlink"><linearGradient id="a"><stop offset=".322" stop-color="#a163f5"/><stop offset=".466" stop-color="#b074ee"/><stop offset=".752" stop-color="#d8a1dd"/><stop offset=".898" stop-color="#efbad3"/></linearGradient><linearGradient id="b" gradientTransform="matrix(1 0 0 -1 -25.999574 484.65023)" gradientUnits="userSpaceOnUse" x1="195.3" x2="195.3" xlink:href="#a" y1="-54" y2="536.979"/><linearGradient id="c" gradientTransform="matrix(1 0 0 -1 -25.999574 484.65023)" gradientUnits="userSpaceOnUse" x1="253.15" x2="253.15" xlink:href="#a" y1="-54" y2="536.979"/><linearGradient id="d" gradientTransform="matrix(1 0 0 -1 -25.999574 484.65023)" gradientUnits="userSpaceOnUse" x1="380.3" x2="380.3" xlink:href="#a" y1="-54" y2="536.979"/><linearGradient id="e" gradientTransform="matrix(1 0 0 -1 -25.999574 484.65023)" gradientUnits="userSpaceOnUse" x1="364.3" x2="364.3" xlink:href="#a" y1="-54" y2="536.979"/><path d="m169.300781 211.550781c58.375 0 105.699219-47.324219 105.699219-105.699219 0-58.378906-47.324219-105.703124-105.699219-105.703124s-105.699219 47.324218-105.699219 105.703124c.054688 58.351563 47.34375 105.644532 105.699219 105.699219zm0-191.402343c47.332031 0 85.699219 38.371093 85.699219 85.703124 0 47.328126-38.367188 85.699219-85.699219 85.699219s-85.699219-38.371093-85.699219-85.699219c.054688-47.308593 38.390626-85.644531 85.699219-85.703124zm0 0" fill="url(#b)"/><path d="m454.300781 349.648438c.035157-40.5625-24.460937-77.121094-61.992187-92.519532-37.527344-15.398437-80.640625-6.578125-109.109375 22.320313-30.898438-28.5-71.296875-44.097657-114.097657-44.097657-45.800781.097657-88.300781 17.898438-119.800781 50.296876-31.898437 32.703124-49.3984372 77.402343-49.300781 125.902343.015625 5.515625 4.484375 9.984375 10 10l273-.5v-1.300781c26.84375 27.441406 67.050781 37.046875 103.402344 24.699219l49.699218 8.699219c.5625.082031 1.128907.117187 1.699219.101562 3.34375-.019531 6.460938-1.707031 8.304688-4.496094 1.847656-2.789062 2.183593-6.316406.894531-9.402344l-12.597656-29.703124c5.433594-7.152344 9.839844-15.027344 13.097656-23.398438 4.484375-11.679688 6.789062-24.085938 6.800781-36.601562zm-434 51.800781c2.101563-39.300781 17.398438-75.199219 43.398438-101.898438 27.703125-28.5 65.203125-44.199219 105.5-44.199219h.300781c37.535156-.183593 73.714844 14.023438 101.101562 39.699219-20.949218 32.011719-21.765624 73.183594-2.101562 106zm408.5-22.699219c-3.261719 8.261719-7.855469 15.929688-13.601562 22.699219-2.488281 2.871093-3.109375 6.914062-1.597657 10.402343l7.800782 18.296876-34.101563-6c-.5625-.082032-1.132812-.113282-1.699219-.097657-1.195312-.003906-2.378906.199219-3.5.597657-32.777343 12.148437-69.648437 1.601562-91.046874-26.039063-21.398438-27.640625-22.371094-65.972656-2.402344-94.664063 19.96875-28.691406 56.253906-41.09375 89.605468-30.625 33.351563 10.464844 56.046876 41.375 56.042969 76.328126.03125 9.964843-1.832031 19.839843-5.5 29.101562zm0 0" fill="url(#c)"/><path d="m384.800781 327.449219h-61c-5.523437 0-10 4.476562-10 10 0 5.523437 4.476563 10 10 10h61c5.523438 0 10-4.476563 10-10 0-5.523438-4.476562-10-10-10zm0 0" fill="url(#d)"/><path d="m352.800781 364.050781h-29c-5.523437 0-10 4.476563-10 10 0 5.523438 4.476563 10 10 10h29c5.523438 0 10-4.476562 10-10 0-5.523437-4.476562-10-10-10zm0 0" fill="url(#e)"/></svg>