<svg height="464pt" viewBox="0 -3 464.3007 464" width="464pt" xmlns="http://www.w3.org/2000/svg" xmlns:xlink="http://www.w3.org/1999/xlink"><linearGradient id="a"><stop offset=".322" stop-color="#a163f5"/><stop offset=".466" stop-color="#b074ee"/><stop offset=".752" stop-color="#d8a1dd"/><stop offset=".898" stop-color="#efbad3"/></linearGradient><linearGradient id="b" gradientTransform="matrix(1 0 0 -1 -25.999574 484.65035)" gradientUnits="userSpaceOnUse" x1="258.15" x2="258.15" xlink:href="#a" y1="-54" y2="536.979"/><linearGradient id="c" gradientTransform="matrix(1 0 0 -1 -25.999574 484.65035)" gradientUnits="userSpaceOnUse" x1="385.305" x2="385.305" xlink:href="#a" y1="-54" y2="536.979"/><linearGradient id="d" gradientTransform="matrix(1 0 0 -1 -25.999574 484.65035)" gradientUnits="userSpaceOnUse" x1="195.3" x2="195.3" xlink:href="#a" y1="-54" y2="536.979"/><path d="m354.300781 237.449219c-30.25-.105469-59.1875 12.351562-79.898437 34.402343-29.890625-23.855468-67.058594-36.742187-105.300782-36.5-45.800781.097657-88.300781 17.898438-119.800781 50.296876-31.898437 32.703124-49.3984372 77.402343-49.300781 125.902343.0195312 2.652344 1.058594 5.191407 2.902344 7.097657 1.878906 1.882812 4.4375 2.929687 7.097656 2.902343l262.5-.5c.601562.699219 1.199219 1.300781 1.800781 2 34.464844 36.472657 89.246094 45.003907 133.171875 20.742188 43.925782-24.265625 65.871094-75.175781 53.347656-123.769531-12.523437-48.59375-56.335937-82.558594-106.519531-82.574219zm-334 164c2.101563-39.300781 17.398438-75.199219 43.398438-101.898438 27.703125-28.5 65.203125-44.199219 105.5-44.199219h.300781c33.632812-.132812 66.304688 11.226563 92.601562 32.199219-22.15625 34.21875-23.617187 77.875-3.800781 113.5zm334 36c-49.707031 0-90-40.292969-90-90 0-49.703125 40.292969-90 90-90s90 40.296875 90 90c0 49.707031-40.292969 90-90 90zm0 0" fill="url(#b)"/><path d="m378.601562 365.648438-23.199218-14.898438v-50c0-5.523438-4.480469-10-10-10-5.523438 0-10 4.476562-10 10v55.398438c-.023438 3.410156 1.714844 6.585937 4.597656 8.402343l27.800781 17.800781c1.601563 1.054688 3.480469 1.609376 5.398438 1.597657 4.414062.007812 8.304687-2.894531 9.554687-7.128907 1.246094-4.230468-.445312-8.78125-4.152344-11.171874zm0 0" fill="url(#c)"/><path d="m169.300781 211.550781c58.375 0 105.699219-47.324219 105.699219-105.699219 0-58.378906-47.324219-105.703124-105.699219-105.703124s-105.699219 47.324218-105.699219 105.703124c.054688 58.351563 47.34375 105.644532 105.699219 105.699219zm0-191.402343c47.332031 0 85.699219 38.371093 85.699219 85.703124 0 47.328126-38.367188 85.699219-85.699219 85.699219s-85.699219-38.371093-85.699219-85.699219c.054688-47.308593 38.390626-85.644531 85.699219-85.703124zm0 0" fill="url(#d)"/></svg>