<svg height="473pt" viewBox="0 -10 473.52486 473" width="473pt" xmlns="http://www.w3.org/2000/svg" xmlns:xlink="http://www.w3.org/1999/xlink"><linearGradient id="a"><stop offset=".322" stop-color="#a163f5"/><stop offset=".466" stop-color="#b074ee"/><stop offset=".752" stop-color="#d8a1dd"/><stop offset=".898" stop-color="#efbad3"/></linearGradient><linearGradient id="b" gradientTransform="matrix(1 0 0 -1 -25.2 484.76243)" gradientUnits="userSpaceOnUse" x1="195.3" x2="195.3" xlink:href="#a" y1="-54" y2="536.979"/><linearGradient id="c" gradientTransform="matrix(1 0 0 -1 -25.2 484.76243)" gradientUnits="userSpaceOnUse" x1="261.962" x2="261.962" xlink:href="#a" y1="-54" y2="536.979"/><path d="m170.101562 211.664062c58.375 0 105.699219-47.324218 105.699219-105.703124 0-58.375-47.324219-105.699219-105.699219-105.699219-58.378906 0-105.703124 47.324219-105.703124 105.699219.058593 58.355468 47.347656 105.644531 105.703124 105.703124zm0-191.402343c47.328126 0 85.699219 38.371093 85.699219 85.699219 0 47.332031-38.371093 85.703124-85.699219 85.703124-47.332031 0-85.703124-38.371093-85.703124-85.703124.058593-47.304688 38.394531-85.644532 85.703124-85.699219zm0 0" fill="url(#b)"/><path d="m423.101562 232.164062c-1.871093-1.875-4.40625-2.925781-7.050781-2.925781s-5.183593 1.050781-7.050781 2.925781l-26.101562 26.097657-64.398438 64.402343c-30.074219-53.785156-86.878906-87.101562-148.5-87.101562-93.699219 0-170 76.300781-170 170 .015625 5.515625 4.484375 9.984375 10 10h248.101562l-8.203124 24.5c-1.222657 3.578125-.292969 7.542969 2.402343 10.199219 1.890625 1.867187 4.441407 2.910156 7.097657 2.902343 1.085937-.019531 2.164062-.1875 3.203124-.5l71.097657-23.703124c.101562 0 .101562 0 .199219-.097657.320312-.089843.621093-.226562.902343-.402343.074219-.007813.144531-.042969.199219-.097657.300781-.199219.699219-.402343 1-.601562s.601562-.5.898438-.699219c.101562-.101562.203124-.101562.203124-.199219.097657-.101562.296876-.199219.398438-.402343l107-106.699219 26.101562-26.097657c1.871094-1.871093 2.921876-4.40625 2.921876-7.050781s-1.050782-5.183593-2.921876-7.050781zm-92.402343 173.097657-33.300781-33.300781 92.5-92.5 33.300781 33.300781zm-310.300781-9.800781c5.203124-78.097657 70.300781-140 149.703124-140 56.394532.082031 108.007813 31.699218 133.699219 81.902343l-27.601562 27.597657-.398438.402343c-.101562.097657-.101562.199219-.199219.199219-.492187.628906-.925781 1.296875-1.300781 2-.011719.074219-.046875.144531-.101562.199219-.097657.300781-.300781.601562-.398438.902343 0 .097657 0 .097657-.101562.199219l-8.898438 26.699219h-244.402343zm267.300781-5 24.5 24.5-36.800781 12.300781zm149.699219-91.898438-33.296876-33.300781 11.898438-11.898438 33.300781 33.300781zm0 0" fill="url(#c)"/></svg>