<svg height="464pt" viewBox="-2 0 464 464.2" width="464pt" xmlns="http://www.w3.org/2000/svg" xmlns:xlink="http://www.w3.org/1999/xlink"><linearGradient id="a"><stop offset=".322" stop-color="#a163f5"/><stop offset=".466" stop-color="#b074ee"/><stop offset=".752" stop-color="#d8a1dd"/><stop offset=".898" stop-color="#efbad3"/></linearGradient><linearGradient id="b" gradientTransform="matrix(1 0 0 -1 -25.899574 484.5)" gradientUnits="userSpaceOnUse" x1="195.3" x2="195.3" xlink:href="#a" y1="-54" y2="536.979"/><linearGradient id="c" gradientTransform="matrix(1 0 0 -1 -25.899574 484.5)" gradientUnits="userSpaceOnUse" x1="255.65" x2="255.65" xlink:href="#a" y1="-54" y2="536.979"/><linearGradient id="d" gradientTransform="matrix(1 0 0 -1 -25.899574 484.5)" gradientUnits="userSpaceOnUse" x1="380.3" x2="380.3" xlink:href="#a" y1="-54" y2="536.979"/><linearGradient id="e" gradientTransform="matrix(1 0 0 -1 -25.899574 484.5)" gradientUnits="userSpaceOnUse" x1="357.2" x2="357.2" xlink:href="#a" y1="-54" y2="536.979"/><path d="m169.402344 211.398438c58.375 0 105.699218-47.320313 105.699218-105.699219 0-58.375-47.324218-105.699219-105.699218-105.699219-58.378906 0-105.703125 47.324219-105.703125 105.699219.054687 58.355469 47.347656 105.644531 105.703125 105.699219zm0-191.398438c47.328125 0 85.699218 38.371094 85.699218 85.699219 0 47.332031-38.371093 85.699219-85.699218 85.699219-47.332032 0-85.703125-38.367188-85.703125-85.699219.054687-47.308594 38.394531-85.644531 85.703125-85.699219zm0 0" fill="url(#b)"/><path d="m409.402344 246.800781h-1.203125v-5.300781c0-5.523438-4.476563-10-10-10-5.523438 0-10 4.476562-10 10v5.300781h-67.699219v-5.300781c0-5.523438-4.476562-10-10-10s-10 4.476562-10 10v5.300781h-1.199219c-13.996093-.007812-27.351562 5.871094-36.800781 16.199219-27.558594-18.28125-59.929688-27.957031-93-27.800781h-.300781c-45.796875.101562-88.296875 17.902343-119.796875 50.300781-31.902344 32.699219-49.402344 77.398438-49.300782 125.898438.019532 2.652343 1.058594 5.195312 2.898438 7.101562 1.882812 1.882812 4.441406 2.925781 7.101562 2.898438l239.800782-.5c3.367187 24.773437 24.5 43.257812 49.5 43.300781h110c27.609375-.007813 49.988281-22.390625 50-50v-117.398438c-.011719-27.609375-22.390625-49.992187-50-50zm-110 20h1.199218v12.300781c0 5.519532 4.476563 10 10 10 5.523438 0 10-4.480468 10-10v-12.300781h67.699219v12.300781c0 5.519532 4.476563 10 10 10 5.523438 0 10-4.480468 10-10v-12.300781h1.199219c16.550781.046875 29.953125 13.449219 30 30v11.699219h-170v-11.699219c-.035156-16.542969 13.355469-29.980469 29.902344-30zm-235.703125 32.597657c27.703125-28.5 65.203125-44.199219 105.5-44.199219h.300781c29.453125-.15625 58.269531 8.554687 82.699219 25-1.890625 5.367187-2.871094 11.011719-2.898438 16.699219v104l-229.101562.5c2.300781-39.398438 17.5-75.296876 43.5-102zm345.703125 144.703124h-110c-16.550782-.050781-29.953125-13.453124-30-30v-85.601562h170v85.601562c.007812 7.957032-3.148438 15.59375-8.777344 21.222657-5.628906 5.628906-13.265625 8.785156-21.222656 8.777343zm0 0" fill="url(#c)"/><path d="m409.199219 354.101562h-109.597657c-5.523437 0-10 4.476563-10 10 0 5.519532 4.476563 10 10 10h109.597657c5.523437 0 10-4.480468 10-10 0-5.523437-4.476563-10-10-10zm0 0" fill="url(#d)"/><path d="m363 400.601562h-63.398438c-5.523437 0-10 4.476563-10 10 0 5.519532 4.476563 10 10 10h63.398438c5.523438 0 10-4.480468 10-10 0-5.523437-4.476562-10-10-10zm0 0" fill="url(#e)"/></svg>