<svg height="459pt" viewBox="-12 0 459 459.3015" width="459pt" xmlns="http://www.w3.org/2000/svg" xmlns:xlink="http://www.w3.org/1999/xlink"><linearGradient id="a"><stop offset=".322" stop-color="#a163f5"/><stop offset=".466" stop-color="#b074ee"/><stop offset=".752" stop-color="#d8a1dd"/><stop offset=".898" stop-color="#efbad3"/></linearGradient><linearGradient id="b" gradientTransform="matrix(1 0 0 -1 -25.848824 484.5)" gradientUnits="userSpaceOnUse" x1="195.3" x2="195.3" xlink:href="#a" y1="-54" y2="536.979"/><linearGradient id="c" gradientTransform="matrix(1 0 0 -1 -25.848824 484.5)" gradientUnits="userSpaceOnUse" x1="243.15" x2="243.15" xlink:href="#a" y1="-54" y2="536.979"/><path d="m169.453125 211.398438c58.375 0 105.699219-47.320313 105.699219-105.699219 0-58.375-47.324219-105.699219-105.699219-105.699219-58.378906 0-105.703125 47.324219-105.703125 105.699219.054688 58.355469 47.347656 105.644531 105.703125 105.699219zm0-191.398438c47.328125 0 85.699219 38.371094 85.699219 85.699219 0 47.332031-38.371094 85.699219-85.699219 85.699219-47.332031 0-85.703125-38.367188-85.703125-85.699219.054688-47.308594 38.394531-85.644531 85.703125-85.699219zm0 0" fill="url(#b)"/><path d="m424.453125 225.398438h-180c-5.519531.015624-9.984375 4.484374-10 10v12.601562c-20.554687-8.46875-42.574219-12.816406-64.800781-12.800781h-.300782c-45.800781.101562-88.300781 17.902343-119.800781 50.300781-32 32.699219-49.4999998 77.398438-49.398437 125.898438.015625 5.519531 4.484375 9.984374 10 10l294.597656-.5v28.402343c-.007812 3.453125 1.769531 6.667969 4.703125 8.5 1.585937.992188 3.425781 1.511719 5.296875 1.5 1.570312.027344 3.121094-.351562 4.5-1.101562l39.402344-19.699219c3.363281-1.691406 5.488281-5.132812 5.5-8.898438v-65.101562l66.800781-57.300781c2.207031-1.910157 3.484375-4.679688 3.5-7.597657v-64.203124c.007813-2.652344-1.042969-5.203126-2.921875-7.078126-1.875-1.878906-4.425781-2.929687-7.078125-2.921874zm-10 20v10.5h-160v-10.5zm-394 155.902343c2.097656-39.300781 17.296875-75.199219 43.398437-101.902343 27.699219-28.5 65.199219-44.199219 105.5-44.199219h.300782c22.429687-.027344 44.578125 4.996093 64.800781 14.699219v29.703124c.011719 2.917969 1.289063 5.6875 3.5 7.597657l66.796875 57.300781v36.398438zm327.199219-49c-2.210938 1.910157-3.488282 4.679688-3.5 7.597657v63.5l-19.402344 9.703124v-73.203124c-.011719-2.917969-1.289062-5.6875-3.5-7.597657l-66.796875-57.300781v-19.199219h160v19.199219zm0 0" fill="url(#c)"/></svg>