<svg height="468pt" viewBox="0 -2 468.30594 468" width="468pt" xmlns="http://www.w3.org/2000/svg" xmlns:xlink="http://www.w3.org/1999/xlink"><linearGradient id="a"><stop offset=".322" stop-color="#a163f5"/><stop offset=".466" stop-color="#b074ee"/><stop offset=".752" stop-color="#d8a1dd"/><stop offset=".898" stop-color="#efbad3"/></linearGradient><linearGradient id="b" gradientTransform="matrix(1 0 0 -1 -25.999574 484.65297)" gradientUnits="userSpaceOnUse" x1="195.3" x2="195.3" xlink:href="#a" y1="-54" y2="536.979"/><linearGradient id="c" gradientTransform="matrix(1 0 0 -1 -25.999574 484.65297)" gradientUnits="userSpaceOnUse" x1="260.152" x2="260.152" xlink:href="#a" y1="-54" y2="536.979"/><path d="m169.300781 211.554688c58.375 0 105.699219-47.324219 105.699219-105.703126 0-58.375-47.324219-105.699218-105.699219-105.699218s-105.699219 47.324218-105.699219 105.699218c.054688 58.355469 47.34375 105.644532 105.699219 105.703126zm0-191.402344c47.332031 0 85.699219 38.371094 85.699219 85.699218 0 47.332032-38.367188 85.703126-85.699219 85.703126s-85.699219-38.371094-85.699219-85.703126c.054688-47.304687 38.390626-85.644531 85.699219-85.699218zm0 0" fill="url(#b)"/><path d="m467.101562 278.554688c-1.746093-3.183594-5.074218-5.171876-8.699218-5.203126h-65.203125v-24.898437c-.015625-5.515625-4.484375-9.984375-10-10h-101.898438c-5.515625.015625-9.984375 4.484375-10 10v20.898437c-29.347656-22.375-65.296875-34.371093-102.199219-34.097656-45.800781.097656-88.300781 17.898438-119.800781 50.300782-31.898437 32.796874-49.3984372 77.5-49.300781 126 .015625 5.515624 4.484375 9.980468 10 10l261.300781-.5v32.296874c0 5.523438 4.476563 10 10 10 5.523438 0 10-4.476562 10-10v-108.796874h41.101563v22.597656c.015625 5.515625 4.480468 9.984375 10 10h115.898437c3.695313.027344 7.09375-2.019532 8.800781-5.300782 1.695313-3.273437 1.503907-7.203124-.5-10.296874l-23.5-35 23.699219-37.902344c1.894531-3.070313 2.007813-6.921875.300781-10.097656zm-446.800781 122.898437c2.101563-39.300781 17.398438-75.199219 43.398438-101.898437 27.703125-28.5 65.203125-44.203126 105.5-44.203126h.300781c38.402344 0 74.5 14.300782 101.800781 40.300782v105.402344zm271-86.898437v-56h81.800781v66h-81.800781zm131.601563 17.796874 16.699218 24.800782h-87.101562v-12.597656h30.699219c5.515625-.019532 9.984375-4.484376 10-10v-41.101563h47.203125l-17.601563 28.101563c-2.171875 3.28125-2.128906 7.554687.101563 10.796874zm0 0" fill="url(#c)"/></svg>