<svg height="475pt" viewBox="-8 0 475 475.70012" width="475pt" xmlns="http://www.w3.org/2000/svg" xmlns:xlink="http://www.w3.org/1999/xlink"><linearGradient id="a"><stop offset=".322" stop-color="#a163f5"/><stop offset=".466" stop-color="#b074ee"/><stop offset=".752" stop-color="#d8a1dd"/><stop offset=".898" stop-color="#efbad3"/></linearGradient><linearGradient id="b" gradientTransform="matrix(1 0 0 -1 -25.649514 484.5)" gradientUnits="userSpaceOnUse" x1="195.3" x2="195.3" xlink:href="#a" y1="-54" y2="536.979"/><linearGradient id="c" gradientTransform="matrix(1 0 0 -1 -25.649514 484.5)" gradientUnits="userSpaceOnUse" x1="255.6" x2="255.6" xlink:href="#a" y1="-54" y2="536.979"/><path d="m169.652344 211.398438c58.375 0 105.699218-47.320313 105.699218-105.699219 0-58.375-47.324218-105.699219-105.699218-105.699219-58.378906 0-105.703125 47.324219-105.703125 105.699219.054687 58.355469 47.347656 105.644531 105.703125 105.699219zm0-191.398438c47.328125 0 85.699218 38.371094 85.699218 85.699219 0 47.332031-38.371093 85.699219-85.699218 85.699219-47.332032 0-85.703125-38.367188-85.703125-85.699219.054687-47.308594 38.394531-85.644531 85.703125-85.699219zm0 0" fill="url(#b)"/><path d="m433.152344 347.199219v-24.898438c.011718-36.816406-24.09375-69.292969-59.339844-79.9375-35.242188-10.640625-73.296875 3.066407-93.660156 33.738281-30.574219-26.605468-69.777344-41.175781-110.300782-41h-.300781c-45.800781.097657-88.300781 17.898438-119.800781 50.296876-32 32.800781-49.5 77.5-49.398438 126 .019532 2.652343 1.058594 5.195312 2.898438 7.101562 1.882812 1.882812 4.441406 2.925781 7.101562 2.898438l240.800782-.5c4.675781 3.40625 10.316406 5.226562 16.097656 5.203124h20.601562c5.515626-.015624 9.984376-4.484374 10-10v-58.800781c-.015624-5.515625-4.484374-9.984375-10-10h-1.800781v-24.800781c0-35.070312 28.429688-63.5 63.5-63.5 35.070313 0 63.5 28.429688 63.5 63.5v24.800781h-1.800781c-5.515625.015625-9.984375 4.484375-10 10v58.800781c.015625 5.515626 4.484375 9.984376 10 10h1.800781v5.296876c-.03125 6.230468-5.070312 11.273437-11.300781 11.300781h-8.199219c-3.476562-7.960938-11.3125-13.132813-20-13.199219h-18.5c-12.027343.027344-21.773437 9.773438-21.800781 21.800781v2.597657c.027344 12.03125 9.773438 21.773437 21.800781 21.800781h18.5c8.714844.03125 16.601563-5.171875 20-13.199219h8.199219c17.277344-.027344 31.273438-14.023438 31.300781-31.300781v-5.300781c14.785157-.644532 26.457031-12.796876 26.5-27.597657v-23.5c.003907-14.78125-11.632812-26.949219-26.398437-27.601562zm-369.203125-47.800781c27.703125-28.5 65.203125-44.199219 105.5-44.199219h.300781c38 0 73.800781 14 101 39.601562-3.097656 8.871094-4.683594 18.203125-4.699219 27.597657v24.902343c-14.789062.644531-26.457031 12.796875-26.5 27.597657v23.5c-.015625.835937.015625 1.671874.101563 2.5l-219.203125.5c2.300781-39.398438 17.5-75.296876 43.5-102zm213.902343 106.601562h-10.5c-4.199218 0-7.601562-3.402344-7.601562-7.601562v-23.5c0-4.195313 3.402344-7.597657 7.601562-7.597657h10.597657v38.699219zm97.699219 47.898438c0 .480468-.1875.9375-.527343 1.277343-.335938.335938-.796876.527344-1.273438.523438h-18.5c-.476562.003906-.9375-.1875-1.273438-.523438-.339843-.339843-.527343-.796875-.527343-1.277343v-2.597657c0-.480469.1875-.9375.527343-1.277343.335938-.335938.796876-.523438 1.273438-.523438h18.5c.476562 0 .9375.1875 1.273438.523438.339843.339843.527343.796874.527343 1.277343zm64.101563-55.5c0 4.199218-3.40625 7.601562-7.601563 7.601562h-10.601562v-38.800781h10.601562c4.195313 0 7.601563 3.402343 7.601563 7.601562zm0 0" fill="url(#c)"/></svg>