<svg height="459pt" viewBox="0 -8 459.2697 459" width="459pt" xmlns="http://www.w3.org/2000/svg" xmlns:xlink="http://www.w3.org/1999/xlink"><linearGradient id="a"><stop offset=".322" stop-color="#a163f5"/><stop offset=".466" stop-color="#b074ee"/><stop offset=".752" stop-color="#d8a1dd"/><stop offset=".898" stop-color="#efbad3"/></linearGradient><linearGradient id="b" gradientTransform="matrix(1 0 0 -1 -25.999574 484.63485)" gradientUnits="userSpaceOnUse" x1="195.3" x2="195.3" xlink:href="#a" y1="-54" y2="536.979"/><linearGradient id="c" gradientTransform="matrix(1 0 0 -1 -25.999574 484.63485)" gradientUnits="userSpaceOnUse" x1="255.634" x2="255.634" xlink:href="#a" y1="-54" y2="536.979"/><path d="m169.300781 211.535156c58.375 0 105.699219-47.324218 105.699219-105.699218 0-58.378907-47.324219-105.699219-105.699219-105.699219s-105.699219 47.320312-105.699219 105.699219c.054688 58.351562 47.34375 105.644531 105.699219 105.699218zm0-191.398437c47.332031 0 85.699219 38.367187 85.699219 85.699219 0 47.328124-38.367188 85.699218-85.699219 85.699218s-85.699219-38.371094-85.699219-85.699218c.054688-47.308594 38.390626-85.644532 85.699219-85.699219zm0 0" fill="url(#b)"/><path d="m457.699219 305.535156c-6.5-32.101562-29.898438-52.800781-59.597657-52.800781-14.101562 0-29.101562 4.902344-43.699218 14.300781-14.800782-9.800781-29.703125-14.800781-44.203125-14.800781-15.035157-.183594-29.527344 5.605469-40.296875 16.101563-29.054688-21.585938-64.308594-33.199219-100.5-33.101563h-.300782c-45.800781.101563-88.300781 17.902344-119.800781 50.300781-31.898437 32.800782-49.3984372 77.5-49.300781 126 .015625 5.515625 4.484375 9.984375 10 10l299-.5c12.332031 8.1875 25.507812 15.027344 39.300781 20.398438.199219.101562.300781.101562.5.203125 1.765625.632812 3.625.972656 5.5 1 1.875-.019531 3.738281-.355469 5.5-1 .199219-.101563.398438-.101563.601563-.203125 79.199218-32.097656 106-91.296875 97.296875-135.898438zm-437.398438 95.898438c2.101563-39.296875 17.300781-75.199219 43.398438-101.898438 27.703125-28.5 65.203125-44.199218 105.5-44.199218h.300781c31.914062-.105469 63 10.140624 88.601562 29.199218-3.46875 6.65625-5.894531 13.808594-7.199218 21.199219-5.703125 29.601563 4 65.402344 33.796875 95.402344zm334 20.902344c-67.601562-27.300782-90.800781-76.300782-83.800781-112.902344 4.300781-22.898438 19.601562-37.097656 39.699219-37.097656 11.800781 0 25 5.199218 38.101562 14.898437 3.535157 2.582031 8.320313 2.621094 11.898438.101563 13.101562-9.5 26.203125-14.5 38-14.5 20.101562 0 35.402343 14.097656 40 36.699218 9.601562 50-35 92.5-83.898438 112.800782zm0 0" fill="url(#c)"/></svg>