<svg height="462pt" viewBox="-6 0 462 462.90051" width="462pt" xmlns="http://www.w3.org/2000/svg" xmlns:xlink="http://www.w3.org/1999/xlink"><linearGradient id="a"><stop offset=".322" stop-color="#a163f5"/><stop offset=".466" stop-color="#b074ee"/><stop offset=".752" stop-color="#d8a1dd"/><stop offset=".898" stop-color="#efbad3"/></linearGradient><linearGradient id="b" gradientTransform="matrix(1 0 0 -1 -25.549319 484.5)" gradientUnits="userSpaceOnUse" x1="195.3" x2="195.3" xlink:href="#a" y1="-54" y2="536.979"/><linearGradient id="c" gradientTransform="matrix(1 0 0 -1 -25.549319 484.5)" gradientUnits="userSpaceOnUse" x1="380.3" x2="380.3" xlink:href="#a" y1="-54" y2="536.979"/><linearGradient id="d" gradientTransform="matrix(1 0 0 -1 -25.549319 484.5)" gradientUnits="userSpaceOnUse" x1="250.608" x2="250.608" xlink:href="#a" y1="-54" y2="536.979"/><path d="m169.75 211.398438c58.378906 0 105.699219-47.320313 105.699219-105.699219 0-58.375-47.320313-105.699219-105.699219-105.699219-58.375 0-105.699219 47.324219-105.699219 105.699219.054688 58.355469 47.347657 105.644531 105.699219 105.699219zm0-191.398438c47.332031 0 85.699219 38.371094 85.699219 85.699219 0 47.332031-38.367188 85.699219-85.699219 85.699219s-85.699219-38.367188-85.699219-85.699219c.054688-47.308594 38.390625-85.644531 85.699219-85.699219zm0 0" fill="url(#b)"/><path d="m354.75 275.199219c-25.398438 0-46.097656 21.101562-46.097656 47.101562s20.699218 47.097657 46.097656 47.097657c25.402344 0 46.101562-21.097657 46.101562-47.097657s-20.699218-47.101562-46.101562-47.101562zm0 74.101562c-14.398438 0-26.097656-12.101562-26.097656-27.101562s11.699218-27.097657 26.097656-27.097657c14.402344 0 26.101562 12.097657 26.101562 27.097657s-11.699218 27.101562-26.101562 27.101562zm0 0" fill="url(#c)"/><path d="m420.949219 259.300781c-17.53125-17.605469-41.351563-27.5-66.199219-27.5-24.84375 0-48.667969 9.894531-66.199219 27.5-4.273437 4.347657-8.15625 9.066407-11.601562 14.097657-30.113281-24.832032-67.964844-38.34375-107-38.199219h-.296875c-45.800782.101562-88.300782 17.902343-119.800782 50.300781-32 32.699219-49.5 77.398438-49.402343 125.898438.015625 5.519531 4.484375 9.984374 10 10l300.601562-.5 36.398438 38.800781c1.890625 2.027343 4.53125 3.183593 7.300781 3.199219 2.78125.03125 5.4375-1.136719 7.300781-3.199219l60.300781-64.300781c9.800782-10.5 17.097657-22 21.5-34.199219 4.566407-12.328125 6.476563-25.480469 5.597657-38.597657-1.46875-23.871093-11.601563-46.378906-28.5-63.300781zm-400.199219 142c2.101562-39.300781 17.402344-75.199219 43.402344-101.902343 27.699218-28.5 65.199218-44.199219 105.5-44.199219h.296875c35.761719-.179688 70.355469 12.691406 97.300781 36.199219-4.082031 9.945312-6.546875 20.480468-7.300781 31.203124-.859375 13.117188 1.046875 26.265626 5.601562 38.597657 4.761719 12.746093 12.078125 24.382812 21.5 34.199219l5.101563 5.5zm404.402344-47c-3.5 9.699219-9.402344 18.898438-17.300782 27.398438l-53 56.5-53-56.5c-7.585937-7.847657-13.476562-17.175781-17.300781-27.398438-3.652343-9.699219-5.183593-20.0625-4.5-30.402343 1.277344-19.054688 9.367188-37.019532 22.800781-50.597657 13.769532-13.828125 32.484376-21.601562 52-21.601562 19.515626 0 38.226563 7.773437 52 21.601562 13.449219 13.566407 21.542969 31.535157 22.800782 50.597657.582031 10.335937-.949219 20.679687-4.5 30.402343zm0 0" fill="url(#d)"/></svg>