<svg height="456pt" viewBox="0 -17 456.80043 456" width="456pt" xmlns="http://www.w3.org/2000/svg" xmlns:xlink="http://www.w3.org/1999/xlink"><linearGradient id="a"><stop offset=".322" stop-color="#a163f5"/><stop offset=".466" stop-color="#b074ee"/><stop offset=".752" stop-color="#d8a1dd"/><stop offset=".898" stop-color="#efbad3"/></linearGradient><linearGradient id="b" gradientTransform="matrix(1 0 0 -1 -25.999574 484.900215)" gradientUnits="userSpaceOnUse" x1="195.3" x2="195.3" xlink:href="#a" y1="-54" y2="536.979"/><linearGradient id="c" gradientTransform="matrix(1 0 0 -1 -25.999574 484.900215)" gradientUnits="userSpaceOnUse" x1="254.4" x2="254.4" xlink:href="#a" y1="-54" y2="536.979"/><path d="m169.300781 211.800781c58.375 0 105.699219-47.324219 105.699219-105.699219 0-58.378906-47.324219-105.703124-105.699219-105.703124s-105.699219 47.324218-105.699219 105.703124c.054688 58.351563 47.34375 105.644532 105.699219 105.699219zm0-191.402343c47.332031 0 85.699219 38.371093 85.699219 85.703124 0 47.328126-38.367188 85.699219-85.699219 85.699219s-85.699219-38.371093-85.699219-85.699219c.054688-47.308593 38.390626-85.644531 85.699219-85.703124zm0 0" fill="url(#b)"/><path d="m446.800781 267h-179.101562c-28.609375-20.546875-62.976563-31.535156-98.199219-31.398438h-.300781c-45.796875.097657-88.296875 17.898438-119.796875 50.296876-32 32.703124-49.5000002 77.402343-49.402344 125.902343.0195312 2.652344 1.058594 5.191407 2.902344 7.097657 1.878906 1.882812 4.4375 2.929687 7.097656 2.902343l233.800781-.5c.964844.328125 1.980469.496094 3 .5h200c5.515625-.015625 9.984375-4.484375 10-10v-134.800781c-.015625-5.515625-4.484375-9.984375-10-10zm-100.101562 85.199219-69.296875-61.398438 3.699218-3.800781h139.300782zm-50.699219-18.199219-39.199219 49.199219v-84zm-20 67.199219h-8l43.101562-54 29 25.699219c1.816407 1.617187 4.167969 2.507812 6.597657 2.5 2.4375.023437 4.792969-.867188 6.601562-2.5l28.699219-25.398438 43.800781 54.101562h-149.800781zm121-66.800781 39.800781-35.199219v84.402343zm-333.398438-34.597657c27.699219-28.5 65.199219-44.199219 105.5-44.199219h.300782c23.839844-.097656 47.347656 5.597657 68.5 16.597657-.808594 1.472656-1.21875 3.125-1.203125 4.800781v124.300781l-216.5.398438c2.203125-39.300781 17.402343-75.199219 43.402343-101.898438zm0 0" fill="url(#c)"/></svg>