<svg height="468pt" viewBox="-11 0 468 468.2" width="468pt" xmlns="http://www.w3.org/2000/svg" xmlns:xlink="http://www.w3.org/1999/xlink"><linearGradient id="a"><stop offset=".322" stop-color="#a163f5"/><stop offset=".466" stop-color="#b074ee"/><stop offset=".752" stop-color="#d8a1dd"/><stop offset=".898" stop-color="#efbad3"/></linearGradient><linearGradient id="b" gradientTransform="matrix(1 0 0 -1 -25.2 484.5)" gradientUnits="userSpaceOnUse" x1="195.3" x2="195.3" xlink:href="#a" y1="-54" y2="536.979"/><linearGradient id="c" gradientTransform="matrix(1 0 0 -1 -25.2 484.5)" gradientUnits="userSpaceOnUse" x1="247.8" x2="247.8" xlink:href="#a" y1="-54" y2="536.979"/><path d="m170.101562 211.398438c58.375 0 105.699219-47.320313 105.699219-105.699219 0-58.375-47.324219-105.699219-105.699219-105.699219-58.378906 0-105.703124 47.324219-105.703124 105.699219.058593 58.355469 47.347656 105.644531 105.703124 105.699219zm0-191.398438c47.328126 0 85.699219 38.371094 85.699219 85.699219 0 47.332031-38.371093 85.699219-85.699219 85.699219-47.332031 0-85.703124-38.367188-85.703124-85.699219.058593-47.308594 38.394531-85.644531 85.703124-85.699219zm0 0" fill="url(#b)"/><path d="m435.101562 323.300781c-5.519531.015625-9.984374 4.484375-10 10 0 37.300781-31.402343 67.597657-70 67.597657-38.601562 0-70-30.296876-70-67.597657 0-5.523437-4.480468-10-10-10-5.523437 0-10 4.476563-10 10 .019532 23.363281 9.550782 45.710938 26.398438 61.898438h-271.101562c5.203124-78.097657 70.300781-140 149.703124-140 49.5625.015625 95.925782 24.488281 123.898438 65.402343.898438 1.296876 1.800781 2.699219 2.601562 4v4.097657c0 32.308593 26.191407 58.5 58.5 58.5 32.308594 0 58.5-26.191407 58.5-58.5v-63.800781c0-32.308594-26.191406-58.5-58.5-58.5-32.308593 0-58.5 26.191406-58.5 58.5v26.703124c-32.226562-35.953124-78.222656-56.496093-126.5-56.5-93.703124 0-170 76.296876-170 170 .015626 5.515626 4.480469 9.984376 10 10h313c7.0625 2.609376 14.414063 4.355469 21.898438 5.199219v27.898438h-23.898438c-5.523437 0-10 4.476562-10 10 0 5.523437 4.476563 10 10 10h67.898438c5.523438 0 10-4.476563 10-10 0-5.523438-4.476562-10-10-10h-23.898438v-27.898438c44.898438-4.902343 80-42 80-87-.015624-5.515625-4.484374-9.984375-10-10zm-80-96.902343c21.242188.046874 38.453126 17.257812 38.5 38.5v63.800781c0 21.265625-17.238281 38.5-38.5 38.5-21.265624 0-38.5-17.234375-38.5-38.5v-2.5c.847657-2.21875.847657-4.679688 0-6.898438v-54.300781c0-21.277344 17.21875-38.542969 38.5-38.601562zm0 0" fill="url(#c)"/></svg>