<svg height="467pt" viewBox="-22 0 467 467.1" width="467pt" xmlns="http://www.w3.org/2000/svg" xmlns:xlink="http://www.w3.org/1999/xlink"><linearGradient id="a"><stop offset=".322" stop-color="#a163f5"/><stop offset=".466" stop-color="#b074ee"/><stop offset=".752" stop-color="#d8a1dd"/><stop offset=".898" stop-color="#efbad3"/></linearGradient><linearGradient id="b" gradientTransform="matrix(1 0 0 -1 -25.949574 484.5)" gradientUnits="userSpaceOnUse" x1="195.3" x2="195.3" xlink:href="#a" y1="-54" y2="536.979"/><linearGradient id="c" gradientTransform="matrix(1 0 0 -1 -25.949574 484.5)" gradientUnits="userSpaceOnUse" x1="237.65" x2="237.65" xlink:href="#a" y1="-54" y2="536.979"/><path d="m169.351562 211.398438c58.375 0 105.699219-47.320313 105.699219-105.699219 0-58.375-47.324219-105.699219-105.699219-105.699219-58.378906 0-105.699218 47.324219-105.699218 105.699219.054687 58.355469 47.34375 105.644531 105.699218 105.699219zm0-191.398438c47.328126 0 85.699219 38.371094 85.699219 85.699219 0 47.332031-38.371093 85.699219-85.699219 85.699219-47.332031 0-85.699218-38.367188-85.699218-85.699219.054687-47.308594 38.390625-85.644531 85.699218-85.699219zm0 0" fill="url(#b)"/><path d="m410.949219 235.300781c-7.777344-6.484375-18.058594-9.128906-28-7.199219l-86.5 14.898438h-.199219c-12.902344 2.550781-23.203125 12.269531-26.5 25-29.019531-21.480469-64.195312-33.019531-100.300781-32.898438h-.296875c-45.800782.097657-88.300782 17.898438-119.800782 50.296876-31.902343 32.800781-49.4023432 77.5-49.3007808 126 .0195313 2.652343 1.0585938 5.195312 2.8984378 7.101562 1.882812 1.882812 4.441406 2.925781 7.101562 2.898438l204.300781-.5c-.640624 2.789062-.976562 5.640624-1 8.5 0 20.824218 16.878907 37.703124 37.699219 37.703124 20.820313 0 37.699219-16.878906 37.699219-37.703124v-153c-.015625-6.652344 4.675781-12.390626 11.199219-13.699219l86.5-14.898438h.203125c4.101562-.773437 8.339844.285157 11.597656 2.898438 3.214844 2.667969 5.082031 6.625 5.101562 10.800781v101.800781c-14.960937-7.957031-33.390624-4.960937-45.058593 7.328125-11.664063 12.289063-13.699219 30.851563-4.976563 45.378906 8.722656 14.523438 26.066406 21.445313 42.394532 16.921876 16.328124-4.523438 27.636718-19.386719 27.640624-36.328126v-135.101562c.019532-10.152344-4.535156-19.777344-12.402343-26.199219zm-347.296875 64.097657c27.699218-28.5 65.199218-44.199219 105.5-44.199219h.296875c37.203125 0 72.203125 13.402343 99.203125 37.902343v103c-13.738282-7.300781-30.550782-5.394531-42.300782 4.796876l-206.199218.5c2.296875-39.398438 17.5-75.296876 43.5-102zm187.398437 147.703124c-9.777343 0-17.699219-7.925781-17.699219-17.703124 0-9.773438 7.921876-17.699219 17.699219-17.699219 9.773438 0 17.699219 7.925781 17.699219 17.699219.007812 4.699218-1.851562 9.207031-5.175781 12.527343-3.320313 3.320313-7.828125 5.183594-12.523438 5.175781zm134.601563-32.800781c-9.777344 0-17.703125-7.925781-17.703125-17.699219 0-9.777343 7.925781-17.703124 17.703125-17.703124 9.773437 0 17.699218 7.925781 17.699218 17.703124.007813 4.695313-1.855468 9.203126-5.175781 12.523438-3.320312 3.320312-7.828125 5.183594-12.523437 5.175781zm0 0" fill="url(#c)"/></svg>