<svg height="464pt" viewBox="0 -5 464.42528 464" width="464pt" xmlns="http://www.w3.org/2000/svg" xmlns:xlink="http://www.w3.org/1999/xlink"><linearGradient id="a"><stop offset=".322" stop-color="#a163f5"/><stop offset=".466" stop-color="#b074ee"/><stop offset=".752" stop-color="#d8a1dd"/><stop offset=".898" stop-color="#efbad3"/></linearGradient><linearGradient id="b" gradientTransform="matrix(1 0 0 -1 -25.999574 484.71264)" gradientUnits="userSpaceOnUse" x1="258.212" x2="258.212" xlink:href="#a" y1="-54" y2="536.979"/><linearGradient id="c" gradientTransform="matrix(1 0 0 -1 -25.999574 484.71264)" gradientUnits="userSpaceOnUse" x1="195.3" x2="195.3" xlink:href="#a" y1="-54" y2="536.979"/><path d="m427 402.113281c34.445312-42.121093 28.894531-104.054687-12.496094-139.375-41.386718-35.320312-103.421875-31.066406-139.601562 9.574219-29.878906-24.078125-67.128906-37.140625-105.5-37h-.300782c-45.800781.101562-88.300781 17.898438-119.800781 50.300781-31.898437 32.800781-49.3984372 77.5-49.300781 126 .015625 5.515625 4.484375 9.984375 10 10l282.800781-.5c36.609375 25.40625 85.632813 23.445313 120.101563-4.800781l34.398437 34.398438c1.875 1.890624 4.4375 2.9375 7.101563 2.902343 2.652344-.011719 5.195312-1.050781 7.097656-2.902343 1.871094-1.867188 2.925781-4.402344 2.925781-7.046876 0-2.648437-1.054687-5.183593-2.925781-7.050781zm-363.398438-102.5c27.699219-28.5 65.199219-44.199219 105.5-44.199219h.300782c34.140625-.160156 67.273437 11.578126 93.699218 33.199219-20.777343 35.625-17.519531 80.359375 8.199219 112.597657l-251.199219.402343c2.300782-39.402343 17.5-75.300781 43.5-102zm206 39.199219c0-44.183594 35.816407-80 80-80 44.183594 0 80 35.816406 80 80s-35.816406 80-80 80c-44.160156-.058594-79.941406-35.839844-80-80zm0 0" fill="url(#b)"/><path d="m169.300781 211.613281c58.375 0 105.699219-47.324219 105.699219-105.699219 0-58.378906-47.324219-105.703124-105.699219-105.703124s-105.699219 47.324218-105.699219 105.703124c.054688 58.351563 47.34375 105.644532 105.699219 105.699219zm0-191.402343c47.332031 0 85.699219 38.371093 85.699219 85.703124 0 47.328126-38.367188 85.699219-85.699219 85.699219s-85.699219-38.371093-85.699219-85.699219c.054688-47.308593 38.390626-85.644531 85.699219-85.703124zm0 0" fill="url(#c)"/></svg>