<svg height="464pt" viewBox="-7 0 464 464.20294" width="464pt" xmlns="http://www.w3.org/2000/svg" xmlns:xlink="http://www.w3.org/1999/xlink"><linearGradient id="a"><stop offset=".322" stop-color="#a163f5"/><stop offset=".466" stop-color="#b074ee"/><stop offset=".752" stop-color="#d8a1dd"/><stop offset=".898" stop-color="#efbad3"/></linearGradient><linearGradient id="b" gradientTransform="matrix(1 0 0 -1 -25.898104 484.5)" gradientUnits="userSpaceOnUse" x1="195.3" x2="195.3" xlink:href="#a" y1="-54" y2="536.979"/><linearGradient id="c" gradientTransform="matrix(1 0 0 -1 -25.898104 484.5)" gradientUnits="userSpaceOnUse" x1="250.65" x2="250.65" xlink:href="#a" y1="-54" y2="536.979"/><linearGradient id="d" gradientTransform="matrix(1 0 0 -1 -25.898104 484.5)" gradientUnits="userSpaceOnUse" x1="381.934" x2="381.934" xlink:href="#a" y1="-54" y2="536.979"/><path d="m169.402344 211.398438c58.375 0 105.699218-47.320313 105.699218-105.699219 0-58.375-47.324218-105.699219-105.699218-105.699219s-105.699219 47.324219-105.699219 105.699219c.054687 58.355469 47.34375 105.644531 105.699219 105.699219zm0-191.398438c47.332031 0 85.699218 38.371094 85.699218 85.699219 0 47.332031-38.367187 85.699219-85.699218 85.699219-47.332032 0-85.699219-38.367188-85.699219-85.699219.054687-47.308594 38.390625-85.644531 85.699219-85.699219zm0 0" fill="url(#b)"/><path d="m444.101562 270.5-86.199218-45.898438c-2.96875-1.621093-6.566406-1.582031-9.5.097657l-78.902344 43.199219c-28.898438-21.5-63.5-32.699219-100.296875-32.699219-45.800781.101562-88.300781 17.902343-119.800781 50.300781-31.902344 32.699219-49.402344 77.398438-49.300782 125.898438.015626 5.519531 4.484376 9.984374 10 10l278.199219-.5c13.078125 16.238281 29.890625 29.070312 49 37.402343l11.601563 5.097657c1.257812.5625 2.625.835937 4 .800781 1.371094-.023438 2.726562-.292969 4-.800781l13.097656-5.699219c48.132812-20.191407 79.4375-67.304688 79.402344-119.5v-58.800781c.003906-3.714844-2.03125-7.132813-5.300782-8.898438zm-423.699218 130.800781c2.097656-39.300781 17.398437-75.199219 43.398437-101.902343 27.699219-28.5 65.199219-44.199219 105.5-44.199219h.300781c33.101563 0 64.101563 10.402343 89.800782 30.101562v54.097657c.015625 21.476562 5.375 42.613281 15.597656 61.5zm409-63.101562c.019531 44.191406-26.523438 84.066406-67.300782 101.101562h-.101562l-9.097656 3.898438-7.601563-3.300781c-39.992187-17.472657-65.855469-56.953126-65.898437-100.597657v-54.101562l73.898437-40.5 76.101563 40.601562zm0 0" fill="url(#c)"/><path d="m325.902344 332.898438c-3.589844-4.195313-9.902344-4.6875-14.101563-1.097657-4.195312 3.589844-4.6875 9.902344-1.097656 14.097657l22.699219 26.5c1.90625 2.214843 4.679687 3.492187 7.597656 3.5 2.292969.019531 4.519531-.757813 6.300781-2.199219l52.800781-42.898438c4.28125-3.507812 4.90625-9.820312 1.398438-14.101562-3.503906-4.28125-9.816406-4.90625-14.097656-1.398438l-45.199219 36.800781zm0 0" fill="url(#d)"/></svg>