<svg height="448pt" viewBox="-5 0 448 448.57465" width="448pt" xmlns="http://www.w3.org/2000/svg" xmlns:xlink="http://www.w3.org/1999/xlink"><linearGradient id="a"><stop offset=".322" stop-color="#a163f5"/><stop offset=".466" stop-color="#b074ee"/><stop offset=".752" stop-color="#d8a1dd"/><stop offset=".898" stop-color="#efbad3"/></linearGradient><linearGradient id="b" gradientTransform="matrix(1 0 0 -1 -25.712249 484.5)" gradientUnits="userSpaceOnUse" x1="195.3" x2="195.3" xlink:href="#a" y1="-54" y2="536.979"/><linearGradient id="c" gradientTransform="matrix(1 0 0 -1 -25.712249 484.5)" gradientUnits="userSpaceOnUse" x1="244.65" x2="244.65" xlink:href="#a" y1="-54" y2="536.979"/><path d="m169.585938 211.398438c58.378906 0 105.703124-47.320313 105.703124-105.699219 0-58.375-47.324218-105.699219-105.703124-105.699219-58.375 0-105.699219 47.324219-105.699219 105.699219.054687 58.355469 47.347656 105.644531 105.699219 105.699219zm0-191.398438c47.332031 0 85.703124 38.371094 85.703124 85.699219 0 47.332031-38.371093 85.699219-85.703124 85.699219-47.328126 0-85.699219-38.367188-85.699219-85.699219.054687-47.308594 38.394531-85.644531 85.699219-85.699219zm0 0" fill="url(#b)"/><path d="m415.386719 234.101562h-129.597657c-14.550781.042969-27.152343 10.113282-30.402343 24.296876-25.921875-15.300782-55.496094-23.316407-85.597657-23.199219h-.300781c-45.800781.101562-88.300781 17.902343-119.800781 50.300781-32 32.699219-49.5 77.398438-49.398438 125.898438.019532 2.652343 1.054688 5.195312 2.898438 7.101562 1.882812 1.882812 4.441406 2.925781 7.101562 2.898438l244.296876-.5v15c-.046876 4.886718 2.769531 9.347656 7.203124 11.402343 4.378907 2.136719 9.597657 1.550781 13.398438-1.5.199219-.101562.300781-.300781.5-.402343l48.800781-43.898438 44.097657 43.601562c.242187.257813.511718.496094.800781.699219 2.230469 1.738281 4.972656 2.691407 7.800781 2.699219 1.941406.011719 3.859375-.433594 5.601562-1.300781 4.402344-2.085938 7.203126-6.527344 7.199219-11.398438v-118.300781h15.097657c17.9375-.035156 32.46875-14.566406 32.5-32.5v-19.800781c0-7-.199219-13.300781-2.5-18.800781-3.199219-7.898438-10.199219-12.296876-19.699219-12.296876zm-394.800781 167.199219c2.101562-39.300781 17.402343-75.199219 43.402343-101.902343 27.699219-28.5 65.199219-44.199219 105.5-44.199219h.300781c30.316407-.175781 59.941407 9.046875 84.796876 26.402343v119.199219zm349.402343-136v153.097657l-38.199219-37.699219c-3.757812-3.734375-9.785156-3.863281-13.703124-.300781l-43.5 39.101562v-154.199219c-.003907-2.972656 1.175781-5.824219 3.277343-7.925781 2.101563-2.101562 4.953125-3.28125 7.925781-3.273438h86.296876c-1.421876 3.558594-2.136719 7.363282-2.097657 11.199219zm47.597657 19.699219c0 6.902344-5.59375 12.5-12.5 12.5h-15.097657v-32.300781c-.003906-2.972657 1.171875-5.824219 3.273438-7.925781 2.101562-2.101563 4.953125-3.277344 7.925781-3.273438h14.300781c.433594-.03125.875.003906 1.300781.101562.898438 2.097657.898438 8.597657.898438 11.097657v19.800781zm0 0" fill="url(#c)"/></svg>