<svg height="400pt" viewBox="0 0 400 400" width="400pt" xmlns="http://www.w3.org/2000/svg" xmlns:xlink="http://www.w3.org/1999/xlink"><linearGradient id="a"><stop offset=".322" stop-color="#a163f5"/><stop offset=".466" stop-color="#b074ee"/><stop offset=".752" stop-color="#d8a1dd"/><stop offset=".898" stop-color="#efbad3"/></linearGradient><linearGradient id="b" gradientUnits="userSpaceOnUse" x1="200" x2="200" xlink:href="#a" y1="365" y2="16.984"/><linearGradient id="c" gradientUnits="userSpaceOnUse" x1="210.1001" x2="210.1001" xlink:href="#a" y1="365" y2="16.984"/><path d="m200 0c-110.300781 0-200 89.699219-200 200s89.699219 200 200 200 200-89.699219 200-200-89.699219-200-200-200zm92 354.898438c-56.800781 33.402343-127.199219 33.402343-184 0v-33.597657c0-49.402343 40.699219-89.300781 90.101562-89.300781h3.796876c49.402343 0 90.101562 39.898438 90.101562 89.300781zm20-13.699219v-19.898438c0-60.402343-49.601562-109.300781-110.101562-109.300781h-3.796876c-60.5 0-110.101562 48.898438-110.101562 109.300781v19.898438c-41-33-68.199219-84-68.199219-141.199219 0-99.300781 80.898438-180 180.097657-180 99.203124 0 180.300781 80.699219 180.300781 180 0 57.199219-27.199219 108.199219-68.199219 141.199219zm0 0" fill="url(#b)"/><path d="m269.699219 120.300781c0-.101562 0-.199219 0-.199219 0-38.402343-31.300781-69.703124-69.699219-69.703124s-69.699219 31.300781-69.699219 69.703124c0 38.398438 31.300781 69.699219 69.699219 69.699219h.199219c9.300781 12.597657 24.101562 20.199219 40 20.199219 27.402343 0 49.699219-22.300781 49.699219-49.699219 0-15.902343-7.597657-30.699219-20.199219-40zm-120.398438-.199219c0-28 22.699219-50.703124 50.699219-50.703124s50.699219 22.703124 50.699219 50.703124c0 1.398438-.097657 2.796876-.199219 4.398438-2.101562 24.601562-21.5 44-46.101562 46.101562-1.597657.097657-3 .199219-4.398438.199219-28 0-50.699219-22.699219-50.699219-50.699219zm90.898438 70.898438c-6.097657 0-12-1.800781-17-5.101562 19.902343-7 35.601562-22.597657 42.5-42.5 3.300781 5 5.101562 10.902343 5.101562 17 .097657 16.800781-13.699219 30.601562-30.601562 30.601562zm0 0" fill="url(#c)"/></svg>