<svg height="480pt" viewBox="0 -42 480 479" width="480pt" xmlns="http://www.w3.org/2000/svg" xmlns:xlink="http://www.w3.org/1999/xlink"><linearGradient id="a"><stop offset=".322" stop-color="#a163f5"/><stop offset=".466" stop-color="#b074ee"/><stop offset=".752" stop-color="#d8a1dd"/><stop offset=".898" stop-color="#efbad3"/></linearGradient><linearGradient id="b" gradientTransform="matrix(1 0 0 -1 -16 455.6)" gradientUnits="userSpaceOnUse" x1="180.625" x2="166.894" xlink:href="#a" y1="-9.608" y2="484.704"/><linearGradient id="c" gradientTransform="matrix(1 0 0 -1 -16 455.6)" gradientUnits="userSpaceOnUse" x1="401.319" x2="387.588" xlink:href="#a" y1="-3.478" y2="490.834"/><linearGradient id="d" gradientTransform="matrix(1 0 0 -1 -16 455.6)" gradientUnits="userSpaceOnUse" x1="258.759" x2="245.028" xlink:href="#a" y1="-7.438" y2="486.874"/><path d="m154.398438 193.699219c53.351562 0 96.601562-43.25 96.601562-96.597657 0-53.351562-43.25-96.601562-96.601562-96.601562-53.347657 0-96.597657 43.25-96.597657 96.601562.070313 53.320313 43.277344 96.527344 96.597657 96.597657zm0-173.199219c42.304687 0 76.601562 34.296875 76.601562 76.601562 0 42.304688-34.296875 76.597657-76.601562 76.597657-42.304688 0-76.597657-34.292969-76.597657-76.597657.039063-42.289062 34.308594-76.5625 76.597657-76.601562zm0 0" fill="url(#b)"/><path d="m356.5 186.699219c32.542969-.035157 61.664062-20.230469 73.101562-50.699219 2.621094.601562 5.304688.902344 8 .898438 19.328126 0 35-15.667969 35-35 0-19.328126-15.671874-35-35-35-4.636718-.019532-9.230468.898437-13.5 2.703124-18.941406-32.824218-58.714843-47.304687-94.328124-34.347656-35.609376 12.960938-56.769532 49.621094-50.183594 86.9375 6.582031 37.320313 39.015625 64.519532 76.910156 64.507813zm0-20c-27.367188-.046875-51.011719-19.148438-56.800781-45.898438 2.890625.296875 5.796875.429688 8.699219.398438 6.734374.007812 13.445312-.761719 20-2.300781 13.003906-3.054688 25.03125-9.3125 35-18.199219 3 3.898437 6.347656 7.511719 10 10.800781 11.402343 10.398438 24.101562 16.101562 37.5 17-8.242188 22.945312-30.015626 38.234375-54.398438 38.199219zm81.101562-79.800781c8.28125 0 15 6.71875 15 15 0 8.285156-6.71875 15-15 15-1.148437.023437-2.292968-.113282-3.402343-.398438.285156-2.625.417969-5.261719.402343-7.898438-.011718-6.960937-.957031-13.890624-2.800781-20.601562 1.851563-.710938 3.816407-1.082031 5.800781-1.101562zm-23 21.703124c-18.800781-.101562-31.601562-14.703124-37.402343-22.902343 5.421875-7.40625 10.019531-15.390625 13.699219-23.800781 14.890624 10.902343 23.695312 28.246093 23.703124 46.703124zm-58.101562-58c5.617188.023438 11.203125.832032 16.601562 2.398438-11 25.398438-27.203124 41-48.402343 46.300781-8.398438 2.097657-17.128907 2.539063-25.699219 1.300781 4.074219-28.644531 28.570312-49.945312 57.5-50zm0 0" fill="url(#c)"/><path d="m356.5 216.601562c-39.199219 0-74.898438 18-97.800781 48.699219-28.296875-26.390625-65.605469-40.984375-104.300781-40.800781-41.699219 0-80.5 16.199219-109.296876 45.601562-29.101562 29.796876-45.101562 70.5-45.101562 114.597657.015625 5.515625 4.484375 9.984375 10 10h288.800781c5.515625-.015625 9.984375-4.484375 10-10 0-10.089844-.871093-20.160157-2.601562-30.097657h163.800781c5.515625-.015624 9.984375-4.484374 10-10 0-35.203124-12.800781-67.703124-36.101562-91.5-22.976563-23.519531-54.519532-36.691406-87.398438-36.5zm-336.199219 158.097657c2.199219-35 15.898438-66.800781 39.097657-90.597657 25.117187-25.34375 59.320312-39.601562 95-39.601562 35.683593 0 69.882812 14.257812 95 39.601562 1.101562 1.097657 2.203124 2.296876 3.300781 3.5l.199219.199219c21.101562 23.300781 33.601562 53.699219 35.703124 86.898438zm281.199219-40.097657c-5.960938-19.859374-15.78125-38.347656-28.898438-54.402343 17.496094-24.875 45.125-40.714844 75.4375-43.242188 30.308594-2.53125 60.179688 8.507813 81.5625 30.144531 17.398438 17.796876 27.796876 41.5 30 67.5zm0 0" fill="url(#d)"/></svg>