<svg height="438pt" viewBox="0 -19 438.387 438" width="438pt" xmlns="http://www.w3.org/2000/svg" xmlns:xlink="http://www.w3.org/1999/xlink"><linearGradient id="a"><stop offset=".322" stop-color="#a163f5"/><stop offset=".466" stop-color="#b074ee"/><stop offset=".752" stop-color="#d8a1dd"/><stop offset=".898" stop-color="#efbad3"/></linearGradient><linearGradient id="b" gradientTransform="matrix(1 0 0 -1 -36.805 458.1935)" gradientUnits="userSpaceOnUse" x1="259.09" x2="259.09" xlink:href="#a" y1="14" y2="443.936"/><linearGradient id="c" gradientTransform="matrix(1 0 0 -1 -36.805 458.1935)" gradientUnits="userSpaceOnUse" x1="111.568" x2="111.568" xlink:href="#a" y1="14" y2="444.019"/><linearGradient id="d" gradientTransform="matrix(1 0 0 -1 -36.805 458.1935)" gradientUnits="userSpaceOnUse" x1="255.999" x2="255.999" xlink:href="#a" y1="14" y2="444.019"/><path d="m222.285156 143.503906c39.574219 0 71.65625-32.078125 71.65625-71.65625 0-39.574218-32.082031-71.652344-71.65625-71.652344-39.574218 0-71.65625 32.078126-71.65625 71.652344 0 39.578125 32.082032 71.65625 71.65625 71.65625zm0-123.308594c28.527344 0 51.65625 23.125 51.65625 51.652344 0 28.53125-23.128906 51.65625-51.65625 51.65625s-51.65625-23.125-51.65625-51.65625c0-28.527344 23.128906-51.652344 51.65625-51.652344zm0 0" fill="url(#b)"/><path d="m74.761719 124.507812c29.082031 0 52.660156-23.578124 52.660156-52.660156 0-29.078125-23.578125-52.65625-52.660156-52.65625s-52.65625 23.578125-52.65625 52.65625c.035156 29.070313 23.589843 52.625 52.65625 52.660156zm0-85.316406c18.039062 0 32.660156 14.621094 32.660156 32.65625 0 18.039063-14.621094 32.660156-32.660156 32.660156-18.035157 0-32.65625-14.621093-32.65625-32.660156 0-18.035156 14.621093-32.652344 32.65625-32.652344zm0 0" fill="url(#c)"/><path d="m433.484375 174.875c-3.039063-1.796875-6.804687-1.859375-9.898437-.160156l-99.777344 54.765625v-21.554688c-.03125-27.601562-22.398438-49.96875-50-50h-223.808594c-27.601562.03125-49.96875 22.398438-50 50v142.269531c.03125 27.597657 22.398438 49.964844 50 50h223.800781c27.601563-.035156 49.96875-22.402343 50-50v-21.539062l99.777344 54.75c3.097656 1.699219 6.863281 1.636719 9.902344-.164062 3.042969-1.796876 4.90625-5.070313 4.90625-8.605469v-191.152344c0-3.535156-1.863281-6.808594-4.902344-8.609375zm-159.679687 205.320312h-223.804688c-16.5625-.019531-29.980469-13.441406-30-30v-142.269531c.019531-16.558593 13.4375-29.980469 30-30h223.800781c16.558594.019531 29.980469 13.441407 30 30v142.269531c-.019531 16.558594-13.4375 29.976563-29.996093 30zm144.589843-22.449218-94.585937-51.902344v-53.550781l94.585937-51.914063zm0 0" fill="url(#d)"/></svg>