<svg height="400pt" viewBox="0 -38 400 400" width="400pt" xmlns="http://www.w3.org/2000/svg" xmlns:xlink="http://www.w3.org/1999/xlink"><linearGradient id="a" gradientTransform="matrix(1 0 0 -1 -56 419.544)" gradientUnits="userSpaceOnUse" x1="256" x2="256" y1="3.998" y2="508.995"><stop offset=".322" stop-color="#a163f5"/><stop offset=".466" stop-color="#b074ee"/><stop offset=".752" stop-color="#d8a1dd"/><stop offset=".898" stop-color="#efbad3"/></linearGradient><path d="m357.457031 0h-314.914062c-23.484375.0273438-42.5156252 19.058594-42.542969 42.542969v238c.0273438 23.484375 19.058594 42.515625 42.542969 42.542969h314.914062c23.484375-.027344 42.515625-19.058594 42.542969-42.542969v-238c-.027344-23.484375-19.058594-42.5156252-42.542969-42.542969zm-271.285156 147.664062h-66.171875v-49.863281h66.171875zm-66.171875 20h66.171875v57.625h-66.171875zm86.171875-147.664062h187.65625v283.089844h-187.65625zm207.65625 77.800781h66.171875v49.863281h-66.171875zm0 69.863281h66.171875v57.625h-66.171875zm66.171875-125.121093v35.257812h-66.171875v-57.800781h43.628906c12.445313.015625 22.53125 10.097656 22.542969 22.542969zm-337.457031-22.542969h43.628906v57.800781h-66.171875v-35.257812c.011719-12.445313 10.097656-22.527344 22.542969-22.542969zm-22.542969 260.542969v-35.253907h66.171875v57.800782h-43.628906c-12.445313-.015625-22.53125-10.101563-22.542969-22.546875zm337.457031 22.542969h-43.628906v-57.800782h66.171875v35.257813c-.011719 12.445312-10.097656 22.53125-22.542969 22.546875zm0 0" fill="url(#a)"/></svg>