<svg height="400pt" viewBox="0 -65 400.00451 400" width="400pt" xmlns="http://www.w3.org/2000/svg" xmlns:xlink="http://www.w3.org/1999/xlink"><linearGradient id="a"><stop offset=".322" stop-color="#a163f5"/><stop offset=".466" stop-color="#b074ee"/><stop offset=".752" stop-color="#d8a1dd"/><stop offset=".898" stop-color="#efbad3"/></linearGradient><linearGradient id="b" gradientTransform="matrix(1 0 0 -1 -56.000244 392.648225)" gradientUnits="userSpaceOnUse" x1="256.003" x2="256.003" xlink:href="#a" y1="3.998" y2="508.995"/><linearGradient id="c" gradientTransform="matrix(1 0 0 -1 -56.000244 392.648225)" gradientUnits="userSpaceOnUse" x1="256" x2="256" xlink:href="#a" y1="3.998" y2="508.995"/><linearGradient id="d" gradientTransform="matrix(1 0 0 -1 -56.000244 392.648225)" gradientUnits="userSpaceOnUse" x1="256.01" x2="256.01" xlink:href="#a" y1="3.998" y2="508.995"/><path d="m321.40625 36.601562c-73.582031-48.800781-169.230469-48.800781-242.8125 0-34.695312 23.007813-61.78125 55.792969-77.828125 94.207032-1.019531 2.457031-1.019531 5.222656 0 7.679687 16.050781 38.414063 43.136719 71.199219 77.835937 94.207031 73.578126 48.800782 169.226563 48.800782 242.808594 0 34.695313-23.007812 61.78125-55.792968 77.828125-94.207031 1.019531-2.457031 1.019531-5.222656 0-7.679687-16.046875-38.414063-43.136719-71.199219-77.832031-94.207032zm-11.113281 179.464844c-66.855469 44.304688-153.730469 44.304688-220.585938 0-30.222656-20.039062-54.097656-48.28125-68.828125-81.417968 14.730469-33.136719 38.605469-61.378907 68.828125-81.417969 66.855469-44.304688 153.730469-44.304688 220.585938 0 30.21875 20.039062 54.097656 48.28125 68.828125 81.417969-14.730469 33.136718-38.609375 61.378906-68.828125 81.417968zm0 0" fill="url(#b)"/><path d="m128.078125 62.726562c-39.71875 39.722657-39.71875 104.121094 0 143.839844 39.722656 39.722656 104.121094 39.722656 143.839844 0 39.722656-39.71875 39.722656-104.117187 0-143.839844-39.71875-39.71875-104.117188-39.71875-143.839844 0zm129.703125 129.703126c-31.902344 31.871093-83.601562 31.855468-115.484375-.035157-31.882813-31.894531-31.882813-83.59375 0-115.484375 31.882813-31.894531 83.582031-31.910156 115.484375-.035156 31.929688 31.898438 31.929688 83.652344 0 115.554688zm0 0" fill="url(#c)"/><path d="m169.070312 103.71875c-17.058593 17.09375-17.058593 44.765625 0 61.859375 17.082032 17.082031 44.777344 17.082031 61.859376 0 17.082031-17.082031 17.082031-44.777344 0-61.859375-17.082032-17.085938-44.777344-17.085938-61.859376 0zm47.71875 47.71875c-9.273437 9.273438-24.304687 9.273438-33.578124 0-9.273438-9.273438-9.273438-24.304688 0-33.578125 9.273437-9.273437 24.304687-9.273437 33.578124 0 9.273438 9.273437 9.273438 24.304687 0 33.578125zm0 0" fill="url(#d)"/></svg>