<svg height="398pt" viewBox="-44 0 398 398.34775" width="398pt" xmlns="http://www.w3.org/2000/svg" xmlns:xlink="http://www.w3.org/1999/xlink"><linearGradient id="a" gradientTransform="matrix(1 0 0 -1 -129.126125 457.073876)" gradientUnits="userSpaceOnUse" x1="284.495" x2="284.495" y1="17.518" y2="570.222"><stop offset=".322" stop-color="#a163f5"/><stop offset=".466" stop-color="#b074ee"/><stop offset=".752" stop-color="#d8a1dd"/><stop offset=".898" stop-color="#efbad3"/></linearGradient><path d="m253.472656 307.972656v-294c.015625-5.21875-2.886718-10.007812-7.519531-12.410156-4.636719-2.402344-10.222656-2.011719-14.480469 1.011719l-136.199218 95.699219-60.699219-80.398438c-3.3125-4.417969-9.582031-5.316406-14-2-4.417969 3.3125-5.3125 9.582031-2 14l55.5 73.597656h-23.898438c-27.613281.011719-49.992187 22.390625-50 50v91.300782c.007813 27.609374 22.386719 49.992187 50 50h37.699219l143.597656 101c4.257813 3.023437 9.84375 3.414062 14.480469 1.011718 4.632813-2.402344 7.535156-7.191406 7.519531-12.410156v-43.101562l39.101563 51.902343c1.902343 2.5 4.855469 3.976563 8 4 2.160156-.023437 4.257812-.722656 6-2 4.402343-3.324219 5.296875-9.578125 2-14zm-20-282.5v255.902344l-126.199218-167.199219zm0 347.203125-133.597656-93.902343c-1.886719-2.585938-4.898438-4.109376-8.101562-4.097657h-41.597657c-16.550781-.050781-29.953125-13.453125-30-30v-91.300781c.046875-16.550781 13.449219-29.953125 30-30h39l144.199219 191.199219v58.101562zm0 0" fill="url(#a)"/></svg>