<svg height="410pt" viewBox="0 0 410 410" width="410pt" xmlns="http://www.w3.org/2000/svg" xmlns:xlink="http://www.w3.org/1999/xlink"><linearGradient id="a"><stop offset=".322" stop-color="#a163f5"/><stop offset=".466" stop-color="#b074ee"/><stop offset=".752" stop-color="#d8a1dd"/><stop offset=".898" stop-color="#efbad3"/></linearGradient><linearGradient id="b" gradientTransform="matrix(1 0 0 -1 -51.2 463)" gradientUnits="userSpaceOnUse" x1="256" x2="256" xlink:href="#a" y1="14" y2="444.019"/><linearGradient id="c" gradientTransform="matrix(1 0 0 -1 -51.2 463)" gradientUnits="userSpaceOnUse" x1="280.348" x2="280.348" xlink:href="#a" y1="14" y2="444.019"/><path d="m204.800781 0c-112.925781 0-204.800781 91.960938-204.800781 205s91.875 205 204.800781 205 204.800781-91.960938 204.800781-205-91.875-205-204.800781-205zm0 390c-101.902343 0-184.800781-82.992188-184.800781-185s82.898438-185 184.800781-185c101.898438 0 184.800781 82.992188 184.800781 185s-82.902343 185-184.800781 185zm0 0" fill="url(#b)"/><path d="m312.550781 189.859375-110.269531 10.082031-50.324219-50.390625c-3.882812-3.925781-10.214843-3.957031-14.140625-.070312-3.925781 3.882812-3.957031 10.214843-.070312 14.140625l.0625.0625 53.636718 53.707031c1.875 1.878906 4.421876 2.933594 7.074219 2.933594.300781 0 .609375-.011719.914063-.039063l114.933594-10.507812c5.496093-.507813 9.539062-5.371094 9.035156-10.867188-.5-5.496094-5.359375-9.542968-10.851563-9.050781zm0 0" fill="url(#c)"/></svg>