<svg height="399pt" viewBox="-58 0 399 399.99741" width="399pt" xmlns="http://www.w3.org/2000/svg" xmlns:xlink="http://www.w3.org/1999/xlink"><linearGradient id="a"><stop offset=".322" stop-color="#a163f5"/><stop offset=".466" stop-color="#b074ee"/><stop offset=".752" stop-color="#d8a1dd"/><stop offset=".898" stop-color="#efbad3"/></linearGradient><linearGradient id="b" gradientTransform="matrix(1 0 0 -1 -113.708725 456.378205)" gradientUnits="userSpaceOnUse" x1="252.713" x2="261.714" xlink:href="#a" y1="112.846" y2="505.885"/><linearGradient id="c" gradientTransform="matrix(1 0 0 -1 -113.708725 456.378205)" gradientUnits="userSpaceOnUse" x1="270.699" x2="279.7" xlink:href="#a" y1="112.434" y2="505.473"/><path d="m241.859375 99.148438-6.21875-63.515626c-1.914063-20.25-18.949219-35.6992182-39.289063-35.632812h-108.121093c-20.339844-.0664062-37.375 15.382812-39.289063 35.632812l-6.21875 63.515626c-55.695312 54.851562-56.382812 144.472656-1.527344 200.167968.503907.515625 1.015626 1.027344 1.527344 1.53125l6.21875 63.515625c1.914063 20.25 18.949219 35.699219 39.289063 35.632813h108.121093c20.339844.066406 37.375-15.382813 39.289063-35.632813l6.21875-63.515625c55.699219-54.851562 56.382813-144.46875 1.53125-200.167968-.503906-.515626-1.015625-1.027344-1.53125-1.53125zm-173.011719-61.570313c.945313-9.988281 9.351563-17.609375 19.382813-17.578125h108.121093c10.035157-.03125 18.4375 7.589844 19.382813 17.578125l4.300781 43.898437c-47.183594-31.03125-108.300781-31.03125-155.484375 0zm146.886719 324.839844c-.945313 9.988281-9.347656 17.609375-19.382813 17.578125h-108.121093c-10.035157.03125-18.4375-7.589844-19.382813-17.578125l-4.300781-43.902344c47.183594 31.03125 108.300781 31.03125 155.484375 0zm-73.441406-40.625c-67.265625 0-121.796875-54.527344-121.796875-121.792969s54.53125-121.792969 121.796875-121.792969c67.261719 0 121.792969 54.527344 121.792969 121.792969-.078126 67.234375-54.5625 121.71875-121.792969 121.792969zm0 0" fill="url(#b)"/><path d="m179.390625 190h-27.097656v-38.464844c0-5.523437-4.480469-10-10-10-5.523438 0-10 4.476563-10 10v48.464844c0 5.523438 4.476562 10 10 10h37.097656c5.523437 0 10-4.476562 10-10s-4.476563-10-10-10zm0 0" fill="url(#c)"/><path d="m142.292969 100.640625c-54.878907 0-99.363281 44.484375-99.363281 99.359375s44.484374 99.359375 99.363281 99.359375c54.875 0 99.359375-44.484375 99.359375-99.359375-.0625-54.851562-44.511719-99.300781-99.359375-99.359375zm0 178.71875c-43.832031 0-79.363281-35.53125-79.363281-79.359375 0-43.832031 35.53125-79.363281 79.363281-79.363281 43.828125 0 79.359375 35.53125 79.359375 79.363281-.050782 43.808594-35.550782 79.3125-79.359375 79.359375zm0 0" fill="url(#b)"/></svg>