<svg height="400pt" viewBox="-63 0 400 400.00114" width="400pt" xmlns="http://www.w3.org/2000/svg" xmlns:xlink="http://www.w3.org/1999/xlink"><linearGradient id="a"><stop offset=".322" stop-color="#a163f5"/><stop offset=".466" stop-color="#b074ee"/><stop offset=".752" stop-color="#d8a1dd"/><stop offset=".898" stop-color="#efbad3"/></linearGradient><linearGradient id="b" gradientTransform="matrix(1 0 0 -1 -119.20983 456.382136)" gradientUnits="userSpaceOnUse" x1="254.122" x2="263.123" xlink:href="#a" y1="125.684" y2="518.723"/><linearGradient id="c" gradientTransform="matrix(1 0 0 -1 -119.20983 456.382136)" gradientUnits="userSpaceOnUse" x1="303.4" x2="312.401" xlink:href="#a" y1="124.555" y2="517.595"/><path d="m214.4375 111.683594-69.246094-107.109375c-1.84375-2.851563-5.007812-4.574219-8.402344-4.574219-3.394531 0-6.558593 1.722656-8.398437 4.574219l-69.246094 107.109375c-8.972656 13.875-18.683593 27.988281-28.863281 41.941406-21.03125 28.820312-31.726562 65.175781-30.125 102.359375 1.621094 37.476563 15.660156 72.789063 39.535156 99.425781 25.769532 28.753906 60.253906 44.589844 97.097656 44.589844s71.332032-15.835938 97.101563-44.589844c23.875-26.636718 37.914063-61.949218 39.53125-99.425781 1.605469-37.183594-9.089844-73.539063-30.121094-102.359375-10.179687-13.949219-19.890625-28.0625-28.863281-41.941406zm39 143.4375c-1.417969 32.859375-13.648438 63.742187-34.449219 86.941406-21.925781 24.464844-51.117187 37.9375-82.203125 37.9375-31.085937 0-60.28125-13.472656-82.207031-37.9375-20.792969-23.199219-33.023437-54.078125-34.445313-86.941406-1.410156-32.675782 7.929688-64.535156 26.300782-89.710938 10.402344-14.253906 20.324218-28.675781 29.5-42.867187l60.855468-94.121094 60.851563 94.121094c9.175781 14.191406 19.101563 28.617187 29.5 42.871093 18.371094 25.175782 27.710937 57.035157 26.300781 89.710938zm0 0" fill="url(#b)"/><path d="m214.953125 254.761719c-5.523437 0-10 4.476562-10 10 0 31.40625-22.433594 56.953125-50.007813 56.953125-5.523437 0-10 4.476562-10 10 0 5.523437 4.476563 10 10 10 38.601563 0 70.007813-34.519532 70.007813-76.953125 0-5.523438-4.476563-10-10-10zm0 0" fill="url(#c)"/></svg>