<svg height="400pt" viewBox="0 -22 400 400" width="400pt" xmlns="http://www.w3.org/2000/svg" xmlns:xlink="http://www.w3.org/1999/xlink"><linearGradient id="a"><stop offset=".322" stop-color="#a163f5"/><stop offset=".466" stop-color="#b074ee"/><stop offset=".752" stop-color="#d8a1dd"/><stop offset=".898" stop-color="#efbad3"/></linearGradient><linearGradient id="b" gradientTransform="matrix(1 0 0 -1 -56 436.008)" gradientUnits="userSpaceOnUse" x1="253.891" x2="257.718" xlink:href="#a" y1="-24.586" y2="488.235"/><linearGradient id="c" gradientTransform="matrix(1 0 0 -1 -56 436.008)" gradientUnits="userSpaceOnUse" x1="251.475" x2="255.302" xlink:href="#a" y1="-24.568" y2="488.253"/><linearGradient id="d" gradientTransform="matrix(1 0 0 -1 -56 436.008)" gradientUnits="userSpaceOnUse" x1="181.025" x2="184.852" xlink:href="#a" y1="-24.042" y2="488.778"/><linearGradient id="e" gradientTransform="matrix(1 0 0 -1 -56 436.008)" gradientUnits="userSpaceOnUse" x1="114.893" x2="118.72" xlink:href="#a" y1="-23.549" y2="489.272"/><path d="m350 0h-300c-27.601562.03125-49.96875 22.398438-50 50v256.015625c.03125 27.601563 22.398438 49.96875 50 50h300c27.601562-.03125 49.96875-22.398437 50-50v-256.015625c-.03125-27.601562-22.398438-49.96875-50-50zm-300 20h300c16.5625.019531 29.980469 13.4375 30 30v73.800781h-360v-73.800781c.019531-16.5625 13.4375-29.980469 30-30zm300 316.015625h-300c-16.5625-.019531-29.980469-13.4375-30-30v-162.21875h360v162.21875c-.019531 16.5625-13.4375 29.980469-30 30zm0 0" fill="url(#b)"/><path d="m198.410156 99.582031c17.417969 0 31.589844-14.398437 31.589844-32.105469 0-17.707031-14.171875-32.105468-31.589844-32.105468-17.421875 0-31.59375 14.398437-31.59375 32.105468 0 17.707032 14.171875 32.105469 31.59375 32.105469zm0-44.210937c6.683594-.292969 12.339844 4.890625 12.632813 11.578125.289062 6.683593-4.890625 12.339843-11.578125 12.632812-6.683594.292969-12.34375-4.886719-12.636719-11.574219-.007813-.175781-.011719-.351562-.011719-.527343-.132812-6.542969 5.050782-11.957031 11.59375-12.109375zm0 0" fill="url(#c)"/><path d="m127.953125 99.582031c17.421875 0 31.59375-14.398437 31.59375-32.105469 0-17.707031-14.171875-32.105468-31.59375-32.105468-17.417969 0-31.589844 14.398437-31.589844 32.105468 0 17.707032 14.171875 32.105469 31.589844 32.105469zm0-44.210937c6.6875-.292969 12.34375 4.890625 12.632813 11.578125.292968 6.683593-4.890626 12.339843-11.574219 12.632812-6.6875.292969-12.34375-4.886719-12.636719-11.574219-.007812-.175781-.011719-.351562-.011719-.527343-.132812-6.542969 5.050781-11.957031 11.589844-12.109375zm0 0" fill="url(#d)"/><path d="m61.816406 99.582031c17.421875 0 31.59375-14.398437 31.59375-32.105469 0-17.707031-14.171875-32.105468-31.59375-32.105468-17.417968 0-31.589844 14.398437-31.589844 32.105468 0 17.707032 14.171876 32.105469 31.589844 32.105469zm0-44.210937c6.6875-.292969 12.34375 4.890625 12.636719 11.574218.292969 6.6875-4.890625 12.34375-11.578125 12.636719-6.683594.292969-12.339844-4.886719-12.636719-11.574219-.007812-.175781-.011719-.351562-.011719-.527343-.132812-6.542969 5.050782-11.957031 11.589844-12.109375zm0 0" fill="url(#e)"/></svg>