<svg height="420pt" viewBox="-78 0 420 420.00041" width="420pt" xmlns="http://www.w3.org/2000/svg" xmlns:xlink="http://www.w3.org/1999/xlink"><linearGradient id="a"><stop offset=".322" stop-color="#a163f5"/><stop offset=".466" stop-color="#b074ee"/><stop offset=".752" stop-color="#d8a1dd"/><stop offset=".898" stop-color="#efbad3"/></linearGradient><linearGradient id="b" gradientTransform="matrix(1 0 0 -1 -135.999795 466.378205)" gradientUnits="userSpaceOnUse" x1="270.404" x2="279.405" xlink:href="#a" y1="99.57" y2="492.61"/><linearGradient id="c" gradientTransform="matrix(1 0 0 -1 -135.999795 466.378205)" gradientUnits="userSpaceOnUse" x1="252.418" x2="261.419" xlink:href="#a" y1="99.982" y2="493.022"/><linearGradient id="d" gradientTransform="matrix(1 0 0 -1 -135.999795 466.378205)" gradientUnits="userSpaceOnUse" x1="386.348" x2="395.349" xlink:href="#a" y1="96.915" y2="489.955"/><path d="m157.101562 200h-27.101562v-38.464844c0-5.523437-4.476562-10-10-10s-10 4.476563-10 10v48.464844c0 5.523438 4.476562 10 10 10h37.101562c5.523438 0 10-4.476562 10-10s-4.476562-10-10-10zm0 0" fill="url(#b)"/><path d="m219.199219 104.453125-5.839844-68.695313c0-.039062-.007813-.082031-.011719-.125-1.914062-20.25-18.953125-35.6992182-39.289062-35.632812h-108.117188c-20.339844-.0664062-37.375 15.382812-39.292968 35.632812 0 .042969-.007813.085938-.007813.125l-5.839844 68.695313c-13.054687 9.382813-20.7929685 24.472656-20.800781 40.546875v130c.0078125 16.074219 7.746094 31.164062 20.800781 40.546875l5.839844 68.691406c0 .046875.007813.085938.011719.128907 1.917968 20.25 18.953125 35.699218 39.289062 35.632812h108.117188c20.339844.066406 37.375-15.382812 39.292968-35.632812 0-.042969.007813-.082032.007813-.128907l5.84375-68.691406c13.050781-9.382813 20.792969-24.472656 20.796875-40.546875v-130c-.003906-16.074219-7.746094-31.164062-20.800781-40.546875zm-172.636719-66.929687c.96875-9.964844 9.363281-17.554688 19.378906-17.523438h108.117188c10.015625-.03125 18.410156 7.558594 19.378906 17.523438l4.949219 58.195312c-2.769531-.476562-5.574219-.714844-8.386719-.71875h-140c-2.8125.003906-5.617188.242188-8.386719.71875zm146.875 344.953124c-.96875 9.96875-9.363281 17.558594-19.378906 17.527344h-108.117188c-10.015625.03125-18.410156-7.558594-19.378906-17.527344l-4.949219-58.199218c2.769531.476562 5.574219.714844 8.386719.71875h140c2.8125-.003906 5.617188-.242188 8.386719-.71875zm26.5625-107.476562c.003906 8.4375-3.558594 16.480469-9.800781 22.15625-4.019531-.132812-7.726563 2.164062-9.398438 5.820312-3.445312 1.335938-7.105469 2.019532-10.800781 2.019532h-140c-3.695312 0-7.355469-.683594-10.800781-2.019532-1.671875-3.660156-5.382813-5.960937-9.40625-5.824218-6.238281-5.675782-9.796875-13.71875-9.792969-22.152344v-130c.019531-16.5625 13.4375-29.980469 30-30h140c16.5625.019531 29.980469 13.4375 30 30zm0 0" fill="url(#c)"/><path d="m254 186c-5.523438 0-10 4.476562-10 10v28c0 5.523438 4.476562 10 10 10s10-4.476562 10-10v-28c0-5.523438-4.476562-10-10-10zm0 0" fill="url(#d)"/></svg>