<svg height="399pt" viewBox="-30 1 399 399.99969" width="399pt" xmlns="http://www.w3.org/2000/svg" xmlns:xlink="http://www.w3.org/1999/xlink"><linearGradient id="a"><stop offset=".322" stop-color="#a163f5"/><stop offset=".466" stop-color="#b074ee"/><stop offset=".752" stop-color="#d8a1dd"/><stop offset=".898" stop-color="#efbad3"/></linearGradient><linearGradient id="b" gradientTransform="matrix(1 0 0 -1 -85.551173 457.999687)" gradientUnits="userSpaceOnUse" x1="241.618" x2="241.618" xlink:href="#a" y1="3.998" y2="508.995"/><linearGradient id="c" gradientTransform="matrix(1 0 0 -1 -85.551173 457.999687)" gradientUnits="userSpaceOnUse" x1="256.49" x2="256.49" xlink:href="#a" y1="3.998" y2="508.995"/><path d="m10.496094 309.691406c.898437 0 1.792968-.121094 2.660156-.359375l91.644531-25.269531c1.824219-.503906 3.597657-1.175781 5.300781-2 2.574219-.472656 4.859376-1.945312 6.347657-4.101562.738281-.613282 1.460937-1.25 2.140625-1.929688l114.457031-114.453125c3.707031-.855469 6.601563-3.746094 7.453125-7.453125l28.667969-28.667969c3.707031-.851562 6.597656-3.746093 7.453125-7.453125l19.664062-19.664062c20.46875-20.515625 20.46875-53.722656 0-74.238282l-8.726562-8.726562c-20.5-20.5-53.734375-20.5-74.234375 0l-177.84375 177.839844c-.746094.753906-1.453125 1.542968-2.117188 2.367187-.324219.25-.636719.523438-.929687.8125-1.253906 1.253907-2.148438 2.820313-2.59375 4.539063-.917969 1.765625-1.664063 3.617187-2.230469 5.523437l-26.699219 90.402344c-.894531 3.023437-.308594 6.292969 1.578125 8.820313 1.890625 2.523437 4.859375 4.011718 8.011719 4.011718zm97.765625-51.613281-54.679688-54.679687 107.300781-107.296876 54.679688 54.679688zm88.738281-198.097656 54.679688 54.679687-21.976563 21.976563-54.679687-54.679688zm30.464844-30.464844c12.6875-12.6875 33.261718-12.6875 45.949218 0l8.730469 8.726563c12.667969 12.699218 12.667969 33.257812 0 45.953124l-16.320312 16.320313-54.683594-54.679687zm-183.585938 192.464844 45.570313 45.566406-64.261719 17.722656zm0 0" fill="url(#b)"/><path d="m330.398438 380h-318.917969c-5.523438 0-10 4.476562-10 10s4.476562 10 10 10h318.917969c5.523437 0 10-4.476562 10-10s-4.476563-10-10-10zm0 0" fill="url(#c)"/></svg>