<svg height="399pt" viewBox="0 0 399 399.88458" width="399pt" xmlns="http://www.w3.org/2000/svg" xmlns:xlink="http://www.w3.org/1999/xlink"><linearGradient id="a"><stop offset=".322" stop-color="#a163f5"/><stop offset=".466" stop-color="#b074ee"/><stop offset=".752" stop-color="#d8a1dd"/><stop offset=".898" stop-color="#efbad3"/></linearGradient><linearGradient id="b" gradientTransform="matrix(1 0 0 -1 -55.760257 457.915549)" gradientUnits="userSpaceOnUse" x1="256.086" x2="256.086" xlink:href="#a" y1="3.998" y2="508.995"/><linearGradient id="c" gradientTransform="matrix(1 0 0 -1 -55.760257 457.915549)" gradientUnits="userSpaceOnUse" x1="236.02" x2="236.02" xlink:href="#a" y1="3.998" y2="508.995"/><path d="m314.425781 299.957031c63.230469-70.59375 60.945313-179.5-6.871093-247.316406-69.367188-69.300781-181.453126-70.304687-252.050782-2.253906-70.597656 68.046875-73.714844 180.09375-7.007812 251.960937 66.707031 71.867188 178.675781 77.09375 251.785156 11.753906l82.886719 82.886719c3.910156 3.875 10.21875 3.859375 14.113281-.03125 3.890625-3.894531 3.90625-10.203125.03125-14.113281zm-247.316406-6.871093c-62.78125-62.199219-63.253906-163.515626-1.054687-226.300782 62.199218-62.78125 163.515624-63.253906 226.300781-1.054687.351562.351562.703125.703125 1.054687 1.054687 62.390625 62.390625 62.390625 163.90625 0 226.300782-62.394531 62.394531-163.910156 62.390624-226.300781 0zm0 0" fill="url(#b)"/><path d="m194.402344 179.9375 35.355468-35.355469c3.90625-3.90625 3.90625-10.238281 0-14.144531s-10.238281-3.90625-14.144531 0l-35.355469 35.355469-35.351562-35.355469c-3.90625-3.90625-10.238281-3.90625-14.144531 0s-3.90625 10.238281 0 14.144531l35.355469 35.355469-35.355469 35.351562c-3.90625 3.90625-3.90625 10.238282 0 14.144532s10.238281 3.90625 14.144531 0l35.351562-35.355469 35.355469 35.355469c3.90625 3.90625 10.238281 3.90625 14.144531 0s3.90625-10.238282 0-14.144532zm0 0" fill="url(#c)"/></svg>